{
  "header": {
    "keySignatures": [
      {
        "key": "C",
        "scale": "major",
        "ticks": 0
      },
      {
        "key": "C",
        "scale": "major",
        "ticks": 0
      },
      {
        "key": "C",
        "scale": "major",
        "ticks": 0
      },
      {
        "key": "C",
        "scale": "major",
        "ticks": 0
      }
    ],
    "meta": [],
    "name": "",
    "ppq": 480,
    "tempos": [
      {
        "bpm": 115.00024916720653,
        "ticks": 0
      }
    ],
    "timeSignatures": [
      {
        "ticks": 0,
        "timeSignature": [
          4,
          4
        ],
        "measures": 0
      }
    ]
  },
  "tracks": [
    {
      "channel": 0,
      "controlChanges": {
        "7": [
          {
            "number": 7,
            "ticks": 0,
            "time": 0,
            "value": 0.7874015748031497
          }
        ],
        "10": [
          {
            "number": 10,
            "ticks": 0,
            "time": 0,
            "value": 0.5039370078740157
          }
        ],
        "91": [
          {
            "number": 91,
            "ticks": 0,
            "time": 0,
            "value": 0
          }
        ],
        "93": [
          {
            "number": 93,
            "ticks": 0,
            "time": 0,
            "value": 0
          }
        ],
        "121": [
          {
            "number": 121,
            "ticks": 0,
            "time": 0,
            "value": 0
          }
        ]
      },
      "pitchBends": [],
      "instrument": {
        "family": "piano",
        "name": "acoustic grand piano",
        "number": 0
      },
      "name": "",
      "notes": [
        {
          "duration": 0.1293475458333333,
          "durationTicks": 119,
          "midi": 74,
          "name": "D5",
          "ticks": 840,
          "time": 0.9130415000000001,
          "velocity": 0.6299212598425197
        },
        {
          "duration": 0.1293475458333333,
          "durationTicks": 119,
          "midi": 71,
          "name": "B4",
          "ticks": 1080,
          "time": 1.1739105,
          "velocity": 0.6299212598425197
        },
        {
          "duration": 0.12282582083333327,
          "durationTicks": 113,
          "midi": 65,
          "name": "F4",
          "ticks": 1320,
          "time": 1.4347795,
          "velocity": 0.6299212598425197
        },
        {
          "duration": 0.12282582083333327,
          "durationTicks": 113,
          "midi": 64,
          "name": "E4",
          "ticks": 1440,
          "time": 1.565214,
          "velocity": 0.6299212598425197
        },
        {
          "duration": 0.12282582083333327,
          "durationTicks": 113,
          "midi": 62,
          "name": "D4",
          "ticks": 1560,
          "time": 1.6956485000000001,
          "velocity": 0.6299212598425197
        },
        {
          "duration": 0.12282582083333327,
          "durationTicks": 113,
          "midi": 59,
          "name": "B3",
          "ticks": 1680,
          "time": 1.8260830000000001,
          "velocity": 0.6299212598425197
        },
        {
          "duration": 0.1293475458333333,
          "durationTicks": 119,
          "midi": 62,
          "name": "D4",
          "ticks": 1920,
          "time": 2.086952,
          "velocity": 0.6299212598425197
        },
        {
          "duration": 0.1293475458333333,
          "durationTicks": 119,
          "midi": 59,
          "name": "B3",
          "ticks": 2160,
          "time": 2.347821,
          "velocity": 0.6299212598425197
        },
        {
          "duration": 0.1293475458333333,
          "durationTicks": 119,
          "midi": 62,
          "name": "D4",
          "ticks": 2160,
          "time": 2.347821,
          "velocity": 0.6299212598425197
        },
        {
          "duration": 0.24673859583333302,
          "durationTicks": 227,
          "midi": 62,
          "name": "D4",
          "ticks": 2400,
          "time": 2.60869,
          "velocity": 0.6299212598425197
        },
        {
          "duration": 0.24673859583333302,
          "durationTicks": 227,
          "midi": 62,
          "name": "D4",
          "ticks": 2760,
          "time": 2.9999935000000004,
          "velocity": 0.6299212598425197
        },
        {
          "duration": 0.12282582083333349,
          "durationTicks": 113,
          "midi": 59,
          "name": "B3",
          "ticks": 3000,
          "time": 3.2608625,
          "velocity": 0.6299212598425197
        },
        {
          "duration": 0.12282582083333349,
          "durationTicks": 113,
          "midi": 62,
          "name": "D4",
          "ticks": 3120,
          "time": 3.3912970000000002,
          "velocity": 0.6299212598425197
        },
        {
          "duration": 0.24673859583333302,
          "durationTicks": 227,
          "midi": 65,
          "name": "F4",
          "ticks": 3240,
          "time": 3.5217315000000005,
          "velocity": 0.6299212598425197
        },
        {
          "duration": 0.12282582083333349,
          "durationTicks": 113,
          "midi": 64,
          "name": "E4",
          "ticks": 3480,
          "time": 3.7826005,
          "velocity": 0.6299212598425197
        },
        {
          "duration": 0.12282582083333304,
          "durationTicks": 113,
          "midi": 62,
          "name": "D4",
          "ticks": 3600,
          "time": 3.9130350000000003,
          "velocity": 0.6299212598425197
        },
        {
          "duration": 0.12282582083333349,
          "durationTicks": 113,
          "midi": 59,
          "name": "B3",
          "ticks": 3720,
          "time": 4.0434695000000005,
          "velocity": 0.6299212598425197
        },
        {
          "duration": 0.24673859583333346,
          "durationTicks": 227,
          "midi": 62,
          "name": "D4",
          "ticks": 3840,
          "time": 4.173904,
          "velocity": 0.6299212598425197
        },
        {
          "duration": 0.24673859583333346,
          "durationTicks": 227,
          "midi": 59,
          "name": "B3",
          "ticks": 4080,
          "time": 4.434773,
          "velocity": 0.6299212598425197
        },
        {
          "duration": 0.12282582083333349,
          "durationTicks": 113,
          "midi": 57,
          "name": "A3",
          "ticks": 4320,
          "time": 4.695642,
          "velocity": 0.6299212598425197
        },
        {
          "duration": 0.12282582083333438,
          "durationTicks": 113,
          "midi": 59,
          "name": "B3",
          "ticks": 4440,
          "time": 4.8260765,
          "velocity": 0.6299212598425197
        },
        {
          "duration": 0.12282582083333438,
          "durationTicks": 113,
          "midi": 65,
          "name": "F4",
          "ticks": 6000,
          "time": 6.521725,
          "velocity": 0.6299212598425197
        },
        {
          "duration": 0.12282582083333349,
          "durationTicks": 113,
          "midi": 62,
          "name": "D4",
          "ticks": 6120,
          "time": 6.652159500000001,
          "velocity": 0.6299212598425197
        },
        {
          "duration": 0.12282582083333349,
          "durationTicks": 113,
          "midi": 64,
          "name": "E4",
          "ticks": 6240,
          "time": 6.7825940000000005,
          "velocity": 0.6299212598425197
        },
        {
          "duration": 0.12282582083333438,
          "durationTicks": 113,
          "midi": 62,
          "name": "D4",
          "ticks": 6360,
          "time": 6.9130285,
          "velocity": 0.6299212598425197
        },
        {
          "duration": 0.12282582083333349,
          "durationTicks": 113,
          "midi": 59,
          "name": "B3",
          "ticks": 6480,
          "time": 7.043463000000001,
          "velocity": 0.6299212598425197
        },
        {
          "duration": 0.37065137083333344,
          "durationTicks": 341,
          "midi": 65,
          "name": "F4",
          "ticks": 6600,
          "time": 7.173897500000001,
          "velocity": 0.6299212598425197
        },
        {
          "duration": 0.12282582083333438,
          "durationTicks": 113,
          "midi": 64,
          "name": "E4",
          "ticks": 6960,
          "time": 7.565201,
          "velocity": 0.6299212598425197
        },
        {
          "duration": 0.12282582083333349,
          "durationTicks": 113,
          "midi": 62,
          "name": "D4",
          "ticks": 7080,
          "time": 7.695635500000001,
          "velocity": 0.6299212598425197
        },
        {
          "duration": 0.12282582083333349,
          "durationTicks": 113,
          "midi": 59,
          "name": "B3",
          "ticks": 7200,
          "time": 7.8260700000000005,
          "velocity": 0.6299212598425197
        },
        {
          "duration": 0.1228258208333326,
          "durationTicks": 113,
          "midi": 62,
          "name": "D4",
          "ticks": 7440,
          "time": 8.086939000000001,
          "velocity": 0.6299212598425197
        },
        {
          "duration": 0.12282582083333438,
          "durationTicks": 113,
          "midi": 62,
          "name": "D4",
          "ticks": 7560,
          "time": 8.2173735,
          "velocity": 0.6299212598425197
        },
        {
          "duration": 0.1228258208333326,
          "durationTicks": 113,
          "midi": 62,
          "name": "D4",
          "ticks": 7680,
          "time": 8.347808,
          "velocity": 0.6299212598425197
        },
        {
          "duration": 0.1228258208333326,
          "durationTicks": 113,
          "midi": 62,
          "name": "D4",
          "ticks": 7800,
          "time": 8.4782425,
          "velocity": 0.6299212598425197
        },
        {
          "duration": 0.1293475458333333,
          "durationTicks": 119,
          "midi": 59,
          "name": "B3",
          "ticks": 7920,
          "time": 8.608677,
          "velocity": 0.6299212598425197
        },
        {
          "duration": 0.1293475458333333,
          "durationTicks": 119,
          "midi": 57,
          "name": "A3",
          "ticks": 8160,
          "time": 8.869546,
          "velocity": 0.6299212598425197
        },
        {
          "duration": 0.12934754583333152,
          "durationTicks": 119,
          "midi": 59,
          "name": "B3",
          "ticks": 8400,
          "time": 9.130415000000001,
          "velocity": 0.6299212598425197
        },
        {
          "duration": 0.1228258208333326,
          "durationTicks": 113,
          "midi": 62,
          "name": "D4",
          "ticks": 8640,
          "time": 9.391284,
          "velocity": 0.6299212598425197
        },
        {
          "duration": 0.1228258208333326,
          "durationTicks": 113,
          "midi": 64,
          "name": "E4",
          "ticks": 8760,
          "time": 9.5217185,
          "velocity": 0.6299212598425197
        },
        {
          "duration": 0.12934754583333685,
          "durationTicks": 119,
          "midi": 74,
          "name": "D5",
          "ticks": 16200,
          "time": 17.6086575,
          "velocity": 0.6299212598425197
        },
        {
          "duration": 0.1293475458333333,
          "durationTicks": 119,
          "midi": 71,
          "name": "B4",
          "ticks": 16440,
          "time": 17.869526500000003,
          "velocity": 0.6299212598425197
        },
        {
          "duration": 0.12282582083333082,
          "durationTicks": 113,
          "midi": 65,
          "name": "F4",
          "ticks": 16680,
          "time": 18.130395500000002,
          "velocity": 0.6299212598425197
        },
        {
          "duration": 0.12282582083333082,
          "durationTicks": 113,
          "midi": 64,
          "name": "E4",
          "ticks": 16800,
          "time": 18.260830000000002,
          "velocity": 0.6299212598425197
        },
        {
          "duration": 0.12282582083333082,
          "durationTicks": 113,
          "midi": 62,
          "name": "D4",
          "ticks": 16920,
          "time": 18.391264500000002,
          "velocity": 0.6299212598425197
        },
        {
          "duration": 0.12282582083333082,
          "durationTicks": 113,
          "midi": 59,
          "name": "B3",
          "ticks": 17040,
          "time": 18.521699,
          "velocity": 0.6299212598425197
        },
        {
          "duration": 0.1293475458333333,
          "durationTicks": 119,
          "midi": 62,
          "name": "D4",
          "ticks": 17280,
          "time": 18.782568,
          "velocity": 0.6299212598425197
        },
        {
          "duration": 0.1293475458333333,
          "durationTicks": 119,
          "midi": 59,
          "name": "B3",
          "ticks": 17520,
          "time": 19.043437,
          "velocity": 0.6299212598425197
        },
        {
          "duration": 0.1293475458333333,
          "durationTicks": 119,
          "midi": 62,
          "name": "D4",
          "ticks": 17520,
          "time": 19.043437,
          "velocity": 0.6299212598425197
        },
        {
          "duration": 0.24673859583333524,
          "durationTicks": 227,
          "midi": 62,
          "name": "D4",
          "ticks": 17760,
          "time": 19.304306,
          "velocity": 0.6299212598425197
        },
        {
          "duration": 0.24673859583333524,
          "durationTicks": 227,
          "midi": 62,
          "name": "D4",
          "ticks": 18120,
          "time": 19.6956095,
          "velocity": 0.6299212598425197
        },
        {
          "duration": 0.12282582083333082,
          "durationTicks": 113,
          "midi": 59,
          "name": "B3",
          "ticks": 18360,
          "time": 19.956478500000003,
          "velocity": 0.6299212598425197
        },
        {
          "duration": 0.12282582083333082,
          "durationTicks": 113,
          "midi": 62,
          "name": "D4",
          "ticks": 18480,
          "time": 20.086913000000003,
          "velocity": 0.6299212598425197
        },
        {
          "duration": 0.24673859583333524,
          "durationTicks": 227,
          "midi": 65,
          "name": "F4",
          "ticks": 18600,
          "time": 20.217347500000002,
          "velocity": 0.6299212598425197
        },
        {
          "duration": 0.12282582083333082,
          "durationTicks": 113,
          "midi": 64,
          "name": "E4",
          "ticks": 18840,
          "time": 20.478216500000002,
          "velocity": 0.6299212598425197
        },
        {
          "duration": 0.12282582083333082,
          "durationTicks": 113,
          "midi": 62,
          "name": "D4",
          "ticks": 18960,
          "time": 20.608651000000002,
          "velocity": 0.6299212598425197
        },
        {
          "duration": 0.12282582083333438,
          "durationTicks": 113,
          "midi": 59,
          "name": "B3",
          "ticks": 19080,
          "time": 20.7390855,
          "velocity": 0.6299212598425197
        },
        {
          "duration": 0.24673859583333524,
          "durationTicks": 227,
          "midi": 62,
          "name": "D4",
          "ticks": 19200,
          "time": 20.86952,
          "velocity": 0.6299212598425197
        },
        {
          "duration": 0.24673859583333524,
          "durationTicks": 227,
          "midi": 59,
          "name": "B3",
          "ticks": 19440,
          "time": 21.130389,
          "velocity": 0.6299212598425197
        },
        {
          "duration": 0.12282582083333438,
          "durationTicks": 113,
          "midi": 57,
          "name": "A3",
          "ticks": 19680,
          "time": 21.391258,
          "velocity": 0.6299212598425197
        },
        {
          "duration": 0.12282582083333438,
          "durationTicks": 113,
          "midi": 59,
          "name": "B3",
          "ticks": 19800,
          "time": 21.5216925,
          "velocity": 0.6299212598425197
        },
        {
          "duration": 0.12282582083333438,
          "durationTicks": 113,
          "midi": 59,
          "name": "B3",
          "ticks": 23280,
          "time": 25.304293,
          "velocity": 0.6299212598425197
        },
        {
          "duration": 0.12282582083333438,
          "durationTicks": 113,
          "midi": 62,
          "name": "D4",
          "ticks": 23400,
          "time": 25.4347275,
          "velocity": 0.6299212598425197
        },
        {
          "duration": 0.12934754583333685,
          "durationTicks": 119,
          "midi": 64,
          "name": "E4",
          "ticks": 23520,
          "time": 25.565162,
          "velocity": 0.6299212598425197
        },
        {
          "duration": 0.12934754583333685,
          "durationTicks": 119,
          "midi": 65,
          "name": "F4",
          "ticks": 23760,
          "time": 25.826031,
          "velocity": 0.6299212598425197
        },
        {
          "duration": 0.12934754583333685,
          "durationTicks": 119,
          "midi": 69,
          "name": "A4",
          "ticks": 24000,
          "time": 26.0869,
          "velocity": 0.6299212598425197
        },
        {
          "duration": 0.1293475458333333,
          "durationTicks": 119,
          "midi": 71,
          "name": "B4",
          "ticks": 24240,
          "time": 26.347769000000003,
          "velocity": 0.6299212598425197
        },
        {
          "duration": 0.1293475458333333,
          "durationTicks": 119,
          "midi": 74,
          "name": "D5",
          "ticks": 24480,
          "time": 26.608638000000003,
          "velocity": 0.6299212598425197
        },
        {
          "duration": 0.1293475458333333,
          "durationTicks": 119,
          "midi": 76,
          "name": "E5",
          "ticks": 24720,
          "time": 26.869507000000002,
          "velocity": 0.6299212598425197
        },
        {
          "duration": 0.4945641458333334,
          "durationTicks": 455,
          "midi": 59,
          "name": "B3",
          "ticks": 24960,
          "time": 27.130376000000002,
          "velocity": 0.6299212598425197
        },
        {
          "duration": 0.24673859583333524,
          "durationTicks": 227,
          "midi": 76,
          "name": "E5",
          "ticks": 25440,
          "time": 27.652114,
          "velocity": 0.6299212598425197
        },
        {
          "duration": 0.24673859583333524,
          "durationTicks": 227,
          "midi": 74,
          "name": "D5",
          "ticks": 25680,
          "time": 27.912983,
          "velocity": 0.6299212598425197
        },
        {
          "duration": 0.12282582083333082,
          "durationTicks": 113,
          "midi": 71,
          "name": "B4",
          "ticks": 25920,
          "time": 28.173852000000004,
          "velocity": 0.6299212598425197
        },
        {
          "duration": 0.24673859583333524,
          "durationTicks": 227,
          "midi": 69,
          "name": "A4",
          "ticks": 26040,
          "time": 28.304286500000003,
          "velocity": 0.6299212598425197
        },
        {
          "duration": 0.24673859583333524,
          "durationTicks": 227,
          "midi": 71,
          "name": "B4",
          "ticks": 26280,
          "time": 28.565155500000003,
          "velocity": 0.6299212598425197
        },
        {
          "duration": 0.12282582083333438,
          "durationTicks": 113,
          "midi": 65,
          "name": "F4",
          "ticks": 30720,
          "time": 33.391232,
          "velocity": 0.7559055118110236
        },
        {
          "duration": 0.12282582083333438,
          "durationTicks": 113,
          "midi": 66,
          "name": "F#4",
          "ticks": 30840,
          "time": 33.5216665,
          "velocity": 0.7559055118110236
        },
        {
          "duration": 0.12282582083333438,
          "durationTicks": 113,
          "midi": 71,
          "name": "B4",
          "ticks": 30960,
          "time": 33.652101,
          "velocity": 0.7559055118110236
        },
        {
          "duration": 0.24673859583333524,
          "durationTicks": 227,
          "midi": 66,
          "name": "F#4",
          "ticks": 31080,
          "time": 33.7825355,
          "velocity": 0.7559055118110236
        },
        {
          "duration": 0.12282582083333438,
          "durationTicks": 113,
          "midi": 65,
          "name": "F4",
          "ticks": 31320,
          "time": 34.0434045,
          "velocity": 0.7559055118110236
        },
        {
          "duration": 0.12282582083333438,
          "durationTicks": 113,
          "midi": 66,
          "name": "F#4",
          "ticks": 31440,
          "time": 34.173839,
          "velocity": 0.7559055118110236
        },
        {
          "duration": 0.12282582083333438,
          "durationTicks": 113,
          "midi": 71,
          "name": "B4",
          "ticks": 31560,
          "time": 34.3042735,
          "velocity": 0.7559055118110236
        },
        {
          "duration": 0.24673859583333524,
          "durationTicks": 227,
          "midi": 66,
          "name": "F#4",
          "ticks": 31680,
          "time": 34.434708,
          "velocity": 0.7559055118110236
        },
        {
          "duration": 0.24673859583333524,
          "durationTicks": 227,
          "midi": 66,
          "name": "F#4",
          "ticks": 32160,
          "time": 34.956446,
          "velocity": 0.7559055118110236
        },
        {
          "duration": 0.24673859583333524,
          "durationTicks": 227,
          "midi": 64,
          "name": "E4",
          "ticks": 32400,
          "time": 35.217315,
          "velocity": 0.7559055118110236
        },
        {
          "duration": 0.12282582083333438,
          "durationTicks": 113,
          "midi": 65,
          "name": "F4",
          "ticks": 32640,
          "time": 35.478184,
          "velocity": 0.7559055118110236
        },
        {
          "duration": 0.12282582083332727,
          "durationTicks": 113,
          "midi": 66,
          "name": "F#4",
          "ticks": 32760,
          "time": 35.608618500000006,
          "velocity": 0.7559055118110236
        },
        {
          "duration": 0.12282582083332727,
          "durationTicks": 113,
          "midi": 71,
          "name": "B4",
          "ticks": 32880,
          "time": 35.739053000000006,
          "velocity": 0.7559055118110236
        },
        {
          "duration": 0.24673859583332813,
          "durationTicks": 227,
          "midi": 66,
          "name": "F#4",
          "ticks": 33000,
          "time": 35.869487500000005,
          "velocity": 0.7559055118110236
        },
        {
          "duration": 0.12282582083332727,
          "durationTicks": 113,
          "midi": 65,
          "name": "F4",
          "ticks": 33240,
          "time": 36.130356500000005,
          "velocity": 0.7559055118110236
        },
        {
          "duration": 0.12282582083332727,
          "durationTicks": 113,
          "midi": 66,
          "name": "F#4",
          "ticks": 33360,
          "time": 36.260791000000005,
          "velocity": 0.7559055118110236
        },
        {
          "duration": 0.12282582083333438,
          "durationTicks": 113,
          "midi": 71,
          "name": "B4",
          "ticks": 33480,
          "time": 36.391225500000004,
          "velocity": 0.7559055118110236
        },
        {
          "duration": 0.24673859583332813,
          "durationTicks": 227,
          "midi": 66,
          "name": "F#4",
          "ticks": 33600,
          "time": 36.521660000000004,
          "velocity": 0.7559055118110236
        },
        {
          "duration": 0.24673859583332813,
          "durationTicks": 227,
          "midi": 66,
          "name": "F#4",
          "ticks": 34080,
          "time": 37.043398,
          "velocity": 0.7559055118110236
        },
        {
          "duration": 0.24673859583332813,
          "durationTicks": 227,
          "midi": 64,
          "name": "E4",
          "ticks": 34320,
          "time": 37.304267,
          "velocity": 0.7559055118110236
        },
        {
          "duration": 0.12282582083333438,
          "durationTicks": 113,
          "midi": 65,
          "name": "F4",
          "ticks": 34560,
          "time": 37.565136,
          "velocity": 0.7559055118110236
        },
        {
          "duration": 0.12282582083333438,
          "durationTicks": 113,
          "midi": 66,
          "name": "F#4",
          "ticks": 34680,
          "time": 37.6955705,
          "velocity": 0.7559055118110236
        },
        {
          "duration": 0.12282582083333438,
          "durationTicks": 113,
          "midi": 71,
          "name": "B4",
          "ticks": 34800,
          "time": 37.826005,
          "velocity": 0.7559055118110236
        },
        {
          "duration": 0.24673859583333524,
          "durationTicks": 227,
          "midi": 66,
          "name": "F#4",
          "ticks": 34920,
          "time": 37.9564395,
          "velocity": 0.7559055118110236
        },
        {
          "duration": 0.12282582083333438,
          "durationTicks": 113,
          "midi": 65,
          "name": "F4",
          "ticks": 35160,
          "time": 38.2173085,
          "velocity": 0.7559055118110236
        },
        {
          "duration": 0.12282582083333438,
          "durationTicks": 113,
          "midi": 66,
          "name": "F#4",
          "ticks": 35280,
          "time": 38.347743,
          "velocity": 0.7559055118110236
        },
        {
          "duration": 0.12282582083333438,
          "durationTicks": 113,
          "midi": 71,
          "name": "B4",
          "ticks": 35400,
          "time": 38.4781775,
          "velocity": 0.7559055118110236
        },
        {
          "duration": 0.24673859583333524,
          "durationTicks": 227,
          "midi": 66,
          "name": "F#4",
          "ticks": 35520,
          "time": 38.608612,
          "velocity": 0.7559055118110236
        },
        {
          "duration": 0.24673859583333524,
          "durationTicks": 227,
          "midi": 66,
          "name": "F#4",
          "ticks": 36000,
          "time": 39.13035,
          "velocity": 0.7559055118110236
        },
        {
          "duration": 0.24673859583333524,
          "durationTicks": 227,
          "midi": 64,
          "name": "E4",
          "ticks": 36240,
          "time": 39.391219,
          "velocity": 0.7559055118110236
        },
        {
          "duration": 0.12282582083332727,
          "durationTicks": 113,
          "midi": 65,
          "name": "F4",
          "ticks": 36480,
          "time": 39.652088000000006,
          "velocity": 0.7559055118110236
        },
        {
          "duration": 0.12282582083332727,
          "durationTicks": 113,
          "midi": 66,
          "name": "F#4",
          "ticks": 36600,
          "time": 39.782522500000006,
          "velocity": 0.7559055118110236
        },
        {
          "duration": 0.12282582083332727,
          "durationTicks": 113,
          "midi": 71,
          "name": "B4",
          "ticks": 36720,
          "time": 39.912957000000006,
          "velocity": 0.7559055118110236
        },
        {
          "duration": 0.24673859583332813,
          "durationTicks": 227,
          "midi": 66,
          "name": "F#4",
          "ticks": 36840,
          "time": 40.043391500000006,
          "velocity": 0.7559055118110236
        },
        {
          "duration": 0.12282582083332727,
          "durationTicks": 113,
          "midi": 65,
          "name": "F4",
          "ticks": 37080,
          "time": 40.304260500000005,
          "velocity": 0.7559055118110236
        },
        {
          "duration": 0.12282582083332727,
          "durationTicks": 113,
          "midi": 66,
          "name": "F#4",
          "ticks": 37200,
          "time": 40.434695000000005,
          "velocity": 0.7559055118110236
        },
        {
          "duration": 0.12282582083333438,
          "durationTicks": 113,
          "midi": 71,
          "name": "B4",
          "ticks": 37320,
          "time": 40.565129500000005,
          "velocity": 0.7559055118110236
        },
        {
          "duration": 0.24673859583332813,
          "durationTicks": 227,
          "midi": 66,
          "name": "F#4",
          "ticks": 37440,
          "time": 40.695564000000005,
          "velocity": 0.7559055118110236
        },
        {
          "duration": 0.24673859583332813,
          "durationTicks": 227,
          "midi": 66,
          "name": "F#4",
          "ticks": 37920,
          "time": 41.217302000000004,
          "velocity": 0.7559055118110236
        },
        {
          "duration": 0,
          "durationTicks": 0,
          "midi": 64,
          "name": "E4",
          "ticks": 38160,
          "time": 41.478171,
          "velocity": 0.7559055118110236
        },
        {
          "duration": 0.12282582083333438,
          "durationTicks": 113,
          "midi": 65,
          "name": "F4",
          "ticks": 38400,
          "time": 41.73904,
          "velocity": 0.7559055118110236
        },
        {
          "duration": 0.12282582083333438,
          "durationTicks": 113,
          "midi": 66,
          "name": "F#4",
          "ticks": 38520,
          "time": 41.8694745,
          "velocity": 0.7559055118110236
        },
        {
          "duration": 0.12282582083333438,
          "durationTicks": 113,
          "midi": 71,
          "name": "B4",
          "ticks": 38640,
          "time": 41.999909,
          "velocity": 0.7559055118110236
        },
        {
          "duration": 0.24673859583333524,
          "durationTicks": 227,
          "midi": 66,
          "name": "F#4",
          "ticks": 38760,
          "time": 42.1303435,
          "velocity": 0.7559055118110236
        },
        {
          "duration": 0.12282582083333438,
          "durationTicks": 113,
          "midi": 65,
          "name": "F4",
          "ticks": 39000,
          "time": 42.3912125,
          "velocity": 0.7559055118110236
        },
        {
          "duration": 0.12282582083333438,
          "durationTicks": 113,
          "midi": 66,
          "name": "F#4",
          "ticks": 39120,
          "time": 42.521647,
          "velocity": 0.7559055118110236
        },
        {
          "duration": 0.12282582083333438,
          "durationTicks": 113,
          "midi": 71,
          "name": "B4",
          "ticks": 39240,
          "time": 42.6520815,
          "velocity": 0.7559055118110236
        },
        {
          "duration": 0.24673859583333524,
          "durationTicks": 227,
          "midi": 66,
          "name": "F#4",
          "ticks": 39360,
          "time": 42.782516,
          "velocity": 0.7559055118110236
        },
        {
          "duration": 0.24673859583333524,
          "durationTicks": 227,
          "midi": 66,
          "name": "F#4",
          "ticks": 39840,
          "time": 43.304254,
          "velocity": 0.7559055118110236
        },
        {
          "duration": 1.2510842458333329,
          "durationTicks": 1151,
          "midi": 64,
          "name": "E4",
          "ticks": 40080,
          "time": 43.565123,
          "velocity": 0.7559055118110236
        },
        {
          "duration": 0.12282582083333438,
          "durationTicks": 113,
          "midi": 65,
          "name": "F4",
          "ticks": 40320,
          "time": 43.825992,
          "velocity": 0.7559055118110236
        },
        {
          "duration": 0.12282582083332727,
          "durationTicks": 113,
          "midi": 66,
          "name": "F#4",
          "ticks": 40440,
          "time": 43.956426500000006,
          "velocity": 0.7559055118110236
        },
        {
          "duration": 0.12282582083332727,
          "durationTicks": 113,
          "midi": 71,
          "name": "B4",
          "ticks": 40560,
          "time": 44.086861000000006,
          "velocity": 0.7559055118110236
        },
        {
          "duration": 0.24673859583332813,
          "durationTicks": 227,
          "midi": 66,
          "name": "F#4",
          "ticks": 40680,
          "time": 44.217295500000006,
          "velocity": 0.7559055118110236
        },
        {
          "duration": 0.12282582083332727,
          "durationTicks": 113,
          "midi": 65,
          "name": "F4",
          "ticks": 40920,
          "time": 44.478164500000005,
          "velocity": 0.7559055118110236
        },
        {
          "duration": 0.12282582083332727,
          "durationTicks": 113,
          "midi": 66,
          "name": "F#4",
          "ticks": 41040,
          "time": 44.608599000000005,
          "velocity": 0.7559055118110236
        },
        {
          "duration": 0.12282582083333438,
          "durationTicks": 113,
          "midi": 71,
          "name": "B4",
          "ticks": 41160,
          "time": 44.739033500000005,
          "velocity": 0.7559055118110236
        },
        {
          "duration": 0.24673859583332813,
          "durationTicks": 227,
          "midi": 66,
          "name": "F#4",
          "ticks": 41280,
          "time": 44.869468000000005,
          "velocity": 0.7559055118110236
        },
        {
          "duration": 0.24673859583332813,
          "durationTicks": 227,
          "midi": 66,
          "name": "F#4",
          "ticks": 41760,
          "time": 45.391206000000004,
          "velocity": 0.7559055118110236
        },
        {
          "duration": 0.24673859583332813,
          "durationTicks": 227,
          "midi": 64,
          "name": "E4",
          "ticks": 42000,
          "time": 45.652075,
          "velocity": 0.7559055118110236
        },
        {
          "duration": 0.12282582083333438,
          "durationTicks": 113,
          "midi": 65,
          "name": "F4",
          "ticks": 42240,
          "time": 45.912944,
          "velocity": 0.7559055118110236
        },
        {
          "duration": 0.12282582083333438,
          "durationTicks": 113,
          "midi": 66,
          "name": "F#4",
          "ticks": 42360,
          "time": 46.0433785,
          "velocity": 0.7559055118110236
        },
        {
          "duration": 0.12282582083333438,
          "durationTicks": 113,
          "midi": 71,
          "name": "B4",
          "ticks": 42480,
          "time": 46.173813,
          "velocity": 0.7559055118110236
        },
        {
          "duration": 0.24673859583333524,
          "durationTicks": 227,
          "midi": 66,
          "name": "F#4",
          "ticks": 42600,
          "time": 46.3042475,
          "velocity": 0.7559055118110236
        },
        {
          "duration": 0.12282582083333438,
          "durationTicks": 113,
          "midi": 65,
          "name": "F4",
          "ticks": 42840,
          "time": 46.5651165,
          "velocity": 0.7559055118110236
        },
        {
          "duration": 0.12282582083333438,
          "durationTicks": 113,
          "midi": 66,
          "name": "F#4",
          "ticks": 42960,
          "time": 46.695551,
          "velocity": 0.7559055118110236
        },
        {
          "duration": 0.12282582083333438,
          "durationTicks": 113,
          "midi": 71,
          "name": "B4",
          "ticks": 43080,
          "time": 46.8259855,
          "velocity": 0.7559055118110236
        },
        {
          "duration": 0.24673859583333524,
          "durationTicks": 227,
          "midi": 66,
          "name": "F#4",
          "ticks": 43200,
          "time": 46.95642,
          "velocity": 0.7559055118110236
        },
        {
          "duration": 0.24673859583333524,
          "durationTicks": 227,
          "midi": 66,
          "name": "F#4",
          "ticks": 43680,
          "time": 47.478158,
          "velocity": 0.7559055118110236
        },
        {
          "duration": 0.24673859583333524,
          "durationTicks": 227,
          "midi": 64,
          "name": "E4",
          "ticks": 43920,
          "time": 47.739027,
          "velocity": 0.7559055118110236
        },
        {
          "duration": 0.12282582083332727,
          "durationTicks": 113,
          "midi": 65,
          "name": "F4",
          "ticks": 44160,
          "time": 47.99989600000001,
          "velocity": 0.7559055118110236
        },
        {
          "duration": 0.12282582083332727,
          "durationTicks": 113,
          "midi": 66,
          "name": "F#4",
          "ticks": 44280,
          "time": 48.13033050000001,
          "velocity": 0.7559055118110236
        },
        {
          "duration": 0.12282582083332727,
          "durationTicks": 113,
          "midi": 71,
          "name": "B4",
          "ticks": 44400,
          "time": 48.260765000000006,
          "velocity": 0.7559055118110236
        },
        {
          "duration": 0.24673859583332813,
          "durationTicks": 227,
          "midi": 66,
          "name": "F#4",
          "ticks": 44520,
          "time": 48.391199500000006,
          "velocity": 0.7559055118110236
        },
        {
          "duration": 0.12282582083332727,
          "durationTicks": 113,
          "midi": 65,
          "name": "F4",
          "ticks": 44760,
          "time": 48.652068500000006,
          "velocity": 0.7559055118110236
        },
        {
          "duration": 0.12282582083332727,
          "durationTicks": 113,
          "midi": 66,
          "name": "F#4",
          "ticks": 44880,
          "time": 48.782503000000005,
          "velocity": 0.7559055118110236
        },
        {
          "duration": 0.12282582083333438,
          "durationTicks": 113,
          "midi": 71,
          "name": "B4",
          "ticks": 45000,
          "time": 48.912937500000005,
          "velocity": 0.7559055118110236
        },
        {
          "duration": 0.24673859583332813,
          "durationTicks": 227,
          "midi": 66,
          "name": "F#4",
          "ticks": 45120,
          "time": 49.043372000000005,
          "velocity": 0.7559055118110236
        },
        {
          "duration": 0.12282582083333438,
          "durationTicks": 113,
          "midi": 65,
          "name": "F4",
          "ticks": 46080,
          "time": 50.086848,
          "velocity": 0.8818897637795275
        },
        {
          "duration": 0.12282582083333438,
          "durationTicks": 113,
          "midi": 66,
          "name": "F#4",
          "ticks": 46200,
          "time": 50.2172825,
          "velocity": 0.8818897637795275
        },
        {
          "duration": 0.12282582083333438,
          "durationTicks": 113,
          "midi": 71,
          "name": "B4",
          "ticks": 46320,
          "time": 50.347717,
          "velocity": 0.8818897637795275
        },
        {
          "duration": 0.24673859583333524,
          "durationTicks": 227,
          "midi": 66,
          "name": "F#4",
          "ticks": 46440,
          "time": 50.4781515,
          "velocity": 0.8818897637795275
        },
        {
          "duration": 0.12282582083333438,
          "durationTicks": 113,
          "midi": 65,
          "name": "F4",
          "ticks": 46680,
          "time": 50.7390205,
          "velocity": 0.8818897637795275
        },
        {
          "duration": 0.12282582083333438,
          "durationTicks": 113,
          "midi": 66,
          "name": "F#4",
          "ticks": 46800,
          "time": 50.869455,
          "velocity": 0.8818897637795275
        },
        {
          "duration": 0.12282582083333438,
          "durationTicks": 113,
          "midi": 71,
          "name": "B4",
          "ticks": 46920,
          "time": 50.9998895,
          "velocity": 0.8818897637795275
        },
        {
          "duration": 0.24673859583333524,
          "durationTicks": 227,
          "midi": 66,
          "name": "F#4",
          "ticks": 47040,
          "time": 51.130324,
          "velocity": 0.8818897637795275
        },
        {
          "duration": 0.24673859583333524,
          "durationTicks": 227,
          "midi": 66,
          "name": "F#4",
          "ticks": 47520,
          "time": 51.652062,
          "velocity": 0.8818897637795275
        },
        {
          "duration": 0.24673859583333524,
          "durationTicks": 227,
          "midi": 64,
          "name": "E4",
          "ticks": 47760,
          "time": 51.912931,
          "velocity": 0.8818897637795275
        },
        {
          "duration": 0.12282582083333438,
          "durationTicks": 113,
          "midi": 65,
          "name": "F4",
          "ticks": 48000,
          "time": 52.1738,
          "velocity": 0.8818897637795275
        },
        {
          "duration": 0.12282582083332727,
          "durationTicks": 113,
          "midi": 66,
          "name": "F#4",
          "ticks": 48120,
          "time": 52.30423450000001,
          "velocity": 0.8818897637795275
        },
        {
          "duration": 0.12282582083332727,
          "durationTicks": 113,
          "midi": 71,
          "name": "B4",
          "ticks": 48240,
          "time": 52.43466900000001,
          "velocity": 0.8818897637795275
        },
        {
          "duration": 0.24673859583332813,
          "durationTicks": 227,
          "midi": 66,
          "name": "F#4",
          "ticks": 48360,
          "time": 52.565103500000006,
          "velocity": 0.8818897637795275
        },
        {
          "duration": 0.12282582083332727,
          "durationTicks": 113,
          "midi": 65,
          "name": "F4",
          "ticks": 48600,
          "time": 52.825972500000006,
          "velocity": 0.8818897637795275
        },
        {
          "duration": 0.12282582083332727,
          "durationTicks": 113,
          "midi": 66,
          "name": "F#4",
          "ticks": 48720,
          "time": 52.956407000000006,
          "velocity": 0.8818897637795275
        },
        {
          "duration": 0.12282582083333438,
          "durationTicks": 113,
          "midi": 71,
          "name": "B4",
          "ticks": 48840,
          "time": 53.086841500000006,
          "velocity": 0.8818897637795275
        },
        {
          "duration": 0.24673859583332813,
          "durationTicks": 227,
          "midi": 66,
          "name": "F#4",
          "ticks": 48960,
          "time": 53.217276000000005,
          "velocity": 0.8818897637795275
        },
        {
          "duration": 0.24673859583332813,
          "durationTicks": 227,
          "midi": 66,
          "name": "F#4",
          "ticks": 49440,
          "time": 53.739014000000005,
          "velocity": 0.8818897637795275
        },
        {
          "duration": 0.24673859583332813,
          "durationTicks": 227,
          "midi": 64,
          "name": "E4",
          "ticks": 49680,
          "time": 53.999883000000004,
          "velocity": 0.8818897637795275
        },
        {
          "duration": 0.12282582083333438,
          "durationTicks": 113,
          "midi": 65,
          "name": "F4",
          "ticks": 49920,
          "time": 54.260752000000004,
          "velocity": 0.8818897637795275
        },
        {
          "duration": 0.12282582083333438,
          "durationTicks": 113,
          "midi": 66,
          "name": "F#4",
          "ticks": 50040,
          "time": 54.3911865,
          "velocity": 0.8818897637795275
        },
        {
          "duration": 0.12282582083333438,
          "durationTicks": 113,
          "midi": 71,
          "name": "B4",
          "ticks": 50160,
          "time": 54.521621,
          "velocity": 0.8818897637795275
        },
        {
          "duration": 0.24673859583333524,
          "durationTicks": 227,
          "midi": 66,
          "name": "F#4",
          "ticks": 50280,
          "time": 54.6520555,
          "velocity": 0.8818897637795275
        },
        {
          "duration": 0.12282582083333438,
          "durationTicks": 113,
          "midi": 65,
          "name": "F4",
          "ticks": 50520,
          "time": 54.9129245,
          "velocity": 0.8818897637795275
        },
        {
          "duration": 0.12282582083333438,
          "durationTicks": 113,
          "midi": 66,
          "name": "F#4",
          "ticks": 50640,
          "time": 55.043359,
          "velocity": 0.8818897637795275
        },
        {
          "duration": 0.12282582083333438,
          "durationTicks": 113,
          "midi": 71,
          "name": "B4",
          "ticks": 50760,
          "time": 55.1737935,
          "velocity": 0.8818897637795275
        },
        {
          "duration": 0.24673859583333524,
          "durationTicks": 227,
          "midi": 66,
          "name": "F#4",
          "ticks": 50880,
          "time": 55.304228,
          "velocity": 0.8818897637795275
        },
        {
          "duration": 0.24673859583333524,
          "durationTicks": 227,
          "midi": 66,
          "name": "F#4",
          "ticks": 51360,
          "time": 55.825966,
          "velocity": 0.8818897637795275
        },
        {
          "duration": 0.24673859583333524,
          "durationTicks": 227,
          "midi": 64,
          "name": "E4",
          "ticks": 51600,
          "time": 56.086835,
          "velocity": 0.8818897637795275
        },
        {
          "duration": 0.12282582083332727,
          "durationTicks": 113,
          "midi": 65,
          "name": "F4",
          "ticks": 51840,
          "time": 56.34770400000001,
          "velocity": 0.8818897637795275
        },
        {
          "duration": 0.12282582083332727,
          "durationTicks": 113,
          "midi": 66,
          "name": "F#4",
          "ticks": 51960,
          "time": 56.47813850000001,
          "velocity": 0.8818897637795275
        },
        {
          "duration": 0.12282582083332727,
          "durationTicks": 113,
          "midi": 71,
          "name": "B4",
          "ticks": 52080,
          "time": 56.60857300000001,
          "velocity": 0.8818897637795275
        },
        {
          "duration": 0.24673859583332813,
          "durationTicks": 227,
          "midi": 66,
          "name": "F#4",
          "ticks": 52200,
          "time": 56.73900750000001,
          "velocity": 0.8818897637795275
        },
        {
          "duration": 0.12282582083332727,
          "durationTicks": 113,
          "midi": 65,
          "name": "F4",
          "ticks": 52440,
          "time": 56.999876500000006,
          "velocity": 0.8818897637795275
        },
        {
          "duration": 0.12282582083332727,
          "durationTicks": 113,
          "midi": 66,
          "name": "F#4",
          "ticks": 52560,
          "time": 57.130311000000006,
          "velocity": 0.8818897637795275
        },
        {
          "duration": 0.12282582083333438,
          "durationTicks": 113,
          "midi": 71,
          "name": "B4",
          "ticks": 52680,
          "time": 57.260745500000006,
          "velocity": 0.8818897637795275
        },
        {
          "duration": 0.24673859583332813,
          "durationTicks": 227,
          "midi": 66,
          "name": "F#4",
          "ticks": 52800,
          "time": 57.391180000000006,
          "velocity": 0.8818897637795275
        },
        {
          "duration": 0.24673859583332813,
          "durationTicks": 227,
          "midi": 66,
          "name": "F#4",
          "ticks": 53280,
          "time": 57.912918000000005,
          "velocity": 0.8818897637795275
        },
        {
          "duration": 0,
          "durationTicks": 0,
          "midi": 64,
          "name": "E4",
          "ticks": 53520,
          "time": 58.173787000000004,
          "velocity": 0.8818897637795275
        },
        {
          "duration": 0.7423896958333316,
          "durationTicks": 683,
          "midi": 62,
          "name": "D4",
          "ticks": 54240,
          "time": 58.956394,
          "velocity": 0.8818897637795275
        },
        {
          "duration": 0.7423896958333316,
          "durationTicks": 683,
          "midi": 74,
          "name": "D5",
          "ticks": 54240,
          "time": 58.956394,
          "velocity": 0.8818897637795275
        },
        {
          "duration": 0.24673859583333524,
          "durationTicks": 227,
          "midi": 71,
          "name": "B4",
          "ticks": 54960,
          "time": 59.739001,
          "velocity": 0.8818897637795275
        },
        {
          "duration": 0.24673859583333524,
          "durationTicks": 227,
          "midi": 69,
          "name": "A4",
          "ticks": 55200,
          "time": 59.99987,
          "velocity": 0.8818897637795275
        },
        {
          "duration": 0.12282582083333438,
          "durationTicks": 113,
          "midi": 65,
          "name": "F4",
          "ticks": 55440,
          "time": 60.260739,
          "velocity": 0.8818897637795275
        },
        {
          "duration": 1.120649745833333,
          "durationTicks": 1031,
          "midi": 64,
          "name": "E4",
          "ticks": 55560,
          "time": 60.3911735,
          "velocity": 0.8818897637795275
        },
        {
          "duration": 0.12282582083332727,
          "durationTicks": 113,
          "midi": 62,
          "name": "D4",
          "ticks": 55800,
          "time": 60.65204250000001,
          "velocity": 0.8818897637795275
        },
        {
          "duration": 0.24673859583332813,
          "durationTicks": 227,
          "midi": 59,
          "name": "B3",
          "ticks": 55920,
          "time": 60.78247700000001,
          "velocity": 0.8818897637795275
        },
        {
          "duration": 0.24673859583332813,
          "durationTicks": 227,
          "midi": 62,
          "name": "D4",
          "ticks": 56160,
          "time": 61.04334600000001,
          "velocity": 0.8818897637795275
        },
        {
          "duration": 0.24673859583332813,
          "durationTicks": 227,
          "midi": 62,
          "name": "D4",
          "ticks": 56400,
          "time": 61.304215000000006,
          "velocity": 0.8818897637795275
        },
        {
          "duration": 0.24673859583332813,
          "durationTicks": 227,
          "midi": 59,
          "name": "B3",
          "ticks": 56640,
          "time": 61.565084000000006,
          "velocity": 0.8818897637795275
        },
        {
          "duration": 0.24673859583332813,
          "durationTicks": 227,
          "midi": 59,
          "name": "B3",
          "ticks": 57600,
          "time": 62.608560000000004,
          "velocity": 0.8818897637795275
        },
        {
          "duration": 0.24673859583333524,
          "durationTicks": 227,
          "midi": 74,
          "name": "D5",
          "ticks": 57840,
          "time": 62.869429000000004,
          "velocity": 0.8818897637795275
        },
        {
          "duration": 0.12282582083333438,
          "durationTicks": 113,
          "midi": 71,
          "name": "B4",
          "ticks": 58080,
          "time": 63.130298,
          "velocity": 0.8818897637795275
        },
        {
          "duration": 0.24673859583333524,
          "durationTicks": 227,
          "midi": 69,
          "name": "A4",
          "ticks": 58200,
          "time": 63.2607325,
          "velocity": 0.8818897637795275
        },
        {
          "duration": 0.12282582083333438,
          "durationTicks": 113,
          "midi": 65,
          "name": "F4",
          "ticks": 58440,
          "time": 63.5216015,
          "velocity": 0.8818897637795275
        },
        {
          "duration": 0.24673859583333524,
          "durationTicks": 227,
          "midi": 64,
          "name": "E4",
          "ticks": 58560,
          "time": 63.652036,
          "velocity": 0.8818897637795275
        },
        {
          "duration": 0.2608690000000067,
          "durationTicks": 240,
          "midi": 62,
          "name": "D4",
          "ticks": 58800,
          "time": 63.912905,
          "velocity": 0.8818897637795275
        },
        {
          "duration": 0.2608689999999996,
          "durationTicks": 240,
          "midi": 62,
          "name": "D4",
          "ticks": 59040,
          "time": 64.17377400000001,
          "velocity": 0.8818897637795275
        },
        {
          "duration": 1.2510842458333258,
          "durationTicks": 1151,
          "midi": 62,
          "name": "D4",
          "ticks": 59280,
          "time": 64.43464300000001,
          "velocity": 0.8818897637795275
        },
        {
          "duration": 0.12282582083334148,
          "durationTicks": 113,
          "midi": 65,
          "name": "F4",
          "ticks": 61440,
          "time": 66.782464,
          "velocity": 0.8818897637795275
        },
        {
          "duration": 0.12282582083332727,
          "durationTicks": 113,
          "midi": 66,
          "name": "F#4",
          "ticks": 61560,
          "time": 66.91289850000001,
          "velocity": 0.8818897637795275
        },
        {
          "duration": 0.12282582083334148,
          "durationTicks": 113,
          "midi": 71,
          "name": "B4",
          "ticks": 61680,
          "time": 67.043333,
          "velocity": 0.8818897637795275
        },
        {
          "duration": 0.24673859583332103,
          "durationTicks": 227,
          "midi": 66,
          "name": "F#4",
          "ticks": 61800,
          "time": 67.17376750000001,
          "velocity": 0.8818897637795275
        },
        {
          "duration": 0.12282582083332727,
          "durationTicks": 113,
          "midi": 65,
          "name": "F4",
          "ticks": 62040,
          "time": 67.43463650000001,
          "velocity": 0.8818897637795275
        },
        {
          "duration": 0.12282582083334148,
          "durationTicks": 113,
          "midi": 66,
          "name": "F#4",
          "ticks": 62160,
          "time": 67.565071,
          "velocity": 0.8818897637795275
        },
        {
          "duration": 0.12282582083334148,
          "durationTicks": 113,
          "midi": 71,
          "name": "B4",
          "ticks": 62280,
          "time": 67.69550550000001,
          "velocity": 0.8818897637795275
        },
        {
          "duration": 0.24673859583333524,
          "durationTicks": 227,
          "midi": 66,
          "name": "F#4",
          "ticks": 62400,
          "time": 67.82594,
          "velocity": 0.8818897637795275
        },
        {
          "duration": 0.24673859583333524,
          "durationTicks": 227,
          "midi": 66,
          "name": "F#4",
          "ticks": 62880,
          "time": 68.347678,
          "velocity": 0.8818897637795275
        },
        {
          "duration": 0.24673859583333524,
          "durationTicks": 227,
          "midi": 64,
          "name": "E4",
          "ticks": 63120,
          "time": 68.608547,
          "velocity": 0.8818897637795275
        },
        {
          "duration": 0.12282582083334148,
          "durationTicks": 113,
          "midi": 65,
          "name": "F4",
          "ticks": 63360,
          "time": 68.869416,
          "velocity": 0.8818897637795275
        },
        {
          "duration": 0.12282582083334148,
          "durationTicks": 113,
          "midi": 66,
          "name": "F#4",
          "ticks": 63480,
          "time": 68.99985050000001,
          "velocity": 0.8818897637795275
        },
        {
          "duration": 0.12282582083334148,
          "durationTicks": 113,
          "midi": 71,
          "name": "B4",
          "ticks": 63600,
          "time": 69.130285,
          "velocity": 0.8818897637795275
        },
        {
          "duration": 0.24673859583333524,
          "durationTicks": 227,
          "midi": 66,
          "name": "F#4",
          "ticks": 63720,
          "time": 69.26071950000001,
          "velocity": 0.8818897637795275
        },
        {
          "duration": 0.12282582083334148,
          "durationTicks": 113,
          "midi": 65,
          "name": "F4",
          "ticks": 63960,
          "time": 69.52158850000001,
          "velocity": 0.8818897637795275
        },
        {
          "duration": 0.12282582083334148,
          "durationTicks": 113,
          "midi": 66,
          "name": "F#4",
          "ticks": 64080,
          "time": 69.652023,
          "velocity": 0.8818897637795275
        },
        {
          "duration": 0.12282582083334148,
          "durationTicks": 113,
          "midi": 71,
          "name": "B4",
          "ticks": 64200,
          "time": 69.7824575,
          "velocity": 0.8818897637795275
        },
        {
          "duration": 0.24673859583333524,
          "durationTicks": 227,
          "midi": 66,
          "name": "F#4",
          "ticks": 64320,
          "time": 69.912892,
          "velocity": 0.8818897637795275
        },
        {
          "duration": 0.24673859583333524,
          "durationTicks": 227,
          "midi": 66,
          "name": "F#4",
          "ticks": 64800,
          "time": 70.43463,
          "velocity": 0.8818897637795275
        },
        {
          "duration": 0.24673859583333524,
          "durationTicks": 227,
          "midi": 64,
          "name": "E4",
          "ticks": 65040,
          "time": 70.695499,
          "velocity": 0.8818897637795275
        },
        {
          "duration": 0.12282582083334148,
          "durationTicks": 113,
          "midi": 65,
          "name": "F4",
          "ticks": 65280,
          "time": 70.956368,
          "velocity": 0.8818897637795275
        },
        {
          "duration": 0.12282582083334148,
          "durationTicks": 113,
          "midi": 66,
          "name": "F#4",
          "ticks": 65400,
          "time": 71.0868025,
          "velocity": 0.8818897637795275
        },
        {
          "duration": 0.12282582083332727,
          "durationTicks": 113,
          "midi": 71,
          "name": "B4",
          "ticks": 65520,
          "time": 71.21723700000001,
          "velocity": 0.8818897637795275
        },
        {
          "duration": 0.24673859583333524,
          "durationTicks": 227,
          "midi": 66,
          "name": "F#4",
          "ticks": 65640,
          "time": 71.3476715,
          "velocity": 0.8818897637795275
        },
        {
          "duration": 0.12282582083334148,
          "durationTicks": 113,
          "midi": 65,
          "name": "F4",
          "ticks": 65880,
          "time": 71.6085405,
          "velocity": 0.8818897637795275
        },
        {
          "duration": 0.12282582083334148,
          "durationTicks": 113,
          "midi": 66,
          "name": "F#4",
          "ticks": 66000,
          "time": 71.73897500000001,
          "velocity": 0.8818897637795275
        },
        {
          "duration": 0.12282582083334148,
          "durationTicks": 113,
          "midi": 71,
          "name": "B4",
          "ticks": 66120,
          "time": 71.8694095,
          "velocity": 0.8818897637795275
        },
        {
          "duration": 0.24673859583332103,
          "durationTicks": 227,
          "midi": 66,
          "name": "F#4",
          "ticks": 66240,
          "time": 71.99984400000001,
          "velocity": 0.8818897637795275
        },
        {
          "duration": 0.24673859583332103,
          "durationTicks": 227,
          "midi": 66,
          "name": "F#4",
          "ticks": 66720,
          "time": 72.52158200000001,
          "velocity": 0.8818897637795275
        },
        {
          "duration": 0.24673859583332103,
          "durationTicks": 227,
          "midi": 64,
          "name": "E4",
          "ticks": 66960,
          "time": 72.78245100000001,
          "velocity": 0.8818897637795275
        },
        {
          "duration": 0.12282582083334148,
          "durationTicks": 113,
          "midi": 65,
          "name": "F4",
          "ticks": 67200,
          "time": 73.04332000000001,
          "velocity": 0.8818897637795275
        },
        {
          "duration": 0.12282582083334148,
          "durationTicks": 113,
          "midi": 66,
          "name": "F#4",
          "ticks": 67320,
          "time": 73.1737545,
          "velocity": 0.8818897637795275
        },
        {
          "duration": 0.12282582083334148,
          "durationTicks": 113,
          "midi": 71,
          "name": "B4",
          "ticks": 67440,
          "time": 73.30418900000001,
          "velocity": 0.8818897637795275
        },
        {
          "duration": 0.24673859583333524,
          "durationTicks": 227,
          "midi": 66,
          "name": "F#4",
          "ticks": 67560,
          "time": 73.4346235,
          "velocity": 0.8818897637795275
        },
        {
          "duration": 0.12282582083334148,
          "durationTicks": 113,
          "midi": 65,
          "name": "F4",
          "ticks": 67800,
          "time": 73.6954925,
          "velocity": 0.8818897637795275
        },
        {
          "duration": 0.12282582083334148,
          "durationTicks": 113,
          "midi": 66,
          "name": "F#4",
          "ticks": 67920,
          "time": 73.82592700000001,
          "velocity": 0.8818897637795275
        },
        {
          "duration": 0.12282582083334148,
          "durationTicks": 113,
          "midi": 71,
          "name": "B4",
          "ticks": 68040,
          "time": 73.9563615,
          "velocity": 0.8818897637795275
        },
        {
          "duration": 0.24673859583333524,
          "durationTicks": 227,
          "midi": 66,
          "name": "F#4",
          "ticks": 68160,
          "time": 74.086796,
          "velocity": 0.8818897637795275
        },
        {
          "duration": 0.24673859583333524,
          "durationTicks": 227,
          "midi": 66,
          "name": "F#4",
          "ticks": 68640,
          "time": 74.608534,
          "velocity": 0.8818897637795275
        },
        {
          "duration": 0,
          "durationTicks": 0,
          "midi": 64,
          "name": "E4",
          "ticks": 68880,
          "time": 74.869403,
          "velocity": 0.8818897637795275
        },
        {
          "duration": 0.7423896958333387,
          "durationTicks": 683,
          "midi": 62,
          "name": "D4",
          "ticks": 69600,
          "time": 75.65201,
          "velocity": 0.8818897637795275
        },
        {
          "duration": 0.7423896958333387,
          "durationTicks": 683,
          "midi": 74,
          "name": "D5",
          "ticks": 69600,
          "time": 75.65201,
          "velocity": 0.8818897637795275
        },
        {
          "duration": 0.24673859583333524,
          "durationTicks": 227,
          "midi": 71,
          "name": "B4",
          "ticks": 70320,
          "time": 76.434617,
          "velocity": 0.8818897637795275
        },
        {
          "duration": 0.24673859583333524,
          "durationTicks": 227,
          "midi": 69,
          "name": "A4",
          "ticks": 70560,
          "time": 76.695486,
          "velocity": 0.8818897637795275
        },
        {
          "duration": 0.12282582083334148,
          "durationTicks": 113,
          "midi": 65,
          "name": "F4",
          "ticks": 70800,
          "time": 76.956355,
          "velocity": 0.8818897637795275
        },
        {
          "duration": 1.120649745833333,
          "durationTicks": 1031,
          "midi": 64,
          "name": "E4",
          "ticks": 70920,
          "time": 77.08678950000001,
          "velocity": 0.8818897637795275
        },
        {
          "duration": 0.12282582083334148,
          "durationTicks": 113,
          "midi": 62,
          "name": "D4",
          "ticks": 71160,
          "time": 77.34765850000001,
          "velocity": 0.8818897637795275
        },
        {
          "duration": 0.24673859583333524,
          "durationTicks": 227,
          "midi": 59,
          "name": "B3",
          "ticks": 71280,
          "time": 77.478093,
          "velocity": 0.8818897637795275
        },
        {
          "duration": 0.24673859583333524,
          "durationTicks": 227,
          "midi": 62,
          "name": "D4",
          "ticks": 71520,
          "time": 77.738962,
          "velocity": 0.8818897637795275
        },
        {
          "duration": 0.24673859583333524,
          "durationTicks": 227,
          "midi": 62,
          "name": "D4",
          "ticks": 71760,
          "time": 77.999831,
          "velocity": 0.8818897637795275
        },
        {
          "duration": 0.24673859583333524,
          "durationTicks": 227,
          "midi": 59,
          "name": "B3",
          "ticks": 72000,
          "time": 78.2607,
          "velocity": 0.8818897637795275
        },
        {
          "duration": 0.24673859583332103,
          "durationTicks": 227,
          "midi": 59,
          "name": "B3",
          "ticks": 72960,
          "time": 79.30417600000001,
          "velocity": 0.8818897637795275
        },
        {
          "duration": 0.24673859583332103,
          "durationTicks": 227,
          "midi": 74,
          "name": "D5",
          "ticks": 73200,
          "time": 79.56504500000001,
          "velocity": 0.8818897637795275
        },
        {
          "duration": 0.12282582083332727,
          "durationTicks": 113,
          "midi": 71,
          "name": "B4",
          "ticks": 73440,
          "time": 79.82591400000001,
          "velocity": 0.8818897637795275
        },
        {
          "duration": 0.24673859583333524,
          "durationTicks": 227,
          "midi": 69,
          "name": "A4",
          "ticks": 73560,
          "time": 79.9563485,
          "velocity": 0.8818897637795275
        },
        {
          "duration": 0.12282582083334148,
          "durationTicks": 113,
          "midi": 65,
          "name": "F4",
          "ticks": 73800,
          "time": 80.2172175,
          "velocity": 0.8818897637795275
        },
        {
          "duration": 0.24673859583332103,
          "durationTicks": 227,
          "midi": 64,
          "name": "E4",
          "ticks": 73920,
          "time": 80.34765200000001,
          "velocity": 0.8818897637795275
        },
        {
          "duration": 0.2608689999999996,
          "durationTicks": 240,
          "midi": 62,
          "name": "D4",
          "ticks": 74160,
          "time": 80.60852100000001,
          "velocity": 0.8818897637795275
        },
        {
          "duration": 0.2608689999999996,
          "durationTicks": 240,
          "midi": 62,
          "name": "D4",
          "ticks": 74400,
          "time": 80.86939000000001,
          "velocity": 0.8818897637795275
        },
        {
          "duration": 1.25108424583334,
          "durationTicks": 1151,
          "midi": 62,
          "name": "D4",
          "ticks": 74640,
          "time": 81.13025900000001,
          "velocity": 0.8818897637795275
        },
        {
          "duration": 0.1293475458333262,
          "durationTicks": 119,
          "midi": 74,
          "name": "D5",
          "ticks": 93000,
          "time": 101.08673750000001,
          "velocity": 0.6220472440944882
        },
        {
          "duration": 0.1293475458333262,
          "durationTicks": 119,
          "midi": 71,
          "name": "B4",
          "ticks": 93240,
          "time": 101.34760650000001,
          "velocity": 0.6141732283464567
        },
        {
          "duration": 0.12282582083334148,
          "durationTicks": 113,
          "midi": 65,
          "name": "F4",
          "ticks": 93480,
          "time": 101.60847550000001,
          "velocity": 0.5984251968503937
        },
        {
          "duration": 0.12282582083334148,
          "durationTicks": 113,
          "midi": 64,
          "name": "E4",
          "ticks": 93600,
          "time": 101.73891,
          "velocity": 0.5984251968503937
        },
        {
          "duration": 0.12282582083334148,
          "durationTicks": 113,
          "midi": 62,
          "name": "D4",
          "ticks": 93720,
          "time": 101.86934450000001,
          "velocity": 0.5905511811023622
        },
        {
          "duration": 0.12282582083334148,
          "durationTicks": 113,
          "midi": 59,
          "name": "B3",
          "ticks": 93840,
          "time": 101.999779,
          "velocity": 0.5905511811023622
        },
        {
          "duration": 0.1293475458333404,
          "durationTicks": 119,
          "midi": 62,
          "name": "D4",
          "ticks": 94080,
          "time": 102.260648,
          "velocity": 0.5748031496062992
        },
        {
          "duration": 0.1293475458333404,
          "durationTicks": 119,
          "midi": 59,
          "name": "B3",
          "ticks": 94320,
          "time": 102.521517,
          "velocity": 0.5669291338582677
        },
        {
          "duration": 0.1293475458333404,
          "durationTicks": 119,
          "midi": 62,
          "name": "D4",
          "ticks": 94320,
          "time": 102.521517,
          "velocity": 0.5669291338582677
        },
        {
          "duration": 0.24673859583333524,
          "durationTicks": 227,
          "midi": 62,
          "name": "D4",
          "ticks": 94560,
          "time": 102.782386,
          "velocity": 0.5590551181102362
        },
        {
          "duration": 0.24673859583333524,
          "durationTicks": 227,
          "midi": 62,
          "name": "D4",
          "ticks": 94920,
          "time": 103.17368950000001,
          "velocity": 0.5433070866141733
        },
        {
          "duration": 0.12282582083334148,
          "durationTicks": 113,
          "midi": 59,
          "name": "B3",
          "ticks": 95160,
          "time": 103.43455850000001,
          "velocity": 0.5354330708661418
        },
        {
          "duration": 0.12282582083334148,
          "durationTicks": 113,
          "midi": 62,
          "name": "D4",
          "ticks": 95280,
          "time": 103.564993,
          "velocity": 0.5354330708661418
        },
        {
          "duration": 0.24673859583333524,
          "durationTicks": 227,
          "midi": 65,
          "name": "F4",
          "ticks": 95400,
          "time": 103.69542750000001,
          "velocity": 0.5275590551181102
        },
        {
          "duration": 0.12282582083334148,
          "durationTicks": 113,
          "midi": 64,
          "name": "E4",
          "ticks": 95640,
          "time": 103.95629650000001,
          "velocity": 0.5196850393700787
        },
        {
          "duration": 0.12282582083334148,
          "durationTicks": 113,
          "midi": 62,
          "name": "D4",
          "ticks": 95760,
          "time": 104.086731,
          "velocity": 0.5118110236220472
        },
        {
          "duration": 0.12282582083334148,
          "durationTicks": 113,
          "midi": 59,
          "name": "B3",
          "ticks": 95880,
          "time": 104.21716550000001,
          "velocity": 0.5118110236220472
        },
        {
          "duration": 0.24673859583333524,
          "durationTicks": 227,
          "midi": 62,
          "name": "D4",
          "ticks": 96000,
          "time": 104.3476,
          "velocity": 0.5039370078740157
        },
        {
          "duration": 0.24673859583332103,
          "durationTicks": 227,
          "midi": 59,
          "name": "B3",
          "ticks": 96240,
          "time": 104.60846900000001,
          "velocity": 0.49606299212598426
        },
        {
          "duration": 0.12282582083332727,
          "durationTicks": 113,
          "midi": 57,
          "name": "A3",
          "ticks": 96480,
          "time": 104.86933800000001,
          "velocity": 0.4881889763779528
        },
        {
          "duration": 0.12282582083334148,
          "durationTicks": 113,
          "midi": 59,
          "name": "B3",
          "ticks": 96600,
          "time": 104.9997725,
          "velocity": 0.48031496062992124
        },
        {
          "duration": 0.1293475458333404,
          "durationTicks": 119,
          "midi": 74,
          "name": "D5",
          "ticks": 98760,
          "time": 107.3475935,
          "velocity": 0.4015748031496063
        },
        {
          "duration": 0.1293475458333404,
          "durationTicks": 119,
          "midi": 71,
          "name": "B4",
          "ticks": 99000,
          "time": 107.6084625,
          "velocity": 0.3858267716535433
        },
        {
          "duration": 0.12282582083334148,
          "durationTicks": 113,
          "midi": 65,
          "name": "F4",
          "ticks": 99240,
          "time": 107.8693315,
          "velocity": 0.3779527559055118
        },
        {
          "duration": 0.12282582083334148,
          "durationTicks": 113,
          "midi": 64,
          "name": "E4",
          "ticks": 99360,
          "time": 107.99976600000001,
          "velocity": 0.3779527559055118
        },
        {
          "duration": 0.12282582083334148,
          "durationTicks": 113,
          "midi": 62,
          "name": "D4",
          "ticks": 99480,
          "time": 108.1302005,
          "velocity": 0.3700787401574803
        },
        {
          "duration": 0.12282582083334148,
          "durationTicks": 113,
          "midi": 59,
          "name": "B3",
          "ticks": 99600,
          "time": 108.26063500000001,
          "velocity": 0.36220472440944884
        },
        {
          "duration": 0.1293475458333404,
          "durationTicks": 119,
          "midi": 62,
          "name": "D4",
          "ticks": 99840,
          "time": 108.52150400000001,
          "velocity": 0.3543307086614173
        },
        {
          "duration": 0.1293475458333404,
          "durationTicks": 119,
          "midi": 59,
          "name": "B3",
          "ticks": 100080,
          "time": 108.782373,
          "velocity": 0.3464566929133858
        },
        {
          "duration": 0.1293475458333404,
          "durationTicks": 119,
          "midi": 62,
          "name": "D4",
          "ticks": 100080,
          "time": 108.782373,
          "velocity": 0.3464566929133858
        },
        {
          "duration": 0.24673859583333524,
          "durationTicks": 227,
          "midi": 62,
          "name": "D4",
          "ticks": 100320,
          "time": 109.043242,
          "velocity": 0.33858267716535434
        },
        {
          "duration": 0.24673859583332103,
          "durationTicks": 227,
          "midi": 62,
          "name": "D4",
          "ticks": 100680,
          "time": 109.43454550000001,
          "velocity": 0.3228346456692913
        },
        {
          "duration": 0.12282582083334148,
          "durationTicks": 113,
          "midi": 59,
          "name": "B3",
          "ticks": 100920,
          "time": 109.69541450000001,
          "velocity": 0.31496062992125984
        },
        {
          "duration": 0.12282582083334148,
          "durationTicks": 113,
          "midi": 62,
          "name": "D4",
          "ticks": 101040,
          "time": 109.825849,
          "velocity": 0.30708661417322836
        },
        {
          "duration": 0.24673859583332103,
          "durationTicks": 227,
          "midi": 65,
          "name": "F4",
          "ticks": 101160,
          "time": 109.95628350000001,
          "velocity": 0.30708661417322836
        },
        {
          "duration": 0.12282582083334148,
          "durationTicks": 113,
          "midi": 64,
          "name": "E4",
          "ticks": 101400,
          "time": 110.21715250000001,
          "velocity": 0.2992125984251969
        },
        {
          "duration": 0.12282582083334148,
          "durationTicks": 113,
          "midi": 62,
          "name": "D4",
          "ticks": 101520,
          "time": 110.347587,
          "velocity": 0.29133858267716534
        },
        {
          "duration": 0.12282582083334148,
          "durationTicks": 113,
          "midi": 59,
          "name": "B3",
          "ticks": 101640,
          "time": 110.47802150000001,
          "velocity": 0.28346456692913385
        },
        {
          "duration": 0.24673859583333524,
          "durationTicks": 227,
          "midi": 62,
          "name": "D4",
          "ticks": 101760,
          "time": 110.608456,
          "velocity": 0.28346456692913385
        },
        {
          "duration": 0.24673859583333524,
          "durationTicks": 227,
          "midi": 59,
          "name": "B3",
          "ticks": 102000,
          "time": 110.869325,
          "velocity": 0.2755905511811024
        },
        {
          "duration": 0.12282582083334148,
          "durationTicks": 113,
          "midi": 57,
          "name": "A3",
          "ticks": 102240,
          "time": 111.130194,
          "velocity": 0.25984251968503935
        },
        {
          "duration": 0.12282582083334148,
          "durationTicks": 113,
          "midi": 59,
          "name": "B3",
          "ticks": 102360,
          "time": 111.26062850000001,
          "velocity": 0.25984251968503935
        },
        {
          "duration": 0.12282582083334148,
          "durationTicks": 113,
          "midi": 65,
          "name": "F4",
          "ticks": 107520,
          "time": 116.86931200000001,
          "velocity": 0.7559055118110236
        },
        {
          "duration": 0.12282582083332727,
          "durationTicks": 113,
          "midi": 66,
          "name": "F#4",
          "ticks": 107640,
          "time": 116.99974650000001,
          "velocity": 0.7559055118110236
        },
        {
          "duration": 0.12282582083334148,
          "durationTicks": 113,
          "midi": 71,
          "name": "B4",
          "ticks": 107760,
          "time": 117.13018100000001,
          "velocity": 0.7559055118110236
        },
        {
          "duration": 0.24673859583332103,
          "durationTicks": 227,
          "midi": 66,
          "name": "F#4",
          "ticks": 107880,
          "time": 117.26061550000001,
          "velocity": 0.7559055118110236
        },
        {
          "duration": 0.12282582083332727,
          "durationTicks": 113,
          "midi": 65,
          "name": "F4",
          "ticks": 108120,
          "time": 117.52148450000001,
          "velocity": 0.7559055118110236
        },
        {
          "duration": 0.12282582083334148,
          "durationTicks": 113,
          "midi": 66,
          "name": "F#4",
          "ticks": 108240,
          "time": 117.651919,
          "velocity": 0.7559055118110236
        },
        {
          "duration": 0.12282582083334148,
          "durationTicks": 113,
          "midi": 71,
          "name": "B4",
          "ticks": 108360,
          "time": 117.78235350000001,
          "velocity": 0.7559055118110236
        },
        {
          "duration": 0.24673859583333524,
          "durationTicks": 227,
          "midi": 66,
          "name": "F#4",
          "ticks": 108480,
          "time": 117.912788,
          "velocity": 0.7559055118110236
        },
        {
          "duration": 0.24673859583333524,
          "durationTicks": 227,
          "midi": 66,
          "name": "F#4",
          "ticks": 108960,
          "time": 118.434526,
          "velocity": 0.7559055118110236
        },
        {
          "duration": 0.24673859583333524,
          "durationTicks": 227,
          "midi": 64,
          "name": "E4",
          "ticks": 109200,
          "time": 118.695395,
          "velocity": 0.7559055118110236
        },
        {
          "duration": 0.12282582083334148,
          "durationTicks": 113,
          "midi": 65,
          "name": "F4",
          "ticks": 109440,
          "time": 118.956264,
          "velocity": 0.7559055118110236
        },
        {
          "duration": 0.12282582083334148,
          "durationTicks": 113,
          "midi": 66,
          "name": "F#4",
          "ticks": 109560,
          "time": 119.08669850000001,
          "velocity": 0.7559055118110236
        },
        {
          "duration": 0.12282582083334148,
          "durationTicks": 113,
          "midi": 71,
          "name": "B4",
          "ticks": 109680,
          "time": 119.217133,
          "velocity": 0.7559055118110236
        },
        {
          "duration": 0.24673859583333524,
          "durationTicks": 227,
          "midi": 66,
          "name": "F#4",
          "ticks": 109800,
          "time": 119.34756750000001,
          "velocity": 0.7559055118110236
        },
        {
          "duration": 0.12282582083334148,
          "durationTicks": 113,
          "midi": 65,
          "name": "F4",
          "ticks": 110040,
          "time": 119.60843650000001,
          "velocity": 0.7559055118110236
        },
        {
          "duration": 0.12282582083334148,
          "durationTicks": 113,
          "midi": 66,
          "name": "F#4",
          "ticks": 110160,
          "time": 119.738871,
          "velocity": 0.7559055118110236
        },
        {
          "duration": 0.12282582083334148,
          "durationTicks": 113,
          "midi": 71,
          "name": "B4",
          "ticks": 110280,
          "time": 119.86930550000001,
          "velocity": 0.7559055118110236
        },
        {
          "duration": 0.24673859583333524,
          "durationTicks": 227,
          "midi": 66,
          "name": "F#4",
          "ticks": 110400,
          "time": 119.99974,
          "velocity": 0.7559055118110236
        },
        {
          "duration": 0.24673859583333524,
          "durationTicks": 227,
          "midi": 66,
          "name": "F#4",
          "ticks": 110880,
          "time": 120.521478,
          "velocity": 0.7559055118110236
        },
        {
          "duration": 0.24673859583333524,
          "durationTicks": 227,
          "midi": 64,
          "name": "E4",
          "ticks": 111120,
          "time": 120.782347,
          "velocity": 0.7559055118110236
        },
        {
          "duration": 0.12282582083334148,
          "durationTicks": 113,
          "midi": 65,
          "name": "F4",
          "ticks": 111360,
          "time": 121.043216,
          "velocity": 0.7559055118110236
        },
        {
          "duration": 0.12282582083334148,
          "durationTicks": 113,
          "midi": 66,
          "name": "F#4",
          "ticks": 111480,
          "time": 121.17365050000001,
          "velocity": 0.7559055118110236
        },
        {
          "duration": 0.12282582083332727,
          "durationTicks": 113,
          "midi": 71,
          "name": "B4",
          "ticks": 111600,
          "time": 121.30408500000001,
          "velocity": 0.7559055118110236
        },
        {
          "duration": 0.24673859583333524,
          "durationTicks": 227,
          "midi": 66,
          "name": "F#4",
          "ticks": 111720,
          "time": 121.43451950000001,
          "velocity": 0.7559055118110236
        },
        {
          "duration": 0.12282582083334148,
          "durationTicks": 113,
          "midi": 65,
          "name": "F4",
          "ticks": 111960,
          "time": 121.6953885,
          "velocity": 0.7559055118110236
        },
        {
          "duration": 0.12282582083334148,
          "durationTicks": 113,
          "midi": 66,
          "name": "F#4",
          "ticks": 112080,
          "time": 121.82582300000001,
          "velocity": 0.7559055118110236
        },
        {
          "duration": 0.12282582083334148,
          "durationTicks": 113,
          "midi": 71,
          "name": "B4",
          "ticks": 112200,
          "time": 121.9562575,
          "velocity": 0.7559055118110236
        },
        {
          "duration": 0.24673859583332103,
          "durationTicks": 227,
          "midi": 66,
          "name": "F#4",
          "ticks": 112320,
          "time": 122.08669200000001,
          "velocity": 0.7559055118110236
        },
        {
          "duration": 0.24673859583332103,
          "durationTicks": 227,
          "midi": 66,
          "name": "F#4",
          "ticks": 112800,
          "time": 122.60843000000001,
          "velocity": 0.7559055118110236
        },
        {
          "duration": 0.24673859583332103,
          "durationTicks": 227,
          "midi": 64,
          "name": "E4",
          "ticks": 113040,
          "time": 122.86929900000001,
          "velocity": 0.7559055118110236
        },
        {
          "duration": 0.12282582083334148,
          "durationTicks": 113,
          "midi": 65,
          "name": "F4",
          "ticks": 113280,
          "time": 123.13016800000001,
          "velocity": 0.7559055118110236
        },
        {
          "duration": 0.12282582083334148,
          "durationTicks": 113,
          "midi": 66,
          "name": "F#4",
          "ticks": 113400,
          "time": 123.2606025,
          "velocity": 0.7559055118110236
        },
        {
          "duration": 0.12282582083334148,
          "durationTicks": 113,
          "midi": 71,
          "name": "B4",
          "ticks": 113520,
          "time": 123.39103700000001,
          "velocity": 0.7559055118110236
        },
        {
          "duration": 0.24673859583333524,
          "durationTicks": 227,
          "midi": 66,
          "name": "F#4",
          "ticks": 113640,
          "time": 123.5214715,
          "velocity": 0.7559055118110236
        },
        {
          "duration": 0.12282582083334148,
          "durationTicks": 113,
          "midi": 65,
          "name": "F4",
          "ticks": 113880,
          "time": 123.7823405,
          "velocity": 0.7559055118110236
        },
        {
          "duration": 0.12282582083334148,
          "durationTicks": 113,
          "midi": 66,
          "name": "F#4",
          "ticks": 114000,
          "time": 123.91277500000001,
          "velocity": 0.7559055118110236
        },
        {
          "duration": 0.12282582083334148,
          "durationTicks": 113,
          "midi": 71,
          "name": "B4",
          "ticks": 114120,
          "time": 124.0432095,
          "velocity": 0.7559055118110236
        },
        {
          "duration": 0.24673859583333524,
          "durationTicks": 227,
          "midi": 66,
          "name": "F#4",
          "ticks": 114240,
          "time": 124.17364400000001,
          "velocity": 0.7559055118110236
        },
        {
          "duration": 0.24673859583333524,
          "durationTicks": 227,
          "midi": 66,
          "name": "F#4",
          "ticks": 114720,
          "time": 124.69538200000001,
          "velocity": 0.7559055118110236
        },
        {
          "duration": 0,
          "durationTicks": 0,
          "midi": 64,
          "name": "E4",
          "ticks": 114960,
          "time": 124.95625100000001,
          "velocity": 0.7559055118110236
        },
        {
          "duration": 0.12282582083334148,
          "durationTicks": 113,
          "midi": 65,
          "name": "F4",
          "ticks": 115200,
          "time": 125.21712000000001,
          "velocity": 0.7559055118110236
        },
        {
          "duration": 0.12282582083332727,
          "durationTicks": 113,
          "midi": 66,
          "name": "F#4",
          "ticks": 115320,
          "time": 125.34755450000002,
          "velocity": 0.7559055118110236
        },
        {
          "duration": 0.12282582083334148,
          "durationTicks": 113,
          "midi": 71,
          "name": "B4",
          "ticks": 115440,
          "time": 125.47798900000001,
          "velocity": 0.7559055118110236
        },
        {
          "duration": 0.24673859583332103,
          "durationTicks": 227,
          "midi": 66,
          "name": "F#4",
          "ticks": 115560,
          "time": 125.60842350000001,
          "velocity": 0.7559055118110236
        },
        {
          "duration": 0.12282582083332727,
          "durationTicks": 113,
          "midi": 65,
          "name": "F4",
          "ticks": 115800,
          "time": 125.86929250000001,
          "velocity": 0.7559055118110236
        },
        {
          "duration": 0.12282582083334148,
          "durationTicks": 113,
          "midi": 66,
          "name": "F#4",
          "ticks": 115920,
          "time": 125.99972700000001,
          "velocity": 0.7559055118110236
        },
        {
          "duration": 0.12282582083334148,
          "durationTicks": 113,
          "midi": 71,
          "name": "B4",
          "ticks": 116040,
          "time": 126.13016150000001,
          "velocity": 0.7559055118110236
        },
        {
          "duration": 0.24673859583333524,
          "durationTicks": 227,
          "midi": 66,
          "name": "F#4",
          "ticks": 116160,
          "time": 126.260596,
          "velocity": 0.7559055118110236
        },
        {
          "duration": 0.24673859583333524,
          "durationTicks": 227,
          "midi": 66,
          "name": "F#4",
          "ticks": 116640,
          "time": 126.782334,
          "velocity": 0.7559055118110236
        },
        {
          "duration": 1.25108424583334,
          "durationTicks": 1151,
          "midi": 64,
          "name": "E4",
          "ticks": 116880,
          "time": 127.043203,
          "velocity": 0.7559055118110236
        },
        {
          "duration": 0.12282582083334148,
          "durationTicks": 113,
          "midi": 65,
          "name": "F4",
          "ticks": 117120,
          "time": 127.304072,
          "velocity": 0.7559055118110236
        },
        {
          "duration": 0.12282582083334148,
          "durationTicks": 113,
          "midi": 66,
          "name": "F#4",
          "ticks": 117240,
          "time": 127.43450650000001,
          "velocity": 0.7559055118110236
        },
        {
          "duration": 0.12282582083334148,
          "durationTicks": 113,
          "midi": 71,
          "name": "B4",
          "ticks": 117360,
          "time": 127.564941,
          "velocity": 0.7559055118110236
        },
        {
          "duration": 0.24673859583333524,
          "durationTicks": 227,
          "midi": 66,
          "name": "F#4",
          "ticks": 117480,
          "time": 127.69537550000001,
          "velocity": 0.7559055118110236
        },
        {
          "duration": 0.12282582083334148,
          "durationTicks": 113,
          "midi": 65,
          "name": "F4",
          "ticks": 117720,
          "time": 127.95624450000001,
          "velocity": 0.7559055118110236
        },
        {
          "duration": 0.12282582083335569,
          "durationTicks": 113,
          "midi": 66,
          "name": "F#4",
          "ticks": 117840,
          "time": 128.086679,
          "velocity": 0.7559055118110236
        },
        {
          "duration": 0.12282582083332727,
          "durationTicks": 113,
          "midi": 71,
          "name": "B4",
          "ticks": 117960,
          "time": 128.2171135,
          "velocity": 0.7559055118110236
        },
        {
          "duration": 0.24673859583333524,
          "durationTicks": 227,
          "midi": 66,
          "name": "F#4",
          "ticks": 118080,
          "time": 128.34754800000002,
          "velocity": 0.7559055118110236
        },
        {
          "duration": 0.24673859583333524,
          "durationTicks": 227,
          "midi": 66,
          "name": "F#4",
          "ticks": 118560,
          "time": 128.86928600000002,
          "velocity": 0.7559055118110236
        },
        {
          "duration": 0.24673859583333524,
          "durationTicks": 227,
          "midi": 64,
          "name": "E4",
          "ticks": 118800,
          "time": 129.130155,
          "velocity": 0.7559055118110236
        },
        {
          "duration": 0.12282582083332727,
          "durationTicks": 113,
          "midi": 65,
          "name": "F4",
          "ticks": 119040,
          "time": 129.39102400000002,
          "velocity": 0.7559055118110236
        },
        {
          "duration": 0.12282582083332727,
          "durationTicks": 113,
          "midi": 66,
          "name": "F#4",
          "ticks": 119160,
          "time": 129.52145850000002,
          "velocity": 0.7559055118110236
        },
        {
          "duration": 0.12282582083335569,
          "durationTicks": 113,
          "midi": 71,
          "name": "B4",
          "ticks": 119280,
          "time": 129.651893,
          "velocity": 0.7559055118110236
        },
        {
          "duration": 0.24673859583333524,
          "durationTicks": 227,
          "midi": 66,
          "name": "F#4",
          "ticks": 119400,
          "time": 129.7823275,
          "velocity": 0.7559055118110236
        },
        {
          "duration": 0.12282582083332727,
          "durationTicks": 113,
          "midi": 65,
          "name": "F4",
          "ticks": 119640,
          "time": 130.04319650000002,
          "velocity": 0.7559055118110236
        },
        {
          "duration": 0.12282582083335569,
          "durationTicks": 113,
          "midi": 66,
          "name": "F#4",
          "ticks": 119760,
          "time": 130.173631,
          "velocity": 0.7559055118110236
        },
        {
          "duration": 0.12282582083335569,
          "durationTicks": 113,
          "midi": 71,
          "name": "B4",
          "ticks": 119880,
          "time": 130.3040655,
          "velocity": 0.7559055118110236
        },
        {
          "duration": 0.24673859583333524,
          "durationTicks": 227,
          "midi": 66,
          "name": "F#4",
          "ticks": 120000,
          "time": 130.4345,
          "velocity": 0.7559055118110236
        },
        {
          "duration": 0.24673859583333524,
          "durationTicks": 227,
          "midi": 66,
          "name": "F#4",
          "ticks": 120480,
          "time": 130.956238,
          "velocity": 0.7559055118110236
        },
        {
          "duration": 0.24673859583333524,
          "durationTicks": 227,
          "midi": 64,
          "name": "E4",
          "ticks": 120720,
          "time": 131.217107,
          "velocity": 0.7559055118110236
        },
        {
          "duration": 0.12282582083332727,
          "durationTicks": 113,
          "midi": 65,
          "name": "F4",
          "ticks": 120960,
          "time": 131.477976,
          "velocity": 0.7559055118110236
        },
        {
          "duration": 0.12282582083332727,
          "durationTicks": 113,
          "midi": 66,
          "name": "F#4",
          "ticks": 121080,
          "time": 131.60841050000002,
          "velocity": 0.7559055118110236
        },
        {
          "duration": 0.12282582083335569,
          "durationTicks": 113,
          "midi": 71,
          "name": "B4",
          "ticks": 121200,
          "time": 131.738845,
          "velocity": 0.7559055118110236
        },
        {
          "duration": 0.24673859583333524,
          "durationTicks": 227,
          "midi": 66,
          "name": "F#4",
          "ticks": 121320,
          "time": 131.8692795,
          "velocity": 0.7559055118110236
        },
        {
          "duration": 0.12282582083332727,
          "durationTicks": 113,
          "midi": 65,
          "name": "F4",
          "ticks": 121560,
          "time": 132.13014850000002,
          "velocity": 0.7559055118110236
        },
        {
          "duration": 0.12282582083335569,
          "durationTicks": 113,
          "midi": 66,
          "name": "F#4",
          "ticks": 121680,
          "time": 132.260583,
          "velocity": 0.7559055118110236
        },
        {
          "duration": 0.12282582083335569,
          "durationTicks": 113,
          "midi": 71,
          "name": "B4",
          "ticks": 121800,
          "time": 132.3910175,
          "velocity": 0.7559055118110236
        },
        {
          "duration": 0.24673859583333524,
          "durationTicks": 227,
          "midi": 66,
          "name": "F#4",
          "ticks": 121920,
          "time": 132.521452,
          "velocity": 0.7559055118110236
        },
        {
          "duration": 0.12282582083332727,
          "durationTicks": 113,
          "midi": 65,
          "name": "F4",
          "ticks": 122880,
          "time": 133.564928,
          "velocity": 0.8818897637795275
        },
        {
          "duration": 0.12282582083332727,
          "durationTicks": 113,
          "midi": 66,
          "name": "F#4",
          "ticks": 123000,
          "time": 133.69536250000002,
          "velocity": 0.8818897637795275
        },
        {
          "duration": 0.12282582083329885,
          "durationTicks": 113,
          "midi": 71,
          "name": "B4",
          "ticks": 123120,
          "time": 133.82579700000002,
          "velocity": 0.8818897637795275
        },
        {
          "duration": 0.24673859583333524,
          "durationTicks": 227,
          "midi": 66,
          "name": "F#4",
          "ticks": 123240,
          "time": 133.9562315,
          "velocity": 0.8818897637795275
        },
        {
          "duration": 0.12282582083332727,
          "durationTicks": 113,
          "midi": 65,
          "name": "F4",
          "ticks": 123480,
          "time": 134.21710050000002,
          "velocity": 0.8818897637795275
        },
        {
          "duration": 0.12282582083329885,
          "durationTicks": 113,
          "midi": 66,
          "name": "F#4",
          "ticks": 123600,
          "time": 134.34753500000002,
          "velocity": 0.8818897637795275
        },
        {
          "duration": 0.12282582083332727,
          "durationTicks": 113,
          "midi": 71,
          "name": "B4",
          "ticks": 123720,
          "time": 134.4779695,
          "velocity": 0.8818897637795275
        },
        {
          "duration": 0.24673859583333524,
          "durationTicks": 227,
          "midi": 66,
          "name": "F#4",
          "ticks": 123840,
          "time": 134.608404,
          "velocity": 0.8818897637795275
        },
        {
          "duration": 0.24673859583333524,
          "durationTicks": 227,
          "midi": 66,
          "name": "F#4",
          "ticks": 124320,
          "time": 135.130142,
          "velocity": 0.8818897637795275
        },
        {
          "duration": 0.24673859583330682,
          "durationTicks": 227,
          "midi": 64,
          "name": "E4",
          "ticks": 124560,
          "time": 135.39101100000002,
          "velocity": 0.8818897637795275
        },
        {
          "duration": 0.12282582083332727,
          "durationTicks": 113,
          "midi": 65,
          "name": "F4",
          "ticks": 124800,
          "time": 135.65188,
          "velocity": 0.8818897637795275
        },
        {
          "duration": 0.12282582083332727,
          "durationTicks": 113,
          "midi": 66,
          "name": "F#4",
          "ticks": 124920,
          "time": 135.7823145,
          "velocity": 0.8818897637795275
        },
        {
          "duration": 0.12282582083332727,
          "durationTicks": 113,
          "midi": 71,
          "name": "B4",
          "ticks": 125040,
          "time": 135.91274900000002,
          "velocity": 0.8818897637795275
        },
        {
          "duration": 0.24673859583333524,
          "durationTicks": 227,
          "midi": 66,
          "name": "F#4",
          "ticks": 125160,
          "time": 136.0431835,
          "velocity": 0.8818897637795275
        },
        {
          "duration": 0.12282582083332727,
          "durationTicks": 113,
          "midi": 65,
          "name": "F4",
          "ticks": 125400,
          "time": 136.3040525,
          "velocity": 0.8818897637795275
        },
        {
          "duration": 0.12282582083332727,
          "durationTicks": 113,
          "midi": 66,
          "name": "F#4",
          "ticks": 125520,
          "time": 136.43448700000002,
          "velocity": 0.8818897637795275
        },
        {
          "duration": 0.12282582083332727,
          "durationTicks": 113,
          "midi": 71,
          "name": "B4",
          "ticks": 125640,
          "time": 136.5649215,
          "velocity": 0.8818897637795275
        },
        {
          "duration": 0.24673859583333524,
          "durationTicks": 227,
          "midi": 66,
          "name": "F#4",
          "ticks": 125760,
          "time": 136.695356,
          "velocity": 0.8818897637795275
        },
        {
          "duration": 0.24673859583333524,
          "durationTicks": 227,
          "midi": 66,
          "name": "F#4",
          "ticks": 126240,
          "time": 137.217094,
          "velocity": 0.8818897637795275
        },
        {
          "duration": 0.24673859583333524,
          "durationTicks": 227,
          "midi": 64,
          "name": "E4",
          "ticks": 126480,
          "time": 137.47796300000002,
          "velocity": 0.8818897637795275
        },
        {
          "duration": 0.12282582083332727,
          "durationTicks": 113,
          "midi": 65,
          "name": "F4",
          "ticks": 126720,
          "time": 137.738832,
          "velocity": 0.8818897637795275
        },
        {
          "duration": 0.12282582083332727,
          "durationTicks": 113,
          "midi": 66,
          "name": "F#4",
          "ticks": 126840,
          "time": 137.8692665,
          "velocity": 0.8818897637795275
        },
        {
          "duration": 0.12282582083332727,
          "durationTicks": 113,
          "midi": 71,
          "name": "B4",
          "ticks": 126960,
          "time": 137.99970100000002,
          "velocity": 0.8818897637795275
        },
        {
          "duration": 0.24673859583330682,
          "durationTicks": 227,
          "midi": 66,
          "name": "F#4",
          "ticks": 127080,
          "time": 138.13013550000002,
          "velocity": 0.8818897637795275
        },
        {
          "duration": 0.12282582083332727,
          "durationTicks": 113,
          "midi": 65,
          "name": "F4",
          "ticks": 127320,
          "time": 138.3910045,
          "velocity": 0.8818897637795275
        },
        {
          "duration": 0.12282582083332727,
          "durationTicks": 113,
          "midi": 66,
          "name": "F#4",
          "ticks": 127440,
          "time": 138.52143900000002,
          "velocity": 0.8818897637795275
        },
        {
          "duration": 0.12282582083329885,
          "durationTicks": 113,
          "midi": 71,
          "name": "B4",
          "ticks": 127560,
          "time": 138.65187350000002,
          "velocity": 0.8818897637795275
        },
        {
          "duration": 0.24673859583333524,
          "durationTicks": 227,
          "midi": 66,
          "name": "F#4",
          "ticks": 127680,
          "time": 138.782308,
          "velocity": 0.8818897637795275
        },
        {
          "duration": 0.24673859583333524,
          "durationTicks": 227,
          "midi": 66,
          "name": "F#4",
          "ticks": 128160,
          "time": 139.304046,
          "velocity": 0.8818897637795275
        },
        {
          "duration": 0.24673859583333524,
          "durationTicks": 227,
          "midi": 64,
          "name": "E4",
          "ticks": 128400,
          "time": 139.564915,
          "velocity": 0.8818897637795275
        },
        {
          "duration": 0.12282582083332727,
          "durationTicks": 113,
          "midi": 65,
          "name": "F4",
          "ticks": 128640,
          "time": 139.825784,
          "velocity": 0.8818897637795275
        },
        {
          "duration": 0.12282582083332727,
          "durationTicks": 113,
          "midi": 66,
          "name": "F#4",
          "ticks": 128760,
          "time": 139.9562185,
          "velocity": 0.8818897637795275
        },
        {
          "duration": 0.12282582083332727,
          "durationTicks": 113,
          "midi": 71,
          "name": "B4",
          "ticks": 128880,
          "time": 140.086653,
          "velocity": 0.8818897637795275
        },
        {
          "duration": 0.24673859583333524,
          "durationTicks": 227,
          "midi": 66,
          "name": "F#4",
          "ticks": 129000,
          "time": 140.21708750000002,
          "velocity": 0.8818897637795275
        },
        {
          "duration": 0.12282582083332727,
          "durationTicks": 113,
          "midi": 65,
          "name": "F4",
          "ticks": 129240,
          "time": 140.4779565,
          "velocity": 0.8818897637795275
        },
        {
          "duration": 0.12282582083332727,
          "durationTicks": 113,
          "midi": 66,
          "name": "F#4",
          "ticks": 129360,
          "time": 140.608391,
          "velocity": 0.8818897637795275
        },
        {
          "duration": 0.12282582083332727,
          "durationTicks": 113,
          "midi": 71,
          "name": "B4",
          "ticks": 129480,
          "time": 140.73882550000002,
          "velocity": 0.8818897637795275
        },
        {
          "duration": 0.24673859583333524,
          "durationTicks": 227,
          "midi": 66,
          "name": "F#4",
          "ticks": 129600,
          "time": 140.86926,
          "velocity": 0.8818897637795275
        },
        {
          "duration": 0.24673859583333524,
          "durationTicks": 227,
          "midi": 66,
          "name": "F#4",
          "ticks": 130080,
          "time": 141.390998,
          "velocity": 0.8818897637795275
        },
        {
          "duration": 0,
          "durationTicks": 0,
          "midi": 64,
          "name": "E4",
          "ticks": 130320,
          "time": 141.651867,
          "velocity": 0.8818897637795275
        },
        {
          "duration": 0.7423896958333103,
          "durationTicks": 683,
          "midi": 62,
          "name": "D4",
          "ticks": 131040,
          "time": 142.43447400000002,
          "velocity": 0.8818897637795275
        },
        {
          "duration": 0.7423896958333103,
          "durationTicks": 683,
          "midi": 74,
          "name": "D5",
          "ticks": 131040,
          "time": 142.43447400000002,
          "velocity": 0.8818897637795275
        },
        {
          "duration": 0.24673859583333524,
          "durationTicks": 227,
          "midi": 71,
          "name": "B4",
          "ticks": 131760,
          "time": 143.217081,
          "velocity": 0.8818897637795275
        },
        {
          "duration": 0.24673859583330682,
          "durationTicks": 227,
          "midi": 69,
          "name": "A4",
          "ticks": 132000,
          "time": 143.47795000000002,
          "velocity": 0.8818897637795275
        },
        {
          "duration": 0.12282582083332727,
          "durationTicks": 113,
          "midi": 65,
          "name": "F4",
          "ticks": 132240,
          "time": 143.738819,
          "velocity": 0.8818897637795275
        },
        {
          "duration": 1.120649745833333,
          "durationTicks": 1031,
          "midi": 64,
          "name": "E4",
          "ticks": 132360,
          "time": 143.8692535,
          "velocity": 0.8818897637795275
        },
        {
          "duration": 0.12282582083332727,
          "durationTicks": 113,
          "midi": 62,
          "name": "D4",
          "ticks": 132600,
          "time": 144.1301225,
          "velocity": 0.8818897637795275
        },
        {
          "duration": 0.24673859583333524,
          "durationTicks": 227,
          "midi": 59,
          "name": "B3",
          "ticks": 132720,
          "time": 144.260557,
          "velocity": 0.8818897637795275
        },
        {
          "duration": 0.24673859583333524,
          "durationTicks": 227,
          "midi": 62,
          "name": "D4",
          "ticks": 132960,
          "time": 144.52142600000002,
          "velocity": 0.8818897637795275
        },
        {
          "duration": 0.24673859583333524,
          "durationTicks": 227,
          "midi": 62,
          "name": "D4",
          "ticks": 133200,
          "time": 144.782295,
          "velocity": 0.8818897637795275
        },
        {
          "duration": 0.24673859583333524,
          "durationTicks": 227,
          "midi": 59,
          "name": "B3",
          "ticks": 133440,
          "time": 145.04316400000002,
          "velocity": 0.8818897637795275
        },
        {
          "duration": 0.24673859583333524,
          "durationTicks": 227,
          "midi": 59,
          "name": "B3",
          "ticks": 134400,
          "time": 146.08664000000002,
          "velocity": 0.8818897637795275
        },
        {
          "duration": 0.24673859583333524,
          "durationTicks": 227,
          "midi": 74,
          "name": "D5",
          "ticks": 134640,
          "time": 146.347509,
          "velocity": 0.8818897637795275
        },
        {
          "duration": 0.12282582083332727,
          "durationTicks": 113,
          "midi": 71,
          "name": "B4",
          "ticks": 134880,
          "time": 146.60837800000002,
          "velocity": 0.8818897637795275
        },
        {
          "duration": 0.24673859583330682,
          "durationTicks": 227,
          "midi": 69,
          "name": "A4",
          "ticks": 135000,
          "time": 146.73881250000002,
          "velocity": 0.8818897637795275
        },
        {
          "duration": 0.12282582083332727,
          "durationTicks": 113,
          "midi": 65,
          "name": "F4",
          "ticks": 135240,
          "time": 146.9996815,
          "velocity": 0.8818897637795275
        },
        {
          "duration": 0.24673859583333524,
          "durationTicks": 227,
          "midi": 64,
          "name": "E4",
          "ticks": 135360,
          "time": 147.13011600000002,
          "velocity": 0.8818897637795275
        },
        {
          "duration": 0.2608690000000138,
          "durationTicks": 240,
          "midi": 62,
          "name": "D4",
          "ticks": 135600,
          "time": 147.390985,
          "velocity": 0.8818897637795275
        },
        {
          "duration": 0.26086899999998536,
          "durationTicks": 240,
          "midi": 62,
          "name": "D4",
          "ticks": 135840,
          "time": 147.65185400000001,
          "velocity": 0.8818897637795275
        },
        {
          "duration": 1.25108424583334,
          "durationTicks": 1151,
          "midi": 62,
          "name": "D4",
          "ticks": 136080,
          "time": 147.912723,
          "velocity": 0.8818897637795275
        },
        {
          "duration": 0.12282582083332727,
          "durationTicks": 113,
          "midi": 65,
          "name": "F4",
          "ticks": 138240,
          "time": 150.260544,
          "velocity": 0.8818897637795275
        },
        {
          "duration": 0.12282582083332727,
          "durationTicks": 113,
          "midi": 66,
          "name": "F#4",
          "ticks": 138360,
          "time": 150.39097850000002,
          "velocity": 0.8818897637795275
        },
        {
          "duration": 0.12282582083329885,
          "durationTicks": 113,
          "midi": 71,
          "name": "B4",
          "ticks": 138480,
          "time": 150.52141300000002,
          "velocity": 0.8818897637795275
        },
        {
          "duration": 0.24673859583333524,
          "durationTicks": 227,
          "midi": 66,
          "name": "F#4",
          "ticks": 138600,
          "time": 150.6518475,
          "velocity": 0.8818897637795275
        },
        {
          "duration": 0.12282582083332727,
          "durationTicks": 113,
          "midi": 65,
          "name": "F4",
          "ticks": 138840,
          "time": 150.91271650000002,
          "velocity": 0.8818897637795275
        },
        {
          "duration": 0.12282582083329885,
          "durationTicks": 113,
          "midi": 66,
          "name": "F#4",
          "ticks": 138960,
          "time": 151.04315100000002,
          "velocity": 0.8818897637795275
        },
        {
          "duration": 0.12282582083332727,
          "durationTicks": 113,
          "midi": 71,
          "name": "B4",
          "ticks": 139080,
          "time": 151.1735855,
          "velocity": 0.8818897637795275
        },
        {
          "duration": 0.24673859583333524,
          "durationTicks": 227,
          "midi": 66,
          "name": "F#4",
          "ticks": 139200,
          "time": 151.30402,
          "velocity": 0.8818897637795275
        },
        {
          "duration": 0.24673859583333524,
          "durationTicks": 227,
          "midi": 66,
          "name": "F#4",
          "ticks": 139680,
          "time": 151.825758,
          "velocity": 0.8818897637795275
        },
        {
          "duration": 0.24673859583330682,
          "durationTicks": 227,
          "midi": 64,
          "name": "E4",
          "ticks": 139920,
          "time": 152.08662700000002,
          "velocity": 0.8818897637795275
        },
        {
          "duration": 0.12282582083332727,
          "durationTicks": 113,
          "midi": 65,
          "name": "F4",
          "ticks": 140160,
          "time": 152.347496,
          "velocity": 0.8818897637795275
        },
        {
          "duration": 0.12282582083332727,
          "durationTicks": 113,
          "midi": 66,
          "name": "F#4",
          "ticks": 140280,
          "time": 152.4779305,
          "velocity": 0.8818897637795275
        },
        {
          "duration": 0.12282582083332727,
          "durationTicks": 113,
          "midi": 71,
          "name": "B4",
          "ticks": 140400,
          "time": 152.60836500000002,
          "velocity": 0.8818897637795275
        },
        {
          "duration": 0.24673859583333524,
          "durationTicks": 227,
          "midi": 66,
          "name": "F#4",
          "ticks": 140520,
          "time": 152.7387995,
          "velocity": 0.8818897637795275
        },
        {
          "duration": 0.12282582083332727,
          "durationTicks": 113,
          "midi": 65,
          "name": "F4",
          "ticks": 140760,
          "time": 152.9996685,
          "velocity": 0.8818897637795275
        },
        {
          "duration": 0.12282582083332727,
          "durationTicks": 113,
          "midi": 66,
          "name": "F#4",
          "ticks": 140880,
          "time": 153.13010300000002,
          "velocity": 0.8818897637795275
        },
        {
          "duration": 0.12282582083332727,
          "durationTicks": 113,
          "midi": 71,
          "name": "B4",
          "ticks": 141000,
          "time": 153.2605375,
          "velocity": 0.8818897637795275
        },
        {
          "duration": 0.24673859583333524,
          "durationTicks": 227,
          "midi": 66,
          "name": "F#4",
          "ticks": 141120,
          "time": 153.390972,
          "velocity": 0.8818897637795275
        },
        {
          "duration": 0.24673859583333524,
          "durationTicks": 227,
          "midi": 66,
          "name": "F#4",
          "ticks": 141600,
          "time": 153.91271,
          "velocity": 0.8818897637795275
        },
        {
          "duration": 0.24673859583333524,
          "durationTicks": 227,
          "midi": 64,
          "name": "E4",
          "ticks": 141840,
          "time": 154.17357900000002,
          "velocity": 0.8818897637795275
        },
        {
          "duration": 0.12282582083332727,
          "durationTicks": 113,
          "midi": 65,
          "name": "F4",
          "ticks": 142080,
          "time": 154.434448,
          "velocity": 0.8818897637795275
        },
        {
          "duration": 0.12282582083332727,
          "durationTicks": 113,
          "midi": 66,
          "name": "F#4",
          "ticks": 142200,
          "time": 154.5648825,
          "velocity": 0.8818897637795275
        },
        {
          "duration": 0.12282582083332727,
          "durationTicks": 113,
          "midi": 71,
          "name": "B4",
          "ticks": 142320,
          "time": 154.69531700000002,
          "velocity": 0.8818897637795275
        },
        {
          "duration": 0.24673859583330682,
          "durationTicks": 227,
          "midi": 66,
          "name": "F#4",
          "ticks": 142440,
          "time": 154.82575150000002,
          "velocity": 0.8818897637795275
        },
        {
          "duration": 0.12282582083332727,
          "durationTicks": 113,
          "midi": 65,
          "name": "F4",
          "ticks": 142680,
          "time": 155.0866205,
          "velocity": 0.8818897637795275
        },
        {
          "duration": 0.12282582083332727,
          "durationTicks": 113,
          "midi": 66,
          "name": "F#4",
          "ticks": 142800,
          "time": 155.21705500000002,
          "velocity": 0.8818897637795275
        },
        {
          "duration": 0.12282582083329885,
          "durationTicks": 113,
          "midi": 71,
          "name": "B4",
          "ticks": 142920,
          "time": 155.34748950000002,
          "velocity": 0.8818897637795275
        },
        {
          "duration": 0.24673859583333524,
          "durationTicks": 227,
          "midi": 66,
          "name": "F#4",
          "ticks": 143040,
          "time": 155.477924,
          "velocity": 0.8818897637795275
        },
        {
          "duration": 0.24673859583333524,
          "durationTicks": 227,
          "midi": 66,
          "name": "F#4",
          "ticks": 143520,
          "time": 155.999662,
          "velocity": 0.8818897637795275
        },
        {
          "duration": 0.24673859583333524,
          "durationTicks": 227,
          "midi": 64,
          "name": "E4",
          "ticks": 143760,
          "time": 156.26053100000001,
          "velocity": 0.8818897637795275
        },
        {
          "duration": 0.12282582083332727,
          "durationTicks": 113,
          "midi": 65,
          "name": "F4",
          "ticks": 144000,
          "time": 156.5214,
          "velocity": 0.8818897637795275
        },
        {
          "duration": 0.12282582083332727,
          "durationTicks": 113,
          "midi": 66,
          "name": "F#4",
          "ticks": 144120,
          "time": 156.6518345,
          "velocity": 0.8818897637795275
        },
        {
          "duration": 0.12282582083332727,
          "durationTicks": 113,
          "midi": 71,
          "name": "B4",
          "ticks": 144240,
          "time": 156.782269,
          "velocity": 0.8818897637795275
        },
        {
          "duration": 0.24673859583333524,
          "durationTicks": 227,
          "midi": 66,
          "name": "F#4",
          "ticks": 144360,
          "time": 156.91270350000002,
          "velocity": 0.8818897637795275
        },
        {
          "duration": 0.12282582083332727,
          "durationTicks": 113,
          "midi": 65,
          "name": "F4",
          "ticks": 144600,
          "time": 157.1735725,
          "velocity": 0.8818897637795275
        },
        {
          "duration": 0.12282582083332727,
          "durationTicks": 113,
          "midi": 66,
          "name": "F#4",
          "ticks": 144720,
          "time": 157.304007,
          "velocity": 0.8818897637795275
        },
        {
          "duration": 0.12282582083332727,
          "durationTicks": 113,
          "midi": 71,
          "name": "B4",
          "ticks": 144840,
          "time": 157.43444150000002,
          "velocity": 0.8818897637795275
        },
        {
          "duration": 0.24673859583333524,
          "durationTicks": 227,
          "midi": 66,
          "name": "F#4",
          "ticks": 144960,
          "time": 157.564876,
          "velocity": 0.8818897637795275
        },
        {
          "duration": 0.24673859583333524,
          "durationTicks": 227,
          "midi": 66,
          "name": "F#4",
          "ticks": 145440,
          "time": 158.086614,
          "velocity": 0.8818897637795275
        },
        {
          "duration": 0,
          "durationTicks": 0,
          "midi": 64,
          "name": "E4",
          "ticks": 145680,
          "time": 158.347483,
          "velocity": 0.8818897637795275
        },
        {
          "duration": 0.7423896958333103,
          "durationTicks": 683,
          "midi": 62,
          "name": "D4",
          "ticks": 146400,
          "time": 159.13009000000002,
          "velocity": 0.8818897637795275
        },
        {
          "duration": 0.7423896958333103,
          "durationTicks": 683,
          "midi": 74,
          "name": "D5",
          "ticks": 146400,
          "time": 159.13009000000002,
          "velocity": 0.8818897637795275
        },
        {
          "duration": 0.24673859583333524,
          "durationTicks": 227,
          "midi": 71,
          "name": "B4",
          "ticks": 147120,
          "time": 159.912697,
          "velocity": 0.8818897637795275
        },
        {
          "duration": 0.24673859583330682,
          "durationTicks": 227,
          "midi": 69,
          "name": "A4",
          "ticks": 147360,
          "time": 160.17356600000002,
          "velocity": 0.8818897637795275
        },
        {
          "duration": 0.12282582083332727,
          "durationTicks": 113,
          "midi": 65,
          "name": "F4",
          "ticks": 147600,
          "time": 160.434435,
          "velocity": 0.8818897637795275
        },
        {
          "duration": 1.120649745833333,
          "durationTicks": 1031,
          "midi": 64,
          "name": "E4",
          "ticks": 147720,
          "time": 160.56486950000001,
          "velocity": 0.8818897637795275
        },
        {
          "duration": 0.12282582083332727,
          "durationTicks": 113,
          "midi": 62,
          "name": "D4",
          "ticks": 147960,
          "time": 160.8257385,
          "velocity": 0.8818897637795275
        },
        {
          "duration": 0.24673859583333524,
          "durationTicks": 227,
          "midi": 59,
          "name": "B3",
          "ticks": 148080,
          "time": 160.956173,
          "velocity": 0.8818897637795275
        },
        {
          "duration": 0.24673859583333524,
          "durationTicks": 227,
          "midi": 62,
          "name": "D4",
          "ticks": 148320,
          "time": 161.21704200000002,
          "velocity": 0.8818897637795275
        },
        {
          "duration": 0.24673859583333524,
          "durationTicks": 227,
          "midi": 62,
          "name": "D4",
          "ticks": 148560,
          "time": 161.477911,
          "velocity": 0.8818897637795275
        },
        {
          "duration": 0.24673859583333524,
          "durationTicks": 227,
          "midi": 59,
          "name": "B3",
          "ticks": 148800,
          "time": 161.73878000000002,
          "velocity": 0.8818897637795275
        },
        {
          "duration": 0.24673859583333524,
          "durationTicks": 227,
          "midi": 59,
          "name": "B3",
          "ticks": 149760,
          "time": 162.78225600000002,
          "velocity": 0.8818897637795275
        },
        {
          "duration": 0.24673859583333524,
          "durationTicks": 227,
          "midi": 74,
          "name": "D5",
          "ticks": 150000,
          "time": 163.043125,
          "velocity": 0.8818897637795275
        },
        {
          "duration": 0.12282582083332727,
          "durationTicks": 113,
          "midi": 71,
          "name": "B4",
          "ticks": 150240,
          "time": 163.30399400000002,
          "velocity": 0.8818897637795275
        },
        {
          "duration": 0.24673859583330682,
          "durationTicks": 227,
          "midi": 69,
          "name": "A4",
          "ticks": 150360,
          "time": 163.43442850000002,
          "velocity": 0.8818897637795275
        },
        {
          "duration": 0.12282582083332727,
          "durationTicks": 113,
          "midi": 65,
          "name": "F4",
          "ticks": 150600,
          "time": 163.6952975,
          "velocity": 0.8818897637795275
        },
        {
          "duration": 0.24673859583333524,
          "durationTicks": 227,
          "midi": 64,
          "name": "E4",
          "ticks": 150720,
          "time": 163.82573200000002,
          "velocity": 0.8818897637795275
        },
        {
          "duration": 0.2608690000000138,
          "durationTicks": 240,
          "midi": 62,
          "name": "D4",
          "ticks": 150960,
          "time": 164.086601,
          "velocity": 0.8818897637795275
        },
        {
          "duration": 0.26086899999998536,
          "durationTicks": 240,
          "midi": 62,
          "name": "D4",
          "ticks": 151200,
          "time": 164.34747000000002,
          "velocity": 0.8818897637795275
        },
        {
          "duration": 1.25108424583334,
          "durationTicks": 1151,
          "midi": 62,
          "name": "D4",
          "ticks": 151440,
          "time": 164.608339,
          "velocity": 0.8818897637795275
        }
      ],
      "endOfTrackTicks": 152592
    },
    {
      "channel": 0,
      "controlChanges": {},
      "pitchBends": [],
      "instrument": {
        "family": "piano",
        "name": "acoustic grand piano",
        "number": 0
      },
      "name": "",
      "notes": [
        {
          "duration": 0.24456468750000002,
          "durationTicks": 225,
          "midi": 47,
          "name": "B2",
          "ticks": 0,
          "time": 0,
          "velocity": 0.6299212598425197
        },
        {
          "duration": 0.24456468750000002,
          "durationTicks": 225,
          "midi": 50,
          "name": "D3",
          "ticks": 0,
          "time": 0,
          "velocity": 0.6299212598425197
        },
        {
          "duration": 0.24456468750000002,
          "durationTicks": 225,
          "midi": 54,
          "name": "F#3",
          "ticks": 0,
          "time": 0,
          "velocity": 0.6299212598425197
        },
        {
          "duration": 0.24456468750000004,
          "durationTicks": 225,
          "midi": 47,
          "name": "B2",
          "ticks": 240,
          "time": 0.260869,
          "velocity": 0.6299212598425197
        },
        {
          "duration": 0.24456468750000004,
          "durationTicks": 225,
          "midi": 50,
          "name": "D3",
          "ticks": 240,
          "time": 0.260869,
          "velocity": 0.6299212598425197
        },
        {
          "duration": 0.24456468750000004,
          "durationTicks": 225,
          "midi": 54,
          "name": "F#3",
          "ticks": 240,
          "time": 0.260869,
          "velocity": 0.6299212598425197
        },
        {
          "duration": 0.24456468750000004,
          "durationTicks": 225,
          "midi": 47,
          "name": "B2",
          "ticks": 480,
          "time": 0.521738,
          "velocity": 0.6299212598425197
        },
        {
          "duration": 0.24456468750000004,
          "durationTicks": 225,
          "midi": 50,
          "name": "D3",
          "ticks": 480,
          "time": 0.521738,
          "velocity": 0.6299212598425197
        },
        {
          "duration": 0.24456468750000004,
          "durationTicks": 225,
          "midi": 54,
          "name": "F#3",
          "ticks": 480,
          "time": 0.521738,
          "velocity": 0.6299212598425197
        },
        {
          "duration": 0.24456468750000004,
          "durationTicks": 225,
          "midi": 47,
          "name": "B2",
          "ticks": 720,
          "time": 0.782607,
          "velocity": 0.6299212598425197
        },
        {
          "duration": 0.24456468750000004,
          "durationTicks": 225,
          "midi": 50,
          "name": "D3",
          "ticks": 720,
          "time": 0.782607,
          "velocity": 0.6299212598425197
        },
        {
          "duration": 0.24456468750000004,
          "durationTicks": 225,
          "midi": 54,
          "name": "F#3",
          "ticks": 720,
          "time": 0.782607,
          "velocity": 0.6299212598425197
        },
        {
          "duration": 0.24456468750000004,
          "durationTicks": 225,
          "midi": 47,
          "name": "B2",
          "ticks": 960,
          "time": 1.043476,
          "velocity": 0.6299212598425197
        },
        {
          "duration": 0.24456468750000004,
          "durationTicks": 225,
          "midi": 50,
          "name": "D3",
          "ticks": 960,
          "time": 1.043476,
          "velocity": 0.6299212598425197
        },
        {
          "duration": 0.24456468750000004,
          "durationTicks": 225,
          "midi": 54,
          "name": "F#3",
          "ticks": 960,
          "time": 1.043476,
          "velocity": 0.6299212598425197
        },
        {
          "duration": 0.24456468750000004,
          "durationTicks": 225,
          "midi": 47,
          "name": "B2",
          "ticks": 1200,
          "time": 1.304345,
          "velocity": 0.6299212598425197
        },
        {
          "duration": 0.24456468750000004,
          "durationTicks": 225,
          "midi": 50,
          "name": "D3",
          "ticks": 1200,
          "time": 1.304345,
          "velocity": 0.6299212598425197
        },
        {
          "duration": 0.24456468750000004,
          "durationTicks": 225,
          "midi": 54,
          "name": "F#3",
          "ticks": 1200,
          "time": 1.304345,
          "velocity": 0.6299212598425197
        },
        {
          "duration": 0.24456468750000004,
          "durationTicks": 225,
          "midi": 47,
          "name": "B2",
          "ticks": 1440,
          "time": 1.565214,
          "velocity": 0.6299212598425197
        },
        {
          "duration": 0.24456468750000004,
          "durationTicks": 225,
          "midi": 50,
          "name": "D3",
          "ticks": 1440,
          "time": 1.565214,
          "velocity": 0.6299212598425197
        },
        {
          "duration": 0.24456468750000004,
          "durationTicks": 225,
          "midi": 54,
          "name": "F#3",
          "ticks": 1440,
          "time": 1.565214,
          "velocity": 0.6299212598425197
        },
        {
          "duration": 0.24456468750000004,
          "durationTicks": 225,
          "midi": 47,
          "name": "B2",
          "ticks": 1680,
          "time": 1.8260830000000001,
          "velocity": 0.6299212598425197
        },
        {
          "duration": 0.24456468750000004,
          "durationTicks": 225,
          "midi": 50,
          "name": "D3",
          "ticks": 1680,
          "time": 1.8260830000000001,
          "velocity": 0.6299212598425197
        },
        {
          "duration": 0.24456468750000004,
          "durationTicks": 225,
          "midi": 54,
          "name": "F#3",
          "ticks": 1680,
          "time": 1.8260830000000001,
          "velocity": 0.6299212598425197
        },
        {
          "duration": 0.24456468750000004,
          "durationTicks": 225,
          "midi": 47,
          "name": "B2",
          "ticks": 1920,
          "time": 2.086952,
          "velocity": 0.6299212598425197
        },
        {
          "duration": 0.24456468750000004,
          "durationTicks": 225,
          "midi": 50,
          "name": "D3",
          "ticks": 1920,
          "time": 2.086952,
          "velocity": 0.6299212598425197
        },
        {
          "duration": 0.24456468750000004,
          "durationTicks": 225,
          "midi": 54,
          "name": "F#3",
          "ticks": 1920,
          "time": 2.086952,
          "velocity": 0.6299212598425197
        },
        {
          "duration": 0.24456468750000004,
          "durationTicks": 225,
          "midi": 47,
          "name": "B2",
          "ticks": 2160,
          "time": 2.347821,
          "velocity": 0.6299212598425197
        },
        {
          "duration": 0.24456468750000004,
          "durationTicks": 225,
          "midi": 50,
          "name": "D3",
          "ticks": 2160,
          "time": 2.347821,
          "velocity": 0.6299212598425197
        },
        {
          "duration": 0.24456468750000004,
          "durationTicks": 225,
          "midi": 54,
          "name": "F#3",
          "ticks": 2160,
          "time": 2.347821,
          "velocity": 0.6299212598425197
        },
        {
          "duration": 0.24456468750000004,
          "durationTicks": 225,
          "midi": 47,
          "name": "B2",
          "ticks": 2400,
          "time": 2.60869,
          "velocity": 0.6299212598425197
        },
        {
          "duration": 0.24456468750000004,
          "durationTicks": 225,
          "midi": 50,
          "name": "D3",
          "ticks": 2400,
          "time": 2.60869,
          "velocity": 0.6299212598425197
        },
        {
          "duration": 0.24456468750000004,
          "durationTicks": 225,
          "midi": 54,
          "name": "F#3",
          "ticks": 2400,
          "time": 2.60869,
          "velocity": 0.6299212598425197
        },
        {
          "duration": 0.24456468750000004,
          "durationTicks": 225,
          "midi": 47,
          "name": "B2",
          "ticks": 2640,
          "time": 2.869559,
          "velocity": 0.6299212598425197
        },
        {
          "duration": 0.24456468750000004,
          "durationTicks": 225,
          "midi": 50,
          "name": "D3",
          "ticks": 2640,
          "time": 2.869559,
          "velocity": 0.6299212598425197
        },
        {
          "duration": 0.24456468750000004,
          "durationTicks": 225,
          "midi": 54,
          "name": "F#3",
          "ticks": 2640,
          "time": 2.869559,
          "velocity": 0.6299212598425197
        },
        {
          "duration": 0.24456468750000004,
          "durationTicks": 225,
          "midi": 47,
          "name": "B2",
          "ticks": 2880,
          "time": 3.130428,
          "velocity": 0.6299212598425197
        },
        {
          "duration": 0.24456468750000004,
          "durationTicks": 225,
          "midi": 50,
          "name": "D3",
          "ticks": 2880,
          "time": 3.130428,
          "velocity": 0.6299212598425197
        },
        {
          "duration": 0.24456468750000004,
          "durationTicks": 225,
          "midi": 54,
          "name": "F#3",
          "ticks": 2880,
          "time": 3.130428,
          "velocity": 0.6299212598425197
        },
        {
          "duration": 0.24456468750000004,
          "durationTicks": 225,
          "midi": 47,
          "name": "B2",
          "ticks": 3120,
          "time": 3.3912970000000002,
          "velocity": 0.6299212598425197
        },
        {
          "duration": 0.24456468750000004,
          "durationTicks": 225,
          "midi": 50,
          "name": "D3",
          "ticks": 3120,
          "time": 3.3912970000000002,
          "velocity": 0.6299212598425197
        },
        {
          "duration": 0.24456468750000004,
          "durationTicks": 225,
          "midi": 54,
          "name": "F#3",
          "ticks": 3120,
          "time": 3.3912970000000002,
          "velocity": 0.6299212598425197
        },
        {
          "duration": 0.24456468750000004,
          "durationTicks": 225,
          "midi": 47,
          "name": "B2",
          "ticks": 3360,
          "time": 3.6521660000000002,
          "velocity": 0.6299212598425197
        },
        {
          "duration": 0.24456468750000004,
          "durationTicks": 225,
          "midi": 50,
          "name": "D3",
          "ticks": 3360,
          "time": 3.6521660000000002,
          "velocity": 0.6299212598425197
        },
        {
          "duration": 0.24456468750000004,
          "durationTicks": 225,
          "midi": 54,
          "name": "F#3",
          "ticks": 3360,
          "time": 3.6521660000000002,
          "velocity": 0.6299212598425197
        },
        {
          "duration": 0.24456468750000004,
          "durationTicks": 225,
          "midi": 47,
          "name": "B2",
          "ticks": 3600,
          "time": 3.9130350000000003,
          "velocity": 0.6299212598425197
        },
        {
          "duration": 0.24456468750000004,
          "durationTicks": 225,
          "midi": 50,
          "name": "D3",
          "ticks": 3600,
          "time": 3.9130350000000003,
          "velocity": 0.6299212598425197
        },
        {
          "duration": 0.24456468750000004,
          "durationTicks": 225,
          "midi": 54,
          "name": "F#3",
          "ticks": 3600,
          "time": 3.9130350000000003,
          "velocity": 0.6299212598425197
        },
        {
          "duration": 0.2445646874999996,
          "durationTicks": 225,
          "midi": 48,
          "name": "C3",
          "ticks": 3840,
          "time": 4.173904,
          "velocity": 0.6299212598425197
        },
        {
          "duration": 0.2445646874999996,
          "durationTicks": 225,
          "midi": 52,
          "name": "E3",
          "ticks": 3840,
          "time": 4.173904,
          "velocity": 0.6299212598425197
        },
        {
          "duration": 0.2445646874999996,
          "durationTicks": 225,
          "midi": 55,
          "name": "G3",
          "ticks": 3840,
          "time": 4.173904,
          "velocity": 0.6299212598425197
        },
        {
          "duration": 0.2445646875000005,
          "durationTicks": 225,
          "midi": 48,
          "name": "C3",
          "ticks": 4080,
          "time": 4.434773,
          "velocity": 0.6299212598425197
        },
        {
          "duration": 0.2445646875000005,
          "durationTicks": 225,
          "midi": 52,
          "name": "E3",
          "ticks": 4080,
          "time": 4.434773,
          "velocity": 0.6299212598425197
        },
        {
          "duration": 0.2445646875000005,
          "durationTicks": 225,
          "midi": 55,
          "name": "G3",
          "ticks": 4080,
          "time": 4.434773,
          "velocity": 0.6299212598425197
        },
        {
          "duration": 0.2445646874999996,
          "durationTicks": 225,
          "midi": 48,
          "name": "C3",
          "ticks": 4320,
          "time": 4.695642,
          "velocity": 0.6299212598425197
        },
        {
          "duration": 0.2445646874999996,
          "durationTicks": 225,
          "midi": 52,
          "name": "E3",
          "ticks": 4320,
          "time": 4.695642,
          "velocity": 0.6299212598425197
        },
        {
          "duration": 0.2445646874999996,
          "durationTicks": 225,
          "midi": 55,
          "name": "G3",
          "ticks": 4320,
          "time": 4.695642,
          "velocity": 0.6299212598425197
        },
        {
          "duration": 0.2445646874999996,
          "durationTicks": 225,
          "midi": 48,
          "name": "C3",
          "ticks": 4560,
          "time": 4.956511000000001,
          "velocity": 0.6299212598425197
        },
        {
          "duration": 0.2445646874999996,
          "durationTicks": 225,
          "midi": 52,
          "name": "E3",
          "ticks": 4560,
          "time": 4.956511000000001,
          "velocity": 0.6299212598425197
        },
        {
          "duration": 0.2445646874999996,
          "durationTicks": 225,
          "midi": 55,
          "name": "G3",
          "ticks": 4560,
          "time": 4.956511000000001,
          "velocity": 0.6299212598425197
        },
        {
          "duration": 0.2445646874999996,
          "durationTicks": 225,
          "midi": 48,
          "name": "C3",
          "ticks": 4800,
          "time": 5.21738,
          "velocity": 0.6299212598425197
        },
        {
          "duration": 0.2445646874999996,
          "durationTicks": 225,
          "midi": 52,
          "name": "E3",
          "ticks": 4800,
          "time": 5.21738,
          "velocity": 0.6299212598425197
        },
        {
          "duration": 0.2445646874999996,
          "durationTicks": 225,
          "midi": 55,
          "name": "G3",
          "ticks": 4800,
          "time": 5.21738,
          "velocity": 0.6299212598425197
        },
        {
          "duration": 0.2445646875000005,
          "durationTicks": 225,
          "midi": 48,
          "name": "C3",
          "ticks": 5040,
          "time": 5.478249,
          "velocity": 0.6299212598425197
        },
        {
          "duration": 0.2445646875000005,
          "durationTicks": 225,
          "midi": 52,
          "name": "E3",
          "ticks": 5040,
          "time": 5.478249,
          "velocity": 0.6299212598425197
        },
        {
          "duration": 0.2445646875000005,
          "durationTicks": 225,
          "midi": 55,
          "name": "G3",
          "ticks": 5040,
          "time": 5.478249,
          "velocity": 0.6299212598425197
        },
        {
          "duration": 0.2445646874999996,
          "durationTicks": 225,
          "midi": 48,
          "name": "C3",
          "ticks": 5280,
          "time": 5.739118,
          "velocity": 0.6299212598425197
        },
        {
          "duration": 0.2445646874999996,
          "durationTicks": 225,
          "midi": 52,
          "name": "E3",
          "ticks": 5280,
          "time": 5.739118,
          "velocity": 0.6299212598425197
        },
        {
          "duration": 0.2445646874999996,
          "durationTicks": 225,
          "midi": 55,
          "name": "G3",
          "ticks": 5280,
          "time": 5.739118,
          "velocity": 0.6299212598425197
        },
        {
          "duration": 0.2445646874999996,
          "durationTicks": 225,
          "midi": 48,
          "name": "C3",
          "ticks": 5520,
          "time": 5.999987000000001,
          "velocity": 0.6299212598425197
        },
        {
          "duration": 0.2445646874999996,
          "durationTicks": 225,
          "midi": 52,
          "name": "E3",
          "ticks": 5520,
          "time": 5.999987000000001,
          "velocity": 0.6299212598425197
        },
        {
          "duration": 0.2445646874999996,
          "durationTicks": 225,
          "midi": 55,
          "name": "G3",
          "ticks": 5520,
          "time": 5.999987000000001,
          "velocity": 0.6299212598425197
        },
        {
          "duration": 0.2445646874999996,
          "durationTicks": 225,
          "midi": 48,
          "name": "C3",
          "ticks": 5760,
          "time": 6.260856,
          "velocity": 0.6299212598425197
        },
        {
          "duration": 0.2445646874999996,
          "durationTicks": 225,
          "midi": 52,
          "name": "E3",
          "ticks": 5760,
          "time": 6.260856,
          "velocity": 0.6299212598425197
        },
        {
          "duration": 0.2445646874999996,
          "durationTicks": 225,
          "midi": 55,
          "name": "G3",
          "ticks": 5760,
          "time": 6.260856,
          "velocity": 0.6299212598425197
        },
        {
          "duration": 0.2445646875000005,
          "durationTicks": 225,
          "midi": 48,
          "name": "C3",
          "ticks": 6000,
          "time": 6.521725,
          "velocity": 0.6299212598425197
        },
        {
          "duration": 0.2445646875000005,
          "durationTicks": 225,
          "midi": 52,
          "name": "E3",
          "ticks": 6000,
          "time": 6.521725,
          "velocity": 0.6299212598425197
        },
        {
          "duration": 0.2445646875000005,
          "durationTicks": 225,
          "midi": 55,
          "name": "G3",
          "ticks": 6000,
          "time": 6.521725,
          "velocity": 0.6299212598425197
        },
        {
          "duration": 0.2445646874999996,
          "durationTicks": 225,
          "midi": 48,
          "name": "C3",
          "ticks": 6240,
          "time": 6.7825940000000005,
          "velocity": 0.6299212598425197
        },
        {
          "duration": 0.2445646874999996,
          "durationTicks": 225,
          "midi": 52,
          "name": "E3",
          "ticks": 6240,
          "time": 6.7825940000000005,
          "velocity": 0.6299212598425197
        },
        {
          "duration": 0.2445646874999996,
          "durationTicks": 225,
          "midi": 55,
          "name": "G3",
          "ticks": 6240,
          "time": 6.7825940000000005,
          "velocity": 0.6299212598425197
        },
        {
          "duration": 0.2445646874999996,
          "durationTicks": 225,
          "midi": 48,
          "name": "C3",
          "ticks": 6480,
          "time": 7.043463000000001,
          "velocity": 0.6299212598425197
        },
        {
          "duration": 0.2445646874999996,
          "durationTicks": 225,
          "midi": 52,
          "name": "E3",
          "ticks": 6480,
          "time": 7.043463000000001,
          "velocity": 0.6299212598425197
        },
        {
          "duration": 0.2445646874999996,
          "durationTicks": 225,
          "midi": 55,
          "name": "G3",
          "ticks": 6480,
          "time": 7.043463000000001,
          "velocity": 0.6299212598425197
        },
        {
          "duration": 0.2445646874999996,
          "durationTicks": 225,
          "midi": 48,
          "name": "C3",
          "ticks": 6720,
          "time": 7.3043320000000005,
          "velocity": 0.6299212598425197
        },
        {
          "duration": 0.2445646874999996,
          "durationTicks": 225,
          "midi": 52,
          "name": "E3",
          "ticks": 6720,
          "time": 7.3043320000000005,
          "velocity": 0.6299212598425197
        },
        {
          "duration": 0.2445646874999996,
          "durationTicks": 225,
          "midi": 55,
          "name": "G3",
          "ticks": 6720,
          "time": 7.3043320000000005,
          "velocity": 0.6299212598425197
        },
        {
          "duration": 0.2445646875000005,
          "durationTicks": 225,
          "midi": 48,
          "name": "C3",
          "ticks": 6960,
          "time": 7.565201,
          "velocity": 0.6299212598425197
        },
        {
          "duration": 0.2445646875000005,
          "durationTicks": 225,
          "midi": 52,
          "name": "E3",
          "ticks": 6960,
          "time": 7.565201,
          "velocity": 0.6299212598425197
        },
        {
          "duration": 0.2445646875000005,
          "durationTicks": 225,
          "midi": 55,
          "name": "G3",
          "ticks": 6960,
          "time": 7.565201,
          "velocity": 0.6299212598425197
        },
        {
          "duration": 0.2445646874999996,
          "durationTicks": 225,
          "midi": 48,
          "name": "C3",
          "ticks": 7200,
          "time": 7.8260700000000005,
          "velocity": 0.6299212598425197
        },
        {
          "duration": 0.2445646874999996,
          "durationTicks": 225,
          "midi": 52,
          "name": "E3",
          "ticks": 7200,
          "time": 7.8260700000000005,
          "velocity": 0.6299212598425197
        },
        {
          "duration": 0.2445646874999996,
          "durationTicks": 225,
          "midi": 55,
          "name": "G3",
          "ticks": 7200,
          "time": 7.8260700000000005,
          "velocity": 0.6299212598425197
        },
        {
          "duration": 0.2445646874999987,
          "durationTicks": 225,
          "midi": 48,
          "name": "C3",
          "ticks": 7440,
          "time": 8.086939000000001,
          "velocity": 0.6299212598425197
        },
        {
          "duration": 0.2445646874999987,
          "durationTicks": 225,
          "midi": 52,
          "name": "E3",
          "ticks": 7440,
          "time": 8.086939000000001,
          "velocity": 0.6299212598425197
        },
        {
          "duration": 0.2445646874999987,
          "durationTicks": 225,
          "midi": 55,
          "name": "G3",
          "ticks": 7440,
          "time": 8.086939000000001,
          "velocity": 0.6299212598425197
        },
        {
          "duration": 0.2445646875000005,
          "durationTicks": 225,
          "midi": 47,
          "name": "B2",
          "ticks": 7680,
          "time": 8.347808,
          "velocity": 0.6299212598425197
        },
        {
          "duration": 0.2445646875000005,
          "durationTicks": 225,
          "midi": 50,
          "name": "D3",
          "ticks": 7680,
          "time": 8.347808,
          "velocity": 0.6299212598425197
        },
        {
          "duration": 0.2445646875000005,
          "durationTicks": 225,
          "midi": 54,
          "name": "F#3",
          "ticks": 7680,
          "time": 8.347808,
          "velocity": 0.6299212598425197
        },
        {
          "duration": 0.2445646875000005,
          "durationTicks": 225,
          "midi": 47,
          "name": "B2",
          "ticks": 7920,
          "time": 8.608677,
          "velocity": 0.6299212598425197
        },
        {
          "duration": 0.2445646875000005,
          "durationTicks": 225,
          "midi": 50,
          "name": "D3",
          "ticks": 7920,
          "time": 8.608677,
          "velocity": 0.6299212598425197
        },
        {
          "duration": 0.2445646875000005,
          "durationTicks": 225,
          "midi": 54,
          "name": "F#3",
          "ticks": 7920,
          "time": 8.608677,
          "velocity": 0.6299212598425197
        },
        {
          "duration": 0.2445646875000005,
          "durationTicks": 225,
          "midi": 47,
          "name": "B2",
          "ticks": 8160,
          "time": 8.869546,
          "velocity": 0.6299212598425197
        },
        {
          "duration": 0.2445646875000005,
          "durationTicks": 225,
          "midi": 50,
          "name": "D3",
          "ticks": 8160,
          "time": 8.869546,
          "velocity": 0.6299212598425197
        },
        {
          "duration": 0.2445646875000005,
          "durationTicks": 225,
          "midi": 54,
          "name": "F#3",
          "ticks": 8160,
          "time": 8.869546,
          "velocity": 0.6299212598425197
        },
        {
          "duration": 0.2445646874999987,
          "durationTicks": 225,
          "midi": 47,
          "name": "B2",
          "ticks": 8400,
          "time": 9.130415000000001,
          "velocity": 0.6299212598425197
        },
        {
          "duration": 0.2445646874999987,
          "durationTicks": 225,
          "midi": 50,
          "name": "D3",
          "ticks": 8400,
          "time": 9.130415000000001,
          "velocity": 0.6299212598425197
        },
        {
          "duration": 0.2445646874999987,
          "durationTicks": 225,
          "midi": 54,
          "name": "F#3",
          "ticks": 8400,
          "time": 9.130415000000001,
          "velocity": 0.6299212598425197
        },
        {
          "duration": 0.2445646875000005,
          "durationTicks": 225,
          "midi": 47,
          "name": "B2",
          "ticks": 8640,
          "time": 9.391284,
          "velocity": 0.6299212598425197
        },
        {
          "duration": 0.2445646875000005,
          "durationTicks": 225,
          "midi": 50,
          "name": "D3",
          "ticks": 8640,
          "time": 9.391284,
          "velocity": 0.6299212598425197
        },
        {
          "duration": 0.2445646875000005,
          "durationTicks": 225,
          "midi": 54,
          "name": "F#3",
          "ticks": 8640,
          "time": 9.391284,
          "velocity": 0.6299212598425197
        },
        {
          "duration": 0.2445646875000005,
          "durationTicks": 225,
          "midi": 47,
          "name": "B2",
          "ticks": 8880,
          "time": 9.652153,
          "velocity": 0.6299212598425197
        },
        {
          "duration": 0.2445646875000005,
          "durationTicks": 225,
          "midi": 50,
          "name": "D3",
          "ticks": 8880,
          "time": 9.652153,
          "velocity": 0.6299212598425197
        },
        {
          "duration": 0.2445646875000005,
          "durationTicks": 225,
          "midi": 54,
          "name": "F#3",
          "ticks": 8880,
          "time": 9.652153,
          "velocity": 0.6299212598425197
        },
        {
          "duration": 0.2445646874999987,
          "durationTicks": 225,
          "midi": 47,
          "name": "B2",
          "ticks": 9120,
          "time": 9.913022000000002,
          "velocity": 0.6299212598425197
        },
        {
          "duration": 0.2445646874999987,
          "durationTicks": 225,
          "midi": 50,
          "name": "D3",
          "ticks": 9120,
          "time": 9.913022000000002,
          "velocity": 0.6299212598425197
        },
        {
          "duration": 0.2445646874999987,
          "durationTicks": 225,
          "midi": 54,
          "name": "F#3",
          "ticks": 9120,
          "time": 9.913022000000002,
          "velocity": 0.6299212598425197
        },
        {
          "duration": 0.2445646874999987,
          "durationTicks": 225,
          "midi": 47,
          "name": "B2",
          "ticks": 9360,
          "time": 10.173891000000001,
          "velocity": 0.6299212598425197
        },
        {
          "duration": 0.2445646874999987,
          "durationTicks": 225,
          "midi": 50,
          "name": "D3",
          "ticks": 9360,
          "time": 10.173891000000001,
          "velocity": 0.6299212598425197
        },
        {
          "duration": 0.2445646874999987,
          "durationTicks": 225,
          "midi": 54,
          "name": "F#3",
          "ticks": 9360,
          "time": 10.173891000000001,
          "velocity": 0.6299212598425197
        },
        {
          "duration": 0.2445646875000005,
          "durationTicks": 225,
          "midi": 47,
          "name": "B2",
          "ticks": 9600,
          "time": 10.43476,
          "velocity": 0.6299212598425197
        },
        {
          "duration": 0.2445646875000005,
          "durationTicks": 225,
          "midi": 50,
          "name": "D3",
          "ticks": 9600,
          "time": 10.43476,
          "velocity": 0.6299212598425197
        },
        {
          "duration": 0.2445646875000005,
          "durationTicks": 225,
          "midi": 54,
          "name": "F#3",
          "ticks": 9600,
          "time": 10.43476,
          "velocity": 0.6299212598425197
        },
        {
          "duration": 0.2445646875000005,
          "durationTicks": 225,
          "midi": 47,
          "name": "B2",
          "ticks": 9840,
          "time": 10.695629,
          "velocity": 0.6299212598425197
        },
        {
          "duration": 0.2445646875000005,
          "durationTicks": 225,
          "midi": 50,
          "name": "D3",
          "ticks": 9840,
          "time": 10.695629,
          "velocity": 0.6299212598425197
        },
        {
          "duration": 0.2445646875000005,
          "durationTicks": 225,
          "midi": 54,
          "name": "F#3",
          "ticks": 9840,
          "time": 10.695629,
          "velocity": 0.6299212598425197
        },
        {
          "duration": 0.2445646875000005,
          "durationTicks": 225,
          "midi": 47,
          "name": "B2",
          "ticks": 10080,
          "time": 10.956498,
          "velocity": 0.6299212598425197
        },
        {
          "duration": 0.2445646875000005,
          "durationTicks": 225,
          "midi": 50,
          "name": "D3",
          "ticks": 10080,
          "time": 10.956498,
          "velocity": 0.6299212598425197
        },
        {
          "duration": 0.2445646875000005,
          "durationTicks": 225,
          "midi": 54,
          "name": "F#3",
          "ticks": 10080,
          "time": 10.956498,
          "velocity": 0.6299212598425197
        },
        {
          "duration": 0.2445646874999987,
          "durationTicks": 225,
          "midi": 47,
          "name": "B2",
          "ticks": 10320,
          "time": 11.217367000000001,
          "velocity": 0.6299212598425197
        },
        {
          "duration": 0.2445646874999987,
          "durationTicks": 225,
          "midi": 50,
          "name": "D3",
          "ticks": 10320,
          "time": 11.217367000000001,
          "velocity": 0.6299212598425197
        },
        {
          "duration": 0.2445646874999987,
          "durationTicks": 225,
          "midi": 54,
          "name": "F#3",
          "ticks": 10320,
          "time": 11.217367000000001,
          "velocity": 0.6299212598425197
        },
        {
          "duration": 0.2445646875000005,
          "durationTicks": 225,
          "midi": 47,
          "name": "B2",
          "ticks": 10560,
          "time": 11.478236,
          "velocity": 0.6299212598425197
        },
        {
          "duration": 0.2445646875000005,
          "durationTicks": 225,
          "midi": 50,
          "name": "D3",
          "ticks": 10560,
          "time": 11.478236,
          "velocity": 0.6299212598425197
        },
        {
          "duration": 0.2445646875000005,
          "durationTicks": 225,
          "midi": 54,
          "name": "F#3",
          "ticks": 10560,
          "time": 11.478236,
          "velocity": 0.6299212598425197
        },
        {
          "duration": 0.2445646875000005,
          "durationTicks": 225,
          "midi": 47,
          "name": "B2",
          "ticks": 10800,
          "time": 11.739105,
          "velocity": 0.6299212598425197
        },
        {
          "duration": 0.2445646875000005,
          "durationTicks": 225,
          "midi": 50,
          "name": "D3",
          "ticks": 10800,
          "time": 11.739105,
          "velocity": 0.6299212598425197
        },
        {
          "duration": 0.2445646875000005,
          "durationTicks": 225,
          "midi": 54,
          "name": "F#3",
          "ticks": 10800,
          "time": 11.739105,
          "velocity": 0.6299212598425197
        },
        {
          "duration": 0.2445646874999987,
          "durationTicks": 225,
          "midi": 47,
          "name": "B2",
          "ticks": 11040,
          "time": 11.999974000000002,
          "velocity": 0.6299212598425197
        },
        {
          "duration": 0.2445646874999987,
          "durationTicks": 225,
          "midi": 50,
          "name": "D3",
          "ticks": 11040,
          "time": 11.999974000000002,
          "velocity": 0.6299212598425197
        },
        {
          "duration": 0.2445646874999987,
          "durationTicks": 225,
          "midi": 54,
          "name": "F#3",
          "ticks": 11040,
          "time": 11.999974000000002,
          "velocity": 0.6299212598425197
        },
        {
          "duration": 0.2445646874999987,
          "durationTicks": 225,
          "midi": 47,
          "name": "B2",
          "ticks": 11280,
          "time": 12.260843000000001,
          "velocity": 0.6299212598425197
        },
        {
          "duration": 0.2445646874999987,
          "durationTicks": 225,
          "midi": 50,
          "name": "D3",
          "ticks": 11280,
          "time": 12.260843000000001,
          "velocity": 0.6299212598425197
        },
        {
          "duration": 0.2445646874999987,
          "durationTicks": 225,
          "midi": 54,
          "name": "F#3",
          "ticks": 11280,
          "time": 12.260843000000001,
          "velocity": 0.6299212598425197
        },
        {
          "duration": 0.2445646875000005,
          "durationTicks": 225,
          "midi": 48,
          "name": "C3",
          "ticks": 11520,
          "time": 12.521712,
          "velocity": 0.6299212598425197
        },
        {
          "duration": 0.2445646875000005,
          "durationTicks": 225,
          "midi": 52,
          "name": "E3",
          "ticks": 11520,
          "time": 12.521712,
          "velocity": 0.6299212598425197
        },
        {
          "duration": 0.2445646875000005,
          "durationTicks": 225,
          "midi": 55,
          "name": "G3",
          "ticks": 11520,
          "time": 12.521712,
          "velocity": 0.6299212598425197
        },
        {
          "duration": 0.2445646875000005,
          "durationTicks": 225,
          "midi": 48,
          "name": "C3",
          "ticks": 11760,
          "time": 12.782581,
          "velocity": 0.6299212598425197
        },
        {
          "duration": 0.2445646875000005,
          "durationTicks": 225,
          "midi": 52,
          "name": "E3",
          "ticks": 11760,
          "time": 12.782581,
          "velocity": 0.6299212598425197
        },
        {
          "duration": 0.2445646875000005,
          "durationTicks": 225,
          "midi": 55,
          "name": "G3",
          "ticks": 11760,
          "time": 12.782581,
          "velocity": 0.6299212598425197
        },
        {
          "duration": 0.2445646875000005,
          "durationTicks": 225,
          "midi": 48,
          "name": "C3",
          "ticks": 12000,
          "time": 13.04345,
          "velocity": 0.6299212598425197
        },
        {
          "duration": 0.2445646875000005,
          "durationTicks": 225,
          "midi": 52,
          "name": "E3",
          "ticks": 12000,
          "time": 13.04345,
          "velocity": 0.6299212598425197
        },
        {
          "duration": 0.2445646875000005,
          "durationTicks": 225,
          "midi": 55,
          "name": "G3",
          "ticks": 12000,
          "time": 13.04345,
          "velocity": 0.6299212598425197
        },
        {
          "duration": 0.2445646874999987,
          "durationTicks": 225,
          "midi": 48,
          "name": "C3",
          "ticks": 12240,
          "time": 13.304319000000001,
          "velocity": 0.6299212598425197
        },
        {
          "duration": 0.2445646874999987,
          "durationTicks": 225,
          "midi": 52,
          "name": "E3",
          "ticks": 12240,
          "time": 13.304319000000001,
          "velocity": 0.6299212598425197
        },
        {
          "duration": 0.2445646874999987,
          "durationTicks": 225,
          "midi": 55,
          "name": "G3",
          "ticks": 12240,
          "time": 13.304319000000001,
          "velocity": 0.6299212598425197
        },
        {
          "duration": 0.2445646875000005,
          "durationTicks": 225,
          "midi": 48,
          "name": "C3",
          "ticks": 12480,
          "time": 13.565188000000001,
          "velocity": 0.6299212598425197
        },
        {
          "duration": 0.2445646875000005,
          "durationTicks": 225,
          "midi": 52,
          "name": "E3",
          "ticks": 12480,
          "time": 13.565188000000001,
          "velocity": 0.6299212598425197
        },
        {
          "duration": 0.2445646875000005,
          "durationTicks": 225,
          "midi": 55,
          "name": "G3",
          "ticks": 12480,
          "time": 13.565188000000001,
          "velocity": 0.6299212598425197
        },
        {
          "duration": 0.2445646875000005,
          "durationTicks": 225,
          "midi": 48,
          "name": "C3",
          "ticks": 12720,
          "time": 13.826057,
          "velocity": 0.6299212598425197
        },
        {
          "duration": 0.2445646875000005,
          "durationTicks": 225,
          "midi": 52,
          "name": "E3",
          "ticks": 12720,
          "time": 13.826057,
          "velocity": 0.6299212598425197
        },
        {
          "duration": 0.2445646875000005,
          "durationTicks": 225,
          "midi": 55,
          "name": "G3",
          "ticks": 12720,
          "time": 13.826057,
          "velocity": 0.6299212598425197
        },
        {
          "duration": 0.2445646874999987,
          "durationTicks": 225,
          "midi": 48,
          "name": "C3",
          "ticks": 12960,
          "time": 14.086926000000002,
          "velocity": 0.6299212598425197
        },
        {
          "duration": 0.2445646874999987,
          "durationTicks": 225,
          "midi": 52,
          "name": "E3",
          "ticks": 12960,
          "time": 14.086926000000002,
          "velocity": 0.6299212598425197
        },
        {
          "duration": 0.2445646874999987,
          "durationTicks": 225,
          "midi": 55,
          "name": "G3",
          "ticks": 12960,
          "time": 14.086926000000002,
          "velocity": 0.6299212598425197
        },
        {
          "duration": 0.2445646874999987,
          "durationTicks": 225,
          "midi": 48,
          "name": "C3",
          "ticks": 13200,
          "time": 14.347795000000001,
          "velocity": 0.6299212598425197
        },
        {
          "duration": 0.2445646874999987,
          "durationTicks": 225,
          "midi": 52,
          "name": "E3",
          "ticks": 13200,
          "time": 14.347795000000001,
          "velocity": 0.6299212598425197
        },
        {
          "duration": 0.2445646874999987,
          "durationTicks": 225,
          "midi": 55,
          "name": "G3",
          "ticks": 13200,
          "time": 14.347795000000001,
          "velocity": 0.6299212598425197
        },
        {
          "duration": 0.2445646875000005,
          "durationTicks": 225,
          "midi": 48,
          "name": "C3",
          "ticks": 13440,
          "time": 14.608664000000001,
          "velocity": 0.6299212598425197
        },
        {
          "duration": 0.2445646875000005,
          "durationTicks": 225,
          "midi": 52,
          "name": "E3",
          "ticks": 13440,
          "time": 14.608664000000001,
          "velocity": 0.6299212598425197
        },
        {
          "duration": 0.2445646875000005,
          "durationTicks": 225,
          "midi": 55,
          "name": "G3",
          "ticks": 13440,
          "time": 14.608664000000001,
          "velocity": 0.6299212598425197
        },
        {
          "duration": 0.2445646875000005,
          "durationTicks": 225,
          "midi": 48,
          "name": "C3",
          "ticks": 13680,
          "time": 14.869533,
          "velocity": 0.6299212598425197
        },
        {
          "duration": 0.2445646875000005,
          "durationTicks": 225,
          "midi": 52,
          "name": "E3",
          "ticks": 13680,
          "time": 14.869533,
          "velocity": 0.6299212598425197
        },
        {
          "duration": 0.2445646875000005,
          "durationTicks": 225,
          "midi": 55,
          "name": "G3",
          "ticks": 13680,
          "time": 14.869533,
          "velocity": 0.6299212598425197
        },
        {
          "duration": 0.2445646875000005,
          "durationTicks": 225,
          "midi": 48,
          "name": "C3",
          "ticks": 13920,
          "time": 15.130402,
          "velocity": 0.6299212598425197
        },
        {
          "duration": 0.2445646875000005,
          "durationTicks": 225,
          "midi": 52,
          "name": "E3",
          "ticks": 13920,
          "time": 15.130402,
          "velocity": 0.6299212598425197
        },
        {
          "duration": 0.2445646875000005,
          "durationTicks": 225,
          "midi": 55,
          "name": "G3",
          "ticks": 13920,
          "time": 15.130402,
          "velocity": 0.6299212598425197
        },
        {
          "duration": 0.2445646874999987,
          "durationTicks": 225,
          "midi": 48,
          "name": "C3",
          "ticks": 14160,
          "time": 15.391271000000001,
          "velocity": 0.6299212598425197
        },
        {
          "duration": 0.2445646874999987,
          "durationTicks": 225,
          "midi": 52,
          "name": "E3",
          "ticks": 14160,
          "time": 15.391271000000001,
          "velocity": 0.6299212598425197
        },
        {
          "duration": 0.2445646874999987,
          "durationTicks": 225,
          "midi": 55,
          "name": "G3",
          "ticks": 14160,
          "time": 15.391271000000001,
          "velocity": 0.6299212598425197
        },
        {
          "duration": 0.2445646875000005,
          "durationTicks": 225,
          "midi": 48,
          "name": "C3",
          "ticks": 14400,
          "time": 15.652140000000001,
          "velocity": 0.6299212598425197
        },
        {
          "duration": 0.2445646875000005,
          "durationTicks": 225,
          "midi": 52,
          "name": "E3",
          "ticks": 14400,
          "time": 15.652140000000001,
          "velocity": 0.6299212598425197
        },
        {
          "duration": 0.2445646875000005,
          "durationTicks": 225,
          "midi": 55,
          "name": "G3",
          "ticks": 14400,
          "time": 15.652140000000001,
          "velocity": 0.6299212598425197
        },
        {
          "duration": 0.2445646875000005,
          "durationTicks": 225,
          "midi": 48,
          "name": "C3",
          "ticks": 14640,
          "time": 15.913009,
          "velocity": 0.6299212598425197
        },
        {
          "duration": 0.2445646875000005,
          "durationTicks": 225,
          "midi": 52,
          "name": "E3",
          "ticks": 14640,
          "time": 15.913009,
          "velocity": 0.6299212598425197
        },
        {
          "duration": 0.2445646875000005,
          "durationTicks": 225,
          "midi": 55,
          "name": "G3",
          "ticks": 14640,
          "time": 15.913009,
          "velocity": 0.6299212598425197
        },
        {
          "duration": 0.2445646874999987,
          "durationTicks": 225,
          "midi": 48,
          "name": "C3",
          "ticks": 14880,
          "time": 16.173878000000002,
          "velocity": 0.6299212598425197
        },
        {
          "duration": 0.2445646874999987,
          "durationTicks": 225,
          "midi": 52,
          "name": "E3",
          "ticks": 14880,
          "time": 16.173878000000002,
          "velocity": 0.6299212598425197
        },
        {
          "duration": 0.2445646874999987,
          "durationTicks": 225,
          "midi": 55,
          "name": "G3",
          "ticks": 14880,
          "time": 16.173878000000002,
          "velocity": 0.6299212598425197
        },
        {
          "duration": 0.2445646874999987,
          "durationTicks": 225,
          "midi": 48,
          "name": "C3",
          "ticks": 15120,
          "time": 16.434747,
          "velocity": 0.6299212598425197
        },
        {
          "duration": 0.2445646874999987,
          "durationTicks": 225,
          "midi": 52,
          "name": "E3",
          "ticks": 15120,
          "time": 16.434747,
          "velocity": 0.6299212598425197
        },
        {
          "duration": 0.2445646874999987,
          "durationTicks": 225,
          "midi": 55,
          "name": "G3",
          "ticks": 15120,
          "time": 16.434747,
          "velocity": 0.6299212598425197
        },
        {
          "duration": 0.2445646874999987,
          "durationTicks": 225,
          "midi": 47,
          "name": "B2",
          "ticks": 15360,
          "time": 16.695616,
          "velocity": 0.6299212598425197
        },
        {
          "duration": 0.2445646874999987,
          "durationTicks": 225,
          "midi": 50,
          "name": "D3",
          "ticks": 15360,
          "time": 16.695616,
          "velocity": 0.6299212598425197
        },
        {
          "duration": 0.2445646874999987,
          "durationTicks": 225,
          "midi": 54,
          "name": "F#3",
          "ticks": 15360,
          "time": 16.695616,
          "velocity": 0.6299212598425197
        },
        {
          "duration": 0.2445646874999987,
          "durationTicks": 225,
          "midi": 47,
          "name": "B2",
          "ticks": 15600,
          "time": 16.956485,
          "velocity": 0.6299212598425197
        },
        {
          "duration": 0.2445646874999987,
          "durationTicks": 225,
          "midi": 50,
          "name": "D3",
          "ticks": 15600,
          "time": 16.956485,
          "velocity": 0.6299212598425197
        },
        {
          "duration": 0.2445646874999987,
          "durationTicks": 225,
          "midi": 54,
          "name": "F#3",
          "ticks": 15600,
          "time": 16.956485,
          "velocity": 0.6299212598425197
        },
        {
          "duration": 0.24456468750000226,
          "durationTicks": 225,
          "midi": 47,
          "name": "B2",
          "ticks": 15840,
          "time": 17.217354,
          "velocity": 0.6299212598425197
        },
        {
          "duration": 0.24456468750000226,
          "durationTicks": 225,
          "midi": 50,
          "name": "D3",
          "ticks": 15840,
          "time": 17.217354,
          "velocity": 0.6299212598425197
        },
        {
          "duration": 0.24456468750000226,
          "durationTicks": 225,
          "midi": 54,
          "name": "F#3",
          "ticks": 15840,
          "time": 17.217354,
          "velocity": 0.6299212598425197
        },
        {
          "duration": 0.24456468750000226,
          "durationTicks": 225,
          "midi": 47,
          "name": "B2",
          "ticks": 16080,
          "time": 17.478223,
          "velocity": 0.6299212598425197
        },
        {
          "duration": 0.24456468750000226,
          "durationTicks": 225,
          "midi": 50,
          "name": "D3",
          "ticks": 16080,
          "time": 17.478223,
          "velocity": 0.6299212598425197
        },
        {
          "duration": 0.24456468750000226,
          "durationTicks": 225,
          "midi": 54,
          "name": "F#3",
          "ticks": 16080,
          "time": 17.478223,
          "velocity": 0.6299212598425197
        },
        {
          "duration": 0.24456468750000226,
          "durationTicks": 225,
          "midi": 47,
          "name": "B2",
          "ticks": 16320,
          "time": 17.739092,
          "velocity": 0.6299212598425197
        },
        {
          "duration": 0.24456468750000226,
          "durationTicks": 225,
          "midi": 50,
          "name": "D3",
          "ticks": 16320,
          "time": 17.739092,
          "velocity": 0.6299212598425197
        },
        {
          "duration": 0.24456468750000226,
          "durationTicks": 225,
          "midi": 54,
          "name": "F#3",
          "ticks": 16320,
          "time": 17.739092,
          "velocity": 0.6299212598425197
        },
        {
          "duration": 0.2445646874999987,
          "durationTicks": 225,
          "midi": 47,
          "name": "B2",
          "ticks": 16560,
          "time": 17.999961000000003,
          "velocity": 0.6299212598425197
        },
        {
          "duration": 0.2445646874999987,
          "durationTicks": 225,
          "midi": 50,
          "name": "D3",
          "ticks": 16560,
          "time": 17.999961000000003,
          "velocity": 0.6299212598425197
        },
        {
          "duration": 0.2445646874999987,
          "durationTicks": 225,
          "midi": 54,
          "name": "F#3",
          "ticks": 16560,
          "time": 17.999961000000003,
          "velocity": 0.6299212598425197
        },
        {
          "duration": 0.2445646874999987,
          "durationTicks": 225,
          "midi": 47,
          "name": "B2",
          "ticks": 16800,
          "time": 18.260830000000002,
          "velocity": 0.6299212598425197
        },
        {
          "duration": 0.2445646874999987,
          "durationTicks": 225,
          "midi": 50,
          "name": "D3",
          "ticks": 16800,
          "time": 18.260830000000002,
          "velocity": 0.6299212598425197
        },
        {
          "duration": 0.2445646874999987,
          "durationTicks": 225,
          "midi": 54,
          "name": "F#3",
          "ticks": 16800,
          "time": 18.260830000000002,
          "velocity": 0.6299212598425197
        },
        {
          "duration": 0.2445646874999987,
          "durationTicks": 225,
          "midi": 47,
          "name": "B2",
          "ticks": 17040,
          "time": 18.521699,
          "velocity": 0.6299212598425197
        },
        {
          "duration": 0.2445646874999987,
          "durationTicks": 225,
          "midi": 50,
          "name": "D3",
          "ticks": 17040,
          "time": 18.521699,
          "velocity": 0.6299212598425197
        },
        {
          "duration": 0.2445646874999987,
          "durationTicks": 225,
          "midi": 54,
          "name": "F#3",
          "ticks": 17040,
          "time": 18.521699,
          "velocity": 0.6299212598425197
        },
        {
          "duration": 0.2445646874999987,
          "durationTicks": 225,
          "midi": 47,
          "name": "B2",
          "ticks": 17280,
          "time": 18.782568,
          "velocity": 0.6299212598425197
        },
        {
          "duration": 0.2445646874999987,
          "durationTicks": 225,
          "midi": 50,
          "name": "D3",
          "ticks": 17280,
          "time": 18.782568,
          "velocity": 0.6299212598425197
        },
        {
          "duration": 0.2445646874999987,
          "durationTicks": 225,
          "midi": 54,
          "name": "F#3",
          "ticks": 17280,
          "time": 18.782568,
          "velocity": 0.6299212598425197
        },
        {
          "duration": 0.2445646874999987,
          "durationTicks": 225,
          "midi": 47,
          "name": "B2",
          "ticks": 17520,
          "time": 19.043437,
          "velocity": 0.6299212598425197
        },
        {
          "duration": 0.2445646874999987,
          "durationTicks": 225,
          "midi": 50,
          "name": "D3",
          "ticks": 17520,
          "time": 19.043437,
          "velocity": 0.6299212598425197
        },
        {
          "duration": 0.2445646874999987,
          "durationTicks": 225,
          "midi": 54,
          "name": "F#3",
          "ticks": 17520,
          "time": 19.043437,
          "velocity": 0.6299212598425197
        },
        {
          "duration": 0.24456468750000226,
          "durationTicks": 225,
          "midi": 47,
          "name": "B2",
          "ticks": 17760,
          "time": 19.304306,
          "velocity": 0.6299212598425197
        },
        {
          "duration": 0.24456468750000226,
          "durationTicks": 225,
          "midi": 50,
          "name": "D3",
          "ticks": 17760,
          "time": 19.304306,
          "velocity": 0.6299212598425197
        },
        {
          "duration": 0.24456468750000226,
          "durationTicks": 225,
          "midi": 54,
          "name": "F#3",
          "ticks": 17760,
          "time": 19.304306,
          "velocity": 0.6299212598425197
        },
        {
          "duration": 0.24456468750000226,
          "durationTicks": 225,
          "midi": 47,
          "name": "B2",
          "ticks": 18000,
          "time": 19.565175,
          "velocity": 0.6299212598425197
        },
        {
          "duration": 0.24456468750000226,
          "durationTicks": 225,
          "midi": 50,
          "name": "D3",
          "ticks": 18000,
          "time": 19.565175,
          "velocity": 0.6299212598425197
        },
        {
          "duration": 0.24456468750000226,
          "durationTicks": 225,
          "midi": 54,
          "name": "F#3",
          "ticks": 18000,
          "time": 19.565175,
          "velocity": 0.6299212598425197
        },
        {
          "duration": 0.2445646874999987,
          "durationTicks": 225,
          "midi": 47,
          "name": "B2",
          "ticks": 18240,
          "time": 19.826044000000003,
          "velocity": 0.6299212598425197
        },
        {
          "duration": 0.2445646874999987,
          "durationTicks": 225,
          "midi": 50,
          "name": "D3",
          "ticks": 18240,
          "time": 19.826044000000003,
          "velocity": 0.6299212598425197
        },
        {
          "duration": 0.2445646874999987,
          "durationTicks": 225,
          "midi": 54,
          "name": "F#3",
          "ticks": 18240,
          "time": 19.826044000000003,
          "velocity": 0.6299212598425197
        },
        {
          "duration": 0.2445646874999987,
          "durationTicks": 225,
          "midi": 47,
          "name": "B2",
          "ticks": 18480,
          "time": 20.086913000000003,
          "velocity": 0.6299212598425197
        },
        {
          "duration": 0.2445646874999987,
          "durationTicks": 225,
          "midi": 50,
          "name": "D3",
          "ticks": 18480,
          "time": 20.086913000000003,
          "velocity": 0.6299212598425197
        },
        {
          "duration": 0.2445646874999987,
          "durationTicks": 225,
          "midi": 54,
          "name": "F#3",
          "ticks": 18480,
          "time": 20.086913000000003,
          "velocity": 0.6299212598425197
        },
        {
          "duration": 0.2445646874999987,
          "durationTicks": 225,
          "midi": 47,
          "name": "B2",
          "ticks": 18720,
          "time": 20.347782000000002,
          "velocity": 0.6299212598425197
        },
        {
          "duration": 0.2445646874999987,
          "durationTicks": 225,
          "midi": 50,
          "name": "D3",
          "ticks": 18720,
          "time": 20.347782000000002,
          "velocity": 0.6299212598425197
        },
        {
          "duration": 0.2445646874999987,
          "durationTicks": 225,
          "midi": 54,
          "name": "F#3",
          "ticks": 18720,
          "time": 20.347782000000002,
          "velocity": 0.6299212598425197
        },
        {
          "duration": 0.2445646874999987,
          "durationTicks": 225,
          "midi": 47,
          "name": "B2",
          "ticks": 18960,
          "time": 20.608651000000002,
          "velocity": 0.6299212598425197
        },
        {
          "duration": 0.2445646874999987,
          "durationTicks": 225,
          "midi": 50,
          "name": "D3",
          "ticks": 18960,
          "time": 20.608651000000002,
          "velocity": 0.6299212598425197
        },
        {
          "duration": 0.2445646874999987,
          "durationTicks": 225,
          "midi": 54,
          "name": "F#3",
          "ticks": 18960,
          "time": 20.608651000000002,
          "velocity": 0.6299212598425197
        },
        {
          "duration": 0.2445646874999987,
          "durationTicks": 225,
          "midi": 48,
          "name": "C3",
          "ticks": 19200,
          "time": 20.86952,
          "velocity": 0.6299212598425197
        },
        {
          "duration": 0.2445646874999987,
          "durationTicks": 225,
          "midi": 52,
          "name": "E3",
          "ticks": 19200,
          "time": 20.86952,
          "velocity": 0.6299212598425197
        },
        {
          "duration": 0.2445646874999987,
          "durationTicks": 225,
          "midi": 55,
          "name": "G3",
          "ticks": 19200,
          "time": 20.86952,
          "velocity": 0.6299212598425197
        },
        {
          "duration": 0.2445646874999987,
          "durationTicks": 225,
          "midi": 48,
          "name": "C3",
          "ticks": 19440,
          "time": 21.130389,
          "velocity": 0.6299212598425197
        },
        {
          "duration": 0.2445646874999987,
          "durationTicks": 225,
          "midi": 52,
          "name": "E3",
          "ticks": 19440,
          "time": 21.130389,
          "velocity": 0.6299212598425197
        },
        {
          "duration": 0.2445646874999987,
          "durationTicks": 225,
          "midi": 55,
          "name": "G3",
          "ticks": 19440,
          "time": 21.130389,
          "velocity": 0.6299212598425197
        },
        {
          "duration": 0.24456468750000226,
          "durationTicks": 225,
          "midi": 48,
          "name": "C3",
          "ticks": 19680,
          "time": 21.391258,
          "velocity": 0.6299212598425197
        },
        {
          "duration": 0.24456468750000226,
          "durationTicks": 225,
          "midi": 52,
          "name": "E3",
          "ticks": 19680,
          "time": 21.391258,
          "velocity": 0.6299212598425197
        },
        {
          "duration": 0.24456468750000226,
          "durationTicks": 225,
          "midi": 55,
          "name": "G3",
          "ticks": 19680,
          "time": 21.391258,
          "velocity": 0.6299212598425197
        },
        {
          "duration": 0.24456468750000226,
          "durationTicks": 225,
          "midi": 48,
          "name": "C3",
          "ticks": 19920,
          "time": 21.652127,
          "velocity": 0.6299212598425197
        },
        {
          "duration": 0.24456468750000226,
          "durationTicks": 225,
          "midi": 52,
          "name": "E3",
          "ticks": 19920,
          "time": 21.652127,
          "velocity": 0.6299212598425197
        },
        {
          "duration": 0.24456468750000226,
          "durationTicks": 225,
          "midi": 55,
          "name": "G3",
          "ticks": 19920,
          "time": 21.652127,
          "velocity": 0.6299212598425197
        },
        {
          "duration": 0.24456468750000226,
          "durationTicks": 225,
          "midi": 48,
          "name": "C3",
          "ticks": 20160,
          "time": 21.912996,
          "velocity": 0.6299212598425197
        },
        {
          "duration": 0.24456468750000226,
          "durationTicks": 225,
          "midi": 52,
          "name": "E3",
          "ticks": 20160,
          "time": 21.912996,
          "velocity": 0.6299212598425197
        },
        {
          "duration": 0.24456468750000226,
          "durationTicks": 225,
          "midi": 55,
          "name": "G3",
          "ticks": 20160,
          "time": 21.912996,
          "velocity": 0.6299212598425197
        },
        {
          "duration": 0.2445646874999987,
          "durationTicks": 225,
          "midi": 48,
          "name": "C3",
          "ticks": 20400,
          "time": 22.173865000000003,
          "velocity": 0.6299212598425197
        },
        {
          "duration": 0.2445646874999987,
          "durationTicks": 225,
          "midi": 52,
          "name": "E3",
          "ticks": 20400,
          "time": 22.173865000000003,
          "velocity": 0.6299212598425197
        },
        {
          "duration": 0.2445646874999987,
          "durationTicks": 225,
          "midi": 55,
          "name": "G3",
          "ticks": 20400,
          "time": 22.173865000000003,
          "velocity": 0.6299212598425197
        },
        {
          "duration": 0.2445646874999987,
          "durationTicks": 225,
          "midi": 48,
          "name": "C3",
          "ticks": 20640,
          "time": 22.434734000000002,
          "velocity": 0.6299212598425197
        },
        {
          "duration": 0.2445646874999987,
          "durationTicks": 225,
          "midi": 52,
          "name": "E3",
          "ticks": 20640,
          "time": 22.434734000000002,
          "velocity": 0.6299212598425197
        },
        {
          "duration": 0.2445646874999987,
          "durationTicks": 225,
          "midi": 55,
          "name": "G3",
          "ticks": 20640,
          "time": 22.434734000000002,
          "velocity": 0.6299212598425197
        },
        {
          "duration": 0.2445646874999987,
          "durationTicks": 225,
          "midi": 48,
          "name": "C3",
          "ticks": 20880,
          "time": 22.695603000000002,
          "velocity": 0.6299212598425197
        },
        {
          "duration": 0.2445646874999987,
          "durationTicks": 225,
          "midi": 52,
          "name": "E3",
          "ticks": 20880,
          "time": 22.695603000000002,
          "velocity": 0.6299212598425197
        },
        {
          "duration": 0.2445646874999987,
          "durationTicks": 225,
          "midi": 55,
          "name": "G3",
          "ticks": 20880,
          "time": 22.695603000000002,
          "velocity": 0.6299212598425197
        },
        {
          "duration": 0.2445646874999987,
          "durationTicks": 225,
          "midi": 48,
          "name": "C3",
          "ticks": 21120,
          "time": 22.956472,
          "velocity": 0.6299212598425197
        },
        {
          "duration": 0.2445646874999987,
          "durationTicks": 225,
          "midi": 52,
          "name": "E3",
          "ticks": 21120,
          "time": 22.956472,
          "velocity": 0.6299212598425197
        },
        {
          "duration": 0.2445646874999987,
          "durationTicks": 225,
          "midi": 55,
          "name": "G3",
          "ticks": 21120,
          "time": 22.956472,
          "velocity": 0.6299212598425197
        },
        {
          "duration": 0.2445646874999987,
          "durationTicks": 225,
          "midi": 48,
          "name": "C3",
          "ticks": 21360,
          "time": 23.217341,
          "velocity": 0.6299212598425197
        },
        {
          "duration": 0.2445646874999987,
          "durationTicks": 225,
          "midi": 52,
          "name": "E3",
          "ticks": 21360,
          "time": 23.217341,
          "velocity": 0.6299212598425197
        },
        {
          "duration": 0.2445646874999987,
          "durationTicks": 225,
          "midi": 55,
          "name": "G3",
          "ticks": 21360,
          "time": 23.217341,
          "velocity": 0.6299212598425197
        },
        {
          "duration": 0.24456468750000226,
          "durationTicks": 225,
          "midi": 48,
          "name": "C3",
          "ticks": 21600,
          "time": 23.47821,
          "velocity": 0.6299212598425197
        },
        {
          "duration": 0.24456468750000226,
          "durationTicks": 225,
          "midi": 52,
          "name": "E3",
          "ticks": 21600,
          "time": 23.47821,
          "velocity": 0.6299212598425197
        },
        {
          "duration": 0.24456468750000226,
          "durationTicks": 225,
          "midi": 55,
          "name": "G3",
          "ticks": 21600,
          "time": 23.47821,
          "velocity": 0.6299212598425197
        },
        {
          "duration": 0.24456468750000226,
          "durationTicks": 225,
          "midi": 48,
          "name": "C3",
          "ticks": 21840,
          "time": 23.739079,
          "velocity": 0.6299212598425197
        },
        {
          "duration": 0.24456468750000226,
          "durationTicks": 225,
          "midi": 52,
          "name": "E3",
          "ticks": 21840,
          "time": 23.739079,
          "velocity": 0.6299212598425197
        },
        {
          "duration": 0.24456468750000226,
          "durationTicks": 225,
          "midi": 55,
          "name": "G3",
          "ticks": 21840,
          "time": 23.739079,
          "velocity": 0.6299212598425197
        },
        {
          "duration": 0.2445646874999987,
          "durationTicks": 225,
          "midi": 48,
          "name": "C3",
          "ticks": 22080,
          "time": 23.999948000000003,
          "velocity": 0.6299212598425197
        },
        {
          "duration": 0.2445646874999987,
          "durationTicks": 225,
          "midi": 52,
          "name": "E3",
          "ticks": 22080,
          "time": 23.999948000000003,
          "velocity": 0.6299212598425197
        },
        {
          "duration": 0.2445646874999987,
          "durationTicks": 225,
          "midi": 55,
          "name": "G3",
          "ticks": 22080,
          "time": 23.999948000000003,
          "velocity": 0.6299212598425197
        },
        {
          "duration": 0.2445646874999987,
          "durationTicks": 225,
          "midi": 48,
          "name": "C3",
          "ticks": 22320,
          "time": 24.260817000000003,
          "velocity": 0.6299212598425197
        },
        {
          "duration": 0.2445646874999987,
          "durationTicks": 225,
          "midi": 52,
          "name": "E3",
          "ticks": 22320,
          "time": 24.260817000000003,
          "velocity": 0.6299212598425197
        },
        {
          "duration": 0.2445646874999987,
          "durationTicks": 225,
          "midi": 55,
          "name": "G3",
          "ticks": 22320,
          "time": 24.260817000000003,
          "velocity": 0.6299212598425197
        },
        {
          "duration": 0.2445646874999987,
          "durationTicks": 225,
          "midi": 48,
          "name": "C3",
          "ticks": 22560,
          "time": 24.521686000000003,
          "velocity": 0.6299212598425197
        },
        {
          "duration": 0.2445646874999987,
          "durationTicks": 225,
          "midi": 52,
          "name": "E3",
          "ticks": 22560,
          "time": 24.521686000000003,
          "velocity": 0.6299212598425197
        },
        {
          "duration": 0.2445646874999987,
          "durationTicks": 225,
          "midi": 55,
          "name": "G3",
          "ticks": 22560,
          "time": 24.521686000000003,
          "velocity": 0.6299212598425197
        },
        {
          "duration": 0.2445646874999987,
          "durationTicks": 225,
          "midi": 48,
          "name": "C3",
          "ticks": 22800,
          "time": 24.782555000000002,
          "velocity": 0.6299212598425197
        },
        {
          "duration": 0.2445646874999987,
          "durationTicks": 225,
          "midi": 52,
          "name": "E3",
          "ticks": 22800,
          "time": 24.782555000000002,
          "velocity": 0.6299212598425197
        },
        {
          "duration": 0.2445646874999987,
          "durationTicks": 225,
          "midi": 55,
          "name": "G3",
          "ticks": 22800,
          "time": 24.782555000000002,
          "velocity": 0.6299212598425197
        },
        {
          "duration": 0.2445646874999987,
          "durationTicks": 225,
          "midi": 47,
          "name": "B2",
          "ticks": 23040,
          "time": 25.043424,
          "velocity": 0.6299212598425197
        },
        {
          "duration": 0.2445646874999987,
          "durationTicks": 225,
          "midi": 50,
          "name": "D3",
          "ticks": 23040,
          "time": 25.043424,
          "velocity": 0.6299212598425197
        },
        {
          "duration": 0.2445646874999987,
          "durationTicks": 225,
          "midi": 54,
          "name": "F#3",
          "ticks": 23040,
          "time": 25.043424,
          "velocity": 0.6299212598425197
        },
        {
          "duration": 0.2445646874999987,
          "durationTicks": 225,
          "midi": 47,
          "name": "B2",
          "ticks": 23280,
          "time": 25.304293,
          "velocity": 0.6299212598425197
        },
        {
          "duration": 0.2445646874999987,
          "durationTicks": 225,
          "midi": 50,
          "name": "D3",
          "ticks": 23280,
          "time": 25.304293,
          "velocity": 0.6299212598425197
        },
        {
          "duration": 0.2445646874999987,
          "durationTicks": 225,
          "midi": 54,
          "name": "F#3",
          "ticks": 23280,
          "time": 25.304293,
          "velocity": 0.6299212598425197
        },
        {
          "duration": 0.24456468750000226,
          "durationTicks": 225,
          "midi": 47,
          "name": "B2",
          "ticks": 23520,
          "time": 25.565162,
          "velocity": 0.6299212598425197
        },
        {
          "duration": 0.24456468750000226,
          "durationTicks": 225,
          "midi": 50,
          "name": "D3",
          "ticks": 23520,
          "time": 25.565162,
          "velocity": 0.6299212598425197
        },
        {
          "duration": 0.24456468750000226,
          "durationTicks": 225,
          "midi": 54,
          "name": "F#3",
          "ticks": 23520,
          "time": 25.565162,
          "velocity": 0.6299212598425197
        },
        {
          "duration": 0.24456468750000226,
          "durationTicks": 225,
          "midi": 47,
          "name": "B2",
          "ticks": 23760,
          "time": 25.826031,
          "velocity": 0.6299212598425197
        },
        {
          "duration": 0.24456468750000226,
          "durationTicks": 225,
          "midi": 50,
          "name": "D3",
          "ticks": 23760,
          "time": 25.826031,
          "velocity": 0.6299212598425197
        },
        {
          "duration": 0.24456468750000226,
          "durationTicks": 225,
          "midi": 54,
          "name": "F#3",
          "ticks": 23760,
          "time": 25.826031,
          "velocity": 0.6299212598425197
        },
        {
          "duration": 0.24456468750000226,
          "durationTicks": 225,
          "midi": 47,
          "name": "B2",
          "ticks": 24000,
          "time": 26.0869,
          "velocity": 0.6299212598425197
        },
        {
          "duration": 0.24456468750000226,
          "durationTicks": 225,
          "midi": 50,
          "name": "D3",
          "ticks": 24000,
          "time": 26.0869,
          "velocity": 0.6299212598425197
        },
        {
          "duration": 0.24456468750000226,
          "durationTicks": 225,
          "midi": 54,
          "name": "F#3",
          "ticks": 24000,
          "time": 26.0869,
          "velocity": 0.6299212598425197
        },
        {
          "duration": 0.2445646874999987,
          "durationTicks": 225,
          "midi": 47,
          "name": "B2",
          "ticks": 24240,
          "time": 26.347769000000003,
          "velocity": 0.6299212598425197
        },
        {
          "duration": 0.2445646874999987,
          "durationTicks": 225,
          "midi": 50,
          "name": "D3",
          "ticks": 24240,
          "time": 26.347769000000003,
          "velocity": 0.6299212598425197
        },
        {
          "duration": 0.2445646874999987,
          "durationTicks": 225,
          "midi": 54,
          "name": "F#3",
          "ticks": 24240,
          "time": 26.347769000000003,
          "velocity": 0.6299212598425197
        },
        {
          "duration": 0.2445646874999987,
          "durationTicks": 225,
          "midi": 47,
          "name": "B2",
          "ticks": 24480,
          "time": 26.608638000000003,
          "velocity": 0.6299212598425197
        },
        {
          "duration": 0.2445646874999987,
          "durationTicks": 225,
          "midi": 50,
          "name": "D3",
          "ticks": 24480,
          "time": 26.608638000000003,
          "velocity": 0.6299212598425197
        },
        {
          "duration": 0.2445646874999987,
          "durationTicks": 225,
          "midi": 54,
          "name": "F#3",
          "ticks": 24480,
          "time": 26.608638000000003,
          "velocity": 0.6299212598425197
        },
        {
          "duration": 0.2445646874999987,
          "durationTicks": 225,
          "midi": 47,
          "name": "B2",
          "ticks": 24720,
          "time": 26.869507000000002,
          "velocity": 0.6299212598425197
        },
        {
          "duration": 0.2445646874999987,
          "durationTicks": 225,
          "midi": 50,
          "name": "D3",
          "ticks": 24720,
          "time": 26.869507000000002,
          "velocity": 0.6299212598425197
        },
        {
          "duration": 0.2445646874999987,
          "durationTicks": 225,
          "midi": 54,
          "name": "F#3",
          "ticks": 24720,
          "time": 26.869507000000002,
          "velocity": 0.6299212598425197
        },
        {
          "duration": 0.2445646874999987,
          "durationTicks": 225,
          "midi": 47,
          "name": "B2",
          "ticks": 24960,
          "time": 27.130376000000002,
          "velocity": 0.6299212598425197
        },
        {
          "duration": 0.2445646874999987,
          "durationTicks": 225,
          "midi": 50,
          "name": "D3",
          "ticks": 24960,
          "time": 27.130376000000002,
          "velocity": 0.6299212598425197
        },
        {
          "duration": 0.2445646874999987,
          "durationTicks": 225,
          "midi": 54,
          "name": "F#3",
          "ticks": 24960,
          "time": 27.130376000000002,
          "velocity": 0.6299212598425197
        },
        {
          "duration": 0.2445646874999987,
          "durationTicks": 225,
          "midi": 47,
          "name": "B2",
          "ticks": 25200,
          "time": 27.391245,
          "velocity": 0.6299212598425197
        },
        {
          "duration": 0.2445646874999987,
          "durationTicks": 225,
          "midi": 50,
          "name": "D3",
          "ticks": 25200,
          "time": 27.391245,
          "velocity": 0.6299212598425197
        },
        {
          "duration": 0.2445646874999987,
          "durationTicks": 225,
          "midi": 54,
          "name": "F#3",
          "ticks": 25200,
          "time": 27.391245,
          "velocity": 0.6299212598425197
        },
        {
          "duration": 0.24456468750000226,
          "durationTicks": 225,
          "midi": 47,
          "name": "B2",
          "ticks": 25440,
          "time": 27.652114,
          "velocity": 0.6299212598425197
        },
        {
          "duration": 0.24456468750000226,
          "durationTicks": 225,
          "midi": 50,
          "name": "D3",
          "ticks": 25440,
          "time": 27.652114,
          "velocity": 0.6299212598425197
        },
        {
          "duration": 0.24456468750000226,
          "durationTicks": 225,
          "midi": 54,
          "name": "F#3",
          "ticks": 25440,
          "time": 27.652114,
          "velocity": 0.6299212598425197
        },
        {
          "duration": 0.24456468750000226,
          "durationTicks": 225,
          "midi": 47,
          "name": "B2",
          "ticks": 25680,
          "time": 27.912983,
          "velocity": 0.6299212598425197
        },
        {
          "duration": 0.24456468750000226,
          "durationTicks": 225,
          "midi": 50,
          "name": "D3",
          "ticks": 25680,
          "time": 27.912983,
          "velocity": 0.6299212598425197
        },
        {
          "duration": 0.24456468750000226,
          "durationTicks": 225,
          "midi": 54,
          "name": "F#3",
          "ticks": 25680,
          "time": 27.912983,
          "velocity": 0.6299212598425197
        },
        {
          "duration": 0.2445646874999987,
          "durationTicks": 225,
          "midi": 47,
          "name": "B2",
          "ticks": 25920,
          "time": 28.173852000000004,
          "velocity": 0.6299212598425197
        },
        {
          "duration": 0.2445646874999987,
          "durationTicks": 225,
          "midi": 50,
          "name": "D3",
          "ticks": 25920,
          "time": 28.173852000000004,
          "velocity": 0.6299212598425197
        },
        {
          "duration": 0.2445646874999987,
          "durationTicks": 225,
          "midi": 54,
          "name": "F#3",
          "ticks": 25920,
          "time": 28.173852000000004,
          "velocity": 0.6299212598425197
        },
        {
          "duration": 0.2445646874999987,
          "durationTicks": 225,
          "midi": 47,
          "name": "B2",
          "ticks": 26160,
          "time": 28.434721000000003,
          "velocity": 0.6299212598425197
        },
        {
          "duration": 0.2445646874999987,
          "durationTicks": 225,
          "midi": 50,
          "name": "D3",
          "ticks": 26160,
          "time": 28.434721000000003,
          "velocity": 0.6299212598425197
        },
        {
          "duration": 0.2445646874999987,
          "durationTicks": 225,
          "midi": 54,
          "name": "F#3",
          "ticks": 26160,
          "time": 28.434721000000003,
          "velocity": 0.6299212598425197
        },
        {
          "duration": 0.2445646874999987,
          "durationTicks": 225,
          "midi": 47,
          "name": "B2",
          "ticks": 26400,
          "time": 28.695590000000003,
          "velocity": 0.6299212598425197
        },
        {
          "duration": 0.2445646874999987,
          "durationTicks": 225,
          "midi": 50,
          "name": "D3",
          "ticks": 26400,
          "time": 28.695590000000003,
          "velocity": 0.6299212598425197
        },
        {
          "duration": 0.2445646874999987,
          "durationTicks": 225,
          "midi": 54,
          "name": "F#3",
          "ticks": 26400,
          "time": 28.695590000000003,
          "velocity": 0.6299212598425197
        },
        {
          "duration": 0.2445646874999987,
          "durationTicks": 225,
          "midi": 47,
          "name": "B2",
          "ticks": 26640,
          "time": 28.956459000000002,
          "velocity": 0.6299212598425197
        },
        {
          "duration": 0.2445646874999987,
          "durationTicks": 225,
          "midi": 50,
          "name": "D3",
          "ticks": 26640,
          "time": 28.956459000000002,
          "velocity": 0.6299212598425197
        },
        {
          "duration": 0.2445646874999987,
          "durationTicks": 225,
          "midi": 54,
          "name": "F#3",
          "ticks": 26640,
          "time": 28.956459000000002,
          "velocity": 0.6299212598425197
        },
        {
          "duration": 0.2445646874999987,
          "durationTicks": 225,
          "midi": 48,
          "name": "C3",
          "ticks": 26880,
          "time": 29.217328000000002,
          "velocity": 0.6299212598425197
        },
        {
          "duration": 0.2445646874999987,
          "durationTicks": 225,
          "midi": 52,
          "name": "E3",
          "ticks": 26880,
          "time": 29.217328000000002,
          "velocity": 0.6299212598425197
        },
        {
          "duration": 0.2445646874999987,
          "durationTicks": 225,
          "midi": 55,
          "name": "G3",
          "ticks": 26880,
          "time": 29.217328000000002,
          "velocity": 0.6299212598425197
        },
        {
          "duration": 0.2445646874999987,
          "durationTicks": 225,
          "midi": 48,
          "name": "C3",
          "ticks": 27120,
          "time": 29.478197,
          "velocity": 0.6299212598425197
        },
        {
          "duration": 0.2445646874999987,
          "durationTicks": 225,
          "midi": 52,
          "name": "E3",
          "ticks": 27120,
          "time": 29.478197,
          "velocity": 0.6299212598425197
        },
        {
          "duration": 0.2445646874999987,
          "durationTicks": 225,
          "midi": 55,
          "name": "G3",
          "ticks": 27120,
          "time": 29.478197,
          "velocity": 0.6299212598425197
        },
        {
          "duration": 0.24456468750000226,
          "durationTicks": 225,
          "midi": 48,
          "name": "C3",
          "ticks": 27360,
          "time": 29.739066,
          "velocity": 0.6299212598425197
        },
        {
          "duration": 0.24456468750000226,
          "durationTicks": 225,
          "midi": 52,
          "name": "E3",
          "ticks": 27360,
          "time": 29.739066,
          "velocity": 0.6299212598425197
        },
        {
          "duration": 0.24456468750000226,
          "durationTicks": 225,
          "midi": 55,
          "name": "G3",
          "ticks": 27360,
          "time": 29.739066,
          "velocity": 0.6299212598425197
        },
        {
          "duration": 0.24456468750000226,
          "durationTicks": 225,
          "midi": 48,
          "name": "C3",
          "ticks": 27600,
          "time": 29.999935,
          "velocity": 0.6299212598425197
        },
        {
          "duration": 0.24456468750000226,
          "durationTicks": 225,
          "midi": 52,
          "name": "E3",
          "ticks": 27600,
          "time": 29.999935,
          "velocity": 0.6299212598425197
        },
        {
          "duration": 0.24456468750000226,
          "durationTicks": 225,
          "midi": 55,
          "name": "G3",
          "ticks": 27600,
          "time": 29.999935,
          "velocity": 0.6299212598425197
        },
        {
          "duration": 0.24456468750000226,
          "durationTicks": 225,
          "midi": 48,
          "name": "C3",
          "ticks": 27840,
          "time": 30.260804,
          "velocity": 0.6299212598425197
        },
        {
          "duration": 0.24456468750000226,
          "durationTicks": 225,
          "midi": 52,
          "name": "E3",
          "ticks": 27840,
          "time": 30.260804,
          "velocity": 0.6299212598425197
        },
        {
          "duration": 0.24456468750000226,
          "durationTicks": 225,
          "midi": 55,
          "name": "G3",
          "ticks": 27840,
          "time": 30.260804,
          "velocity": 0.6299212598425197
        },
        {
          "duration": 0.2445646874999987,
          "durationTicks": 225,
          "midi": 48,
          "name": "C3",
          "ticks": 28080,
          "time": 30.521673000000003,
          "velocity": 0.6299212598425197
        },
        {
          "duration": 0.2445646874999987,
          "durationTicks": 225,
          "midi": 52,
          "name": "E3",
          "ticks": 28080,
          "time": 30.521673000000003,
          "velocity": 0.6299212598425197
        },
        {
          "duration": 0.2445646874999987,
          "durationTicks": 225,
          "midi": 55,
          "name": "G3",
          "ticks": 28080,
          "time": 30.521673000000003,
          "velocity": 0.6299212598425197
        },
        {
          "duration": 0.2445646874999987,
          "durationTicks": 225,
          "midi": 48,
          "name": "C3",
          "ticks": 28320,
          "time": 30.782542000000003,
          "velocity": 0.6299212598425197
        },
        {
          "duration": 0.2445646874999987,
          "durationTicks": 225,
          "midi": 52,
          "name": "E3",
          "ticks": 28320,
          "time": 30.782542000000003,
          "velocity": 0.6299212598425197
        },
        {
          "duration": 0.2445646874999987,
          "durationTicks": 225,
          "midi": 55,
          "name": "G3",
          "ticks": 28320,
          "time": 30.782542000000003,
          "velocity": 0.6299212598425197
        },
        {
          "duration": 0.2445646874999987,
          "durationTicks": 225,
          "midi": 48,
          "name": "C3",
          "ticks": 28560,
          "time": 31.043411000000003,
          "velocity": 0.6299212598425197
        },
        {
          "duration": 0.2445646874999987,
          "durationTicks": 225,
          "midi": 52,
          "name": "E3",
          "ticks": 28560,
          "time": 31.043411000000003,
          "velocity": 0.6299212598425197
        },
        {
          "duration": 0.2445646874999987,
          "durationTicks": 225,
          "midi": 55,
          "name": "G3",
          "ticks": 28560,
          "time": 31.043411000000003,
          "velocity": 0.6299212598425197
        },
        {
          "duration": 0.2445646874999987,
          "durationTicks": 225,
          "midi": 48,
          "name": "C3",
          "ticks": 28800,
          "time": 31.304280000000002,
          "velocity": 0.6299212598425197
        },
        {
          "duration": 0.2445646874999987,
          "durationTicks": 225,
          "midi": 52,
          "name": "E3",
          "ticks": 28800,
          "time": 31.304280000000002,
          "velocity": 0.6299212598425197
        },
        {
          "duration": 0.2445646874999987,
          "durationTicks": 225,
          "midi": 55,
          "name": "G3",
          "ticks": 28800,
          "time": 31.304280000000002,
          "velocity": 0.6299212598425197
        },
        {
          "duration": 0.2445646874999987,
          "durationTicks": 225,
          "midi": 48,
          "name": "C3",
          "ticks": 29040,
          "time": 31.565149,
          "velocity": 0.6299212598425197
        },
        {
          "duration": 0.2445646874999987,
          "durationTicks": 225,
          "midi": 52,
          "name": "E3",
          "ticks": 29040,
          "time": 31.565149,
          "velocity": 0.6299212598425197
        },
        {
          "duration": 0.2445646874999987,
          "durationTicks": 225,
          "midi": 55,
          "name": "G3",
          "ticks": 29040,
          "time": 31.565149,
          "velocity": 0.6299212598425197
        },
        {
          "duration": 0.2445646874999987,
          "durationTicks": 225,
          "midi": 48,
          "name": "C3",
          "ticks": 29280,
          "time": 31.826018,
          "velocity": 0.6299212598425197
        },
        {
          "duration": 0.2445646874999987,
          "durationTicks": 225,
          "midi": 52,
          "name": "E3",
          "ticks": 29280,
          "time": 31.826018,
          "velocity": 0.6299212598425197
        },
        {
          "duration": 0.2445646874999987,
          "durationTicks": 225,
          "midi": 55,
          "name": "G3",
          "ticks": 29280,
          "time": 31.826018,
          "velocity": 0.6299212598425197
        },
        {
          "duration": 0.24456468749999516,
          "durationTicks": 225,
          "midi": 48,
          "name": "C3",
          "ticks": 29520,
          "time": 32.086887000000004,
          "velocity": 0.6299212598425197
        },
        {
          "duration": 0.24456468749999516,
          "durationTicks": 225,
          "midi": 52,
          "name": "E3",
          "ticks": 29520,
          "time": 32.086887000000004,
          "velocity": 0.6299212598425197
        },
        {
          "duration": 0.24456468749999516,
          "durationTicks": 225,
          "midi": 55,
          "name": "G3",
          "ticks": 29520,
          "time": 32.086887000000004,
          "velocity": 0.6299212598425197
        },
        {
          "duration": 0.24456468749999516,
          "durationTicks": 225,
          "midi": 48,
          "name": "C3",
          "ticks": 29760,
          "time": 32.347756000000004,
          "velocity": 0.6299212598425197
        },
        {
          "duration": 0.24456468749999516,
          "durationTicks": 225,
          "midi": 52,
          "name": "E3",
          "ticks": 29760,
          "time": 32.347756000000004,
          "velocity": 0.6299212598425197
        },
        {
          "duration": 0.24456468749999516,
          "durationTicks": 225,
          "midi": 55,
          "name": "G3",
          "ticks": 29760,
          "time": 32.347756000000004,
          "velocity": 0.6299212598425197
        },
        {
          "duration": 0.24456468749999516,
          "durationTicks": 225,
          "midi": 48,
          "name": "C3",
          "ticks": 30000,
          "time": 32.608625,
          "velocity": 0.6299212598425197
        },
        {
          "duration": 0.24456468749999516,
          "durationTicks": 225,
          "midi": 52,
          "name": "E3",
          "ticks": 30000,
          "time": 32.608625,
          "velocity": 0.6299212598425197
        },
        {
          "duration": 0.24456468749999516,
          "durationTicks": 225,
          "midi": 55,
          "name": "G3",
          "ticks": 30000,
          "time": 32.608625,
          "velocity": 0.6299212598425197
        },
        {
          "duration": 0.24456468750000226,
          "durationTicks": 225,
          "midi": 48,
          "name": "C3",
          "ticks": 30240,
          "time": 32.869494,
          "velocity": 0.6299212598425197
        },
        {
          "duration": 0.24456468750000226,
          "durationTicks": 225,
          "midi": 52,
          "name": "E3",
          "ticks": 30240,
          "time": 32.869494,
          "velocity": 0.6299212598425197
        },
        {
          "duration": 0.24456468750000226,
          "durationTicks": 225,
          "midi": 55,
          "name": "G3",
          "ticks": 30240,
          "time": 32.869494,
          "velocity": 0.6299212598425197
        },
        {
          "duration": 0.24456468750000226,
          "durationTicks": 225,
          "midi": 48,
          "name": "C3",
          "ticks": 30480,
          "time": 33.130363,
          "velocity": 0.6299212598425197
        },
        {
          "duration": 0.24456468750000226,
          "durationTicks": 225,
          "midi": 52,
          "name": "E3",
          "ticks": 30480,
          "time": 33.130363,
          "velocity": 0.6299212598425197
        },
        {
          "duration": 0.24456468750000226,
          "durationTicks": 225,
          "midi": 55,
          "name": "G3",
          "ticks": 30480,
          "time": 33.130363,
          "velocity": 0.6299212598425197
        },
        {
          "duration": 3.07716724583333,
          "durationTicks": 2831,
          "midi": 47,
          "name": "B2",
          "ticks": 30720,
          "time": 33.391232,
          "velocity": 0.905511811023622
        },
        {
          "duration": 3.07716724583333,
          "durationTicks": 2831,
          "midi": 59,
          "name": "B3",
          "ticks": 30720,
          "time": 33.391232,
          "velocity": 0.905511811023622
        },
        {
          "duration": 0.49456414583333697,
          "durationTicks": 455,
          "midi": 47,
          "name": "B2",
          "ticks": 33600,
          "time": 36.521660000000004,
          "velocity": 0.7559055118110236
        },
        {
          "duration": 0.49456414583333697,
          "durationTicks": 455,
          "midi": 59,
          "name": "B3",
          "ticks": 33600,
          "time": 36.521660000000004,
          "velocity": 0.7559055118110236
        },
        {
          "duration": 0.24673859583332813,
          "durationTicks": 227,
          "midi": 49,
          "name": "C#3",
          "ticks": 34080,
          "time": 37.043398,
          "velocity": 0.7559055118110236
        },
        {
          "duration": 0.24673859583332813,
          "durationTicks": 227,
          "midi": 61,
          "name": "C#4",
          "ticks": 34080,
          "time": 37.043398,
          "velocity": 0.7559055118110236
        },
        {
          "duration": 0.24673859583332813,
          "durationTicks": 227,
          "midi": 47,
          "name": "B2",
          "ticks": 34320,
          "time": 37.304267,
          "velocity": 0.7559055118110236
        },
        {
          "duration": 0.24673859583332813,
          "durationTicks": 227,
          "midi": 59,
          "name": "B3",
          "ticks": 34320,
          "time": 37.304267,
          "velocity": 0.7559055118110236
        },
        {
          "duration": 3.07716724583333,
          "durationTicks": 2831,
          "midi": 43,
          "name": "G2",
          "ticks": 34560,
          "time": 37.565136,
          "velocity": 0.905511811023622
        },
        {
          "duration": 3.07716724583333,
          "durationTicks": 2831,
          "midi": 55,
          "name": "G3",
          "ticks": 34560,
          "time": 37.565136,
          "velocity": 0.905511811023622
        },
        {
          "duration": 0.49456414583333697,
          "durationTicks": 455,
          "midi": 43,
          "name": "G2",
          "ticks": 37440,
          "time": 40.695564000000005,
          "velocity": 0.7559055118110236
        },
        {
          "duration": 0.49456414583333697,
          "durationTicks": 455,
          "midi": 55,
          "name": "G3",
          "ticks": 37440,
          "time": 40.695564000000005,
          "velocity": 0.7559055118110236
        },
        {
          "duration": 0.24673859583332813,
          "durationTicks": 227,
          "midi": 55,
          "name": "G3",
          "ticks": 37920,
          "time": 41.217302000000004,
          "velocity": 0.7559055118110236
        },
        {
          "duration": 0.24673859583332813,
          "durationTicks": 227,
          "midi": 67,
          "name": "G4",
          "ticks": 37920,
          "time": 41.217302000000004,
          "velocity": 0.7559055118110236
        },
        {
          "duration": 0.24673859583332813,
          "durationTicks": 227,
          "midi": 52,
          "name": "E3",
          "ticks": 38160,
          "time": 41.478171,
          "velocity": 0.7559055118110236
        },
        {
          "duration": 0.24673859583332813,
          "durationTicks": 227,
          "midi": 64,
          "name": "E4",
          "ticks": 38160,
          "time": 41.478171,
          "velocity": 0.7559055118110236
        },
        {
          "duration": 3.07716724583333,
          "durationTicks": 2831,
          "midi": 52,
          "name": "E3",
          "ticks": 38400,
          "time": 41.73904,
          "velocity": 0.905511811023622
        },
        {
          "duration": 1.826082999999997,
          "durationTicks": 1680,
          "midi": 64,
          "name": "E4",
          "ticks": 38400,
          "time": 41.73904,
          "velocity": 0.905511811023622
        },
        {
          "duration": 0.49456414583333697,
          "durationTicks": 455,
          "midi": 52,
          "name": "E3",
          "ticks": 41280,
          "time": 44.869468000000005,
          "velocity": 0.7559055118110236
        },
        {
          "duration": 0.49456414583333697,
          "durationTicks": 455,
          "midi": 64,
          "name": "E4",
          "ticks": 41280,
          "time": 44.869468000000005,
          "velocity": 0.7559055118110236
        },
        {
          "duration": 0.24673859583332813,
          "durationTicks": 227,
          "midi": 54,
          "name": "F#3",
          "ticks": 41760,
          "time": 45.391206000000004,
          "velocity": 0.7559055118110236
        },
        {
          "duration": 0.24673859583332813,
          "durationTicks": 227,
          "midi": 52,
          "name": "E3",
          "ticks": 42000,
          "time": 45.652075,
          "velocity": 0.7559055118110236
        },
        {
          "duration": 3.07716724583333,
          "durationTicks": 2831,
          "midi": 50,
          "name": "D3",
          "ticks": 42240,
          "time": 45.912944,
          "velocity": 0.905511811023622
        },
        {
          "duration": 3.07716724583333,
          "durationTicks": 2831,
          "midi": 62,
          "name": "D4",
          "ticks": 42240,
          "time": 45.912944,
          "velocity": 0.905511811023622
        },
        {
          "duration": 0.12282582083333438,
          "durationTicks": 113,
          "midi": 50,
          "name": "D3",
          "ticks": 45120,
          "time": 49.043372000000005,
          "velocity": 0.7559055118110236
        },
        {
          "duration": 0.12282582083333438,
          "durationTicks": 113,
          "midi": 50,
          "name": "D3",
          "ticks": 45240,
          "time": 49.173806500000005,
          "velocity": 0.7559055118110236
        },
        {
          "duration": 0.24673859583332813,
          "durationTicks": 227,
          "midi": 50,
          "name": "D3",
          "ticks": 45360,
          "time": 49.304241000000005,
          "velocity": 0.7559055118110236
        },
        {
          "duration": 0.24673859583332813,
          "durationTicks": 227,
          "midi": 50,
          "name": "D3",
          "ticks": 45600,
          "time": 49.565110000000004,
          "velocity": 0.7559055118110236
        },
        {
          "duration": 0.24673859583332813,
          "durationTicks": 227,
          "midi": 47,
          "name": "B2",
          "ticks": 45840,
          "time": 49.825979000000004,
          "velocity": 0.7559055118110236
        },
        {
          "duration": 3.07716724583333,
          "durationTicks": 2831,
          "midi": 47,
          "name": "B2",
          "ticks": 46080,
          "time": 50.086848,
          "velocity": 1
        },
        {
          "duration": 3.07716724583333,
          "durationTicks": 2831,
          "midi": 59,
          "name": "B3",
          "ticks": 46080,
          "time": 50.086848,
          "velocity": 1
        },
        {
          "duration": 0.49456414583333697,
          "durationTicks": 455,
          "midi": 47,
          "name": "B2",
          "ticks": 48960,
          "time": 53.217276000000005,
          "velocity": 0.8818897637795275
        },
        {
          "duration": 0.49456414583333697,
          "durationTicks": 455,
          "midi": 59,
          "name": "B3",
          "ticks": 48960,
          "time": 53.217276000000005,
          "velocity": 0.8818897637795275
        },
        {
          "duration": 0.24673859583332813,
          "durationTicks": 227,
          "midi": 49,
          "name": "C#3",
          "ticks": 49440,
          "time": 53.739014000000005,
          "velocity": 0.8818897637795275
        },
        {
          "duration": 0.24673859583332813,
          "durationTicks": 227,
          "midi": 61,
          "name": "C#4",
          "ticks": 49440,
          "time": 53.739014000000005,
          "velocity": 0.8818897637795275
        },
        {
          "duration": 0.24673859583332813,
          "durationTicks": 227,
          "midi": 47,
          "name": "B2",
          "ticks": 49680,
          "time": 53.999883000000004,
          "velocity": 0.8818897637795275
        },
        {
          "duration": 0.24673859583332813,
          "durationTicks": 227,
          "midi": 59,
          "name": "B3",
          "ticks": 49680,
          "time": 53.999883000000004,
          "velocity": 0.8818897637795275
        },
        {
          "duration": 3.07716724583333,
          "durationTicks": 2831,
          "midi": 43,
          "name": "G2",
          "ticks": 49920,
          "time": 54.260752000000004,
          "velocity": 1
        },
        {
          "duration": 3.07716724583333,
          "durationTicks": 2831,
          "midi": 55,
          "name": "G3",
          "ticks": 49920,
          "time": 54.260752000000004,
          "velocity": 1
        },
        {
          "duration": 0.49456414583333697,
          "durationTicks": 455,
          "midi": 43,
          "name": "G2",
          "ticks": 52800,
          "time": 57.391180000000006,
          "velocity": 0.8818897637795275
        },
        {
          "duration": 0.49456414583333697,
          "durationTicks": 455,
          "midi": 55,
          "name": "G3",
          "ticks": 52800,
          "time": 57.391180000000006,
          "velocity": 0.8818897637795275
        },
        {
          "duration": 0.24673859583332813,
          "durationTicks": 227,
          "midi": 55,
          "name": "G3",
          "ticks": 53280,
          "time": 57.912918000000005,
          "velocity": 0.8818897637795275
        },
        {
          "duration": 0.24673859583332813,
          "durationTicks": 227,
          "midi": 67,
          "name": "G4",
          "ticks": 53280,
          "time": 57.912918000000005,
          "velocity": 0.8818897637795275
        },
        {
          "duration": 0.24673859583332813,
          "durationTicks": 227,
          "midi": 52,
          "name": "E3",
          "ticks": 53520,
          "time": 58.173787000000004,
          "velocity": 0.8818897637795275
        },
        {
          "duration": 0.24673859583332813,
          "durationTicks": 227,
          "midi": 64,
          "name": "E4",
          "ticks": 53520,
          "time": 58.173787000000004,
          "velocity": 0.8818897637795275
        },
        {
          "duration": 3.07716724583333,
          "durationTicks": 2831,
          "midi": 52,
          "name": "E3",
          "ticks": 53760,
          "time": 58.434656000000004,
          "velocity": 1
        },
        {
          "duration": 1.9565174999999968,
          "durationTicks": 1800,
          "midi": 64,
          "name": "E4",
          "ticks": 53760,
          "time": 58.434656000000004,
          "velocity": 1
        },
        {
          "duration": 0.49456414583333697,
          "durationTicks": 455,
          "midi": 52,
          "name": "E3",
          "ticks": 56640,
          "time": 61.565084000000006,
          "velocity": 0.8818897637795275
        },
        {
          "duration": 0.49456414583333697,
          "durationTicks": 455,
          "midi": 64,
          "name": "E4",
          "ticks": 56640,
          "time": 61.565084000000006,
          "velocity": 0.8818897637795275
        },
        {
          "duration": 0.24673859583332813,
          "durationTicks": 227,
          "midi": 54,
          "name": "F#3",
          "ticks": 57120,
          "time": 62.086822000000005,
          "velocity": 0.8818897637795275
        },
        {
          "duration": 0.24673859583332813,
          "durationTicks": 227,
          "midi": 52,
          "name": "E3",
          "ticks": 57360,
          "time": 62.347691000000005,
          "velocity": 0.8818897637795275
        },
        {
          "duration": 3.07716724583333,
          "durationTicks": 2831,
          "midi": 50,
          "name": "D3",
          "ticks": 57600,
          "time": 62.608560000000004,
          "velocity": 1
        },
        {
          "duration": 1.3043449999999979,
          "durationTicks": 1200,
          "midi": 62,
          "name": "D4",
          "ticks": 57600,
          "time": 62.608560000000004,
          "velocity": 1
        },
        {
          "duration": 0.12282582083332727,
          "durationTicks": 113,
          "midi": 50,
          "name": "D3",
          "ticks": 60480,
          "time": 65.738988,
          "velocity": 0.8818897637795275
        },
        {
          "duration": 0.12282582083334148,
          "durationTicks": 113,
          "midi": 50,
          "name": "D3",
          "ticks": 60600,
          "time": 65.8694225,
          "velocity": 0.8818897637795275
        },
        {
          "duration": 0.24673859583333524,
          "durationTicks": 227,
          "midi": 50,
          "name": "D3",
          "ticks": 60720,
          "time": 65.999857,
          "velocity": 0.8818897637795275
        },
        {
          "duration": 0.24673859583333524,
          "durationTicks": 227,
          "midi": 50,
          "name": "D3",
          "ticks": 60960,
          "time": 66.260726,
          "velocity": 0.8818897637795275
        },
        {
          "duration": 0.24673859583333524,
          "durationTicks": 227,
          "midi": 47,
          "name": "B2",
          "ticks": 61200,
          "time": 66.521595,
          "velocity": 0.8818897637795275
        },
        {
          "duration": 3.077167245833337,
          "durationTicks": 2831,
          "midi": 47,
          "name": "B2",
          "ticks": 61440,
          "time": 66.782464,
          "velocity": 1
        },
        {
          "duration": 3.077167245833337,
          "durationTicks": 2831,
          "midi": 59,
          "name": "B3",
          "ticks": 61440,
          "time": 66.782464,
          "velocity": 1
        },
        {
          "duration": 0.49456414583333697,
          "durationTicks": 455,
          "midi": 47,
          "name": "B2",
          "ticks": 64320,
          "time": 69.912892,
          "velocity": 0.8818897637795275
        },
        {
          "duration": 0.49456414583333697,
          "durationTicks": 455,
          "midi": 59,
          "name": "B3",
          "ticks": 64320,
          "time": 69.912892,
          "velocity": 0.8818897637795275
        },
        {
          "duration": 0.24673859583333524,
          "durationTicks": 227,
          "midi": 49,
          "name": "C#3",
          "ticks": 64800,
          "time": 70.43463,
          "velocity": 0.8818897637795275
        },
        {
          "duration": 0.24673859583333524,
          "durationTicks": 227,
          "midi": 61,
          "name": "C#4",
          "ticks": 64800,
          "time": 70.43463,
          "velocity": 0.8818897637795275
        },
        {
          "duration": 0.24673859583333524,
          "durationTicks": 227,
          "midi": 47,
          "name": "B2",
          "ticks": 65040,
          "time": 70.695499,
          "velocity": 0.8818897637795275
        },
        {
          "duration": 0.24673859583333524,
          "durationTicks": 227,
          "midi": 59,
          "name": "B3",
          "ticks": 65040,
          "time": 70.695499,
          "velocity": 0.8818897637795275
        },
        {
          "duration": 3.077167245833351,
          "durationTicks": 2831,
          "midi": 43,
          "name": "G2",
          "ticks": 65280,
          "time": 70.956368,
          "velocity": 1
        },
        {
          "duration": 3.077167245833351,
          "durationTicks": 2831,
          "midi": 55,
          "name": "G3",
          "ticks": 65280,
          "time": 70.956368,
          "velocity": 1
        },
        {
          "duration": 0.49456414583332275,
          "durationTicks": 455,
          "midi": 43,
          "name": "G2",
          "ticks": 68160,
          "time": 74.086796,
          "velocity": 0.8818897637795275
        },
        {
          "duration": 0.49456414583332275,
          "durationTicks": 455,
          "midi": 55,
          "name": "G3",
          "ticks": 68160,
          "time": 74.086796,
          "velocity": 0.8818897637795275
        },
        {
          "duration": 0.24673859583333524,
          "durationTicks": 227,
          "midi": 55,
          "name": "G3",
          "ticks": 68640,
          "time": 74.608534,
          "velocity": 0.8818897637795275
        },
        {
          "duration": 0.24673859583333524,
          "durationTicks": 227,
          "midi": 67,
          "name": "G4",
          "ticks": 68640,
          "time": 74.608534,
          "velocity": 0.8818897637795275
        },
        {
          "duration": 0.24673859583333524,
          "durationTicks": 227,
          "midi": 52,
          "name": "E3",
          "ticks": 68880,
          "time": 74.869403,
          "velocity": 0.8818897637795275
        },
        {
          "duration": 0.24673859583333524,
          "durationTicks": 227,
          "midi": 64,
          "name": "E4",
          "ticks": 68880,
          "time": 74.869403,
          "velocity": 0.8818897637795275
        },
        {
          "duration": 3.077167245833337,
          "durationTicks": 2831,
          "midi": 52,
          "name": "E3",
          "ticks": 69120,
          "time": 75.130272,
          "velocity": 1
        },
        {
          "duration": 1.956517500000004,
          "durationTicks": 1800,
          "midi": 64,
          "name": "E4",
          "ticks": 69120,
          "time": 75.130272,
          "velocity": 1
        },
        {
          "duration": 0.49456414583333697,
          "durationTicks": 455,
          "midi": 52,
          "name": "E3",
          "ticks": 72000,
          "time": 78.2607,
          "velocity": 0.8818897637795275
        },
        {
          "duration": 0.49456414583333697,
          "durationTicks": 455,
          "midi": 64,
          "name": "E4",
          "ticks": 72000,
          "time": 78.2607,
          "velocity": 0.8818897637795275
        },
        {
          "duration": 0.24673859583333524,
          "durationTicks": 227,
          "midi": 54,
          "name": "F#3",
          "ticks": 72480,
          "time": 78.782438,
          "velocity": 0.8818897637795275
        },
        {
          "duration": 0.24673859583333524,
          "durationTicks": 227,
          "midi": 52,
          "name": "E3",
          "ticks": 72720,
          "time": 79.043307,
          "velocity": 0.8818897637795275
        },
        {
          "duration": 3.077167245833337,
          "durationTicks": 2831,
          "midi": 50,
          "name": "D3",
          "ticks": 72960,
          "time": 79.30417600000001,
          "velocity": 1
        },
        {
          "duration": 1.3043449999999979,
          "durationTicks": 1200,
          "midi": 62,
          "name": "D4",
          "ticks": 72960,
          "time": 79.30417600000001,
          "velocity": 1
        },
        {
          "duration": 0.12282582083334148,
          "durationTicks": 113,
          "midi": 50,
          "name": "D3",
          "ticks": 75840,
          "time": 82.43460400000001,
          "velocity": 0.8818897637795275
        },
        {
          "duration": 0.12282582083334148,
          "durationTicks": 113,
          "midi": 50,
          "name": "D3",
          "ticks": 75960,
          "time": 82.5650385,
          "velocity": 0.8818897637795275
        },
        {
          "duration": 0.24673859583333524,
          "durationTicks": 227,
          "midi": 50,
          "name": "D3",
          "ticks": 76080,
          "time": 82.695473,
          "velocity": 0.8818897637795275
        },
        {
          "duration": 0.24673859583333524,
          "durationTicks": 227,
          "midi": 50,
          "name": "D3",
          "ticks": 76320,
          "time": 82.956342,
          "velocity": 0.8818897637795275
        },
        {
          "duration": 0.24673859583333524,
          "durationTicks": 227,
          "midi": 47,
          "name": "B2",
          "ticks": 76560,
          "time": 83.217211,
          "velocity": 0.8818897637795275
        },
        {
          "duration": 3.9641218458333327,
          "durationTicks": 3647,
          "midi": 47,
          "name": "B2",
          "ticks": 76800,
          "time": 83.47808,
          "velocity": 0.8818897637795275
        },
        {
          "duration": 3.9641218458333327,
          "durationTicks": 3647,
          "midi": 50,
          "name": "D3",
          "ticks": 76800,
          "time": 83.47808,
          "velocity": 0.8818897637795275
        },
        {
          "duration": 3.9641218458333327,
          "durationTicks": 3647,
          "midi": 54,
          "name": "F#3",
          "ticks": 76800,
          "time": 83.47808,
          "velocity": 0.8818897637795275
        },
        {
          "duration": 3.9641218458333327,
          "durationTicks": 3647,
          "midi": 43,
          "name": "G2",
          "ticks": 80640,
          "time": 87.651984,
          "velocity": 0.8818897637795275
        },
        {
          "duration": 3.9641218458333327,
          "durationTicks": 3647,
          "midi": 47,
          "name": "B2",
          "ticks": 80640,
          "time": 87.651984,
          "velocity": 0.8818897637795275
        },
        {
          "duration": 3.9641218458333327,
          "durationTicks": 3647,
          "midi": 50,
          "name": "D3",
          "ticks": 80640,
          "time": 87.651984,
          "velocity": 0.8818897637795275
        },
        {
          "duration": 3.9641218458333327,
          "durationTicks": 3647,
          "midi": 47,
          "name": "B2",
          "ticks": 84480,
          "time": 91.825888,
          "velocity": 0.8818897637795275
        },
        {
          "duration": 3.9641218458333327,
          "durationTicks": 3647,
          "midi": 50,
          "name": "D3",
          "ticks": 84480,
          "time": 91.825888,
          "velocity": 0.8818897637795275
        },
        {
          "duration": 3.9641218458333327,
          "durationTicks": 3647,
          "midi": 54,
          "name": "F#3",
          "ticks": 84480,
          "time": 91.825888,
          "velocity": 0.8818897637795275
        },
        {
          "duration": 3.9641218458333185,
          "durationTicks": 3647,
          "midi": 43,
          "name": "G2",
          "ticks": 88320,
          "time": 95.99979200000001,
          "velocity": 0.8818897637795275
        },
        {
          "duration": 3.9641218458333185,
          "durationTicks": 3647,
          "midi": 47,
          "name": "B2",
          "ticks": 88320,
          "time": 95.99979200000001,
          "velocity": 0.8818897637795275
        },
        {
          "duration": 3.9641218458333185,
          "durationTicks": 3647,
          "midi": 50,
          "name": "D3",
          "ticks": 88320,
          "time": 95.99979200000001,
          "velocity": 0.8818897637795275
        },
        {
          "duration": 3.077167245833337,
          "durationTicks": 2831,
          "midi": 47,
          "name": "B2",
          "ticks": 107520,
          "time": 116.86931200000001,
          "velocity": 0.905511811023622
        },
        {
          "duration": 3.077167245833337,
          "durationTicks": 2831,
          "midi": 59,
          "name": "B3",
          "ticks": 107520,
          "time": 116.86931200000001,
          "velocity": 0.905511811023622
        },
        {
          "duration": 0.49456414583333697,
          "durationTicks": 455,
          "midi": 47,
          "name": "B2",
          "ticks": 110400,
          "time": 119.99974,
          "velocity": 0.7559055118110236
        },
        {
          "duration": 0.49456414583333697,
          "durationTicks": 455,
          "midi": 59,
          "name": "B3",
          "ticks": 110400,
          "time": 119.99974,
          "velocity": 0.7559055118110236
        },
        {
          "duration": 0.24673859583333524,
          "durationTicks": 227,
          "midi": 49,
          "name": "C#3",
          "ticks": 110880,
          "time": 120.521478,
          "velocity": 0.7559055118110236
        },
        {
          "duration": 0.24673859583333524,
          "durationTicks": 227,
          "midi": 61,
          "name": "C#4",
          "ticks": 110880,
          "time": 120.521478,
          "velocity": 0.7559055118110236
        },
        {
          "duration": 0.24673859583333524,
          "durationTicks": 227,
          "midi": 47,
          "name": "B2",
          "ticks": 111120,
          "time": 120.782347,
          "velocity": 0.7559055118110236
        },
        {
          "duration": 0.24673859583333524,
          "durationTicks": 227,
          "midi": 59,
          "name": "B3",
          "ticks": 111120,
          "time": 120.782347,
          "velocity": 0.7559055118110236
        },
        {
          "duration": 3.077167245833351,
          "durationTicks": 2831,
          "midi": 43,
          "name": "G2",
          "ticks": 111360,
          "time": 121.043216,
          "velocity": 0.905511811023622
        },
        {
          "duration": 3.077167245833351,
          "durationTicks": 2831,
          "midi": 55,
          "name": "G3",
          "ticks": 111360,
          "time": 121.043216,
          "velocity": 0.905511811023622
        },
        {
          "duration": 0.49456414583332275,
          "durationTicks": 455,
          "midi": 43,
          "name": "G2",
          "ticks": 114240,
          "time": 124.17364400000001,
          "velocity": 0.7559055118110236
        },
        {
          "duration": 0.49456414583332275,
          "durationTicks": 455,
          "midi": 55,
          "name": "G3",
          "ticks": 114240,
          "time": 124.17364400000001,
          "velocity": 0.7559055118110236
        },
        {
          "duration": 0.24673859583333524,
          "durationTicks": 227,
          "midi": 55,
          "name": "G3",
          "ticks": 114720,
          "time": 124.69538200000001,
          "velocity": 0.7559055118110236
        },
        {
          "duration": 0.24673859583333524,
          "durationTicks": 227,
          "midi": 67,
          "name": "G4",
          "ticks": 114720,
          "time": 124.69538200000001,
          "velocity": 0.7559055118110236
        },
        {
          "duration": 0.24673859583333524,
          "durationTicks": 227,
          "midi": 52,
          "name": "E3",
          "ticks": 114960,
          "time": 124.95625100000001,
          "velocity": 0.7559055118110236
        },
        {
          "duration": 0.24673859583333524,
          "durationTicks": 227,
          "midi": 64,
          "name": "E4",
          "ticks": 114960,
          "time": 124.95625100000001,
          "velocity": 0.7559055118110236
        },
        {
          "duration": 3.077167245833337,
          "durationTicks": 2831,
          "midi": 52,
          "name": "E3",
          "ticks": 115200,
          "time": 125.21712000000001,
          "velocity": 0.905511811023622
        },
        {
          "duration": 1.826082999999997,
          "durationTicks": 1680,
          "midi": 64,
          "name": "E4",
          "ticks": 115200,
          "time": 125.21712000000001,
          "velocity": 0.905511811023622
        },
        {
          "duration": 0.49456414583332275,
          "durationTicks": 455,
          "midi": 52,
          "name": "E3",
          "ticks": 118080,
          "time": 128.34754800000002,
          "velocity": 0.7559055118110236
        },
        {
          "duration": 0.49456414583332275,
          "durationTicks": 455,
          "midi": 64,
          "name": "E4",
          "ticks": 118080,
          "time": 128.34754800000002,
          "velocity": 0.7559055118110236
        },
        {
          "duration": 0.24673859583333524,
          "durationTicks": 227,
          "midi": 54,
          "name": "F#3",
          "ticks": 118560,
          "time": 128.86928600000002,
          "velocity": 0.7559055118110236
        },
        {
          "duration": 0.24673859583333524,
          "durationTicks": 227,
          "midi": 52,
          "name": "E3",
          "ticks": 118800,
          "time": 129.130155,
          "velocity": 0.7559055118110236
        },
        {
          "duration": 3.077167245833323,
          "durationTicks": 2831,
          "midi": 50,
          "name": "D3",
          "ticks": 119040,
          "time": 129.39102400000002,
          "velocity": 0.905511811023622
        },
        {
          "duration": 3.077167245833323,
          "durationTicks": 2831,
          "midi": 62,
          "name": "D4",
          "ticks": 119040,
          "time": 129.39102400000002,
          "velocity": 0.905511811023622
        },
        {
          "duration": 0.12282582083332727,
          "durationTicks": 113,
          "midi": 50,
          "name": "D3",
          "ticks": 121920,
          "time": 132.521452,
          "velocity": 0.7559055118110236
        },
        {
          "duration": 0.12282582083332727,
          "durationTicks": 113,
          "midi": 50,
          "name": "D3",
          "ticks": 122040,
          "time": 132.65188650000002,
          "velocity": 0.7559055118110236
        },
        {
          "duration": 0.24673859583333524,
          "durationTicks": 227,
          "midi": 50,
          "name": "D3",
          "ticks": 122160,
          "time": 132.782321,
          "velocity": 0.7559055118110236
        },
        {
          "duration": 0.24673859583333524,
          "durationTicks": 227,
          "midi": 50,
          "name": "D3",
          "ticks": 122400,
          "time": 133.04319,
          "velocity": 0.7559055118110236
        },
        {
          "duration": 0.24673859583333524,
          "durationTicks": 227,
          "midi": 47,
          "name": "B2",
          "ticks": 122640,
          "time": 133.304059,
          "velocity": 0.7559055118110236
        },
        {
          "duration": 3.077167245833351,
          "durationTicks": 2831,
          "midi": 47,
          "name": "B2",
          "ticks": 122880,
          "time": 133.564928,
          "velocity": 1
        },
        {
          "duration": 3.077167245833351,
          "durationTicks": 2831,
          "midi": 59,
          "name": "B3",
          "ticks": 122880,
          "time": 133.564928,
          "velocity": 1
        },
        {
          "duration": 0.4945641458333512,
          "durationTicks": 455,
          "midi": 47,
          "name": "B2",
          "ticks": 125760,
          "time": 136.695356,
          "velocity": 0.8818897637795275
        },
        {
          "duration": 0.4945641458333512,
          "durationTicks": 455,
          "midi": 59,
          "name": "B3",
          "ticks": 125760,
          "time": 136.695356,
          "velocity": 0.8818897637795275
        },
        {
          "duration": 0.24673859583333524,
          "durationTicks": 227,
          "midi": 49,
          "name": "C#3",
          "ticks": 126240,
          "time": 137.217094,
          "velocity": 0.8818897637795275
        },
        {
          "duration": 0.24673859583333524,
          "durationTicks": 227,
          "midi": 61,
          "name": "C#4",
          "ticks": 126240,
          "time": 137.217094,
          "velocity": 0.8818897637795275
        },
        {
          "duration": 0.24673859583333524,
          "durationTicks": 227,
          "midi": 47,
          "name": "B2",
          "ticks": 126480,
          "time": 137.47796300000002,
          "velocity": 0.8818897637795275
        },
        {
          "duration": 0.24673859583333524,
          "durationTicks": 227,
          "midi": 59,
          "name": "B3",
          "ticks": 126480,
          "time": 137.47796300000002,
          "velocity": 0.8818897637795275
        },
        {
          "duration": 3.077167245833351,
          "durationTicks": 2831,
          "midi": 43,
          "name": "G2",
          "ticks": 126720,
          "time": 137.738832,
          "velocity": 1
        },
        {
          "duration": 3.077167245833351,
          "durationTicks": 2831,
          "midi": 55,
          "name": "G3",
          "ticks": 126720,
          "time": 137.738832,
          "velocity": 1
        },
        {
          "duration": 0.4945641458333512,
          "durationTicks": 455,
          "midi": 43,
          "name": "G2",
          "ticks": 129600,
          "time": 140.86926,
          "velocity": 0.8818897637795275
        },
        {
          "duration": 0.4945641458333512,
          "durationTicks": 455,
          "midi": 55,
          "name": "G3",
          "ticks": 129600,
          "time": 140.86926,
          "velocity": 0.8818897637795275
        },
        {
          "duration": 0.24673859583333524,
          "durationTicks": 227,
          "midi": 55,
          "name": "G3",
          "ticks": 130080,
          "time": 141.390998,
          "velocity": 0.8818897637795275
        },
        {
          "duration": 0.24673859583333524,
          "durationTicks": 227,
          "midi": 67,
          "name": "G4",
          "ticks": 130080,
          "time": 141.390998,
          "velocity": 0.8818897637795275
        },
        {
          "duration": 0.24673859583333524,
          "durationTicks": 227,
          "midi": 52,
          "name": "E3",
          "ticks": 130320,
          "time": 141.651867,
          "velocity": 0.8818897637795275
        },
        {
          "duration": 0.24673859583333524,
          "durationTicks": 227,
          "midi": 64,
          "name": "E4",
          "ticks": 130320,
          "time": 141.651867,
          "velocity": 0.8818897637795275
        },
        {
          "duration": 3.077167245833351,
          "durationTicks": 2831,
          "midi": 52,
          "name": "E3",
          "ticks": 130560,
          "time": 141.912736,
          "velocity": 1
        },
        {
          "duration": 1.9565175000000181,
          "durationTicks": 1800,
          "midi": 64,
          "name": "E4",
          "ticks": 130560,
          "time": 141.912736,
          "velocity": 1
        },
        {
          "duration": 0.49456414583332275,
          "durationTicks": 455,
          "midi": 52,
          "name": "E3",
          "ticks": 133440,
          "time": 145.04316400000002,
          "velocity": 0.8818897637795275
        },
        {
          "duration": 0.49456414583332275,
          "durationTicks": 455,
          "midi": 64,
          "name": "E4",
          "ticks": 133440,
          "time": 145.04316400000002,
          "velocity": 0.8818897637795275
        },
        {
          "duration": 0.24673859583333524,
          "durationTicks": 227,
          "midi": 54,
          "name": "F#3",
          "ticks": 133920,
          "time": 145.56490200000002,
          "velocity": 0.8818897637795275
        },
        {
          "duration": 0.24673859583333524,
          "durationTicks": 227,
          "midi": 52,
          "name": "E3",
          "ticks": 134160,
          "time": 145.825771,
          "velocity": 0.8818897637795275
        },
        {
          "duration": 3.077167245833323,
          "durationTicks": 2831,
          "midi": 50,
          "name": "D3",
          "ticks": 134400,
          "time": 146.08664000000002,
          "velocity": 1
        },
        {
          "duration": 1.3043449999999837,
          "durationTicks": 1200,
          "midi": 62,
          "name": "D4",
          "ticks": 134400,
          "time": 146.08664000000002,
          "velocity": 1
        },
        {
          "duration": 0.12282582083332727,
          "durationTicks": 113,
          "midi": 50,
          "name": "D3",
          "ticks": 137280,
          "time": 149.217068,
          "velocity": 0.8818897637795275
        },
        {
          "duration": 0.12282582083332727,
          "durationTicks": 113,
          "midi": 50,
          "name": "D3",
          "ticks": 137400,
          "time": 149.34750250000002,
          "velocity": 0.8818897637795275
        },
        {
          "duration": 0.24673859583333524,
          "durationTicks": 227,
          "midi": 50,
          "name": "D3",
          "ticks": 137520,
          "time": 149.477937,
          "velocity": 0.8818897637795275
        },
        {
          "duration": 0.24673859583333524,
          "durationTicks": 227,
          "midi": 50,
          "name": "D3",
          "ticks": 137760,
          "time": 149.738806,
          "velocity": 0.8818897637795275
        },
        {
          "duration": 0.24673859583333524,
          "durationTicks": 227,
          "midi": 47,
          "name": "B2",
          "ticks": 138000,
          "time": 149.999675,
          "velocity": 0.8818897637795275
        },
        {
          "duration": 3.077167245833351,
          "durationTicks": 2831,
          "midi": 47,
          "name": "B2",
          "ticks": 138240,
          "time": 150.260544,
          "velocity": 1
        },
        {
          "duration": 3.077167245833351,
          "durationTicks": 2831,
          "midi": 59,
          "name": "B3",
          "ticks": 138240,
          "time": 150.260544,
          "velocity": 1
        },
        {
          "duration": 0.4945641458333512,
          "durationTicks": 455,
          "midi": 47,
          "name": "B2",
          "ticks": 141120,
          "time": 153.390972,
          "velocity": 0.8818897637795275
        },
        {
          "duration": 0.4945641458333512,
          "durationTicks": 455,
          "midi": 59,
          "name": "B3",
          "ticks": 141120,
          "time": 153.390972,
          "velocity": 0.8818897637795275
        },
        {
          "duration": 0.24673859583333524,
          "durationTicks": 227,
          "midi": 49,
          "name": "C#3",
          "ticks": 141600,
          "time": 153.91271,
          "velocity": 0.8818897637795275
        },
        {
          "duration": 0.24673859583333524,
          "durationTicks": 227,
          "midi": 61,
          "name": "C#4",
          "ticks": 141600,
          "time": 153.91271,
          "velocity": 0.8818897637795275
        },
        {
          "duration": 0.24673859583333524,
          "durationTicks": 227,
          "midi": 47,
          "name": "B2",
          "ticks": 141840,
          "time": 154.17357900000002,
          "velocity": 0.8818897637795275
        },
        {
          "duration": 0.24673859583333524,
          "durationTicks": 227,
          "midi": 59,
          "name": "B3",
          "ticks": 141840,
          "time": 154.17357900000002,
          "velocity": 0.8818897637795275
        },
        {
          "duration": 3.077167245833351,
          "durationTicks": 2831,
          "midi": 43,
          "name": "G2",
          "ticks": 142080,
          "time": 154.434448,
          "velocity": 1
        },
        {
          "duration": 3.077167245833351,
          "durationTicks": 2831,
          "midi": 55,
          "name": "G3",
          "ticks": 142080,
          "time": 154.434448,
          "velocity": 1
        },
        {
          "duration": 0.4945641458333512,
          "durationTicks": 455,
          "midi": 43,
          "name": "G2",
          "ticks": 144960,
          "time": 157.564876,
          "velocity": 0.8818897637795275
        },
        {
          "duration": 0.4945641458333512,
          "durationTicks": 455,
          "midi": 55,
          "name": "G3",
          "ticks": 144960,
          "time": 157.564876,
          "velocity": 0.8818897637795275
        },
        {
          "duration": 0.24673859583333524,
          "durationTicks": 227,
          "midi": 55,
          "name": "G3",
          "ticks": 145440,
          "time": 158.086614,
          "velocity": 0.8818897637795275
        },
        {
          "duration": 0.24673859583333524,
          "durationTicks": 227,
          "midi": 67,
          "name": "G4",
          "ticks": 145440,
          "time": 158.086614,
          "velocity": 0.8818897637795275
        },
        {
          "duration": 0.24673859583333524,
          "durationTicks": 227,
          "midi": 52,
          "name": "E3",
          "ticks": 145680,
          "time": 158.347483,
          "velocity": 0.8818897637795275
        },
        {
          "duration": 0.24673859583333524,
          "durationTicks": 227,
          "midi": 64,
          "name": "E4",
          "ticks": 145680,
          "time": 158.347483,
          "velocity": 0.8818897637795275
        },
        {
          "duration": 3.077167245833323,
          "durationTicks": 2831,
          "midi": 52,
          "name": "E3",
          "ticks": 145920,
          "time": 158.60835200000002,
          "velocity": 1
        },
        {
          "duration": 1.9565174999999897,
          "durationTicks": 1800,
          "midi": 64,
          "name": "E4",
          "ticks": 145920,
          "time": 158.60835200000002,
          "velocity": 1
        },
        {
          "duration": 0.49456414583332275,
          "durationTicks": 455,
          "midi": 52,
          "name": "E3",
          "ticks": 148800,
          "time": 161.73878000000002,
          "velocity": 0.8818897637795275
        },
        {
          "duration": 0.49456414583332275,
          "durationTicks": 455,
          "midi": 64,
          "name": "E4",
          "ticks": 148800,
          "time": 161.73878000000002,
          "velocity": 0.8818897637795275
        },
        {
          "duration": 0.24673859583333524,
          "durationTicks": 227,
          "midi": 54,
          "name": "F#3",
          "ticks": 149280,
          "time": 162.26051800000002,
          "velocity": 0.8818897637795275
        },
        {
          "duration": 0.24673859583333524,
          "durationTicks": 227,
          "midi": 52,
          "name": "E3",
          "ticks": 149520,
          "time": 162.521387,
          "velocity": 0.8818897637795275
        },
        {
          "duration": 3.077167245833323,
          "durationTicks": 2831,
          "midi": 50,
          "name": "D3",
          "ticks": 149760,
          "time": 162.78225600000002,
          "velocity": 1
        },
        {
          "duration": 1.3043449999999837,
          "durationTicks": 1200,
          "midi": 62,
          "name": "D4",
          "ticks": 149760,
          "time": 162.78225600000002,
          "velocity": 1
        },
        {
          "duration": 0.12282582083332727,
          "durationTicks": 113,
          "midi": 50,
          "name": "D3",
          "ticks": 152640,
          "time": 165.912684,
          "velocity": 0.8818897637795275
        },
        {
          "duration": 0.12282582083332727,
          "durationTicks": 113,
          "midi": 50,
          "name": "D3",
          "ticks": 152760,
          "time": 166.04311850000002,
          "velocity": 0.8818897637795275
        },
        {
          "duration": 0.24673859583333524,
          "durationTicks": 227,
          "midi": 50,
          "name": "D3",
          "ticks": 152880,
          "time": 166.173553,
          "velocity": 0.8818897637795275
        },
        {
          "duration": 0.24673859583333524,
          "durationTicks": 227,
          "midi": 50,
          "name": "D3",
          "ticks": 153120,
          "time": 166.434422,
          "velocity": 0.8818897637795275
        },
        {
          "duration": 0.24673859583333524,
          "durationTicks": 227,
          "midi": 47,
          "name": "B2",
          "ticks": 153360,
          "time": 166.695291,
          "velocity": 0.8818897637795275
        }
      ],
      "endOfTrackTicks": 153588
    },
    {
      "channel": 1,
      "controlChanges": {
        "7": [
          {
            "number": 7,
            "ticks": 0,
            "time": 0,
            "value": 0.7874015748031497
          }
        ],
        "10": [
          {
            "number": 10,
            "ticks": 0,
            "time": 0,
            "value": 0.5039370078740157
          }
        ],
        "91": [
          {
            "number": 91,
            "ticks": 0,
            "time": 0,
            "value": 0
          }
        ],
        "93": [
          {
            "number": 93,
            "ticks": 0,
            "time": 0,
            "value": 0
          }
        ],
        "121": [
          {
            "number": 121,
            "ticks": 0,
            "time": 0,
            "value": 0
          }
        ]
      },
      "pitchBends": [],
      "instrument": {
        "family": "piano",
        "name": "acoustic grand piano",
        "number": 0
      },
      "name": "",
      "notes": [
        {
          "duration": 0.49456414583333697,
          "durationTicks": 455,
          "midi": 86,
          "name": "D6",
          "ticks": 30720,
          "time": 33.391232,
          "velocity": 0.5039370078740157
        },
        {
          "duration": 0.49456414583333697,
          "durationTicks": 455,
          "midi": 83,
          "name": "B5",
          "ticks": 31200,
          "time": 33.91297,
          "velocity": 0.5039370078740157
        },
        {
          "duration": 0.24673859583333524,
          "durationTicks": 227,
          "midi": 83,
          "name": "B5",
          "ticks": 31680,
          "time": 34.434708,
          "velocity": 0.5118110236220472
        },
        {
          "duration": 0.49456414583333697,
          "durationTicks": 455,
          "midi": 81,
          "name": "A5",
          "ticks": 31920,
          "time": 34.695577,
          "velocity": 0.5196850393700787
        },
        {
          "duration": 0.24673859583333524,
          "durationTicks": 227,
          "midi": 83,
          "name": "B5",
          "ticks": 32400,
          "time": 35.217315,
          "velocity": 0.5275590551181102
        },
        {
          "duration": 0.49456414583333697,
          "durationTicks": 455,
          "midi": 86,
          "name": "D6",
          "ticks": 32640,
          "time": 35.478184,
          "velocity": 0.5354330708661418
        },
        {
          "duration": 0.49456414583332986,
          "durationTicks": 455,
          "midi": 83,
          "name": "B5",
          "ticks": 33120,
          "time": 35.999922000000005,
          "velocity": 0.5511811023622047
        },
        {
          "duration": 0.24673859583332813,
          "durationTicks": 227,
          "midi": 83,
          "name": "B5",
          "ticks": 33600,
          "time": 36.521660000000004,
          "velocity": 0.5590551181102362
        },
        {
          "duration": 0.49456414583333697,
          "durationTicks": 455,
          "midi": 81,
          "name": "A5",
          "ticks": 33840,
          "time": 36.782529000000004,
          "velocity": 0.5669291338582677
        },
        {
          "duration": 0.24673859583332813,
          "durationTicks": 227,
          "midi": 83,
          "name": "B5",
          "ticks": 34320,
          "time": 37.304267,
          "velocity": 0.5826771653543307
        },
        {
          "duration": 0.49456414583333697,
          "durationTicks": 455,
          "midi": 86,
          "name": "D6",
          "ticks": 34560,
          "time": 37.565136,
          "velocity": 0.5905511811023622
        },
        {
          "duration": 0.49456414583333697,
          "durationTicks": 455,
          "midi": 83,
          "name": "B5",
          "ticks": 35040,
          "time": 38.086874,
          "velocity": 0.5984251968503937
        },
        {
          "duration": 0.24673859583333524,
          "durationTicks": 227,
          "midi": 83,
          "name": "B5",
          "ticks": 35520,
          "time": 38.608612,
          "velocity": 0.6141732283464567
        },
        {
          "duration": 0.49456414583333697,
          "durationTicks": 455,
          "midi": 81,
          "name": "A5",
          "ticks": 35760,
          "time": 38.869481,
          "velocity": 0.6141732283464567
        },
        {
          "duration": 0.24673859583333524,
          "durationTicks": 227,
          "midi": 83,
          "name": "B5",
          "ticks": 36240,
          "time": 39.391219,
          "velocity": 0.6299212598425197
        },
        {
          "duration": 0.49456414583332986,
          "durationTicks": 455,
          "midi": 86,
          "name": "D6",
          "ticks": 36480,
          "time": 39.652088000000006,
          "velocity": 0.6377952755905512
        },
        {
          "duration": 0.49456414583332986,
          "durationTicks": 455,
          "midi": 83,
          "name": "B5",
          "ticks": 36960,
          "time": 40.173826000000005,
          "velocity": 0.6456692913385826
        },
        {
          "duration": 0.24673859583332813,
          "durationTicks": 227,
          "midi": 83,
          "name": "B5",
          "ticks": 37440,
          "time": 40.695564000000005,
          "velocity": 0.6614173228346457
        },
        {
          "duration": 0.49456414583333697,
          "durationTicks": 455,
          "midi": 81,
          "name": "A5",
          "ticks": 37680,
          "time": 40.956433000000004,
          "velocity": 0.6692913385826772
        },
        {
          "duration": 0.24673859583332813,
          "durationTicks": 227,
          "midi": 83,
          "name": "B5",
          "ticks": 38160,
          "time": 41.478171,
          "velocity": 0.6771653543307087
        },
        {
          "duration": 0.49456414583333697,
          "durationTicks": 455,
          "midi": 86,
          "name": "D6",
          "ticks": 38400,
          "time": 41.73904,
          "velocity": 0.6850393700787402
        },
        {
          "duration": 0.49456414583333697,
          "durationTicks": 455,
          "midi": 83,
          "name": "B5",
          "ticks": 38880,
          "time": 42.260778,
          "velocity": 0.7007874015748031
        },
        {
          "duration": 0.24673859583333524,
          "durationTicks": 227,
          "midi": 83,
          "name": "B5",
          "ticks": 39360,
          "time": 42.782516,
          "velocity": 0.7086614173228346
        },
        {
          "duration": 0.49456414583333697,
          "durationTicks": 455,
          "midi": 81,
          "name": "A5",
          "ticks": 39600,
          "time": 43.043385,
          "velocity": 0.7165354330708661
        },
        {
          "duration": 0.24673859583333524,
          "durationTicks": 227,
          "midi": 83,
          "name": "B5",
          "ticks": 40080,
          "time": 43.565123,
          "velocity": 0.7322834645669292
        },
        {
          "duration": 0.49456414583333697,
          "durationTicks": 455,
          "midi": 86,
          "name": "D6",
          "ticks": 40320,
          "time": 43.825992,
          "velocity": 0.7322834645669292
        },
        {
          "duration": 0.49456414583332986,
          "durationTicks": 455,
          "midi": 83,
          "name": "B5",
          "ticks": 40800,
          "time": 44.347730000000006,
          "velocity": 0.7480314960629921
        },
        {
          "duration": 0.24673859583332813,
          "durationTicks": 227,
          "midi": 83,
          "name": "B5",
          "ticks": 41280,
          "time": 44.869468000000005,
          "velocity": 0.7637795275590551
        },
        {
          "duration": 0.49456414583333697,
          "durationTicks": 455,
          "midi": 81,
          "name": "A5",
          "ticks": 41520,
          "time": 45.130337000000004,
          "velocity": 0.7637795275590551
        },
        {
          "duration": 0.24673859583332813,
          "durationTicks": 227,
          "midi": 83,
          "name": "B5",
          "ticks": 42000,
          "time": 45.652075,
          "velocity": 0.7795275590551181
        },
        {
          "duration": 0.49456414583333697,
          "durationTicks": 455,
          "midi": 86,
          "name": "D6",
          "ticks": 42240,
          "time": 45.912944,
          "velocity": 0.7874015748031497
        },
        {
          "duration": 0.49456414583333697,
          "durationTicks": 455,
          "midi": 83,
          "name": "B5",
          "ticks": 42720,
          "time": 46.434682,
          "velocity": 0.7952755905511811
        },
        {
          "duration": 0.24673859583333524,
          "durationTicks": 227,
          "midi": 83,
          "name": "B5",
          "ticks": 43200,
          "time": 46.95642,
          "velocity": 0.8110236220472441
        },
        {
          "duration": 0.49456414583333697,
          "durationTicks": 455,
          "midi": 81,
          "name": "A5",
          "ticks": 43440,
          "time": 47.217289,
          "velocity": 0.8188976377952756
        },
        {
          "duration": 0.24673859583333524,
          "durationTicks": 227,
          "midi": 83,
          "name": "B5",
          "ticks": 43920,
          "time": 47.739027,
          "velocity": 0.8267716535433071
        },
        {
          "duration": 0.49456414583332986,
          "durationTicks": 455,
          "midi": 90,
          "name": "F#6",
          "ticks": 44160,
          "time": 47.99989600000001,
          "velocity": 0.8346456692913385
        },
        {
          "duration": 0.49456414583332986,
          "durationTicks": 455,
          "midi": 86,
          "name": "D6",
          "ticks": 44640,
          "time": 48.521634000000006,
          "velocity": 0.8503937007874016
        },
        {
          "duration": 0.24673859583332813,
          "durationTicks": 227,
          "midi": 86,
          "name": "D6",
          "ticks": 45120,
          "time": 49.043372000000005,
          "velocity": 0.8582677165354331
        },
        {
          "duration": 0.49456414583333697,
          "durationTicks": 455,
          "midi": 86,
          "name": "D6",
          "ticks": 45360,
          "time": 49.304241000000005,
          "velocity": 0.8661417322834646
        },
        {
          "duration": 0.24673859583332813,
          "durationTicks": 227,
          "midi": 83,
          "name": "B5",
          "ticks": 45840,
          "time": 49.825979000000004,
          "velocity": 0.8818897637795275
        },
        {
          "duration": 0.12282582083334148,
          "durationTicks": 113,
          "midi": 83,
          "name": "B5",
          "ticks": 61440,
          "time": 66.782464,
          "velocity": 0.8818897637795275
        },
        {
          "duration": 0.12282582083332727,
          "durationTicks": 113,
          "midi": 71,
          "name": "B4",
          "ticks": 61560,
          "time": 66.91289850000001,
          "velocity": 0.8818897637795275
        },
        {
          "duration": 0.12282582083334148,
          "durationTicks": 113,
          "midi": 74,
          "name": "D5",
          "ticks": 61680,
          "time": 67.043333,
          "velocity": 0.8818897637795275
        },
        {
          "duration": 0.24673859583332103,
          "durationTicks": 227,
          "midi": 83,
          "name": "B5",
          "ticks": 61800,
          "time": 67.17376750000001,
          "velocity": 0.8818897637795275
        },
        {
          "duration": 0.12282582083332727,
          "durationTicks": 113,
          "midi": 71,
          "name": "B4",
          "ticks": 62040,
          "time": 67.43463650000001,
          "velocity": 0.8818897637795275
        },
        {
          "duration": 0.12282582083334148,
          "durationTicks": 113,
          "midi": 83,
          "name": "B5",
          "ticks": 62160,
          "time": 67.565071,
          "velocity": 0.8818897637795275
        },
        {
          "duration": 0.24673859583332103,
          "durationTicks": 227,
          "midi": 86,
          "name": "D6",
          "ticks": 62280,
          "time": 67.69550550000001,
          "velocity": 0.8818897637795275
        },
        {
          "duration": 0.24673859583332103,
          "durationTicks": 227,
          "midi": 86,
          "name": "D6",
          "ticks": 62520,
          "time": 67.95637450000001,
          "velocity": 0.8818897637795275
        },
        {
          "duration": 0.24673859583332103,
          "durationTicks": 227,
          "midi": 81,
          "name": "A5",
          "ticks": 62760,
          "time": 68.21724350000001,
          "velocity": 0.8818897637795275
        },
        {
          "duration": 0.12282582083334148,
          "durationTicks": 113,
          "midi": 81,
          "name": "A5",
          "ticks": 63000,
          "time": 68.47811250000001,
          "velocity": 0.8818897637795275
        },
        {
          "duration": 0.12282582083334148,
          "durationTicks": 113,
          "midi": 83,
          "name": "B5",
          "ticks": 63120,
          "time": 68.608547,
          "velocity": 0.8818897637795275
        },
        {
          "duration": 0.12282582083334148,
          "durationTicks": 113,
          "midi": 81,
          "name": "A5",
          "ticks": 63240,
          "time": 68.73898150000001,
          "velocity": 0.8818897637795275
        },
        {
          "duration": 0.12282582083334148,
          "durationTicks": 113,
          "midi": 83,
          "name": "B5",
          "ticks": 63360,
          "time": 68.869416,
          "velocity": 0.8818897637795275
        },
        {
          "duration": 0.12282582083334148,
          "durationTicks": 113,
          "midi": 71,
          "name": "B4",
          "ticks": 63480,
          "time": 68.99985050000001,
          "velocity": 0.8818897637795275
        },
        {
          "duration": 0.12282582083334148,
          "durationTicks": 113,
          "midi": 74,
          "name": "D5",
          "ticks": 63600,
          "time": 69.130285,
          "velocity": 0.8818897637795275
        },
        {
          "duration": 0.24673859583333524,
          "durationTicks": 227,
          "midi": 83,
          "name": "B5",
          "ticks": 63720,
          "time": 69.26071950000001,
          "velocity": 0.8818897637795275
        },
        {
          "duration": 0.12282582083334148,
          "durationTicks": 113,
          "midi": 71,
          "name": "B4",
          "ticks": 63960,
          "time": 69.52158850000001,
          "velocity": 0.8818897637795275
        },
        {
          "duration": 0.12282582083334148,
          "durationTicks": 113,
          "midi": 83,
          "name": "B5",
          "ticks": 64080,
          "time": 69.652023,
          "velocity": 0.8818897637795275
        },
        {
          "duration": 0.24673859583333524,
          "durationTicks": 227,
          "midi": 86,
          "name": "D6",
          "ticks": 64200,
          "time": 69.7824575,
          "velocity": 0.8818897637795275
        },
        {
          "duration": 0.24673859583333524,
          "durationTicks": 227,
          "midi": 86,
          "name": "D6",
          "ticks": 64440,
          "time": 70.0433265,
          "velocity": 0.8818897637795275
        },
        {
          "duration": 0.24673859583333524,
          "durationTicks": 227,
          "midi": 81,
          "name": "A5",
          "ticks": 64680,
          "time": 70.3041955,
          "velocity": 0.8818897637795275
        },
        {
          "duration": 0.12282582083334148,
          "durationTicks": 113,
          "midi": 81,
          "name": "A5",
          "ticks": 64920,
          "time": 70.5650645,
          "velocity": 0.8818897637795275
        },
        {
          "duration": 0.12282582083334148,
          "durationTicks": 113,
          "midi": 83,
          "name": "B5",
          "ticks": 65040,
          "time": 70.695499,
          "velocity": 0.8818897637795275
        },
        {
          "duration": 0.12282582083334148,
          "durationTicks": 113,
          "midi": 81,
          "name": "A5",
          "ticks": 65160,
          "time": 70.8259335,
          "velocity": 0.8818897637795275
        },
        {
          "duration": 0.12282582083334148,
          "durationTicks": 113,
          "midi": 79,
          "name": "G5",
          "ticks": 65280,
          "time": 70.956368,
          "velocity": 0.8818897637795275
        },
        {
          "duration": 0.12282582083334148,
          "durationTicks": 113,
          "midi": 71,
          "name": "B4",
          "ticks": 65400,
          "time": 71.0868025,
          "velocity": 0.8818897637795275
        },
        {
          "duration": 0.12282582083332727,
          "durationTicks": 113,
          "midi": 74,
          "name": "D5",
          "ticks": 65520,
          "time": 71.21723700000001,
          "velocity": 0.8818897637795275
        },
        {
          "duration": 0.24673859583333524,
          "durationTicks": 227,
          "midi": 79,
          "name": "G5",
          "ticks": 65640,
          "time": 71.3476715,
          "velocity": 0.8818897637795275
        },
        {
          "duration": 0.12282582083334148,
          "durationTicks": 113,
          "midi": 71,
          "name": "B4",
          "ticks": 65880,
          "time": 71.6085405,
          "velocity": 0.8818897637795275
        },
        {
          "duration": 0.12282582083334148,
          "durationTicks": 113,
          "midi": 79,
          "name": "G5",
          "ticks": 66000,
          "time": 71.73897500000001,
          "velocity": 0.8818897637795275
        },
        {
          "duration": 0.24673859583333524,
          "durationTicks": 227,
          "midi": 86,
          "name": "D6",
          "ticks": 66120,
          "time": 71.8694095,
          "velocity": 0.8818897637795275
        },
        {
          "duration": 0.24673859583333524,
          "durationTicks": 227,
          "midi": 86,
          "name": "D6",
          "ticks": 66360,
          "time": 72.1302785,
          "velocity": 0.8818897637795275
        },
        {
          "duration": 0.24673859583333524,
          "durationTicks": 227,
          "midi": 81,
          "name": "A5",
          "ticks": 66600,
          "time": 72.3911475,
          "velocity": 0.8818897637795275
        },
        {
          "duration": 0.12282582083334148,
          "durationTicks": 113,
          "midi": 81,
          "name": "A5",
          "ticks": 66840,
          "time": 72.6520165,
          "velocity": 0.8818897637795275
        },
        {
          "duration": 0.12282582083334148,
          "durationTicks": 113,
          "midi": 83,
          "name": "B5",
          "ticks": 66960,
          "time": 72.78245100000001,
          "velocity": 0.8818897637795275
        },
        {
          "duration": 0.12282582083334148,
          "durationTicks": 113,
          "midi": 81,
          "name": "A5",
          "ticks": 67080,
          "time": 72.9128855,
          "velocity": 0.8818897637795275
        },
        {
          "duration": 0.12282582083334148,
          "durationTicks": 113,
          "midi": 79,
          "name": "G5",
          "ticks": 67200,
          "time": 73.04332000000001,
          "velocity": 0.8818897637795275
        },
        {
          "duration": 0.12282582083334148,
          "durationTicks": 113,
          "midi": 71,
          "name": "B4",
          "ticks": 67320,
          "time": 73.1737545,
          "velocity": 0.8818897637795275
        },
        {
          "duration": 0.12282582083334148,
          "durationTicks": 113,
          "midi": 74,
          "name": "D5",
          "ticks": 67440,
          "time": 73.30418900000001,
          "velocity": 0.8818897637795275
        },
        {
          "duration": 0.24673859583333524,
          "durationTicks": 227,
          "midi": 79,
          "name": "G5",
          "ticks": 67560,
          "time": 73.4346235,
          "velocity": 0.8818897637795275
        },
        {
          "duration": 0.12282582083334148,
          "durationTicks": 113,
          "midi": 71,
          "name": "B4",
          "ticks": 67800,
          "time": 73.6954925,
          "velocity": 0.8818897637795275
        },
        {
          "duration": 0.12282582083334148,
          "durationTicks": 113,
          "midi": 79,
          "name": "G5",
          "ticks": 67920,
          "time": 73.82592700000001,
          "velocity": 0.8818897637795275
        },
        {
          "duration": 0.24673859583333524,
          "durationTicks": 227,
          "midi": 86,
          "name": "D6",
          "ticks": 68040,
          "time": 73.9563615,
          "velocity": 0.8818897637795275
        },
        {
          "duration": 0.24673859583333524,
          "durationTicks": 227,
          "midi": 86,
          "name": "D6",
          "ticks": 68280,
          "time": 74.2172305,
          "velocity": 0.8818897637795275
        },
        {
          "duration": 0.24673859583333524,
          "durationTicks": 227,
          "midi": 81,
          "name": "A5",
          "ticks": 68520,
          "time": 74.4780995,
          "velocity": 0.8818897637795275
        },
        {
          "duration": 0.12282582083334148,
          "durationTicks": 113,
          "midi": 81,
          "name": "A5",
          "ticks": 68760,
          "time": 74.7389685,
          "velocity": 0.8818897637795275
        },
        {
          "duration": 0.12282582083334148,
          "durationTicks": 113,
          "midi": 83,
          "name": "B5",
          "ticks": 68880,
          "time": 74.869403,
          "velocity": 0.8818897637795275
        },
        {
          "duration": 0.12282582083334148,
          "durationTicks": 113,
          "midi": 86,
          "name": "D6",
          "ticks": 69000,
          "time": 74.9998375,
          "velocity": 0.8818897637795275
        },
        {
          "duration": 0.12282582083334148,
          "durationTicks": 113,
          "midi": 88,
          "name": "E6",
          "ticks": 69120,
          "time": 75.130272,
          "velocity": 0.8818897637795275
        },
        {
          "duration": 0.12282582083332727,
          "durationTicks": 113,
          "midi": 79,
          "name": "G5",
          "ticks": 69240,
          "time": 75.26070650000001,
          "velocity": 0.8818897637795275
        },
        {
          "duration": 0.12282582083334148,
          "durationTicks": 113,
          "midi": 83,
          "name": "B5",
          "ticks": 69360,
          "time": 75.391141,
          "velocity": 0.8818897637795275
        },
        {
          "duration": 0.24673859583332103,
          "durationTicks": 227,
          "midi": 88,
          "name": "E6",
          "ticks": 69480,
          "time": 75.52157550000001,
          "velocity": 0.8818897637795275
        },
        {
          "duration": 0.12282582083332727,
          "durationTicks": 113,
          "midi": 76,
          "name": "E5",
          "ticks": 69720,
          "time": 75.78244450000001,
          "velocity": 0.8818897637795275
        },
        {
          "duration": 0.12282582083334148,
          "durationTicks": 113,
          "midi": 88,
          "name": "E6",
          "ticks": 69840,
          "time": 75.912879,
          "velocity": 0.8818897637795275
        },
        {
          "duration": 0.24673859583332103,
          "durationTicks": 227,
          "midi": 91,
          "name": "G6",
          "ticks": 69960,
          "time": 76.04331350000001,
          "velocity": 0.8818897637795275
        },
        {
          "duration": 0.24673859583332103,
          "durationTicks": 227,
          "midi": 91,
          "name": "G6",
          "ticks": 70200,
          "time": 76.30418250000001,
          "velocity": 0.8818897637795275
        },
        {
          "duration": 0.24673859583332103,
          "durationTicks": 227,
          "midi": 86,
          "name": "D6",
          "ticks": 70440,
          "time": 76.56505150000001,
          "velocity": 0.8818897637795275
        },
        {
          "duration": 0.12282582083334148,
          "durationTicks": 113,
          "midi": 86,
          "name": "D6",
          "ticks": 70680,
          "time": 76.82592050000001,
          "velocity": 0.8818897637795275
        },
        {
          "duration": 0.24673859583333524,
          "durationTicks": 227,
          "midi": 88,
          "name": "E6",
          "ticks": 70800,
          "time": 76.956355,
          "velocity": 0.8818897637795275
        },
        {
          "duration": 0.12282582083334148,
          "durationTicks": 113,
          "midi": 88,
          "name": "E6",
          "ticks": 71040,
          "time": 77.217224,
          "velocity": 0.8818897637795275
        },
        {
          "duration": 0.12282582083334148,
          "durationTicks": 113,
          "midi": 79,
          "name": "G5",
          "ticks": 71160,
          "time": 77.34765850000001,
          "velocity": 0.8818897637795275
        },
        {
          "duration": 0.12282582083334148,
          "durationTicks": 113,
          "midi": 83,
          "name": "B5",
          "ticks": 71280,
          "time": 77.478093,
          "velocity": 0.8818897637795275
        },
        {
          "duration": 0.24673859583333524,
          "durationTicks": 227,
          "midi": 88,
          "name": "E6",
          "ticks": 71400,
          "time": 77.60852750000001,
          "velocity": 0.8818897637795275
        },
        {
          "duration": 0.12282582083334148,
          "durationTicks": 113,
          "midi": 76,
          "name": "E5",
          "ticks": 71640,
          "time": 77.86939650000001,
          "velocity": 0.8818897637795275
        },
        {
          "duration": 0.12282582083334148,
          "durationTicks": 113,
          "midi": 88,
          "name": "E6",
          "ticks": 71760,
          "time": 77.999831,
          "velocity": 0.8818897637795275
        },
        {
          "duration": 0.24673859583333524,
          "durationTicks": 227,
          "midi": 91,
          "name": "G6",
          "ticks": 71880,
          "time": 78.13026550000001,
          "velocity": 0.8818897637795275
        },
        {
          "duration": 0.24673859583333524,
          "durationTicks": 227,
          "midi": 91,
          "name": "G6",
          "ticks": 72120,
          "time": 78.3911345,
          "velocity": 0.8818897637795275
        },
        {
          "duration": 0.24673859583333524,
          "durationTicks": 227,
          "midi": 86,
          "name": "D6",
          "ticks": 72360,
          "time": 78.6520035,
          "velocity": 0.8818897637795275
        },
        {
          "duration": 0.12282582083334148,
          "durationTicks": 113,
          "midi": 86,
          "name": "D6",
          "ticks": 72600,
          "time": 78.9128725,
          "velocity": 0.8818897637795275
        },
        {
          "duration": 0.12282582083334148,
          "durationTicks": 113,
          "midi": 88,
          "name": "E6",
          "ticks": 72720,
          "time": 79.043307,
          "velocity": 0.8818897637795275
        },
        {
          "duration": 0.12282582083334148,
          "durationTicks": 113,
          "midi": 86,
          "name": "D6",
          "ticks": 72840,
          "time": 79.1737415,
          "velocity": 0.8818897637795275
        },
        {
          "duration": 0.12282582083332727,
          "durationTicks": 113,
          "midi": 83,
          "name": "B5",
          "ticks": 72960,
          "time": 79.30417600000001,
          "velocity": 0.8818897637795275
        },
        {
          "duration": 0.12282582083334148,
          "durationTicks": 113,
          "midi": 74,
          "name": "D5",
          "ticks": 73080,
          "time": 79.4346105,
          "velocity": 0.8818897637795275
        },
        {
          "duration": 0.12282582083332727,
          "durationTicks": 113,
          "midi": 78,
          "name": "F#5",
          "ticks": 73200,
          "time": 79.56504500000001,
          "velocity": 0.8818897637795275
        },
        {
          "duration": 0.24673859583333524,
          "durationTicks": 227,
          "midi": 83,
          "name": "B5",
          "ticks": 73320,
          "time": 79.6954795,
          "velocity": 0.8818897637795275
        },
        {
          "duration": 0.12282582083334148,
          "durationTicks": 113,
          "midi": 74,
          "name": "D5",
          "ticks": 73560,
          "time": 79.9563485,
          "velocity": 0.8818897637795275
        },
        {
          "duration": 0.12282582083334148,
          "durationTicks": 113,
          "midi": 81,
          "name": "A5",
          "ticks": 73680,
          "time": 80.08678300000001,
          "velocity": 0.8818897637795275
        },
        {
          "duration": 0.24673859583333524,
          "durationTicks": 227,
          "midi": 90,
          "name": "F#6",
          "ticks": 73800,
          "time": 80.2172175,
          "velocity": 0.8818897637795275
        },
        {
          "duration": 0.24673859583333524,
          "durationTicks": 227,
          "midi": 90,
          "name": "F#6",
          "ticks": 74040,
          "time": 80.4780865,
          "velocity": 0.8818897637795275
        },
        {
          "duration": 0.24673859583333524,
          "durationTicks": 227,
          "midi": 83,
          "name": "B5",
          "ticks": 74280,
          "time": 80.7389555,
          "velocity": 0.8818897637795275
        },
        {
          "duration": 0.12282582083334148,
          "durationTicks": 113,
          "midi": 83,
          "name": "B5",
          "ticks": 74520,
          "time": 80.9998245,
          "velocity": 0.8818897637795275
        },
        {
          "duration": 0.24673859583332103,
          "durationTicks": 227,
          "midi": 86,
          "name": "D6",
          "ticks": 74640,
          "time": 81.13025900000001,
          "velocity": 0.8818897637795275
        },
        {
          "duration": 0.12282582083334148,
          "durationTicks": 113,
          "midi": 83,
          "name": "B5",
          "ticks": 74880,
          "time": 81.39112800000001,
          "velocity": 0.8818897637795275
        },
        {
          "duration": 0.12282582083334148,
          "durationTicks": 113,
          "midi": 74,
          "name": "D5",
          "ticks": 75000,
          "time": 81.5215625,
          "velocity": 0.8818897637795275
        },
        {
          "duration": 0.12282582083334148,
          "durationTicks": 113,
          "midi": 78,
          "name": "F#5",
          "ticks": 75120,
          "time": 81.65199700000001,
          "velocity": 0.8818897637795275
        },
        {
          "duration": 0.24673859583333524,
          "durationTicks": 227,
          "midi": 83,
          "name": "B5",
          "ticks": 75240,
          "time": 81.7824315,
          "velocity": 0.8818897637795275
        },
        {
          "duration": 0.12282582083334148,
          "durationTicks": 113,
          "midi": 74,
          "name": "D5",
          "ticks": 75480,
          "time": 82.0433005,
          "velocity": 0.8818897637795275
        },
        {
          "duration": 0.12282582083334148,
          "durationTicks": 113,
          "midi": 81,
          "name": "A5",
          "ticks": 75600,
          "time": 82.17373500000001,
          "velocity": 0.8818897637795275
        },
        {
          "duration": 0.24673859583333524,
          "durationTicks": 227,
          "midi": 90,
          "name": "F#6",
          "ticks": 75720,
          "time": 82.3041695,
          "velocity": 0.8818897637795275
        },
        {
          "duration": 0.12282582083334148,
          "durationTicks": 113,
          "midi": 74,
          "name": "D5",
          "ticks": 75960,
          "time": 82.5650385,
          "velocity": 0.8818897637795275
        },
        {
          "duration": 0.12282582083334148,
          "durationTicks": 113,
          "midi": 78,
          "name": "F#5",
          "ticks": 76080,
          "time": 82.695473,
          "velocity": 0.8818897637795275
        },
        {
          "duration": 0.12282582083334148,
          "durationTicks": 113,
          "midi": 81,
          "name": "A5",
          "ticks": 76200,
          "time": 82.8259075,
          "velocity": 0.8818897637795275
        },
        {
          "duration": 0.12282582083334148,
          "durationTicks": 113,
          "midi": 90,
          "name": "F#6",
          "ticks": 76320,
          "time": 82.956342,
          "velocity": 0.8818897637795275
        },
        {
          "duration": 0.12282582083334148,
          "durationTicks": 113,
          "midi": 81,
          "name": "A5",
          "ticks": 76440,
          "time": 83.0867765,
          "velocity": 0.8818897637795275
        },
        {
          "duration": 0.12282582083334148,
          "durationTicks": 113,
          "midi": 78,
          "name": "F#5",
          "ticks": 76560,
          "time": 83.217211,
          "velocity": 0.8818897637795275
        },
        {
          "duration": 0.12282582083334148,
          "durationTicks": 113,
          "midi": 74,
          "name": "D5",
          "ticks": 76680,
          "time": 83.3476455,
          "velocity": 0.8818897637795275
        },
        {
          "duration": 0.12282582083334148,
          "durationTicks": 113,
          "midi": 83,
          "name": "B5",
          "ticks": 76800,
          "time": 83.47808,
          "velocity": 0.6299212598425197
        },
        {
          "duration": 0.12282582083332727,
          "durationTicks": 113,
          "midi": 71,
          "name": "B4",
          "ticks": 76920,
          "time": 83.60851450000001,
          "velocity": 0.6299212598425197
        },
        {
          "duration": 0.12282582083334148,
          "durationTicks": 113,
          "midi": 74,
          "name": "D5",
          "ticks": 77040,
          "time": 83.738949,
          "velocity": 0.6299212598425197
        },
        {
          "duration": 0.24673859583332103,
          "durationTicks": 227,
          "midi": 83,
          "name": "B5",
          "ticks": 77160,
          "time": 83.86938350000001,
          "velocity": 0.6299212598425197
        },
        {
          "duration": 0.12282582083332727,
          "durationTicks": 113,
          "midi": 71,
          "name": "B4",
          "ticks": 77400,
          "time": 84.13025250000001,
          "velocity": 0.6299212598425197
        },
        {
          "duration": 0.12282582083334148,
          "durationTicks": 113,
          "midi": 83,
          "name": "B5",
          "ticks": 77520,
          "time": 84.260687,
          "velocity": 0.6299212598425197
        },
        {
          "duration": 0.24673859583332103,
          "durationTicks": 227,
          "midi": 86,
          "name": "D6",
          "ticks": 77640,
          "time": 84.39112150000001,
          "velocity": 0.6299212598425197
        },
        {
          "duration": 0.24673859583332103,
          "durationTicks": 227,
          "midi": 86,
          "name": "D6",
          "ticks": 77880,
          "time": 84.65199050000001,
          "velocity": 0.6299212598425197
        },
        {
          "duration": 0.24673859583332103,
          "durationTicks": 227,
          "midi": 81,
          "name": "A5",
          "ticks": 78120,
          "time": 84.91285950000001,
          "velocity": 0.6299212598425197
        },
        {
          "duration": 0.12282582083334148,
          "durationTicks": 113,
          "midi": 81,
          "name": "A5",
          "ticks": 78360,
          "time": 85.17372850000001,
          "velocity": 0.6299212598425197
        },
        {
          "duration": 0.12282582083334148,
          "durationTicks": 113,
          "midi": 83,
          "name": "B5",
          "ticks": 78480,
          "time": 85.304163,
          "velocity": 0.6299212598425197
        },
        {
          "duration": 0.12282582083334148,
          "durationTicks": 113,
          "midi": 81,
          "name": "A5",
          "ticks": 78600,
          "time": 85.43459750000001,
          "velocity": 0.6299212598425197
        },
        {
          "duration": 0.12282582083334148,
          "durationTicks": 113,
          "midi": 83,
          "name": "B5",
          "ticks": 78720,
          "time": 85.565032,
          "velocity": 0.6299212598425197
        },
        {
          "duration": 0.12282582083334148,
          "durationTicks": 113,
          "midi": 71,
          "name": "B4",
          "ticks": 78840,
          "time": 85.69546650000001,
          "velocity": 0.6299212598425197
        },
        {
          "duration": 0.12282582083334148,
          "durationTicks": 113,
          "midi": 74,
          "name": "D5",
          "ticks": 78960,
          "time": 85.825901,
          "velocity": 0.6299212598425197
        },
        {
          "duration": 0.24673859583333524,
          "durationTicks": 227,
          "midi": 83,
          "name": "B5",
          "ticks": 79080,
          "time": 85.95633550000001,
          "velocity": 0.6299212598425197
        },
        {
          "duration": 0.12282582083334148,
          "durationTicks": 113,
          "midi": 71,
          "name": "B4",
          "ticks": 79320,
          "time": 86.21720450000001,
          "velocity": 0.6299212598425197
        },
        {
          "duration": 0.12282582083334148,
          "durationTicks": 113,
          "midi": 83,
          "name": "B5",
          "ticks": 79440,
          "time": 86.347639,
          "velocity": 0.6299212598425197
        },
        {
          "duration": 0.24673859583333524,
          "durationTicks": 227,
          "midi": 86,
          "name": "D6",
          "ticks": 79560,
          "time": 86.47807350000001,
          "velocity": 0.6299212598425197
        },
        {
          "duration": 0.24673859583333524,
          "durationTicks": 227,
          "midi": 86,
          "name": "D6",
          "ticks": 79800,
          "time": 86.73894250000001,
          "velocity": 0.6299212598425197
        },
        {
          "duration": 0.24673859583333524,
          "durationTicks": 227,
          "midi": 81,
          "name": "A5",
          "ticks": 80040,
          "time": 86.9998115,
          "velocity": 0.6299212598425197
        },
        {
          "duration": 0.12282582083334148,
          "durationTicks": 113,
          "midi": 81,
          "name": "A5",
          "ticks": 80280,
          "time": 87.2606805,
          "velocity": 0.6299212598425197
        },
        {
          "duration": 0.12282582083334148,
          "durationTicks": 113,
          "midi": 83,
          "name": "B5",
          "ticks": 80400,
          "time": 87.391115,
          "velocity": 0.6299212598425197
        },
        {
          "duration": 0.12282582083334148,
          "durationTicks": 113,
          "midi": 81,
          "name": "A5",
          "ticks": 80520,
          "time": 87.5215495,
          "velocity": 0.6299212598425197
        },
        {
          "duration": 0.12282582083334148,
          "durationTicks": 113,
          "midi": 79,
          "name": "G5",
          "ticks": 80640,
          "time": 87.651984,
          "velocity": 0.6299212598425197
        },
        {
          "duration": 0.12282582083334148,
          "durationTicks": 113,
          "midi": 71,
          "name": "B4",
          "ticks": 80760,
          "time": 87.7824185,
          "velocity": 0.6299212598425197
        },
        {
          "duration": 0.12282582083332727,
          "durationTicks": 113,
          "midi": 74,
          "name": "D5",
          "ticks": 80880,
          "time": 87.91285300000001,
          "velocity": 0.6299212598425197
        },
        {
          "duration": 0.24673859583333524,
          "durationTicks": 227,
          "midi": 79,
          "name": "G5",
          "ticks": 81000,
          "time": 88.0432875,
          "velocity": 0.6299212598425197
        },
        {
          "duration": 0.12282582083334148,
          "durationTicks": 113,
          "midi": 71,
          "name": "B4",
          "ticks": 81240,
          "time": 88.3041565,
          "velocity": 0.6299212598425197
        },
        {
          "duration": 0.12282582083334148,
          "durationTicks": 113,
          "midi": 79,
          "name": "G5",
          "ticks": 81360,
          "time": 88.43459100000001,
          "velocity": 0.6299212598425197
        },
        {
          "duration": 0.24673859583333524,
          "durationTicks": 227,
          "midi": 86,
          "name": "D6",
          "ticks": 81480,
          "time": 88.5650255,
          "velocity": 0.6299212598425197
        },
        {
          "duration": 0.24673859583333524,
          "durationTicks": 227,
          "midi": 86,
          "name": "D6",
          "ticks": 81720,
          "time": 88.8258945,
          "velocity": 0.6299212598425197
        },
        {
          "duration": 0.24673859583333524,
          "durationTicks": 227,
          "midi": 81,
          "name": "A5",
          "ticks": 81960,
          "time": 89.0867635,
          "velocity": 0.6299212598425197
        },
        {
          "duration": 0.12282582083334148,
          "durationTicks": 113,
          "midi": 81,
          "name": "A5",
          "ticks": 82200,
          "time": 89.3476325,
          "velocity": 0.6299212598425197
        },
        {
          "duration": 0.12282582083334148,
          "durationTicks": 113,
          "midi": 83,
          "name": "B5",
          "ticks": 82320,
          "time": 89.47806700000001,
          "velocity": 0.6299212598425197
        },
        {
          "duration": 0.12282582083334148,
          "durationTicks": 113,
          "midi": 81,
          "name": "A5",
          "ticks": 82440,
          "time": 89.6085015,
          "velocity": 0.6299212598425197
        },
        {
          "duration": 0.12282582083334148,
          "durationTicks": 113,
          "midi": 79,
          "name": "G5",
          "ticks": 82560,
          "time": 89.73893600000001,
          "velocity": 0.6299212598425197
        },
        {
          "duration": 0.12282582083334148,
          "durationTicks": 113,
          "midi": 71,
          "name": "B4",
          "ticks": 82680,
          "time": 89.8693705,
          "velocity": 0.6299212598425197
        },
        {
          "duration": 0.12282582083334148,
          "durationTicks": 113,
          "midi": 74,
          "name": "D5",
          "ticks": 82800,
          "time": 89.99980500000001,
          "velocity": 0.6299212598425197
        },
        {
          "duration": 0.24673859583333524,
          "durationTicks": 227,
          "midi": 79,
          "name": "G5",
          "ticks": 82920,
          "time": 90.1302395,
          "velocity": 0.6299212598425197
        },
        {
          "duration": 0.12282582083334148,
          "durationTicks": 113,
          "midi": 71,
          "name": "B4",
          "ticks": 83160,
          "time": 90.3911085,
          "velocity": 0.6299212598425197
        },
        {
          "duration": 0.12282582083334148,
          "durationTicks": 113,
          "midi": 79,
          "name": "G5",
          "ticks": 83280,
          "time": 90.52154300000001,
          "velocity": 0.6299212598425197
        },
        {
          "duration": 0.24673859583333524,
          "durationTicks": 227,
          "midi": 86,
          "name": "D6",
          "ticks": 83400,
          "time": 90.6519775,
          "velocity": 0.6299212598425197
        },
        {
          "duration": 0.24673859583333524,
          "durationTicks": 227,
          "midi": 86,
          "name": "D6",
          "ticks": 83640,
          "time": 90.9128465,
          "velocity": 0.6299212598425197
        },
        {
          "duration": 0.24673859583333524,
          "durationTicks": 227,
          "midi": 81,
          "name": "A5",
          "ticks": 83880,
          "time": 91.1737155,
          "velocity": 0.6299212598425197
        },
        {
          "duration": 0.12282582083334148,
          "durationTicks": 113,
          "midi": 81,
          "name": "A5",
          "ticks": 84120,
          "time": 91.4345845,
          "velocity": 0.6299212598425197
        },
        {
          "duration": 0.12282582083334148,
          "durationTicks": 113,
          "midi": 83,
          "name": "B5",
          "ticks": 84240,
          "time": 91.565019,
          "velocity": 0.6299212598425197
        },
        {
          "duration": 0.12282582083334148,
          "durationTicks": 113,
          "midi": 86,
          "name": "D6",
          "ticks": 84360,
          "time": 91.6954535,
          "velocity": 0.6299212598425197
        },
        {
          "duration": 0.12282582083334148,
          "durationTicks": 113,
          "midi": 83,
          "name": "B5",
          "ticks": 84480,
          "time": 91.825888,
          "velocity": 0.6299212598425197
        },
        {
          "duration": 0.12282582083332727,
          "durationTicks": 113,
          "midi": 71,
          "name": "B4",
          "ticks": 84600,
          "time": 91.95632250000001,
          "velocity": 0.6299212598425197
        },
        {
          "duration": 0.12282582083334148,
          "durationTicks": 113,
          "midi": 74,
          "name": "D5",
          "ticks": 84720,
          "time": 92.086757,
          "velocity": 0.6299212598425197
        },
        {
          "duration": 0.24673859583332103,
          "durationTicks": 227,
          "midi": 83,
          "name": "B5",
          "ticks": 84840,
          "time": 92.21719150000001,
          "velocity": 0.6299212598425197
        },
        {
          "duration": 0.12282582083332727,
          "durationTicks": 113,
          "midi": 71,
          "name": "B4",
          "ticks": 85080,
          "time": 92.47806050000001,
          "velocity": 0.6299212598425197
        },
        {
          "duration": 0.12282582083334148,
          "durationTicks": 113,
          "midi": 83,
          "name": "B5",
          "ticks": 85200,
          "time": 92.608495,
          "velocity": 0.6299212598425197
        },
        {
          "duration": 0.24673859583332103,
          "durationTicks": 227,
          "midi": 86,
          "name": "D6",
          "ticks": 85320,
          "time": 92.73892950000001,
          "velocity": 0.6299212598425197
        },
        {
          "duration": 0.24673859583332103,
          "durationTicks": 227,
          "midi": 86,
          "name": "D6",
          "ticks": 85560,
          "time": 92.99979850000001,
          "velocity": 0.6299212598425197
        },
        {
          "duration": 0.24673859583332103,
          "durationTicks": 227,
          "midi": 81,
          "name": "A5",
          "ticks": 85800,
          "time": 93.26066750000001,
          "velocity": 0.6299212598425197
        },
        {
          "duration": 0.12282582083334148,
          "durationTicks": 113,
          "midi": 81,
          "name": "A5",
          "ticks": 86040,
          "time": 93.52153650000001,
          "velocity": 0.6299212598425197
        },
        {
          "duration": 0.12282582083334148,
          "durationTicks": 113,
          "midi": 83,
          "name": "B5",
          "ticks": 86160,
          "time": 93.651971,
          "velocity": 0.6299212598425197
        },
        {
          "duration": 0.12282582083334148,
          "durationTicks": 113,
          "midi": 81,
          "name": "A5",
          "ticks": 86280,
          "time": 93.78240550000001,
          "velocity": 0.6299212598425197
        },
        {
          "duration": 0.12282582083334148,
          "durationTicks": 113,
          "midi": 83,
          "name": "B5",
          "ticks": 86400,
          "time": 93.91284,
          "velocity": 0.6299212598425197
        },
        {
          "duration": 0.12282582083334148,
          "durationTicks": 113,
          "midi": 71,
          "name": "B4",
          "ticks": 86520,
          "time": 94.04327450000001,
          "velocity": 0.6299212598425197
        },
        {
          "duration": 0.12282582083334148,
          "durationTicks": 113,
          "midi": 74,
          "name": "D5",
          "ticks": 86640,
          "time": 94.173709,
          "velocity": 0.6299212598425197
        },
        {
          "duration": 0.24673859583333524,
          "durationTicks": 227,
          "midi": 83,
          "name": "B5",
          "ticks": 86760,
          "time": 94.30414350000001,
          "velocity": 0.6299212598425197
        },
        {
          "duration": 0.12282582083334148,
          "durationTicks": 113,
          "midi": 71,
          "name": "B4",
          "ticks": 87000,
          "time": 94.56501250000001,
          "velocity": 0.6299212598425197
        },
        {
          "duration": 0.12282582083334148,
          "durationTicks": 113,
          "midi": 83,
          "name": "B5",
          "ticks": 87120,
          "time": 94.695447,
          "velocity": 0.6299212598425197
        },
        {
          "duration": 0.24673859583333524,
          "durationTicks": 227,
          "midi": 86,
          "name": "D6",
          "ticks": 87240,
          "time": 94.82588150000001,
          "velocity": 0.6299212598425197
        },
        {
          "duration": 0.24673859583333524,
          "durationTicks": 227,
          "midi": 86,
          "name": "D6",
          "ticks": 87480,
          "time": 95.08675050000001,
          "velocity": 0.6299212598425197
        },
        {
          "duration": 0.24673859583333524,
          "durationTicks": 227,
          "midi": 81,
          "name": "A5",
          "ticks": 87720,
          "time": 95.34761950000001,
          "velocity": 0.6299212598425197
        },
        {
          "duration": 0.12282582083334148,
          "durationTicks": 113,
          "midi": 81,
          "name": "A5",
          "ticks": 87960,
          "time": 95.6084885,
          "velocity": 0.6299212598425197
        },
        {
          "duration": 0.12282582083334148,
          "durationTicks": 113,
          "midi": 83,
          "name": "B5",
          "ticks": 88080,
          "time": 95.738923,
          "velocity": 0.6299212598425197
        },
        {
          "duration": 0.12282582083334148,
          "durationTicks": 113,
          "midi": 81,
          "name": "A5",
          "ticks": 88200,
          "time": 95.8693575,
          "velocity": 0.6299212598425197
        },
        {
          "duration": 0.12282582083332727,
          "durationTicks": 113,
          "midi": 79,
          "name": "G5",
          "ticks": 88320,
          "time": 95.99979200000001,
          "velocity": 0.6299212598425197
        },
        {
          "duration": 0.12282582083334148,
          "durationTicks": 113,
          "midi": 71,
          "name": "B4",
          "ticks": 88440,
          "time": 96.1302265,
          "velocity": 0.6299212598425197
        },
        {
          "duration": 0.12282582083332727,
          "durationTicks": 113,
          "midi": 74,
          "name": "D5",
          "ticks": 88560,
          "time": 96.26066100000001,
          "velocity": 0.6299212598425197
        },
        {
          "duration": 0.24673859583333524,
          "durationTicks": 227,
          "midi": 79,
          "name": "G5",
          "ticks": 88680,
          "time": 96.3910955,
          "velocity": 0.6299212598425197
        },
        {
          "duration": 0.12282582083334148,
          "durationTicks": 113,
          "midi": 71,
          "name": "B4",
          "ticks": 88920,
          "time": 96.6519645,
          "velocity": 0.6299212598425197
        },
        {
          "duration": 0.12282582083334148,
          "durationTicks": 113,
          "midi": 79,
          "name": "G5",
          "ticks": 89040,
          "time": 96.78239900000001,
          "velocity": 0.6299212598425197
        },
        {
          "duration": 0.24673859583333524,
          "durationTicks": 227,
          "midi": 86,
          "name": "D6",
          "ticks": 89160,
          "time": 96.9128335,
          "velocity": 0.6299212598425197
        },
        {
          "duration": 0.24673859583333524,
          "durationTicks": 227,
          "midi": 86,
          "name": "D6",
          "ticks": 89400,
          "time": 97.1737025,
          "velocity": 0.6299212598425197
        },
        {
          "duration": 0.24673859583333524,
          "durationTicks": 227,
          "midi": 81,
          "name": "A5",
          "ticks": 89640,
          "time": 97.4345715,
          "velocity": 0.6299212598425197
        },
        {
          "duration": 0.12282582083334148,
          "durationTicks": 113,
          "midi": 81,
          "name": "A5",
          "ticks": 89880,
          "time": 97.6954405,
          "velocity": 0.6299212598425197
        },
        {
          "duration": 0.12282582083334148,
          "durationTicks": 113,
          "midi": 83,
          "name": "B5",
          "ticks": 90000,
          "time": 97.82587500000001,
          "velocity": 0.6299212598425197
        },
        {
          "duration": 0.12282582083334148,
          "durationTicks": 113,
          "midi": 81,
          "name": "A5",
          "ticks": 90120,
          "time": 97.9563095,
          "velocity": 0.6299212598425197
        },
        {
          "duration": 0.12282582083334148,
          "durationTicks": 113,
          "midi": 79,
          "name": "G5",
          "ticks": 90240,
          "time": 98.08674400000001,
          "velocity": 0.6299212598425197
        },
        {
          "duration": 0.12282582083334148,
          "durationTicks": 113,
          "midi": 71,
          "name": "B4",
          "ticks": 90360,
          "time": 98.2171785,
          "velocity": 0.6299212598425197
        },
        {
          "duration": 0.12282582083334148,
          "durationTicks": 113,
          "midi": 74,
          "name": "D5",
          "ticks": 90480,
          "time": 98.34761300000001,
          "velocity": 0.6299212598425197
        },
        {
          "duration": 0.24673859583333524,
          "durationTicks": 227,
          "midi": 79,
          "name": "G5",
          "ticks": 90600,
          "time": 98.4780475,
          "velocity": 0.6299212598425197
        },
        {
          "duration": 0.12282582083334148,
          "durationTicks": 113,
          "midi": 71,
          "name": "B4",
          "ticks": 90840,
          "time": 98.7389165,
          "velocity": 0.6299212598425197
        },
        {
          "duration": 0.12282582083334148,
          "durationTicks": 113,
          "midi": 79,
          "name": "G5",
          "ticks": 90960,
          "time": 98.86935100000001,
          "velocity": 0.6299212598425197
        },
        {
          "duration": 0.24673859583333524,
          "durationTicks": 227,
          "midi": 86,
          "name": "D6",
          "ticks": 91080,
          "time": 98.9997855,
          "velocity": 0.6299212598425197
        },
        {
          "duration": 0.24673859583333524,
          "durationTicks": 227,
          "midi": 86,
          "name": "D6",
          "ticks": 91320,
          "time": 99.2606545,
          "velocity": 0.6299212598425197
        },
        {
          "duration": 0.24673859583333524,
          "durationTicks": 227,
          "midi": 81,
          "name": "A5",
          "ticks": 91560,
          "time": 99.5215235,
          "velocity": 0.6299212598425197
        },
        {
          "duration": 0.12282582083334148,
          "durationTicks": 113,
          "midi": 81,
          "name": "A5",
          "ticks": 91800,
          "time": 99.7823925,
          "velocity": 0.6299212598425197
        },
        {
          "duration": 0.12282582083334148,
          "durationTicks": 113,
          "midi": 83,
          "name": "B5",
          "ticks": 91920,
          "time": 99.91282700000001,
          "velocity": 0.6299212598425197
        },
        {
          "duration": 0.12282582083334148,
          "durationTicks": 113,
          "midi": 86,
          "name": "D6",
          "ticks": 92040,
          "time": 100.0432615,
          "velocity": 0.6299212598425197
        },
        {
          "duration": 0.49456414583332275,
          "durationTicks": 455,
          "midi": 74,
          "name": "D5",
          "ticks": 92160,
          "time": 100.173696,
          "velocity": 0.25984251968503935
        },
        {
          "duration": 0.49456414583332275,
          "durationTicks": 455,
          "midi": 86,
          "name": "D6",
          "ticks": 92160,
          "time": 100.173696,
          "velocity": 0.25984251968503935
        },
        {
          "duration": 0.49456414583332275,
          "durationTicks": 455,
          "midi": 71,
          "name": "B4",
          "ticks": 92640,
          "time": 100.695434,
          "velocity": 0.25984251968503935
        },
        {
          "duration": 0.49456414583332275,
          "durationTicks": 455,
          "midi": 83,
          "name": "B5",
          "ticks": 92640,
          "time": 100.695434,
          "velocity": 0.25984251968503935
        },
        {
          "duration": 0.24673859583333524,
          "durationTicks": 227,
          "midi": 71,
          "name": "B4",
          "ticks": 93120,
          "time": 101.217172,
          "velocity": 0.2677165354330709
        },
        {
          "duration": 0.24673859583333524,
          "durationTicks": 227,
          "midi": 83,
          "name": "B5",
          "ticks": 93120,
          "time": 101.217172,
          "velocity": 0.2677165354330709
        },
        {
          "duration": 0.49456414583333697,
          "durationTicks": 455,
          "midi": 69,
          "name": "A4",
          "ticks": 93360,
          "time": 101.478041,
          "velocity": 0.2755905511811024
        },
        {
          "duration": 0.49456414583333697,
          "durationTicks": 455,
          "midi": 81,
          "name": "A5",
          "ticks": 93360,
          "time": 101.478041,
          "velocity": 0.2755905511811024
        },
        {
          "duration": 0.24673859583333524,
          "durationTicks": 227,
          "midi": 71,
          "name": "B4",
          "ticks": 93840,
          "time": 101.999779,
          "velocity": 0.28346456692913385
        },
        {
          "duration": 0.24673859583333524,
          "durationTicks": 227,
          "midi": 83,
          "name": "B5",
          "ticks": 93840,
          "time": 101.999779,
          "velocity": 0.28346456692913385
        },
        {
          "duration": 0.49456414583333697,
          "durationTicks": 455,
          "midi": 74,
          "name": "D5",
          "ticks": 94080,
          "time": 102.260648,
          "velocity": 0.29133858267716534
        },
        {
          "duration": 0.49456414583333697,
          "durationTicks": 455,
          "midi": 86,
          "name": "D6",
          "ticks": 94080,
          "time": 102.260648,
          "velocity": 0.29133858267716534
        },
        {
          "duration": 0.49456414583333697,
          "durationTicks": 455,
          "midi": 71,
          "name": "B4",
          "ticks": 94560,
          "time": 102.782386,
          "velocity": 0.30708661417322836
        },
        {
          "duration": 0.49456414583333697,
          "durationTicks": 455,
          "midi": 83,
          "name": "B5",
          "ticks": 94560,
          "time": 102.782386,
          "velocity": 0.30708661417322836
        },
        {
          "duration": 0.24673859583333524,
          "durationTicks": 227,
          "midi": 71,
          "name": "B4",
          "ticks": 95040,
          "time": 103.304124,
          "velocity": 0.31496062992125984
        },
        {
          "duration": 0.24673859583333524,
          "durationTicks": 227,
          "midi": 83,
          "name": "B5",
          "ticks": 95040,
          "time": 103.304124,
          "velocity": 0.31496062992125984
        },
        {
          "duration": 0.49456414583333697,
          "durationTicks": 455,
          "midi": 69,
          "name": "A4",
          "ticks": 95280,
          "time": 103.564993,
          "velocity": 0.3228346456692913
        },
        {
          "duration": 0.49456414583333697,
          "durationTicks": 455,
          "midi": 81,
          "name": "A5",
          "ticks": 95280,
          "time": 103.564993,
          "velocity": 0.3228346456692913
        },
        {
          "duration": 0.24673859583333524,
          "durationTicks": 227,
          "midi": 71,
          "name": "B4",
          "ticks": 95760,
          "time": 104.086731,
          "velocity": 0.33858267716535434
        },
        {
          "duration": 0.24673859583333524,
          "durationTicks": 227,
          "midi": 83,
          "name": "B5",
          "ticks": 95760,
          "time": 104.086731,
          "velocity": 0.33858267716535434
        },
        {
          "duration": 0.49456414583333697,
          "durationTicks": 455,
          "midi": 74,
          "name": "D5",
          "ticks": 96000,
          "time": 104.3476,
          "velocity": 0.33858267716535434
        },
        {
          "duration": 0.49456414583333697,
          "durationTicks": 455,
          "midi": 86,
          "name": "D6",
          "ticks": 96000,
          "time": 104.3476,
          "velocity": 0.33858267716535434
        },
        {
          "duration": 0.49456414583332275,
          "durationTicks": 455,
          "midi": 71,
          "name": "B4",
          "ticks": 96480,
          "time": 104.86933800000001,
          "velocity": 0.3543307086614173
        },
        {
          "duration": 0.49456414583332275,
          "durationTicks": 455,
          "midi": 83,
          "name": "B5",
          "ticks": 96480,
          "time": 104.86933800000001,
          "velocity": 0.3543307086614173
        },
        {
          "duration": 0.24673859583332103,
          "durationTicks": 227,
          "midi": 71,
          "name": "B4",
          "ticks": 96960,
          "time": 105.39107600000001,
          "velocity": 0.3700787401574803
        },
        {
          "duration": 0.24673859583332103,
          "durationTicks": 227,
          "midi": 83,
          "name": "B5",
          "ticks": 96960,
          "time": 105.39107600000001,
          "velocity": 0.3700787401574803
        },
        {
          "duration": 0.49456414583332275,
          "durationTicks": 455,
          "midi": 69,
          "name": "A4",
          "ticks": 97200,
          "time": 105.65194500000001,
          "velocity": 0.3700787401574803
        },
        {
          "duration": 0.49456414583332275,
          "durationTicks": 455,
          "midi": 81,
          "name": "A5",
          "ticks": 97200,
          "time": 105.65194500000001,
          "velocity": 0.3700787401574803
        },
        {
          "duration": 0.24673859583332103,
          "durationTicks": 227,
          "midi": 71,
          "name": "B4",
          "ticks": 97680,
          "time": 106.17368300000001,
          "velocity": 0.3858267716535433
        },
        {
          "duration": 0.24673859583332103,
          "durationTicks": 227,
          "midi": 83,
          "name": "B5",
          "ticks": 97680,
          "time": 106.17368300000001,
          "velocity": 0.3858267716535433
        },
        {
          "duration": 0.49456414583332275,
          "durationTicks": 455,
          "midi": 74,
          "name": "D5",
          "ticks": 97920,
          "time": 106.43455200000001,
          "velocity": 0.3937007874015748
        },
        {
          "duration": 0.49456414583332275,
          "durationTicks": 455,
          "midi": 86,
          "name": "D6",
          "ticks": 97920,
          "time": 106.43455200000001,
          "velocity": 0.3937007874015748
        },
        {
          "duration": 0.49456414583332275,
          "durationTicks": 455,
          "midi": 71,
          "name": "B4",
          "ticks": 98400,
          "time": 106.95629000000001,
          "velocity": 0.4015748031496063
        },
        {
          "duration": 0.49456414583332275,
          "durationTicks": 455,
          "midi": 83,
          "name": "B5",
          "ticks": 98400,
          "time": 106.95629000000001,
          "velocity": 0.4015748031496063
        },
        {
          "duration": 0.24673859583333524,
          "durationTicks": 227,
          "midi": 71,
          "name": "B4",
          "ticks": 98880,
          "time": 107.47802800000001,
          "velocity": 0.41732283464566927
        },
        {
          "duration": 0.24673859583333524,
          "durationTicks": 227,
          "midi": 83,
          "name": "B5",
          "ticks": 98880,
          "time": 107.47802800000001,
          "velocity": 0.41732283464566927
        },
        {
          "duration": 0.49456414583332275,
          "durationTicks": 455,
          "midi": 69,
          "name": "A4",
          "ticks": 99120,
          "time": 107.73889700000001,
          "velocity": 0.4251968503937008
        },
        {
          "duration": 0.49456414583332275,
          "durationTicks": 455,
          "midi": 81,
          "name": "A5",
          "ticks": 99120,
          "time": 107.73889700000001,
          "velocity": 0.4251968503937008
        },
        {
          "duration": 0.24673859583333524,
          "durationTicks": 227,
          "midi": 71,
          "name": "B4",
          "ticks": 99600,
          "time": 108.26063500000001,
          "velocity": 0.4330708661417323
        },
        {
          "duration": 0.24673859583333524,
          "durationTicks": 227,
          "midi": 83,
          "name": "B5",
          "ticks": 99600,
          "time": 108.26063500000001,
          "velocity": 0.4330708661417323
        },
        {
          "duration": 0.49456414583332275,
          "durationTicks": 455,
          "midi": 74,
          "name": "D5",
          "ticks": 99840,
          "time": 108.52150400000001,
          "velocity": 0.4409448818897638
        },
        {
          "duration": 0.49456414583332275,
          "durationTicks": 455,
          "midi": 86,
          "name": "D6",
          "ticks": 99840,
          "time": 108.52150400000001,
          "velocity": 0.4409448818897638
        },
        {
          "duration": 0.49456414583332275,
          "durationTicks": 455,
          "midi": 71,
          "name": "B4",
          "ticks": 100320,
          "time": 109.043242,
          "velocity": 0.4566929133858268
        },
        {
          "duration": 0.49456414583332275,
          "durationTicks": 455,
          "midi": 83,
          "name": "B5",
          "ticks": 100320,
          "time": 109.043242,
          "velocity": 0.4566929133858268
        },
        {
          "duration": 0.24673859583333524,
          "durationTicks": 227,
          "midi": 71,
          "name": "B4",
          "ticks": 100800,
          "time": 109.56498,
          "velocity": 0.4645669291338583
        },
        {
          "duration": 0.24673859583333524,
          "durationTicks": 227,
          "midi": 83,
          "name": "B5",
          "ticks": 100800,
          "time": 109.56498,
          "velocity": 0.4645669291338583
        },
        {
          "duration": 0.49456414583333697,
          "durationTicks": 455,
          "midi": 69,
          "name": "A4",
          "ticks": 101040,
          "time": 109.825849,
          "velocity": 0.47244094488188976
        },
        {
          "duration": 0.49456414583333697,
          "durationTicks": 455,
          "midi": 81,
          "name": "A5",
          "ticks": 101040,
          "time": 109.825849,
          "velocity": 0.47244094488188976
        },
        {
          "duration": 0.24673859583333524,
          "durationTicks": 227,
          "midi": 71,
          "name": "B4",
          "ticks": 101520,
          "time": 110.347587,
          "velocity": 0.48031496062992124
        },
        {
          "duration": 0.24673859583333524,
          "durationTicks": 227,
          "midi": 83,
          "name": "B5",
          "ticks": 101520,
          "time": 110.347587,
          "velocity": 0.48031496062992124
        },
        {
          "duration": 0.49456414583333697,
          "durationTicks": 455,
          "midi": 74,
          "name": "D5",
          "ticks": 101760,
          "time": 110.608456,
          "velocity": 0.4881889763779528
        },
        {
          "duration": 0.49456414583333697,
          "durationTicks": 455,
          "midi": 86,
          "name": "D6",
          "ticks": 101760,
          "time": 110.608456,
          "velocity": 0.4881889763779528
        },
        {
          "duration": 0.49456414583333697,
          "durationTicks": 455,
          "midi": 71,
          "name": "B4",
          "ticks": 102240,
          "time": 111.130194,
          "velocity": 0.5039370078740157
        },
        {
          "duration": 0.49456414583333697,
          "durationTicks": 455,
          "midi": 83,
          "name": "B5",
          "ticks": 102240,
          "time": 111.130194,
          "velocity": 0.5039370078740157
        },
        {
          "duration": 0.24673859583333524,
          "durationTicks": 227,
          "midi": 71,
          "name": "B4",
          "ticks": 102720,
          "time": 111.651932,
          "velocity": 0.5118110236220472
        },
        {
          "duration": 0.24673859583333524,
          "durationTicks": 227,
          "midi": 83,
          "name": "B5",
          "ticks": 102720,
          "time": 111.651932,
          "velocity": 0.5118110236220472
        },
        {
          "duration": 0.49456414583333697,
          "durationTicks": 455,
          "midi": 69,
          "name": "A4",
          "ticks": 102960,
          "time": 111.912801,
          "velocity": 0.5196850393700787
        },
        {
          "duration": 0.49456414583333697,
          "durationTicks": 455,
          "midi": 81,
          "name": "A5",
          "ticks": 102960,
          "time": 111.912801,
          "velocity": 0.5196850393700787
        },
        {
          "duration": 0.24673859583333524,
          "durationTicks": 227,
          "midi": 71,
          "name": "B4",
          "ticks": 103440,
          "time": 112.434539,
          "velocity": 0.5354330708661418
        },
        {
          "duration": 0.24673859583333524,
          "durationTicks": 227,
          "midi": 83,
          "name": "B5",
          "ticks": 103440,
          "time": 112.434539,
          "velocity": 0.5354330708661418
        },
        {
          "duration": 0.49456414583332275,
          "durationTicks": 455,
          "midi": 74,
          "name": "D5",
          "ticks": 103680,
          "time": 112.69540800000001,
          "velocity": 0.5433070866141733
        },
        {
          "duration": 0.49456414583332275,
          "durationTicks": 455,
          "midi": 86,
          "name": "D6",
          "ticks": 103680,
          "time": 112.69540800000001,
          "velocity": 0.5433070866141733
        },
        {
          "duration": 0.49456414583332275,
          "durationTicks": 455,
          "midi": 71,
          "name": "B4",
          "ticks": 104160,
          "time": 113.21714600000001,
          "velocity": 0.5511811023622047
        },
        {
          "duration": 0.49456414583332275,
          "durationTicks": 455,
          "midi": 83,
          "name": "B5",
          "ticks": 104160,
          "time": 113.21714600000001,
          "velocity": 0.5511811023622047
        },
        {
          "duration": 0.24673859583332103,
          "durationTicks": 227,
          "midi": 71,
          "name": "B4",
          "ticks": 104640,
          "time": 113.73888400000001,
          "velocity": 0.5669291338582677
        },
        {
          "duration": 0.24673859583332103,
          "durationTicks": 227,
          "midi": 83,
          "name": "B5",
          "ticks": 104640,
          "time": 113.73888400000001,
          "velocity": 0.5669291338582677
        },
        {
          "duration": 0.49456414583332275,
          "durationTicks": 455,
          "midi": 69,
          "name": "A4",
          "ticks": 104880,
          "time": 113.99975300000001,
          "velocity": 0.5669291338582677
        },
        {
          "duration": 0.49456414583332275,
          "durationTicks": 455,
          "midi": 81,
          "name": "A5",
          "ticks": 104880,
          "time": 113.99975300000001,
          "velocity": 0.5669291338582677
        },
        {
          "duration": 0.24673859583332103,
          "durationTicks": 227,
          "midi": 71,
          "name": "B4",
          "ticks": 105360,
          "time": 114.52149100000001,
          "velocity": 0.5826771653543307
        },
        {
          "duration": 0.24673859583332103,
          "durationTicks": 227,
          "midi": 83,
          "name": "B5",
          "ticks": 105360,
          "time": 114.52149100000001,
          "velocity": 0.5826771653543307
        },
        {
          "duration": 0.49456414583332275,
          "durationTicks": 455,
          "midi": 78,
          "name": "F#5",
          "ticks": 105600,
          "time": 114.78236000000001,
          "velocity": 0.5905511811023622
        },
        {
          "duration": 0.49456414583332275,
          "durationTicks": 455,
          "midi": 90,
          "name": "F#6",
          "ticks": 105600,
          "time": 114.78236000000001,
          "velocity": 0.5905511811023622
        },
        {
          "duration": 0.49456414583332275,
          "durationTicks": 455,
          "midi": 74,
          "name": "D5",
          "ticks": 106080,
          "time": 115.30409800000001,
          "velocity": 0.5984251968503937
        },
        {
          "duration": 0.49456414583332275,
          "durationTicks": 455,
          "midi": 86,
          "name": "D6",
          "ticks": 106080,
          "time": 115.30409800000001,
          "velocity": 0.5984251968503937
        },
        {
          "duration": 0.49456414583332275,
          "durationTicks": 455,
          "midi": 74,
          "name": "D5",
          "ticks": 106560,
          "time": 115.82583600000001,
          "velocity": 0.6141732283464567
        },
        {
          "duration": 0.49456414583332275,
          "durationTicks": 455,
          "midi": 86,
          "name": "D6",
          "ticks": 106560,
          "time": 115.82583600000001,
          "velocity": 0.6141732283464567
        },
        {
          "duration": 0.49456414583332275,
          "durationTicks": 455,
          "midi": 71,
          "name": "B4",
          "ticks": 107040,
          "time": 116.34757400000001,
          "velocity": 0.6299212598425197
        },
        {
          "duration": 0.49456414583332275,
          "durationTicks": 455,
          "midi": 83,
          "name": "B5",
          "ticks": 107040,
          "time": 116.34757400000001,
          "velocity": 0.6299212598425197
        },
        {
          "duration": 0.49456414583332275,
          "durationTicks": 455,
          "midi": 86,
          "name": "D6",
          "ticks": 107520,
          "time": 116.86931200000001,
          "velocity": 0.5039370078740157
        },
        {
          "duration": 0.49456414583332275,
          "durationTicks": 455,
          "midi": 83,
          "name": "B5",
          "ticks": 108000,
          "time": 117.39105,
          "velocity": 0.5039370078740157
        },
        {
          "duration": 0.24673859583333524,
          "durationTicks": 227,
          "midi": 83,
          "name": "B5",
          "ticks": 108480,
          "time": 117.912788,
          "velocity": 0.5118110236220472
        },
        {
          "duration": 0.49456414583333697,
          "durationTicks": 455,
          "midi": 81,
          "name": "A5",
          "ticks": 108720,
          "time": 118.173657,
          "velocity": 0.5196850393700787
        },
        {
          "duration": 0.24673859583333524,
          "durationTicks": 227,
          "midi": 83,
          "name": "B5",
          "ticks": 109200,
          "time": 118.695395,
          "velocity": 0.5275590551181102
        },
        {
          "duration": 0.49456414583333697,
          "durationTicks": 455,
          "midi": 86,
          "name": "D6",
          "ticks": 109440,
          "time": 118.956264,
          "velocity": 0.5354330708661418
        },
        {
          "duration": 0.49456414583333697,
          "durationTicks": 455,
          "midi": 83,
          "name": "B5",
          "ticks": 109920,
          "time": 119.478002,
          "velocity": 0.5511811023622047
        },
        {
          "duration": 0.24673859583333524,
          "durationTicks": 227,
          "midi": 83,
          "name": "B5",
          "ticks": 110400,
          "time": 119.99974,
          "velocity": 0.5590551181102362
        },
        {
          "duration": 0.49456414583333697,
          "durationTicks": 455,
          "midi": 81,
          "name": "A5",
          "ticks": 110640,
          "time": 120.260609,
          "velocity": 0.5669291338582677
        },
        {
          "duration": 0.24673859583333524,
          "durationTicks": 227,
          "midi": 83,
          "name": "B5",
          "ticks": 111120,
          "time": 120.782347,
          "velocity": 0.5826771653543307
        },
        {
          "duration": 0.49456414583333697,
          "durationTicks": 455,
          "midi": 86,
          "name": "D6",
          "ticks": 111360,
          "time": 121.043216,
          "velocity": 0.5905511811023622
        },
        {
          "duration": 0.49456414583332275,
          "durationTicks": 455,
          "midi": 83,
          "name": "B5",
          "ticks": 111840,
          "time": 121.56495400000001,
          "velocity": 0.5984251968503937
        },
        {
          "duration": 0.24673859583332103,
          "durationTicks": 227,
          "midi": 83,
          "name": "B5",
          "ticks": 112320,
          "time": 122.08669200000001,
          "velocity": 0.6141732283464567
        },
        {
          "duration": 0.49456414583332275,
          "durationTicks": 455,
          "midi": 81,
          "name": "A5",
          "ticks": 112560,
          "time": 122.34756100000001,
          "velocity": 0.6141732283464567
        },
        {
          "duration": 0.24673859583332103,
          "durationTicks": 227,
          "midi": 83,
          "name": "B5",
          "ticks": 113040,
          "time": 122.86929900000001,
          "velocity": 0.6299212598425197
        },
        {
          "duration": 0.49456414583332275,
          "durationTicks": 455,
          "midi": 86,
          "name": "D6",
          "ticks": 113280,
          "time": 123.13016800000001,
          "velocity": 0.6377952755905512
        },
        {
          "duration": 0.49456414583332275,
          "durationTicks": 455,
          "midi": 83,
          "name": "B5",
          "ticks": 113760,
          "time": 123.65190600000001,
          "velocity": 0.6456692913385826
        },
        {
          "duration": 0.24673859583333524,
          "durationTicks": 227,
          "midi": 83,
          "name": "B5",
          "ticks": 114240,
          "time": 124.17364400000001,
          "velocity": 0.6614173228346457
        },
        {
          "duration": 0.49456414583332275,
          "durationTicks": 455,
          "midi": 81,
          "name": "A5",
          "ticks": 114480,
          "time": 124.43451300000001,
          "velocity": 0.6692913385826772
        },
        {
          "duration": 0.24673859583333524,
          "durationTicks": 227,
          "midi": 83,
          "name": "B5",
          "ticks": 114960,
          "time": 124.95625100000001,
          "velocity": 0.6771653543307087
        },
        {
          "duration": 0.49456414583332275,
          "durationTicks": 455,
          "midi": 86,
          "name": "D6",
          "ticks": 115200,
          "time": 125.21712000000001,
          "velocity": 0.6850393700787402
        },
        {
          "duration": 0.49456414583332275,
          "durationTicks": 455,
          "midi": 83,
          "name": "B5",
          "ticks": 115680,
          "time": 125.73885800000001,
          "velocity": 0.7007874015748031
        },
        {
          "duration": 0.24673859583333524,
          "durationTicks": 227,
          "midi": 83,
          "name": "B5",
          "ticks": 116160,
          "time": 126.260596,
          "velocity": 0.7086614173228346
        },
        {
          "duration": 0.49456414583333697,
          "durationTicks": 455,
          "midi": 81,
          "name": "A5",
          "ticks": 116400,
          "time": 126.521465,
          "velocity": 0.7165354330708661
        },
        {
          "duration": 0.24673859583333524,
          "durationTicks": 227,
          "midi": 83,
          "name": "B5",
          "ticks": 116880,
          "time": 127.043203,
          "velocity": 0.7322834645669292
        },
        {
          "duration": 0.49456414583333697,
          "durationTicks": 455,
          "midi": 86,
          "name": "D6",
          "ticks": 117120,
          "time": 127.304072,
          "velocity": 0.7322834645669292
        },
        {
          "duration": 0.49456414583333697,
          "durationTicks": 455,
          "midi": 83,
          "name": "B5",
          "ticks": 117600,
          "time": 127.82581,
          "velocity": 0.7480314960629921
        },
        {
          "duration": 0.24673859583333524,
          "durationTicks": 227,
          "midi": 83,
          "name": "B5",
          "ticks": 118080,
          "time": 128.34754800000002,
          "velocity": 0.7637795275590551
        },
        {
          "duration": 0.49456414583332275,
          "durationTicks": 455,
          "midi": 81,
          "name": "A5",
          "ticks": 118320,
          "time": 128.608417,
          "velocity": 0.7637795275590551
        },
        {
          "duration": 0.24673859583333524,
          "durationTicks": 227,
          "midi": 83,
          "name": "B5",
          "ticks": 118800,
          "time": 129.130155,
          "velocity": 0.7795275590551181
        },
        {
          "duration": 0.49456414583332275,
          "durationTicks": 455,
          "midi": 86,
          "name": "D6",
          "ticks": 119040,
          "time": 129.39102400000002,
          "velocity": 0.7874015748031497
        },
        {
          "duration": 0.49456414583332275,
          "durationTicks": 455,
          "midi": 83,
          "name": "B5",
          "ticks": 119520,
          "time": 129.91276200000001,
          "velocity": 0.7952755905511811
        },
        {
          "duration": 0.24673859583333524,
          "durationTicks": 227,
          "midi": 83,
          "name": "B5",
          "ticks": 120000,
          "time": 130.4345,
          "velocity": 0.8110236220472441
        },
        {
          "duration": 0.4945641458333512,
          "durationTicks": 455,
          "midi": 81,
          "name": "A5",
          "ticks": 120240,
          "time": 130.695369,
          "velocity": 0.8188976377952756
        },
        {
          "duration": 0.24673859583333524,
          "durationTicks": 227,
          "midi": 83,
          "name": "B5",
          "ticks": 120720,
          "time": 131.217107,
          "velocity": 0.8267716535433071
        },
        {
          "duration": 0.49456414583332275,
          "durationTicks": 455,
          "midi": 90,
          "name": "F#6",
          "ticks": 120960,
          "time": 131.477976,
          "velocity": 0.8346456692913385
        },
        {
          "duration": 0.49456414583332275,
          "durationTicks": 455,
          "midi": 86,
          "name": "D6",
          "ticks": 121440,
          "time": 131.999714,
          "velocity": 0.8503937007874016
        },
        {
          "duration": 0.24673859583333524,
          "durationTicks": 227,
          "midi": 86,
          "name": "D6",
          "ticks": 121920,
          "time": 132.521452,
          "velocity": 0.8582677165354331
        },
        {
          "duration": 0.4945641458333512,
          "durationTicks": 455,
          "midi": 86,
          "name": "D6",
          "ticks": 122160,
          "time": 132.782321,
          "velocity": 0.8661417322834646
        },
        {
          "duration": 0.24673859583333524,
          "durationTicks": 227,
          "midi": 83,
          "name": "B5",
          "ticks": 122640,
          "time": 133.304059,
          "velocity": 0.8818897637795275
        },
        {
          "duration": 0.12282582083332727,
          "durationTicks": 113,
          "midi": 83,
          "name": "B5",
          "ticks": 138240,
          "time": 150.260544,
          "velocity": 0.8818897637795275
        },
        {
          "duration": 0.12282582083332727,
          "durationTicks": 113,
          "midi": 71,
          "name": "B4",
          "ticks": 138360,
          "time": 150.39097850000002,
          "velocity": 0.8818897637795275
        },
        {
          "duration": 0.12282582083329885,
          "durationTicks": 113,
          "midi": 74,
          "name": "D5",
          "ticks": 138480,
          "time": 150.52141300000002,
          "velocity": 0.8818897637795275
        },
        {
          "duration": 0.24673859583333524,
          "durationTicks": 227,
          "midi": 83,
          "name": "B5",
          "ticks": 138600,
          "time": 150.6518475,
          "velocity": 0.8818897637795275
        },
        {
          "duration": 0.12282582083332727,
          "durationTicks": 113,
          "midi": 71,
          "name": "B4",
          "ticks": 138840,
          "time": 150.91271650000002,
          "velocity": 0.8818897637795275
        },
        {
          "duration": 0.12282582083329885,
          "durationTicks": 113,
          "midi": 83,
          "name": "B5",
          "ticks": 138960,
          "time": 151.04315100000002,
          "velocity": 0.8818897637795275
        },
        {
          "duration": 0.24673859583333524,
          "durationTicks": 227,
          "midi": 86,
          "name": "D6",
          "ticks": 139080,
          "time": 151.1735855,
          "velocity": 0.8818897637795275
        },
        {
          "duration": 0.24673859583333524,
          "durationTicks": 227,
          "midi": 86,
          "name": "D6",
          "ticks": 139320,
          "time": 151.43445450000002,
          "velocity": 0.8818897637795275
        },
        {
          "duration": 0.24673859583333524,
          "durationTicks": 227,
          "midi": 81,
          "name": "A5",
          "ticks": 139560,
          "time": 151.6953235,
          "velocity": 0.8818897637795275
        },
        {
          "duration": 0.12282582083332727,
          "durationTicks": 113,
          "midi": 81,
          "name": "A5",
          "ticks": 139800,
          "time": 151.95619250000001,
          "velocity": 0.8818897637795275
        },
        {
          "duration": 0.12282582083332727,
          "durationTicks": 113,
          "midi": 83,
          "name": "B5",
          "ticks": 139920,
          "time": 152.08662700000002,
          "velocity": 0.8818897637795275
        },
        {
          "duration": 0.12282582083332727,
          "durationTicks": 113,
          "midi": 81,
          "name": "A5",
          "ticks": 140040,
          "time": 152.2170615,
          "velocity": 0.8818897637795275
        },
        {
          "duration": 0.12282582083332727,
          "durationTicks": 113,
          "midi": 83,
          "name": "B5",
          "ticks": 140160,
          "time": 152.347496,
          "velocity": 0.8818897637795275
        },
        {
          "duration": 0.12282582083332727,
          "durationTicks": 113,
          "midi": 71,
          "name": "B4",
          "ticks": 140280,
          "time": 152.4779305,
          "velocity": 0.8818897637795275
        },
        {
          "duration": 0.12282582083332727,
          "durationTicks": 113,
          "midi": 74,
          "name": "D5",
          "ticks": 140400,
          "time": 152.60836500000002,
          "velocity": 0.8818897637795275
        },
        {
          "duration": 0.24673859583333524,
          "durationTicks": 227,
          "midi": 83,
          "name": "B5",
          "ticks": 140520,
          "time": 152.7387995,
          "velocity": 0.8818897637795275
        },
        {
          "duration": 0.12282582083332727,
          "durationTicks": 113,
          "midi": 71,
          "name": "B4",
          "ticks": 140760,
          "time": 152.9996685,
          "velocity": 0.8818897637795275
        },
        {
          "duration": 0.12282582083332727,
          "durationTicks": 113,
          "midi": 83,
          "name": "B5",
          "ticks": 140880,
          "time": 153.13010300000002,
          "velocity": 0.8818897637795275
        },
        {
          "duration": 0.24673859583333524,
          "durationTicks": 227,
          "midi": 86,
          "name": "D6",
          "ticks": 141000,
          "time": 153.2605375,
          "velocity": 0.8818897637795275
        },
        {
          "duration": 0.24673859583333524,
          "durationTicks": 227,
          "midi": 86,
          "name": "D6",
          "ticks": 141240,
          "time": 153.5214065,
          "velocity": 0.8818897637795275
        },
        {
          "duration": 0.24673859583333524,
          "durationTicks": 227,
          "midi": 81,
          "name": "A5",
          "ticks": 141480,
          "time": 153.7822755,
          "velocity": 0.8818897637795275
        },
        {
          "duration": 0.12282582083332727,
          "durationTicks": 113,
          "midi": 81,
          "name": "A5",
          "ticks": 141720,
          "time": 154.0431445,
          "velocity": 0.8818897637795275
        },
        {
          "duration": 0.12282582083332727,
          "durationTicks": 113,
          "midi": 83,
          "name": "B5",
          "ticks": 141840,
          "time": 154.17357900000002,
          "velocity": 0.8818897637795275
        },
        {
          "duration": 0.12282582083332727,
          "durationTicks": 113,
          "midi": 81,
          "name": "A5",
          "ticks": 141960,
          "time": 154.3040135,
          "velocity": 0.8818897637795275
        },
        {
          "duration": 0.12282582083332727,
          "durationTicks": 113,
          "midi": 79,
          "name": "G5",
          "ticks": 142080,
          "time": 154.434448,
          "velocity": 0.8818897637795275
        },
        {
          "duration": 0.12282582083332727,
          "durationTicks": 113,
          "midi": 71,
          "name": "B4",
          "ticks": 142200,
          "time": 154.5648825,
          "velocity": 0.8818897637795275
        },
        {
          "duration": 0.12282582083332727,
          "durationTicks": 113,
          "midi": 74,
          "name": "D5",
          "ticks": 142320,
          "time": 154.69531700000002,
          "velocity": 0.8818897637795275
        },
        {
          "duration": 0.24673859583330682,
          "durationTicks": 227,
          "midi": 79,
          "name": "G5",
          "ticks": 142440,
          "time": 154.82575150000002,
          "velocity": 0.8818897637795275
        },
        {
          "duration": 0.12282582083332727,
          "durationTicks": 113,
          "midi": 71,
          "name": "B4",
          "ticks": 142680,
          "time": 155.0866205,
          "velocity": 0.8818897637795275
        },
        {
          "duration": 0.12282582083332727,
          "durationTicks": 113,
          "midi": 79,
          "name": "G5",
          "ticks": 142800,
          "time": 155.21705500000002,
          "velocity": 0.8818897637795275
        },
        {
          "duration": 0.24673859583330682,
          "durationTicks": 227,
          "midi": 86,
          "name": "D6",
          "ticks": 142920,
          "time": 155.34748950000002,
          "velocity": 0.8818897637795275
        },
        {
          "duration": 0.24673859583333524,
          "durationTicks": 227,
          "midi": 86,
          "name": "D6",
          "ticks": 143160,
          "time": 155.6083585,
          "velocity": 0.8818897637795275
        },
        {
          "duration": 0.24673859583330682,
          "durationTicks": 227,
          "midi": 81,
          "name": "A5",
          "ticks": 143400,
          "time": 155.86922750000002,
          "velocity": 0.8818897637795275
        },
        {
          "duration": 0.12282582083332727,
          "durationTicks": 113,
          "midi": 81,
          "name": "A5",
          "ticks": 143640,
          "time": 156.1300965,
          "velocity": 0.8818897637795275
        },
        {
          "duration": 0.12282582083332727,
          "durationTicks": 113,
          "midi": 83,
          "name": "B5",
          "ticks": 143760,
          "time": 156.26053100000001,
          "velocity": 0.8818897637795275
        },
        {
          "duration": 0.12282582083332727,
          "durationTicks": 113,
          "midi": 81,
          "name": "A5",
          "ticks": 143880,
          "time": 156.39096550000002,
          "velocity": 0.8818897637795275
        },
        {
          "duration": 0.12282582083332727,
          "durationTicks": 113,
          "midi": 79,
          "name": "G5",
          "ticks": 144000,
          "time": 156.5214,
          "velocity": 0.8818897637795275
        },
        {
          "duration": 0.12282582083332727,
          "durationTicks": 113,
          "midi": 71,
          "name": "B4",
          "ticks": 144120,
          "time": 156.6518345,
          "velocity": 0.8818897637795275
        },
        {
          "duration": 0.12282582083332727,
          "durationTicks": 113,
          "midi": 74,
          "name": "D5",
          "ticks": 144240,
          "time": 156.782269,
          "velocity": 0.8818897637795275
        },
        {
          "duration": 0.24673859583333524,
          "durationTicks": 227,
          "midi": 79,
          "name": "G5",
          "ticks": 144360,
          "time": 156.91270350000002,
          "velocity": 0.8818897637795275
        },
        {
          "duration": 0.12282582083332727,
          "durationTicks": 113,
          "midi": 71,
          "name": "B4",
          "ticks": 144600,
          "time": 157.1735725,
          "velocity": 0.8818897637795275
        },
        {
          "duration": 0.12282582083332727,
          "durationTicks": 113,
          "midi": 79,
          "name": "G5",
          "ticks": 144720,
          "time": 157.304007,
          "velocity": 0.8818897637795275
        },
        {
          "duration": 0.24673859583333524,
          "durationTicks": 227,
          "midi": 86,
          "name": "D6",
          "ticks": 144840,
          "time": 157.43444150000002,
          "velocity": 0.8818897637795275
        },
        {
          "duration": 0.24673859583333524,
          "durationTicks": 227,
          "midi": 86,
          "name": "D6",
          "ticks": 145080,
          "time": 157.6953105,
          "velocity": 0.8818897637795275
        },
        {
          "duration": 0.24673859583333524,
          "durationTicks": 227,
          "midi": 81,
          "name": "A5",
          "ticks": 145320,
          "time": 157.95617950000002,
          "velocity": 0.8818897637795275
        },
        {
          "duration": 0.12282582083332727,
          "durationTicks": 113,
          "midi": 81,
          "name": "A5",
          "ticks": 145560,
          "time": 158.2170485,
          "velocity": 0.8818897637795275
        },
        {
          "duration": 0.12282582083332727,
          "durationTicks": 113,
          "midi": 83,
          "name": "B5",
          "ticks": 145680,
          "time": 158.347483,
          "velocity": 0.8818897637795275
        },
        {
          "duration": 0.12282582083332727,
          "durationTicks": 113,
          "midi": 86,
          "name": "D6",
          "ticks": 145800,
          "time": 158.47791750000002,
          "velocity": 0.8818897637795275
        },
        {
          "duration": 0.12282582083329885,
          "durationTicks": 113,
          "midi": 88,
          "name": "E6",
          "ticks": 145920,
          "time": 158.60835200000002,
          "velocity": 0.8818897637795275
        },
        {
          "duration": 0.12282582083332727,
          "durationTicks": 113,
          "midi": 79,
          "name": "G5",
          "ticks": 146040,
          "time": 158.7387865,
          "velocity": 0.8818897637795275
        },
        {
          "duration": 0.12282582083332727,
          "durationTicks": 113,
          "midi": 83,
          "name": "B5",
          "ticks": 146160,
          "time": 158.869221,
          "velocity": 0.8818897637795275
        },
        {
          "duration": 0.24673859583333524,
          "durationTicks": 227,
          "midi": 88,
          "name": "E6",
          "ticks": 146280,
          "time": 158.99965550000002,
          "velocity": 0.8818897637795275
        },
        {
          "duration": 0.12282582083332727,
          "durationTicks": 113,
          "midi": 76,
          "name": "E5",
          "ticks": 146520,
          "time": 159.2605245,
          "velocity": 0.8818897637795275
        },
        {
          "duration": 0.12282582083332727,
          "durationTicks": 113,
          "midi": 88,
          "name": "E6",
          "ticks": 146640,
          "time": 159.390959,
          "velocity": 0.8818897637795275
        },
        {
          "duration": 0.24673859583333524,
          "durationTicks": 227,
          "midi": 91,
          "name": "G6",
          "ticks": 146760,
          "time": 159.52139350000002,
          "velocity": 0.8818897637795275
        },
        {
          "duration": 0.24673859583333524,
          "durationTicks": 227,
          "midi": 91,
          "name": "G6",
          "ticks": 147000,
          "time": 159.7822625,
          "velocity": 0.8818897637795275
        },
        {
          "duration": 0.24673859583333524,
          "durationTicks": 227,
          "midi": 86,
          "name": "D6",
          "ticks": 147240,
          "time": 160.04313150000002,
          "velocity": 0.8818897637795275
        },
        {
          "duration": 0.12282582083332727,
          "durationTicks": 113,
          "midi": 86,
          "name": "D6",
          "ticks": 147480,
          "time": 160.3040005,
          "velocity": 0.8818897637795275
        },
        {
          "duration": 0.24673859583333524,
          "durationTicks": 227,
          "midi": 88,
          "name": "E6",
          "ticks": 147600,
          "time": 160.434435,
          "velocity": 0.8818897637795275
        },
        {
          "duration": 0.12282582083332727,
          "durationTicks": 113,
          "midi": 88,
          "name": "E6",
          "ticks": 147840,
          "time": 160.69530400000002,
          "velocity": 0.8818897637795275
        },
        {
          "duration": 0.12282582083332727,
          "durationTicks": 113,
          "midi": 79,
          "name": "G5",
          "ticks": 147960,
          "time": 160.8257385,
          "velocity": 0.8818897637795275
        },
        {
          "duration": 0.12282582083332727,
          "durationTicks": 113,
          "midi": 83,
          "name": "B5",
          "ticks": 148080,
          "time": 160.956173,
          "velocity": 0.8818897637795275
        },
        {
          "duration": 0.24673859583333524,
          "durationTicks": 227,
          "midi": 88,
          "name": "E6",
          "ticks": 148200,
          "time": 161.0866075,
          "velocity": 0.8818897637795275
        },
        {
          "duration": 0.12282582083332727,
          "durationTicks": 113,
          "midi": 76,
          "name": "E5",
          "ticks": 148440,
          "time": 161.3474765,
          "velocity": 0.8818897637795275
        },
        {
          "duration": 0.12282582083332727,
          "durationTicks": 113,
          "midi": 88,
          "name": "E6",
          "ticks": 148560,
          "time": 161.477911,
          "velocity": 0.8818897637795275
        },
        {
          "duration": 0.24673859583333524,
          "durationTicks": 227,
          "midi": 91,
          "name": "G6",
          "ticks": 148680,
          "time": 161.6083455,
          "velocity": 0.8818897637795275
        },
        {
          "duration": 0.24673859583333524,
          "durationTicks": 227,
          "midi": 91,
          "name": "G6",
          "ticks": 148920,
          "time": 161.8692145,
          "velocity": 0.8818897637795275
        },
        {
          "duration": 0.24673859583333524,
          "durationTicks": 227,
          "midi": 86,
          "name": "D6",
          "ticks": 149160,
          "time": 162.1300835,
          "velocity": 0.8818897637795275
        },
        {
          "duration": 0.12282582083332727,
          "durationTicks": 113,
          "midi": 86,
          "name": "D6",
          "ticks": 149400,
          "time": 162.3909525,
          "velocity": 0.8818897637795275
        },
        {
          "duration": 0.12282582083332727,
          "durationTicks": 113,
          "midi": 88,
          "name": "E6",
          "ticks": 149520,
          "time": 162.521387,
          "velocity": 0.8818897637795275
        },
        {
          "duration": 0.12282582083332727,
          "durationTicks": 113,
          "midi": 86,
          "name": "D6",
          "ticks": 149640,
          "time": 162.6518215,
          "velocity": 0.8818897637795275
        },
        {
          "duration": 0.12282582083332727,
          "durationTicks": 113,
          "midi": 83,
          "name": "B5",
          "ticks": 149760,
          "time": 162.78225600000002,
          "velocity": 0.8818897637795275
        },
        {
          "duration": 0.12282582083329885,
          "durationTicks": 113,
          "midi": 74,
          "name": "D5",
          "ticks": 149880,
          "time": 162.91269050000002,
          "velocity": 0.8818897637795275
        },
        {
          "duration": 0.12282582083332727,
          "durationTicks": 113,
          "midi": 78,
          "name": "F#5",
          "ticks": 150000,
          "time": 163.043125,
          "velocity": 0.8818897637795275
        },
        {
          "duration": 0.24673859583333524,
          "durationTicks": 227,
          "midi": 83,
          "name": "B5",
          "ticks": 150120,
          "time": 163.1735595,
          "velocity": 0.8818897637795275
        },
        {
          "duration": 0.12282582083329885,
          "durationTicks": 113,
          "midi": 74,
          "name": "D5",
          "ticks": 150360,
          "time": 163.43442850000002,
          "velocity": 0.8818897637795275
        },
        {
          "duration": 0.12282582083332727,
          "durationTicks": 113,
          "midi": 81,
          "name": "A5",
          "ticks": 150480,
          "time": 163.564863,
          "velocity": 0.8818897637795275
        },
        {
          "duration": 0.24673859583333524,
          "durationTicks": 227,
          "midi": 90,
          "name": "F#6",
          "ticks": 150600,
          "time": 163.6952975,
          "velocity": 0.8818897637795275
        },
        {
          "duration": 0.24673859583330682,
          "durationTicks": 227,
          "midi": 90,
          "name": "F#6",
          "ticks": 150840,
          "time": 163.95616650000002,
          "velocity": 0.8818897637795275
        },
        {
          "duration": 0.24673859583333524,
          "durationTicks": 227,
          "midi": 83,
          "name": "B5",
          "ticks": 151080,
          "time": 164.2170355,
          "velocity": 0.8818897637795275
        },
        {
          "duration": 0.12282582083332727,
          "durationTicks": 113,
          "midi": 83,
          "name": "B5",
          "ticks": 151320,
          "time": 164.47790450000002,
          "velocity": 0.8818897637795275
        },
        {
          "duration": 0.24673859583333524,
          "durationTicks": 227,
          "midi": 86,
          "name": "D6",
          "ticks": 151440,
          "time": 164.608339,
          "velocity": 0.8818897637795275
        },
        {
          "duration": 0.12282582083332727,
          "durationTicks": 113,
          "midi": 83,
          "name": "B5",
          "ticks": 151680,
          "time": 164.86920800000001,
          "velocity": 0.8818897637795275
        },
        {
          "duration": 0.12282582083332727,
          "durationTicks": 113,
          "midi": 74,
          "name": "D5",
          "ticks": 151800,
          "time": 164.99964250000002,
          "velocity": 0.8818897637795275
        },
        {
          "duration": 0.12282582083332727,
          "durationTicks": 113,
          "midi": 78,
          "name": "F#5",
          "ticks": 151920,
          "time": 165.130077,
          "velocity": 0.8818897637795275
        },
        {
          "duration": 0.24673859583333524,
          "durationTicks": 227,
          "midi": 83,
          "name": "B5",
          "ticks": 152040,
          "time": 165.2605115,
          "velocity": 0.8818897637795275
        },
        {
          "duration": 0.12282582083332727,
          "durationTicks": 113,
          "midi": 74,
          "name": "D5",
          "ticks": 152280,
          "time": 165.52138050000002,
          "velocity": 0.8818897637795275
        },
        {
          "duration": 0.12282582083332727,
          "durationTicks": 113,
          "midi": 81,
          "name": "A5",
          "ticks": 152400,
          "time": 165.651815,
          "velocity": 0.8818897637795275
        },
        {
          "duration": 0.24673859583333524,
          "durationTicks": 227,
          "midi": 90,
          "name": "F#6",
          "ticks": 152520,
          "time": 165.7822495,
          "velocity": 0.8818897637795275
        },
        {
          "duration": 0.12282582083332727,
          "durationTicks": 113,
          "midi": 74,
          "name": "D5",
          "ticks": 152760,
          "time": 166.04311850000002,
          "velocity": 0.8818897637795275
        },
        {
          "duration": 0.12282582083332727,
          "durationTicks": 113,
          "midi": 78,
          "name": "F#5",
          "ticks": 152880,
          "time": 166.173553,
          "velocity": 0.8818897637795275
        },
        {
          "duration": 0.12282582083332727,
          "durationTicks": 113,
          "midi": 81,
          "name": "A5",
          "ticks": 153000,
          "time": 166.3039875,
          "velocity": 0.8818897637795275
        },
        {
          "duration": 0.12282582083332727,
          "durationTicks": 113,
          "midi": 90,
          "name": "F#6",
          "ticks": 153120,
          "time": 166.434422,
          "velocity": 0.8818897637795275
        },
        {
          "duration": 0.12282582083332727,
          "durationTicks": 113,
          "midi": 81,
          "name": "A5",
          "ticks": 153240,
          "time": 166.56485650000002,
          "velocity": 0.8818897637795275
        },
        {
          "duration": 0.12282582083332727,
          "durationTicks": 113,
          "midi": 78,
          "name": "F#5",
          "ticks": 153360,
          "time": 166.695291,
          "velocity": 0.8818897637795275
        },
        {
          "duration": 0.12282582083332727,
          "durationTicks": 113,
          "midi": 74,
          "name": "D5",
          "ticks": 153480,
          "time": 166.8257255,
          "velocity": 0.8818897637795275
        },
        {
          "duration": 0.12282582083332727,
          "durationTicks": 113,
          "midi": 83,
          "name": "B5",
          "ticks": 153600,
          "time": 166.95616,
          "velocity": 0.6299212598425197
        },
        {
          "duration": 0.12282582083332727,
          "durationTicks": 113,
          "midi": 71,
          "name": "B4",
          "ticks": 153720,
          "time": 167.08659450000002,
          "velocity": 0.6299212598425197
        },
        {
          "duration": 0.12282582083329885,
          "durationTicks": 113,
          "midi": 74,
          "name": "D5",
          "ticks": 153840,
          "time": 167.21702900000003,
          "velocity": 0.6299212598425197
        },
        {
          "duration": 0.24673859583333524,
          "durationTicks": 227,
          "midi": 83,
          "name": "B5",
          "ticks": 153960,
          "time": 167.3474635,
          "velocity": 0.6299212598425197
        },
        {
          "duration": 0.12282582083332727,
          "durationTicks": 113,
          "midi": 71,
          "name": "B4",
          "ticks": 154200,
          "time": 167.60833250000002,
          "velocity": 0.6220472440944882
        },
        {
          "duration": 0.12282582083329885,
          "durationTicks": 113,
          "midi": 83,
          "name": "B5",
          "ticks": 154320,
          "time": 167.73876700000002,
          "velocity": 0.6220472440944882
        },
        {
          "duration": 0.24673859583333524,
          "durationTicks": 227,
          "midi": 86,
          "name": "D6",
          "ticks": 154440,
          "time": 167.8692015,
          "velocity": 0.6141732283464567
        },
        {
          "duration": 0.24673859583333524,
          "durationTicks": 227,
          "midi": 86,
          "name": "D6",
          "ticks": 154680,
          "time": 168.13007050000002,
          "velocity": 0.6062992125984252
        },
        {
          "duration": 0.24673859583333524,
          "durationTicks": 227,
          "midi": 81,
          "name": "A5",
          "ticks": 154920,
          "time": 168.3909395,
          "velocity": 0.6062992125984252
        },
        {
          "duration": 0.12282582083332727,
          "durationTicks": 113,
          "midi": 81,
          "name": "A5",
          "ticks": 155160,
          "time": 168.65180850000002,
          "velocity": 0.5984251968503937
        },
        {
          "duration": 0.12282582083332727,
          "durationTicks": 113,
          "midi": 83,
          "name": "B5",
          "ticks": 155280,
          "time": 168.78224300000002,
          "velocity": 0.5984251968503937
        },
        {
          "duration": 0.12282582083332727,
          "durationTicks": 113,
          "midi": 81,
          "name": "A5",
          "ticks": 155400,
          "time": 168.9126775,
          "velocity": 0.5905511811023622
        },
        {
          "duration": 0.12282582083332727,
          "durationTicks": 113,
          "midi": 83,
          "name": "B5",
          "ticks": 155520,
          "time": 169.043112,
          "velocity": 0.5905511811023622
        },
        {
          "duration": 0.12282582083332727,
          "durationTicks": 113,
          "midi": 71,
          "name": "B4",
          "ticks": 155640,
          "time": 169.17354650000001,
          "velocity": 0.5826771653543307
        },
        {
          "duration": 0.12282582083332727,
          "durationTicks": 113,
          "midi": 74,
          "name": "D5",
          "ticks": 155760,
          "time": 169.30398100000002,
          "velocity": 0.5826771653543307
        },
        {
          "duration": 0.24673859583333524,
          "durationTicks": 227,
          "midi": 83,
          "name": "B5",
          "ticks": 155880,
          "time": 169.4344155,
          "velocity": 0.5826771653543307
        },
        {
          "duration": 0.12282582083332727,
          "durationTicks": 113,
          "midi": 71,
          "name": "B4",
          "ticks": 156120,
          "time": 169.6952845,
          "velocity": 0.5748031496062992
        },
        {
          "duration": 0.12282582083332727,
          "durationTicks": 113,
          "midi": 83,
          "name": "B5",
          "ticks": 156240,
          "time": 169.82571900000002,
          "velocity": 0.5748031496062992
        },
        {
          "duration": 0.24673859583333524,
          "durationTicks": 227,
          "midi": 86,
          "name": "D6",
          "ticks": 156360,
          "time": 169.9561535,
          "velocity": 0.5669291338582677
        },
        {
          "duration": 0.24673859583333524,
          "durationTicks": 227,
          "midi": 86,
          "name": "D6",
          "ticks": 156600,
          "time": 170.2170225,
          "velocity": 0.5590551181102362
        },
        {
          "duration": 0.24673859583333524,
          "durationTicks": 227,
          "midi": 81,
          "name": "A5",
          "ticks": 156840,
          "time": 170.4778915,
          "velocity": 0.5590551181102362
        },
        {
          "duration": 0.12282582083332727,
          "durationTicks": 113,
          "midi": 81,
          "name": "A5",
          "ticks": 157080,
          "time": 170.7387605,
          "velocity": 0.5511811023622047
        },
        {
          "duration": 0.12282582083332727,
          "durationTicks": 113,
          "midi": 83,
          "name": "B5",
          "ticks": 157200,
          "time": 170.86919500000002,
          "velocity": 0.5511811023622047
        },
        {
          "duration": 0.12282582083332727,
          "durationTicks": 113,
          "midi": 81,
          "name": "A5",
          "ticks": 157320,
          "time": 170.9996295,
          "velocity": 0.5433070866141733
        },
        {
          "duration": 0.12282582083332727,
          "durationTicks": 113,
          "midi": 83,
          "name": "B5",
          "ticks": 157440,
          "time": 171.130064,
          "velocity": 0.5433070866141733
        },
        {
          "duration": 0.12282582083332727,
          "durationTicks": 113,
          "midi": 71,
          "name": "B4",
          "ticks": 157560,
          "time": 171.2604985,
          "velocity": 0.5354330708661418
        },
        {
          "duration": 0.12282582083332727,
          "durationTicks": 113,
          "midi": 74,
          "name": "D5",
          "ticks": 157680,
          "time": 171.39093300000002,
          "velocity": 0.5354330708661418
        },
        {
          "duration": 0.24673859583330682,
          "durationTicks": 227,
          "midi": 83,
          "name": "B5",
          "ticks": 157800,
          "time": 171.52136750000003,
          "velocity": 0.5354330708661418
        },
        {
          "duration": 0.12282582083332727,
          "durationTicks": 113,
          "midi": 71,
          "name": "B4",
          "ticks": 158040,
          "time": 171.7822365,
          "velocity": 0.5275590551181102
        },
        {
          "duration": 0.12282582083332727,
          "durationTicks": 113,
          "midi": 83,
          "name": "B5",
          "ticks": 158160,
          "time": 171.91267100000002,
          "velocity": 0.5275590551181102
        },
        {
          "duration": 0.24673859583330682,
          "durationTicks": 227,
          "midi": 86,
          "name": "D6",
          "ticks": 158280,
          "time": 172.04310550000002,
          "velocity": 0.5196850393700787
        },
        {
          "duration": 0.24673859583333524,
          "durationTicks": 227,
          "midi": 86,
          "name": "D6",
          "ticks": 158520,
          "time": 172.3039745,
          "velocity": 0.5118110236220472
        },
        {
          "duration": 0.24673859583330682,
          "durationTicks": 227,
          "midi": 81,
          "name": "A5",
          "ticks": 158760,
          "time": 172.56484350000002,
          "velocity": 0.5118110236220472
        },
        {
          "duration": 0.12282582083332727,
          "durationTicks": 113,
          "midi": 81,
          "name": "A5",
          "ticks": 159000,
          "time": 172.8257125,
          "velocity": 0.5039370078740157
        },
        {
          "duration": 0.12282582083332727,
          "durationTicks": 113,
          "midi": 83,
          "name": "B5",
          "ticks": 159120,
          "time": 172.95614700000002,
          "velocity": 0.5039370078740157
        },
        {
          "duration": 0.12282582083332727,
          "durationTicks": 113,
          "midi": 81,
          "name": "A5",
          "ticks": 159240,
          "time": 173.08658150000002,
          "velocity": 0.49606299212598426
        },
        {
          "duration": 0.12282582083332727,
          "durationTicks": 113,
          "midi": 83,
          "name": "B5",
          "ticks": 159360,
          "time": 173.217016,
          "velocity": 0.49606299212598426
        },
        {
          "duration": 0.12282582083332727,
          "durationTicks": 113,
          "midi": 71,
          "name": "B4",
          "ticks": 159480,
          "time": 173.3474505,
          "velocity": 0.4881889763779528
        },
        {
          "duration": 0.12282582083332727,
          "durationTicks": 113,
          "midi": 74,
          "name": "D5",
          "ticks": 159600,
          "time": 173.47788500000001,
          "velocity": 0.4881889763779528
        },
        {
          "duration": 0.24673859583333524,
          "durationTicks": 227,
          "midi": 83,
          "name": "B5",
          "ticks": 159720,
          "time": 173.60831950000002,
          "velocity": 0.4881889763779528
        },
        {
          "duration": 0.12282582083332727,
          "durationTicks": 113,
          "midi": 71,
          "name": "B4",
          "ticks": 159960,
          "time": 173.8691885,
          "velocity": 0.48031496062992124
        },
        {
          "duration": 0.12282582083332727,
          "durationTicks": 113,
          "midi": 83,
          "name": "B5",
          "ticks": 160080,
          "time": 173.999623,
          "velocity": 0.48031496062992124
        },
        {
          "duration": 0.24673859583333524,
          "durationTicks": 227,
          "midi": 86,
          "name": "D6",
          "ticks": 160200,
          "time": 174.13005750000002,
          "velocity": 0.47244094488188976
        },
        {
          "duration": 0.24673859583333524,
          "durationTicks": 227,
          "midi": 86,
          "name": "D6",
          "ticks": 160440,
          "time": 174.3909265,
          "velocity": 0.4645669291338583
        },
        {
          "duration": 0.24673859583333524,
          "durationTicks": 227,
          "midi": 81,
          "name": "A5",
          "ticks": 160680,
          "time": 174.65179550000002,
          "velocity": 0.4645669291338583
        },
        {
          "duration": 0.12282582083332727,
          "durationTicks": 113,
          "midi": 81,
          "name": "A5",
          "ticks": 160920,
          "time": 174.9126645,
          "velocity": 0.4566929133858268
        },
        {
          "duration": 0.12282582083332727,
          "durationTicks": 113,
          "midi": 83,
          "name": "B5",
          "ticks": 161040,
          "time": 175.043099,
          "velocity": 0.4566929133858268
        },
        {
          "duration": 0.12282582083332727,
          "durationTicks": 113,
          "midi": 81,
          "name": "A5",
          "ticks": 161160,
          "time": 175.17353350000002,
          "velocity": 0.44881889763779526
        },
        {
          "duration": 0.12282582083332727,
          "durationTicks": 113,
          "midi": 83,
          "name": "B5",
          "ticks": 161280,
          "time": 175.303968,
          "velocity": 0.44881889763779526
        },
        {
          "duration": 0.12282582083332727,
          "durationTicks": 113,
          "midi": 71,
          "name": "B4",
          "ticks": 161400,
          "time": 175.4344025,
          "velocity": 0.4409448818897638
        },
        {
          "duration": 0.12282582083332727,
          "durationTicks": 113,
          "midi": 74,
          "name": "D5",
          "ticks": 161520,
          "time": 175.564837,
          "velocity": 0.4409448818897638
        },
        {
          "duration": 0.24673859583333524,
          "durationTicks": 227,
          "midi": 83,
          "name": "B5",
          "ticks": 161640,
          "time": 175.69527150000002,
          "velocity": 0.4409448818897638
        },
        {
          "duration": 0.12282582083332727,
          "durationTicks": 113,
          "midi": 71,
          "name": "B4",
          "ticks": 161880,
          "time": 175.9561405,
          "velocity": 0.4330708661417323
        },
        {
          "duration": 0.12282582083332727,
          "durationTicks": 113,
          "midi": 83,
          "name": "B5",
          "ticks": 162000,
          "time": 176.086575,
          "velocity": 0.4330708661417323
        },
        {
          "duration": 0.24673859583333524,
          "durationTicks": 227,
          "midi": 86,
          "name": "D6",
          "ticks": 162120,
          "time": 176.21700950000002,
          "velocity": 0.4251968503937008
        },
        {
          "duration": 0.24673859583333524,
          "durationTicks": 227,
          "midi": 86,
          "name": "D6",
          "ticks": 162360,
          "time": 176.4778785,
          "velocity": 0.41732283464566927
        },
        {
          "duration": 0.24673859583333524,
          "durationTicks": 227,
          "midi": 81,
          "name": "A5",
          "ticks": 162600,
          "time": 176.73874750000002,
          "velocity": 0.41732283464566927
        },
        {
          "duration": 0.12282582083332727,
          "durationTicks": 113,
          "midi": 81,
          "name": "A5",
          "ticks": 162840,
          "time": 176.9996165,
          "velocity": 0.4094488188976378
        },
        {
          "duration": 0.12282582083332727,
          "durationTicks": 113,
          "midi": 83,
          "name": "B5",
          "ticks": 162960,
          "time": 177.130051,
          "velocity": 0.4094488188976378
        },
        {
          "duration": 0.12282582083332727,
          "durationTicks": 113,
          "midi": 81,
          "name": "A5",
          "ticks": 163080,
          "time": 177.26048550000002,
          "velocity": 0.4015748031496063
        },
        {
          "duration": 0.12282582083332727,
          "durationTicks": 113,
          "midi": 83,
          "name": "B5",
          "ticks": 163200,
          "time": 177.39092000000002,
          "velocity": 0.4015748031496063
        },
        {
          "duration": 0.12282582083332727,
          "durationTicks": 113,
          "midi": 71,
          "name": "B4",
          "ticks": 163320,
          "time": 177.5213545,
          "velocity": 0.3937007874015748
        },
        {
          "duration": 0.12282582083332727,
          "durationTicks": 113,
          "midi": 74,
          "name": "D5",
          "ticks": 163440,
          "time": 177.651789,
          "velocity": 0.3937007874015748
        },
        {
          "duration": 0.24673859583333524,
          "durationTicks": 227,
          "midi": 83,
          "name": "B5",
          "ticks": 163560,
          "time": 177.78222350000001,
          "velocity": 0.3937007874015748
        },
        {
          "duration": 0.12282582083332727,
          "durationTicks": 113,
          "midi": 71,
          "name": "B4",
          "ticks": 163800,
          "time": 178.0430925,
          "velocity": 0.3858267716535433
        },
        {
          "duration": 0.12282582083332727,
          "durationTicks": 113,
          "midi": 83,
          "name": "B5",
          "ticks": 163920,
          "time": 178.173527,
          "velocity": 0.3858267716535433
        },
        {
          "duration": 0.24673859583333524,
          "durationTicks": 227,
          "midi": 86,
          "name": "D6",
          "ticks": 164040,
          "time": 178.3039615,
          "velocity": 0.3779527559055118
        },
        {
          "duration": 0.24673859583333524,
          "durationTicks": 227,
          "midi": 86,
          "name": "D6",
          "ticks": 164280,
          "time": 178.5648305,
          "velocity": 0.3700787401574803
        },
        {
          "duration": 0.24673859583333524,
          "durationTicks": 227,
          "midi": 81,
          "name": "A5",
          "ticks": 164520,
          "time": 178.8256995,
          "velocity": 0.3700787401574803
        },
        {
          "duration": 0.12282582083332727,
          "durationTicks": 113,
          "midi": 81,
          "name": "A5",
          "ticks": 164760,
          "time": 179.0865685,
          "velocity": 0.36220472440944884
        },
        {
          "duration": 0.12282582083332727,
          "durationTicks": 113,
          "midi": 83,
          "name": "B5",
          "ticks": 164880,
          "time": 179.217003,
          "velocity": 0.36220472440944884
        },
        {
          "duration": 0.12282582083332727,
          "durationTicks": 113,
          "midi": 81,
          "name": "A5",
          "ticks": 165000,
          "time": 179.3474375,
          "velocity": 0.3543307086614173
        },
        {
          "duration": 0.12282582083332727,
          "durationTicks": 113,
          "midi": 83,
          "name": "B5",
          "ticks": 165120,
          "time": 179.47787200000002,
          "velocity": 0.3543307086614173
        },
        {
          "duration": 0.12282582083329885,
          "durationTicks": 113,
          "midi": 71,
          "name": "B4",
          "ticks": 165240,
          "time": 179.60830650000003,
          "velocity": 0.3464566929133858
        },
        {
          "duration": 0.12282582083332727,
          "durationTicks": 113,
          "midi": 74,
          "name": "D5",
          "ticks": 165360,
          "time": 179.738741,
          "velocity": 0.3464566929133858
        },
        {
          "duration": 0.24673859583333524,
          "durationTicks": 227,
          "midi": 83,
          "name": "B5",
          "ticks": 165480,
          "time": 179.8691755,
          "velocity": 0.3464566929133858
        },
        {
          "duration": 0.12282582083329885,
          "durationTicks": 113,
          "midi": 71,
          "name": "B4",
          "ticks": 165720,
          "time": 180.13004450000003,
          "velocity": 0.33858267716535434
        },
        {
          "duration": 0.12282582083332727,
          "durationTicks": 113,
          "midi": 83,
          "name": "B5",
          "ticks": 165840,
          "time": 180.260479,
          "velocity": 0.33858267716535434
        },
        {
          "duration": 0.24673859583333524,
          "durationTicks": 227,
          "midi": 86,
          "name": "D6",
          "ticks": 165960,
          "time": 180.3909135,
          "velocity": 0.33070866141732286
        },
        {
          "duration": 0.24673859583330682,
          "durationTicks": 227,
          "midi": 86,
          "name": "D6",
          "ticks": 166200,
          "time": 180.65178250000002,
          "velocity": 0.3228346456692913
        },
        {
          "duration": 0.24673859583333524,
          "durationTicks": 227,
          "midi": 81,
          "name": "A5",
          "ticks": 166440,
          "time": 180.9126515,
          "velocity": 0.3228346456692913
        },
        {
          "duration": 0.12282582083332727,
          "durationTicks": 113,
          "midi": 81,
          "name": "A5",
          "ticks": 166680,
          "time": 181.17352050000002,
          "velocity": 0.31496062992125984
        },
        {
          "duration": 0.12282582083332727,
          "durationTicks": 113,
          "midi": 83,
          "name": "B5",
          "ticks": 166800,
          "time": 181.303955,
          "velocity": 0.31496062992125984
        },
        {
          "duration": 0.12282582083332727,
          "durationTicks": 113,
          "midi": 81,
          "name": "A5",
          "ticks": 166920,
          "time": 181.4343895,
          "velocity": 0.30708661417322836
        },
        {
          "duration": 0.4945641458333512,
          "durationTicks": 455,
          "midi": 83,
          "name": "B5",
          "ticks": 167040,
          "time": 181.56482400000002,
          "velocity": 0.30708661417322836
        },
        {
          "duration": 0.24673859583333524,
          "durationTicks": 227,
          "midi": 71,
          "name": "B4",
          "ticks": 167520,
          "time": 182.08656200000001,
          "velocity": 0.29133858267716534
        },
        {
          "duration": 0.24673859583333524,
          "durationTicks": 227,
          "midi": 74,
          "name": "D5",
          "ticks": 167760,
          "time": 182.347431,
          "velocity": 0.29133858267716534
        },
        {
          "duration": 0.24673859583333524,
          "durationTicks": 227,
          "midi": 83,
          "name": "B5",
          "ticks": 168000,
          "time": 182.6083,
          "velocity": 0.28346456692913385
        },
        {
          "duration": 0.24673859583333524,
          "durationTicks": 227,
          "midi": 71,
          "name": "B4",
          "ticks": 168240,
          "time": 182.869169,
          "velocity": 0.2755905511811024
        },
        {
          "duration": 0.24673859583333524,
          "durationTicks": 227,
          "midi": 74,
          "name": "D5",
          "ticks": 168480,
          "time": 183.130038,
          "velocity": 0.2677165354330709
        },
        {
          "duration": 0.24673859583333524,
          "durationTicks": 227,
          "midi": 71,
          "name": "B4",
          "ticks": 168720,
          "time": 183.390907,
          "velocity": 0.25984251968503935
        }
      ],
      "endOfTrackTicks": 168948
    },
    {
      "channel": 1,
      "controlChanges": {},
      "pitchBends": [],
      "instrument": {
        "family": "piano",
        "name": "acoustic grand piano",
        "number": 0
      },
      "name": "",
      "notes": [
        {
          "duration": 0.49456414583333697,
          "durationTicks": 455,
          "midi": 47,
          "name": "B2",
          "ticks": 30720,
          "time": 33.391232,
          "velocity": 0.5039370078740157
        },
        {
          "duration": 0.49456414583333697,
          "durationTicks": 455,
          "midi": 47,
          "name": "B2",
          "ticks": 31200,
          "time": 33.91297,
          "velocity": 0.5039370078740157
        },
        {
          "duration": 0.49456414583333697,
          "durationTicks": 455,
          "midi": 47,
          "name": "B2",
          "ticks": 31680,
          "time": 34.434708,
          "velocity": 0.5118110236220472
        },
        {
          "duration": 0.49456414583333697,
          "durationTicks": 455,
          "midi": 47,
          "name": "B2",
          "ticks": 32160,
          "time": 34.956446,
          "velocity": 0.5275590551181102
        },
        {
          "duration": 0.49456414583333697,
          "durationTicks": 455,
          "midi": 47,
          "name": "B2",
          "ticks": 32640,
          "time": 35.478184,
          "velocity": 0.5354330708661418
        },
        {
          "duration": 0.49456414583332986,
          "durationTicks": 455,
          "midi": 47,
          "name": "B2",
          "ticks": 33120,
          "time": 35.999922000000005,
          "velocity": 0.5511811023622047
        },
        {
          "duration": 0.49456414583333697,
          "durationTicks": 455,
          "midi": 47,
          "name": "B2",
          "ticks": 33600,
          "time": 36.521660000000004,
          "velocity": 0.5590551181102362
        },
        {
          "duration": 0.49456414583333697,
          "durationTicks": 455,
          "midi": 47,
          "name": "B2",
          "ticks": 34080,
          "time": 37.043398,
          "velocity": 0.5748031496062992
        },
        {
          "duration": 0.49456414583333697,
          "durationTicks": 455,
          "midi": 43,
          "name": "G2",
          "ticks": 34560,
          "time": 37.565136,
          "velocity": 0.5905511811023622
        },
        {
          "duration": 0.49456414583333697,
          "durationTicks": 455,
          "midi": 43,
          "name": "G2",
          "ticks": 35040,
          "time": 38.086874,
          "velocity": 0.5984251968503937
        },
        {
          "duration": 0.49456414583333697,
          "durationTicks": 455,
          "midi": 43,
          "name": "G2",
          "ticks": 35520,
          "time": 38.608612,
          "velocity": 0.6141732283464567
        },
        {
          "duration": 0.49456414583333697,
          "durationTicks": 455,
          "midi": 43,
          "name": "G2",
          "ticks": 36000,
          "time": 39.13035,
          "velocity": 0.6220472440944882
        },
        {
          "duration": 0.49456414583332986,
          "durationTicks": 455,
          "midi": 43,
          "name": "G2",
          "ticks": 36480,
          "time": 39.652088000000006,
          "velocity": 0.6377952755905512
        },
        {
          "duration": 0.49456414583332986,
          "durationTicks": 455,
          "midi": 43,
          "name": "G2",
          "ticks": 36960,
          "time": 40.173826000000005,
          "velocity": 0.6456692913385826
        },
        {
          "duration": 0.49456414583333697,
          "durationTicks": 455,
          "midi": 43,
          "name": "G2",
          "ticks": 37440,
          "time": 40.695564000000005,
          "velocity": 0.6614173228346457
        },
        {
          "duration": 0.49456414583333697,
          "durationTicks": 455,
          "midi": 43,
          "name": "G2",
          "ticks": 37920,
          "time": 41.217302000000004,
          "velocity": 0.6771653543307087
        },
        {
          "duration": 0.49456414583333697,
          "durationTicks": 455,
          "midi": 52,
          "name": "E3",
          "ticks": 38400,
          "time": 41.73904,
          "velocity": 0.6850393700787402
        },
        {
          "duration": 0.49456414583333697,
          "durationTicks": 455,
          "midi": 52,
          "name": "E3",
          "ticks": 38880,
          "time": 42.260778,
          "velocity": 0.7007874015748031
        },
        {
          "duration": 0.49456414583333697,
          "durationTicks": 455,
          "midi": 52,
          "name": "E3",
          "ticks": 39360,
          "time": 42.782516,
          "velocity": 0.7086614173228346
        },
        {
          "duration": 0.49456414583333697,
          "durationTicks": 455,
          "midi": 52,
          "name": "E3",
          "ticks": 39840,
          "time": 43.304254,
          "velocity": 0.7244094488188977
        },
        {
          "duration": 0.49456414583333697,
          "durationTicks": 455,
          "midi": 52,
          "name": "E3",
          "ticks": 40320,
          "time": 43.825992,
          "velocity": 0.7322834645669292
        },
        {
          "duration": 0.49456414583332986,
          "durationTicks": 455,
          "midi": 52,
          "name": "E3",
          "ticks": 40800,
          "time": 44.347730000000006,
          "velocity": 0.7480314960629921
        },
        {
          "duration": 0.49456414583333697,
          "durationTicks": 455,
          "midi": 52,
          "name": "E3",
          "ticks": 41280,
          "time": 44.869468000000005,
          "velocity": 0.7637795275590551
        },
        {
          "duration": 0.49456414583333697,
          "durationTicks": 455,
          "midi": 52,
          "name": "E3",
          "ticks": 41760,
          "time": 45.391206000000004,
          "velocity": 0.7716535433070866
        },
        {
          "duration": 0.49456414583333697,
          "durationTicks": 455,
          "midi": 50,
          "name": "D3",
          "ticks": 42240,
          "time": 45.912944,
          "velocity": 0.7874015748031497
        },
        {
          "duration": 0.49456414583333697,
          "durationTicks": 455,
          "midi": 50,
          "name": "D3",
          "ticks": 42720,
          "time": 46.434682,
          "velocity": 0.7952755905511811
        },
        {
          "duration": 0.49456414583333697,
          "durationTicks": 455,
          "midi": 50,
          "name": "D3",
          "ticks": 43200,
          "time": 46.95642,
          "velocity": 0.8110236220472441
        },
        {
          "duration": 0.49456414583333697,
          "durationTicks": 455,
          "midi": 50,
          "name": "D3",
          "ticks": 43680,
          "time": 47.478158,
          "velocity": 0.8188976377952756
        },
        {
          "duration": 0.49456414583332986,
          "durationTicks": 455,
          "midi": 50,
          "name": "D3",
          "ticks": 44160,
          "time": 47.99989600000001,
          "velocity": 0.8346456692913385
        },
        {
          "duration": 0.49456414583332986,
          "durationTicks": 455,
          "midi": 50,
          "name": "D3",
          "ticks": 44640,
          "time": 48.521634000000006,
          "velocity": 0.8503937007874016
        },
        {
          "duration": 0.12282582083333438,
          "durationTicks": 113,
          "midi": 50,
          "name": "D3",
          "ticks": 45120,
          "time": 49.043372000000005,
          "velocity": 0.8582677165354331
        },
        {
          "duration": 0.12282582083333438,
          "durationTicks": 113,
          "midi": 50,
          "name": "D3",
          "ticks": 45240,
          "time": 49.173806500000005,
          "velocity": 0.8661417322834646
        },
        {
          "duration": 0.24673859583332813,
          "durationTicks": 227,
          "midi": 50,
          "name": "D3",
          "ticks": 45360,
          "time": 49.304241000000005,
          "velocity": 0.8661417322834646
        },
        {
          "duration": 0.24673859583332813,
          "durationTicks": 227,
          "midi": 50,
          "name": "D3",
          "ticks": 45600,
          "time": 49.565110000000004,
          "velocity": 0.8740157480314961
        },
        {
          "duration": 0.24673859583332813,
          "durationTicks": 227,
          "midi": 47,
          "name": "B2",
          "ticks": 45840,
          "time": 49.825979000000004,
          "velocity": 0.8818897637795275
        },
        {
          "duration": 0.49456414583333697,
          "durationTicks": 455,
          "midi": 47,
          "name": "B2",
          "ticks": 46080,
          "time": 50.086848,
          "velocity": 0.8818897637795275
        },
        {
          "duration": 0.49456414583333697,
          "durationTicks": 455,
          "midi": 50,
          "name": "D3",
          "ticks": 46080,
          "time": 50.086848,
          "velocity": 0.8818897637795275
        },
        {
          "duration": 0.49456414583333697,
          "durationTicks": 455,
          "midi": 54,
          "name": "F#3",
          "ticks": 46080,
          "time": 50.086848,
          "velocity": 0.8818897637795275
        },
        {
          "duration": 0.49456414583333697,
          "durationTicks": 455,
          "midi": 59,
          "name": "B3",
          "ticks": 46080,
          "time": 50.086848,
          "velocity": 0.8818897637795275
        },
        {
          "duration": 0.49456414583333697,
          "durationTicks": 455,
          "midi": 47,
          "name": "B2",
          "ticks": 46560,
          "time": 50.608586,
          "velocity": 0.8818897637795275
        },
        {
          "duration": 0.49456414583333697,
          "durationTicks": 455,
          "midi": 50,
          "name": "D3",
          "ticks": 46560,
          "time": 50.608586,
          "velocity": 0.8818897637795275
        },
        {
          "duration": 0.49456414583333697,
          "durationTicks": 455,
          "midi": 54,
          "name": "F#3",
          "ticks": 46560,
          "time": 50.608586,
          "velocity": 0.8818897637795275
        },
        {
          "duration": 0.49456414583333697,
          "durationTicks": 455,
          "midi": 59,
          "name": "B3",
          "ticks": 46560,
          "time": 50.608586,
          "velocity": 0.8818897637795275
        },
        {
          "duration": 0.49456414583333697,
          "durationTicks": 455,
          "midi": 47,
          "name": "B2",
          "ticks": 47040,
          "time": 51.130324,
          "velocity": 0.8818897637795275
        },
        {
          "duration": 0.49456414583333697,
          "durationTicks": 455,
          "midi": 50,
          "name": "D3",
          "ticks": 47040,
          "time": 51.130324,
          "velocity": 0.8818897637795275
        },
        {
          "duration": 0.49456414583333697,
          "durationTicks": 455,
          "midi": 54,
          "name": "F#3",
          "ticks": 47040,
          "time": 51.130324,
          "velocity": 0.8818897637795275
        },
        {
          "duration": 0.49456414583333697,
          "durationTicks": 455,
          "midi": 59,
          "name": "B3",
          "ticks": 47040,
          "time": 51.130324,
          "velocity": 0.8818897637795275
        },
        {
          "duration": 0.49456414583333697,
          "durationTicks": 455,
          "midi": 47,
          "name": "B2",
          "ticks": 47520,
          "time": 51.652062,
          "velocity": 0.8818897637795275
        },
        {
          "duration": 0.49456414583333697,
          "durationTicks": 455,
          "midi": 50,
          "name": "D3",
          "ticks": 47520,
          "time": 51.652062,
          "velocity": 0.8818897637795275
        },
        {
          "duration": 0.49456414583333697,
          "durationTicks": 455,
          "midi": 54,
          "name": "F#3",
          "ticks": 47520,
          "time": 51.652062,
          "velocity": 0.8818897637795275
        },
        {
          "duration": 0.49456414583333697,
          "durationTicks": 455,
          "midi": 59,
          "name": "B3",
          "ticks": 47520,
          "time": 51.652062,
          "velocity": 0.8818897637795275
        },
        {
          "duration": 0.49456414583333697,
          "durationTicks": 455,
          "midi": 47,
          "name": "B2",
          "ticks": 48000,
          "time": 52.1738,
          "velocity": 0.8818897637795275
        },
        {
          "duration": 0.49456414583333697,
          "durationTicks": 455,
          "midi": 50,
          "name": "D3",
          "ticks": 48000,
          "time": 52.1738,
          "velocity": 0.8818897637795275
        },
        {
          "duration": 0.49456414583333697,
          "durationTicks": 455,
          "midi": 54,
          "name": "F#3",
          "ticks": 48000,
          "time": 52.1738,
          "velocity": 0.8818897637795275
        },
        {
          "duration": 0.49456414583333697,
          "durationTicks": 455,
          "midi": 59,
          "name": "B3",
          "ticks": 48000,
          "time": 52.1738,
          "velocity": 0.8818897637795275
        },
        {
          "duration": 0.49456414583332986,
          "durationTicks": 455,
          "midi": 47,
          "name": "B2",
          "ticks": 48480,
          "time": 52.695538000000006,
          "velocity": 0.8818897637795275
        },
        {
          "duration": 0.49456414583332986,
          "durationTicks": 455,
          "midi": 50,
          "name": "D3",
          "ticks": 48480,
          "time": 52.695538000000006,
          "velocity": 0.8818897637795275
        },
        {
          "duration": 0.49456414583332986,
          "durationTicks": 455,
          "midi": 54,
          "name": "F#3",
          "ticks": 48480,
          "time": 52.695538000000006,
          "velocity": 0.8818897637795275
        },
        {
          "duration": 0.49456414583332986,
          "durationTicks": 455,
          "midi": 59,
          "name": "B3",
          "ticks": 48480,
          "time": 52.695538000000006,
          "velocity": 0.8818897637795275
        },
        {
          "duration": 0.49456414583333697,
          "durationTicks": 455,
          "midi": 47,
          "name": "B2",
          "ticks": 48960,
          "time": 53.217276000000005,
          "velocity": 0.8818897637795275
        },
        {
          "duration": 0.49456414583333697,
          "durationTicks": 455,
          "midi": 50,
          "name": "D3",
          "ticks": 48960,
          "time": 53.217276000000005,
          "velocity": 0.8818897637795275
        },
        {
          "duration": 0.49456414583333697,
          "durationTicks": 455,
          "midi": 54,
          "name": "F#3",
          "ticks": 48960,
          "time": 53.217276000000005,
          "velocity": 0.8818897637795275
        },
        {
          "duration": 0.49456414583333697,
          "durationTicks": 455,
          "midi": 59,
          "name": "B3",
          "ticks": 48960,
          "time": 53.217276000000005,
          "velocity": 0.8818897637795275
        },
        {
          "duration": 0.49456414583333697,
          "durationTicks": 455,
          "midi": 47,
          "name": "B2",
          "ticks": 49440,
          "time": 53.739014000000005,
          "velocity": 0.8818897637795275
        },
        {
          "duration": 0.49456414583333697,
          "durationTicks": 455,
          "midi": 50,
          "name": "D3",
          "ticks": 49440,
          "time": 53.739014000000005,
          "velocity": 0.8818897637795275
        },
        {
          "duration": 0.49456414583333697,
          "durationTicks": 455,
          "midi": 54,
          "name": "F#3",
          "ticks": 49440,
          "time": 53.739014000000005,
          "velocity": 0.8818897637795275
        },
        {
          "duration": 0.49456414583333697,
          "durationTicks": 455,
          "midi": 59,
          "name": "B3",
          "ticks": 49440,
          "time": 53.739014000000005,
          "velocity": 0.8818897637795275
        },
        {
          "duration": 0.49456414583333697,
          "durationTicks": 455,
          "midi": 43,
          "name": "G2",
          "ticks": 49920,
          "time": 54.260752000000004,
          "velocity": 0.8818897637795275
        },
        {
          "duration": 0.49456414583333697,
          "durationTicks": 455,
          "midi": 47,
          "name": "B2",
          "ticks": 49920,
          "time": 54.260752000000004,
          "velocity": 0.8818897637795275
        },
        {
          "duration": 0.49456414583333697,
          "durationTicks": 455,
          "midi": 50,
          "name": "D3",
          "ticks": 49920,
          "time": 54.260752000000004,
          "velocity": 0.8818897637795275
        },
        {
          "duration": 0.49456414583333697,
          "durationTicks": 455,
          "midi": 55,
          "name": "G3",
          "ticks": 49920,
          "time": 54.260752000000004,
          "velocity": 0.8818897637795275
        },
        {
          "duration": 0.49456414583333697,
          "durationTicks": 455,
          "midi": 43,
          "name": "G2",
          "ticks": 50400,
          "time": 54.78249,
          "velocity": 0.8818897637795275
        },
        {
          "duration": 0.49456414583333697,
          "durationTicks": 455,
          "midi": 47,
          "name": "B2",
          "ticks": 50400,
          "time": 54.78249,
          "velocity": 0.8818897637795275
        },
        {
          "duration": 0.49456414583333697,
          "durationTicks": 455,
          "midi": 50,
          "name": "D3",
          "ticks": 50400,
          "time": 54.78249,
          "velocity": 0.8818897637795275
        },
        {
          "duration": 0.49456414583333697,
          "durationTicks": 455,
          "midi": 55,
          "name": "G3",
          "ticks": 50400,
          "time": 54.78249,
          "velocity": 0.8818897637795275
        },
        {
          "duration": 0.49456414583333697,
          "durationTicks": 455,
          "midi": 43,
          "name": "G2",
          "ticks": 50880,
          "time": 55.304228,
          "velocity": 0.8818897637795275
        },
        {
          "duration": 0.49456414583333697,
          "durationTicks": 455,
          "midi": 47,
          "name": "B2",
          "ticks": 50880,
          "time": 55.304228,
          "velocity": 0.8818897637795275
        },
        {
          "duration": 0.49456414583333697,
          "durationTicks": 455,
          "midi": 50,
          "name": "D3",
          "ticks": 50880,
          "time": 55.304228,
          "velocity": 0.8818897637795275
        },
        {
          "duration": 0.49456414583333697,
          "durationTicks": 455,
          "midi": 55,
          "name": "G3",
          "ticks": 50880,
          "time": 55.304228,
          "velocity": 0.8818897637795275
        },
        {
          "duration": 0.49456414583333697,
          "durationTicks": 455,
          "midi": 43,
          "name": "G2",
          "ticks": 51360,
          "time": 55.825966,
          "velocity": 0.8818897637795275
        },
        {
          "duration": 0.49456414583333697,
          "durationTicks": 455,
          "midi": 47,
          "name": "B2",
          "ticks": 51360,
          "time": 55.825966,
          "velocity": 0.8818897637795275
        },
        {
          "duration": 0.49456414583333697,
          "durationTicks": 455,
          "midi": 50,
          "name": "D3",
          "ticks": 51360,
          "time": 55.825966,
          "velocity": 0.8818897637795275
        },
        {
          "duration": 0.49456414583333697,
          "durationTicks": 455,
          "midi": 55,
          "name": "G3",
          "ticks": 51360,
          "time": 55.825966,
          "velocity": 0.8818897637795275
        },
        {
          "duration": 0.49456414583332986,
          "durationTicks": 455,
          "midi": 43,
          "name": "G2",
          "ticks": 51840,
          "time": 56.34770400000001,
          "velocity": 0.8818897637795275
        },
        {
          "duration": 0.49456414583332986,
          "durationTicks": 455,
          "midi": 47,
          "name": "B2",
          "ticks": 51840,
          "time": 56.34770400000001,
          "velocity": 0.8818897637795275
        },
        {
          "duration": 0.49456414583332986,
          "durationTicks": 455,
          "midi": 50,
          "name": "D3",
          "ticks": 51840,
          "time": 56.34770400000001,
          "velocity": 0.8818897637795275
        },
        {
          "duration": 0.49456414583332986,
          "durationTicks": 455,
          "midi": 55,
          "name": "G3",
          "ticks": 51840,
          "time": 56.34770400000001,
          "velocity": 0.8818897637795275
        },
        {
          "duration": 0.49456414583332986,
          "durationTicks": 455,
          "midi": 43,
          "name": "G2",
          "ticks": 52320,
          "time": 56.86944200000001,
          "velocity": 0.8818897637795275
        },
        {
          "duration": 0.49456414583332986,
          "durationTicks": 455,
          "midi": 47,
          "name": "B2",
          "ticks": 52320,
          "time": 56.86944200000001,
          "velocity": 0.8818897637795275
        },
        {
          "duration": 0.49456414583332986,
          "durationTicks": 455,
          "midi": 50,
          "name": "D3",
          "ticks": 52320,
          "time": 56.86944200000001,
          "velocity": 0.8818897637795275
        },
        {
          "duration": 0.49456414583332986,
          "durationTicks": 455,
          "midi": 55,
          "name": "G3",
          "ticks": 52320,
          "time": 56.86944200000001,
          "velocity": 0.8818897637795275
        },
        {
          "duration": 0.49456414583333697,
          "durationTicks": 455,
          "midi": 43,
          "name": "G2",
          "ticks": 52800,
          "time": 57.391180000000006,
          "velocity": 0.8818897637795275
        },
        {
          "duration": 0.49456414583333697,
          "durationTicks": 455,
          "midi": 47,
          "name": "B2",
          "ticks": 52800,
          "time": 57.391180000000006,
          "velocity": 0.8818897637795275
        },
        {
          "duration": 0.49456414583333697,
          "durationTicks": 455,
          "midi": 50,
          "name": "D3",
          "ticks": 52800,
          "time": 57.391180000000006,
          "velocity": 0.8818897637795275
        },
        {
          "duration": 0.49456414583333697,
          "durationTicks": 455,
          "midi": 55,
          "name": "G3",
          "ticks": 52800,
          "time": 57.391180000000006,
          "velocity": 0.8818897637795275
        },
        {
          "duration": 0.49456414583333697,
          "durationTicks": 455,
          "midi": 43,
          "name": "G2",
          "ticks": 53280,
          "time": 57.912918000000005,
          "velocity": 0.8818897637795275
        },
        {
          "duration": 0.49456414583333697,
          "durationTicks": 455,
          "midi": 47,
          "name": "B2",
          "ticks": 53280,
          "time": 57.912918000000005,
          "velocity": 0.8818897637795275
        },
        {
          "duration": 0.49456414583333697,
          "durationTicks": 455,
          "midi": 50,
          "name": "D3",
          "ticks": 53280,
          "time": 57.912918000000005,
          "velocity": 0.8818897637795275
        },
        {
          "duration": 0.49456414583333697,
          "durationTicks": 455,
          "midi": 55,
          "name": "G3",
          "ticks": 53280,
          "time": 57.912918000000005,
          "velocity": 0.8818897637795275
        },
        {
          "duration": 0.49456414583333697,
          "durationTicks": 455,
          "midi": 52,
          "name": "E3",
          "ticks": 53760,
          "time": 58.434656000000004,
          "velocity": 0.8818897637795275
        },
        {
          "duration": 0.49456414583333697,
          "durationTicks": 455,
          "midi": 55,
          "name": "G3",
          "ticks": 53760,
          "time": 58.434656000000004,
          "velocity": 0.8818897637795275
        },
        {
          "duration": 0.49456414583333697,
          "durationTicks": 455,
          "midi": 59,
          "name": "B3",
          "ticks": 53760,
          "time": 58.434656000000004,
          "velocity": 0.8818897637795275
        },
        {
          "duration": 0.49456414583333697,
          "durationTicks": 455,
          "midi": 52,
          "name": "E3",
          "ticks": 54240,
          "time": 58.956394,
          "velocity": 0.8818897637795275
        },
        {
          "duration": 0.49456414583333697,
          "durationTicks": 455,
          "midi": 55,
          "name": "G3",
          "ticks": 54240,
          "time": 58.956394,
          "velocity": 0.8818897637795275
        },
        {
          "duration": 0.49456414583333697,
          "durationTicks": 455,
          "midi": 59,
          "name": "B3",
          "ticks": 54240,
          "time": 58.956394,
          "velocity": 0.8818897637795275
        },
        {
          "duration": 0.49456414583333697,
          "durationTicks": 455,
          "midi": 52,
          "name": "E3",
          "ticks": 54720,
          "time": 59.478132,
          "velocity": 0.8818897637795275
        },
        {
          "duration": 0.49456414583333697,
          "durationTicks": 455,
          "midi": 55,
          "name": "G3",
          "ticks": 54720,
          "time": 59.478132,
          "velocity": 0.8818897637795275
        },
        {
          "duration": 0.49456414583333697,
          "durationTicks": 455,
          "midi": 59,
          "name": "B3",
          "ticks": 54720,
          "time": 59.478132,
          "velocity": 0.8818897637795275
        },
        {
          "duration": 0.49456414583333697,
          "durationTicks": 455,
          "midi": 52,
          "name": "E3",
          "ticks": 55200,
          "time": 59.99987,
          "velocity": 0.8818897637795275
        },
        {
          "duration": 0.49456414583333697,
          "durationTicks": 455,
          "midi": 55,
          "name": "G3",
          "ticks": 55200,
          "time": 59.99987,
          "velocity": 0.8818897637795275
        },
        {
          "duration": 0.49456414583333697,
          "durationTicks": 455,
          "midi": 59,
          "name": "B3",
          "ticks": 55200,
          "time": 59.99987,
          "velocity": 0.8818897637795275
        },
        {
          "duration": 0.49456414583333697,
          "durationTicks": 455,
          "midi": 52,
          "name": "E3",
          "ticks": 55680,
          "time": 60.521608,
          "velocity": 0.8818897637795275
        },
        {
          "duration": 0.49456414583333697,
          "durationTicks": 455,
          "midi": 55,
          "name": "G3",
          "ticks": 55680,
          "time": 60.521608,
          "velocity": 0.8818897637795275
        },
        {
          "duration": 0.49456414583333697,
          "durationTicks": 455,
          "midi": 59,
          "name": "B3",
          "ticks": 55680,
          "time": 60.521608,
          "velocity": 0.8818897637795275
        },
        {
          "duration": 0.49456414583332986,
          "durationTicks": 455,
          "midi": 52,
          "name": "E3",
          "ticks": 56160,
          "time": 61.04334600000001,
          "velocity": 0.8818897637795275
        },
        {
          "duration": 0.49456414583332986,
          "durationTicks": 455,
          "midi": 55,
          "name": "G3",
          "ticks": 56160,
          "time": 61.04334600000001,
          "velocity": 0.8818897637795275
        },
        {
          "duration": 0.49456414583332986,
          "durationTicks": 455,
          "midi": 59,
          "name": "B3",
          "ticks": 56160,
          "time": 61.04334600000001,
          "velocity": 0.8818897637795275
        },
        {
          "duration": 0.49456414583333697,
          "durationTicks": 455,
          "midi": 52,
          "name": "E3",
          "ticks": 56640,
          "time": 61.565084000000006,
          "velocity": 0.8818897637795275
        },
        {
          "duration": 0.49456414583333697,
          "durationTicks": 455,
          "midi": 55,
          "name": "G3",
          "ticks": 56640,
          "time": 61.565084000000006,
          "velocity": 0.8818897637795275
        },
        {
          "duration": 0.49456414583333697,
          "durationTicks": 455,
          "midi": 59,
          "name": "B3",
          "ticks": 56640,
          "time": 61.565084000000006,
          "velocity": 0.8818897637795275
        },
        {
          "duration": 0.49456414583333697,
          "durationTicks": 455,
          "midi": 52,
          "name": "E3",
          "ticks": 57120,
          "time": 62.086822000000005,
          "velocity": 0.8818897637795275
        },
        {
          "duration": 0.49456414583333697,
          "durationTicks": 455,
          "midi": 55,
          "name": "G3",
          "ticks": 57120,
          "time": 62.086822000000005,
          "velocity": 0.8818897637795275
        },
        {
          "duration": 0.49456414583333697,
          "durationTicks": 455,
          "midi": 59,
          "name": "B3",
          "ticks": 57120,
          "time": 62.086822000000005,
          "velocity": 0.8818897637795275
        },
        {
          "duration": 0.49456414583333697,
          "durationTicks": 455,
          "midi": 50,
          "name": "D3",
          "ticks": 57600,
          "time": 62.608560000000004,
          "velocity": 0.8818897637795275
        },
        {
          "duration": 0.49456414583333697,
          "durationTicks": 455,
          "midi": 54,
          "name": "F#3",
          "ticks": 57600,
          "time": 62.608560000000004,
          "velocity": 0.8818897637795275
        },
        {
          "duration": 0.49456414583333697,
          "durationTicks": 455,
          "midi": 57,
          "name": "A3",
          "ticks": 57600,
          "time": 62.608560000000004,
          "velocity": 0.8818897637795275
        },
        {
          "duration": 0.49456414583333697,
          "durationTicks": 455,
          "midi": 62,
          "name": "D4",
          "ticks": 57600,
          "time": 62.608560000000004,
          "velocity": 0.8818897637795275
        },
        {
          "duration": 0.49456414583333697,
          "durationTicks": 455,
          "midi": 50,
          "name": "D3",
          "ticks": 58080,
          "time": 63.130298,
          "velocity": 0.8818897637795275
        },
        {
          "duration": 0.49456414583333697,
          "durationTicks": 455,
          "midi": 54,
          "name": "F#3",
          "ticks": 58080,
          "time": 63.130298,
          "velocity": 0.8818897637795275
        },
        {
          "duration": 0.49456414583333697,
          "durationTicks": 455,
          "midi": 57,
          "name": "A3",
          "ticks": 58080,
          "time": 63.130298,
          "velocity": 0.8818897637795275
        },
        {
          "duration": 0.49456414583333697,
          "durationTicks": 455,
          "midi": 62,
          "name": "D4",
          "ticks": 58080,
          "time": 63.130298,
          "velocity": 0.8818897637795275
        },
        {
          "duration": 0.49456414583334407,
          "durationTicks": 455,
          "midi": 50,
          "name": "D3",
          "ticks": 58560,
          "time": 63.652036,
          "velocity": 0.8818897637795275
        },
        {
          "duration": 0.49456414583334407,
          "durationTicks": 455,
          "midi": 54,
          "name": "F#3",
          "ticks": 58560,
          "time": 63.652036,
          "velocity": 0.8818897637795275
        },
        {
          "duration": 0.49456414583334407,
          "durationTicks": 455,
          "midi": 57,
          "name": "A3",
          "ticks": 58560,
          "time": 63.652036,
          "velocity": 0.8818897637795275
        },
        {
          "duration": 0.49456414583334407,
          "durationTicks": 455,
          "midi": 62,
          "name": "D4",
          "ticks": 58560,
          "time": 63.652036,
          "velocity": 0.8818897637795275
        },
        {
          "duration": 0.49456414583333697,
          "durationTicks": 455,
          "midi": 50,
          "name": "D3",
          "ticks": 59040,
          "time": 64.17377400000001,
          "velocity": 0.8818897637795275
        },
        {
          "duration": 0.49456414583333697,
          "durationTicks": 455,
          "midi": 54,
          "name": "F#3",
          "ticks": 59040,
          "time": 64.17377400000001,
          "velocity": 0.8818897637795275
        },
        {
          "duration": 0.49456414583333697,
          "durationTicks": 455,
          "midi": 57,
          "name": "A3",
          "ticks": 59040,
          "time": 64.17377400000001,
          "velocity": 0.8818897637795275
        },
        {
          "duration": 0.49456414583333697,
          "durationTicks": 455,
          "midi": 62,
          "name": "D4",
          "ticks": 59040,
          "time": 64.17377400000001,
          "velocity": 0.8818897637795275
        },
        {
          "duration": 0.49456414583333697,
          "durationTicks": 455,
          "midi": 50,
          "name": "D3",
          "ticks": 59520,
          "time": 64.69551200000001,
          "velocity": 0.8818897637795275
        },
        {
          "duration": 0.49456414583333697,
          "durationTicks": 455,
          "midi": 54,
          "name": "F#3",
          "ticks": 59520,
          "time": 64.69551200000001,
          "velocity": 0.8818897637795275
        },
        {
          "duration": 0.49456414583333697,
          "durationTicks": 455,
          "midi": 57,
          "name": "A3",
          "ticks": 59520,
          "time": 64.69551200000001,
          "velocity": 0.8818897637795275
        },
        {
          "duration": 0.49456414583333697,
          "durationTicks": 455,
          "midi": 62,
          "name": "D4",
          "ticks": 59520,
          "time": 64.69551200000001,
          "velocity": 0.8818897637795275
        },
        {
          "duration": 0.49456414583333697,
          "durationTicks": 455,
          "midi": 50,
          "name": "D3",
          "ticks": 60000,
          "time": 65.21725,
          "velocity": 0.8818897637795275
        },
        {
          "duration": 0.49456414583333697,
          "durationTicks": 455,
          "midi": 54,
          "name": "F#3",
          "ticks": 60000,
          "time": 65.21725,
          "velocity": 0.8818897637795275
        },
        {
          "duration": 0.49456414583333697,
          "durationTicks": 455,
          "midi": 57,
          "name": "A3",
          "ticks": 60000,
          "time": 65.21725,
          "velocity": 0.8818897637795275
        },
        {
          "duration": 0.49456414583333697,
          "durationTicks": 455,
          "midi": 62,
          "name": "D4",
          "ticks": 60000,
          "time": 65.21725,
          "velocity": 0.8818897637795275
        },
        {
          "duration": 0.12282582083332727,
          "durationTicks": 113,
          "midi": 50,
          "name": "D3",
          "ticks": 60480,
          "time": 65.738988,
          "velocity": 0.8818897637795275
        },
        {
          "duration": 0.12282582083332727,
          "durationTicks": 113,
          "midi": 54,
          "name": "F#3",
          "ticks": 60480,
          "time": 65.738988,
          "velocity": 0.8818897637795275
        },
        {
          "duration": 0.12282582083332727,
          "durationTicks": 113,
          "midi": 57,
          "name": "A3",
          "ticks": 60480,
          "time": 65.738988,
          "velocity": 0.8818897637795275
        },
        {
          "duration": 0.12282582083332727,
          "durationTicks": 113,
          "midi": 62,
          "name": "D4",
          "ticks": 60480,
          "time": 65.738988,
          "velocity": 0.8818897637795275
        },
        {
          "duration": 0.12282582083334148,
          "durationTicks": 113,
          "midi": 50,
          "name": "D3",
          "ticks": 60600,
          "time": 65.8694225,
          "velocity": 0.8818897637795275
        },
        {
          "duration": 0.12282582083334148,
          "durationTicks": 113,
          "midi": 54,
          "name": "F#3",
          "ticks": 60600,
          "time": 65.8694225,
          "velocity": 0.8818897637795275
        },
        {
          "duration": 0.12282582083334148,
          "durationTicks": 113,
          "midi": 57,
          "name": "A3",
          "ticks": 60600,
          "time": 65.8694225,
          "velocity": 0.8818897637795275
        },
        {
          "duration": 0.12282582083334148,
          "durationTicks": 113,
          "midi": 62,
          "name": "D4",
          "ticks": 60600,
          "time": 65.8694225,
          "velocity": 0.8818897637795275
        },
        {
          "duration": 0.24673859583333524,
          "durationTicks": 227,
          "midi": 50,
          "name": "D3",
          "ticks": 60720,
          "time": 65.999857,
          "velocity": 0.8818897637795275
        },
        {
          "duration": 0.24673859583333524,
          "durationTicks": 227,
          "midi": 54,
          "name": "F#3",
          "ticks": 60720,
          "time": 65.999857,
          "velocity": 0.8818897637795275
        },
        {
          "duration": 0.24673859583333524,
          "durationTicks": 227,
          "midi": 57,
          "name": "A3",
          "ticks": 60720,
          "time": 65.999857,
          "velocity": 0.8818897637795275
        },
        {
          "duration": 0.24673859583333524,
          "durationTicks": 227,
          "midi": 62,
          "name": "D4",
          "ticks": 60720,
          "time": 65.999857,
          "velocity": 0.8818897637795275
        },
        {
          "duration": 0.24673859583333524,
          "durationTicks": 227,
          "midi": 50,
          "name": "D3",
          "ticks": 60960,
          "time": 66.260726,
          "velocity": 0.8818897637795275
        },
        {
          "duration": 0.24673859583333524,
          "durationTicks": 227,
          "midi": 54,
          "name": "F#3",
          "ticks": 60960,
          "time": 66.260726,
          "velocity": 0.8818897637795275
        },
        {
          "duration": 0.24673859583333524,
          "durationTicks": 227,
          "midi": 57,
          "name": "A3",
          "ticks": 60960,
          "time": 66.260726,
          "velocity": 0.8818897637795275
        },
        {
          "duration": 0.24673859583333524,
          "durationTicks": 227,
          "midi": 62,
          "name": "D4",
          "ticks": 60960,
          "time": 66.260726,
          "velocity": 0.8818897637795275
        },
        {
          "duration": 0.24673859583333524,
          "durationTicks": 227,
          "midi": 47,
          "name": "B2",
          "ticks": 61200,
          "time": 66.521595,
          "velocity": 0.8818897637795275
        },
        {
          "duration": 0.24673859583333524,
          "durationTicks": 227,
          "midi": 50,
          "name": "D3",
          "ticks": 61200,
          "time": 66.521595,
          "velocity": 0.8818897637795275
        },
        {
          "duration": 0.24673859583333524,
          "durationTicks": 227,
          "midi": 54,
          "name": "F#3",
          "ticks": 61200,
          "time": 66.521595,
          "velocity": 0.8818897637795275
        },
        {
          "duration": 0.24673859583333524,
          "durationTicks": 227,
          "midi": 59,
          "name": "B3",
          "ticks": 61200,
          "time": 66.521595,
          "velocity": 0.8818897637795275
        },
        {
          "duration": 0.49456414583332275,
          "durationTicks": 455,
          "midi": 47,
          "name": "B2",
          "ticks": 61440,
          "time": 66.782464,
          "velocity": 0.8818897637795275
        },
        {
          "duration": 0.49456414583332275,
          "durationTicks": 455,
          "midi": 50,
          "name": "D3",
          "ticks": 61440,
          "time": 66.782464,
          "velocity": 0.8818897637795275
        },
        {
          "duration": 0.49456414583332275,
          "durationTicks": 455,
          "midi": 54,
          "name": "F#3",
          "ticks": 61440,
          "time": 66.782464,
          "velocity": 0.8818897637795275
        },
        {
          "duration": 0.49456414583332275,
          "durationTicks": 455,
          "midi": 59,
          "name": "B3",
          "ticks": 61440,
          "time": 66.782464,
          "velocity": 0.8818897637795275
        },
        {
          "duration": 0.49456414583332275,
          "durationTicks": 455,
          "midi": 47,
          "name": "B2",
          "ticks": 61920,
          "time": 67.304202,
          "velocity": 0.8818897637795275
        },
        {
          "duration": 0.49456414583332275,
          "durationTicks": 455,
          "midi": 50,
          "name": "D3",
          "ticks": 61920,
          "time": 67.304202,
          "velocity": 0.8818897637795275
        },
        {
          "duration": 0.49456414583332275,
          "durationTicks": 455,
          "midi": 54,
          "name": "F#3",
          "ticks": 61920,
          "time": 67.304202,
          "velocity": 0.8818897637795275
        },
        {
          "duration": 0.49456414583332275,
          "durationTicks": 455,
          "midi": 59,
          "name": "B3",
          "ticks": 61920,
          "time": 67.304202,
          "velocity": 0.8818897637795275
        },
        {
          "duration": 0.49456414583333697,
          "durationTicks": 455,
          "midi": 47,
          "name": "B2",
          "ticks": 62400,
          "time": 67.82594,
          "velocity": 0.8818897637795275
        },
        {
          "duration": 0.49456414583333697,
          "durationTicks": 455,
          "midi": 50,
          "name": "D3",
          "ticks": 62400,
          "time": 67.82594,
          "velocity": 0.8818897637795275
        },
        {
          "duration": 0.49456414583333697,
          "durationTicks": 455,
          "midi": 54,
          "name": "F#3",
          "ticks": 62400,
          "time": 67.82594,
          "velocity": 0.8818897637795275
        },
        {
          "duration": 0.49456414583333697,
          "durationTicks": 455,
          "midi": 59,
          "name": "B3",
          "ticks": 62400,
          "time": 67.82594,
          "velocity": 0.8818897637795275
        },
        {
          "duration": 0.49456414583333697,
          "durationTicks": 455,
          "midi": 47,
          "name": "B2",
          "ticks": 62880,
          "time": 68.347678,
          "velocity": 0.8818897637795275
        },
        {
          "duration": 0.49456414583333697,
          "durationTicks": 455,
          "midi": 50,
          "name": "D3",
          "ticks": 62880,
          "time": 68.347678,
          "velocity": 0.8818897637795275
        },
        {
          "duration": 0.49456414583333697,
          "durationTicks": 455,
          "midi": 54,
          "name": "F#3",
          "ticks": 62880,
          "time": 68.347678,
          "velocity": 0.8818897637795275
        },
        {
          "duration": 0.49456414583333697,
          "durationTicks": 455,
          "midi": 59,
          "name": "B3",
          "ticks": 62880,
          "time": 68.347678,
          "velocity": 0.8818897637795275
        },
        {
          "duration": 0.49456414583333697,
          "durationTicks": 455,
          "midi": 47,
          "name": "B2",
          "ticks": 63360,
          "time": 68.869416,
          "velocity": 0.8818897637795275
        },
        {
          "duration": 0.49456414583333697,
          "durationTicks": 455,
          "midi": 50,
          "name": "D3",
          "ticks": 63360,
          "time": 68.869416,
          "velocity": 0.8818897637795275
        },
        {
          "duration": 0.49456414583333697,
          "durationTicks": 455,
          "midi": 54,
          "name": "F#3",
          "ticks": 63360,
          "time": 68.869416,
          "velocity": 0.8818897637795275
        },
        {
          "duration": 0.49456414583333697,
          "durationTicks": 455,
          "midi": 59,
          "name": "B3",
          "ticks": 63360,
          "time": 68.869416,
          "velocity": 0.8818897637795275
        },
        {
          "duration": 0.49456414583333697,
          "durationTicks": 455,
          "midi": 47,
          "name": "B2",
          "ticks": 63840,
          "time": 69.391154,
          "velocity": 0.8818897637795275
        },
        {
          "duration": 0.49456414583333697,
          "durationTicks": 455,
          "midi": 50,
          "name": "D3",
          "ticks": 63840,
          "time": 69.391154,
          "velocity": 0.8818897637795275
        },
        {
          "duration": 0.49456414583333697,
          "durationTicks": 455,
          "midi": 54,
          "name": "F#3",
          "ticks": 63840,
          "time": 69.391154,
          "velocity": 0.8818897637795275
        },
        {
          "duration": 0.49456414583333697,
          "durationTicks": 455,
          "midi": 59,
          "name": "B3",
          "ticks": 63840,
          "time": 69.391154,
          "velocity": 0.8818897637795275
        },
        {
          "duration": 0.49456414583333697,
          "durationTicks": 455,
          "midi": 47,
          "name": "B2",
          "ticks": 64320,
          "time": 69.912892,
          "velocity": 0.8818897637795275
        },
        {
          "duration": 0.49456414583333697,
          "durationTicks": 455,
          "midi": 50,
          "name": "D3",
          "ticks": 64320,
          "time": 69.912892,
          "velocity": 0.8818897637795275
        },
        {
          "duration": 0.49456414583333697,
          "durationTicks": 455,
          "midi": 54,
          "name": "F#3",
          "ticks": 64320,
          "time": 69.912892,
          "velocity": 0.8818897637795275
        },
        {
          "duration": 0.49456414583333697,
          "durationTicks": 455,
          "midi": 59,
          "name": "B3",
          "ticks": 64320,
          "time": 69.912892,
          "velocity": 0.8818897637795275
        },
        {
          "duration": 0.49456414583333697,
          "durationTicks": 455,
          "midi": 47,
          "name": "B2",
          "ticks": 64800,
          "time": 70.43463,
          "velocity": 0.8818897637795275
        },
        {
          "duration": 0.49456414583333697,
          "durationTicks": 455,
          "midi": 50,
          "name": "D3",
          "ticks": 64800,
          "time": 70.43463,
          "velocity": 0.8818897637795275
        },
        {
          "duration": 0.49456414583333697,
          "durationTicks": 455,
          "midi": 54,
          "name": "F#3",
          "ticks": 64800,
          "time": 70.43463,
          "velocity": 0.8818897637795275
        },
        {
          "duration": 0.49456414583333697,
          "durationTicks": 455,
          "midi": 59,
          "name": "B3",
          "ticks": 64800,
          "time": 70.43463,
          "velocity": 0.8818897637795275
        },
        {
          "duration": 0.49456414583333697,
          "durationTicks": 455,
          "midi": 43,
          "name": "G2",
          "ticks": 65280,
          "time": 70.956368,
          "velocity": 0.8818897637795275
        },
        {
          "duration": 0.49456414583333697,
          "durationTicks": 455,
          "midi": 47,
          "name": "B2",
          "ticks": 65280,
          "time": 70.956368,
          "velocity": 0.8818897637795275
        },
        {
          "duration": 0.49456414583333697,
          "durationTicks": 455,
          "midi": 50,
          "name": "D3",
          "ticks": 65280,
          "time": 70.956368,
          "velocity": 0.8818897637795275
        },
        {
          "duration": 0.49456414583333697,
          "durationTicks": 455,
          "midi": 55,
          "name": "G3",
          "ticks": 65280,
          "time": 70.956368,
          "velocity": 0.8818897637795275
        },
        {
          "duration": 0.49456414583332275,
          "durationTicks": 455,
          "midi": 43,
          "name": "G2",
          "ticks": 65760,
          "time": 71.47810600000001,
          "velocity": 0.8818897637795275
        },
        {
          "duration": 0.49456414583332275,
          "durationTicks": 455,
          "midi": 47,
          "name": "B2",
          "ticks": 65760,
          "time": 71.47810600000001,
          "velocity": 0.8818897637795275
        },
        {
          "duration": 0.49456414583332275,
          "durationTicks": 455,
          "midi": 50,
          "name": "D3",
          "ticks": 65760,
          "time": 71.47810600000001,
          "velocity": 0.8818897637795275
        },
        {
          "duration": 0.49456414583332275,
          "durationTicks": 455,
          "midi": 55,
          "name": "G3",
          "ticks": 65760,
          "time": 71.47810600000001,
          "velocity": 0.8818897637795275
        },
        {
          "duration": 0.49456414583332275,
          "durationTicks": 455,
          "midi": 43,
          "name": "G2",
          "ticks": 66240,
          "time": 71.99984400000001,
          "velocity": 0.8818897637795275
        },
        {
          "duration": 0.49456414583332275,
          "durationTicks": 455,
          "midi": 47,
          "name": "B2",
          "ticks": 66240,
          "time": 71.99984400000001,
          "velocity": 0.8818897637795275
        },
        {
          "duration": 0.49456414583332275,
          "durationTicks": 455,
          "midi": 50,
          "name": "D3",
          "ticks": 66240,
          "time": 71.99984400000001,
          "velocity": 0.8818897637795275
        },
        {
          "duration": 0.49456414583332275,
          "durationTicks": 455,
          "midi": 55,
          "name": "G3",
          "ticks": 66240,
          "time": 71.99984400000001,
          "velocity": 0.8818897637795275
        },
        {
          "duration": 0.49456414583332275,
          "durationTicks": 455,
          "midi": 43,
          "name": "G2",
          "ticks": 66720,
          "time": 72.52158200000001,
          "velocity": 0.8818897637795275
        },
        {
          "duration": 0.49456414583332275,
          "durationTicks": 455,
          "midi": 47,
          "name": "B2",
          "ticks": 66720,
          "time": 72.52158200000001,
          "velocity": 0.8818897637795275
        },
        {
          "duration": 0.49456414583332275,
          "durationTicks": 455,
          "midi": 50,
          "name": "D3",
          "ticks": 66720,
          "time": 72.52158200000001,
          "velocity": 0.8818897637795275
        },
        {
          "duration": 0.49456414583332275,
          "durationTicks": 455,
          "midi": 55,
          "name": "G3",
          "ticks": 66720,
          "time": 72.52158200000001,
          "velocity": 0.8818897637795275
        },
        {
          "duration": 0.49456414583332275,
          "durationTicks": 455,
          "midi": 43,
          "name": "G2",
          "ticks": 67200,
          "time": 73.04332000000001,
          "velocity": 0.8818897637795275
        },
        {
          "duration": 0.49456414583332275,
          "durationTicks": 455,
          "midi": 47,
          "name": "B2",
          "ticks": 67200,
          "time": 73.04332000000001,
          "velocity": 0.8818897637795275
        },
        {
          "duration": 0.49456414583332275,
          "durationTicks": 455,
          "midi": 50,
          "name": "D3",
          "ticks": 67200,
          "time": 73.04332000000001,
          "velocity": 0.8818897637795275
        },
        {
          "duration": 0.49456414583332275,
          "durationTicks": 455,
          "midi": 55,
          "name": "G3",
          "ticks": 67200,
          "time": 73.04332000000001,
          "velocity": 0.8818897637795275
        },
        {
          "duration": 0.49456414583332275,
          "durationTicks": 455,
          "midi": 43,
          "name": "G2",
          "ticks": 67680,
          "time": 73.56505800000001,
          "velocity": 0.8818897637795275
        },
        {
          "duration": 0.49456414583332275,
          "durationTicks": 455,
          "midi": 47,
          "name": "B2",
          "ticks": 67680,
          "time": 73.56505800000001,
          "velocity": 0.8818897637795275
        },
        {
          "duration": 0.49456414583332275,
          "durationTicks": 455,
          "midi": 50,
          "name": "D3",
          "ticks": 67680,
          "time": 73.56505800000001,
          "velocity": 0.8818897637795275
        },
        {
          "duration": 0.49456414583332275,
          "durationTicks": 455,
          "midi": 55,
          "name": "G3",
          "ticks": 67680,
          "time": 73.56505800000001,
          "velocity": 0.8818897637795275
        },
        {
          "duration": 0.49456414583332275,
          "durationTicks": 455,
          "midi": 43,
          "name": "G2",
          "ticks": 68160,
          "time": 74.086796,
          "velocity": 0.8818897637795275
        },
        {
          "duration": 0.49456414583332275,
          "durationTicks": 455,
          "midi": 47,
          "name": "B2",
          "ticks": 68160,
          "time": 74.086796,
          "velocity": 0.8818897637795275
        },
        {
          "duration": 0.49456414583332275,
          "durationTicks": 455,
          "midi": 50,
          "name": "D3",
          "ticks": 68160,
          "time": 74.086796,
          "velocity": 0.8818897637795275
        },
        {
          "duration": 0.49456414583332275,
          "durationTicks": 455,
          "midi": 55,
          "name": "G3",
          "ticks": 68160,
          "time": 74.086796,
          "velocity": 0.8818897637795275
        },
        {
          "duration": 0.49456414583332275,
          "durationTicks": 455,
          "midi": 43,
          "name": "G2",
          "ticks": 68640,
          "time": 74.608534,
          "velocity": 0.8818897637795275
        },
        {
          "duration": 0.49456414583332275,
          "durationTicks": 455,
          "midi": 47,
          "name": "B2",
          "ticks": 68640,
          "time": 74.608534,
          "velocity": 0.8818897637795275
        },
        {
          "duration": 0.49456414583332275,
          "durationTicks": 455,
          "midi": 50,
          "name": "D3",
          "ticks": 68640,
          "time": 74.608534,
          "velocity": 0.8818897637795275
        },
        {
          "duration": 0.49456414583332275,
          "durationTicks": 455,
          "midi": 55,
          "name": "G3",
          "ticks": 68640,
          "time": 74.608534,
          "velocity": 0.8818897637795275
        },
        {
          "duration": 0.49456414583332275,
          "durationTicks": 455,
          "midi": 52,
          "name": "E3",
          "ticks": 69120,
          "time": 75.130272,
          "velocity": 0.8818897637795275
        },
        {
          "duration": 0.49456414583332275,
          "durationTicks": 455,
          "midi": 55,
          "name": "G3",
          "ticks": 69120,
          "time": 75.130272,
          "velocity": 0.8818897637795275
        },
        {
          "duration": 0.49456414583332275,
          "durationTicks": 455,
          "midi": 59,
          "name": "B3",
          "ticks": 69120,
          "time": 75.130272,
          "velocity": 0.8818897637795275
        },
        {
          "duration": 0.49456414583332275,
          "durationTicks": 455,
          "midi": 52,
          "name": "E3",
          "ticks": 69600,
          "time": 75.65201,
          "velocity": 0.8818897637795275
        },
        {
          "duration": 0.49456414583332275,
          "durationTicks": 455,
          "midi": 55,
          "name": "G3",
          "ticks": 69600,
          "time": 75.65201,
          "velocity": 0.8818897637795275
        },
        {
          "duration": 0.49456414583332275,
          "durationTicks": 455,
          "midi": 59,
          "name": "B3",
          "ticks": 69600,
          "time": 75.65201,
          "velocity": 0.8818897637795275
        },
        {
          "duration": 0.49456414583333697,
          "durationTicks": 455,
          "midi": 52,
          "name": "E3",
          "ticks": 70080,
          "time": 76.173748,
          "velocity": 0.8818897637795275
        },
        {
          "duration": 0.49456414583333697,
          "durationTicks": 455,
          "midi": 55,
          "name": "G3",
          "ticks": 70080,
          "time": 76.173748,
          "velocity": 0.8818897637795275
        },
        {
          "duration": 0.49456414583333697,
          "durationTicks": 455,
          "midi": 59,
          "name": "B3",
          "ticks": 70080,
          "time": 76.173748,
          "velocity": 0.8818897637795275
        },
        {
          "duration": 0.49456414583333697,
          "durationTicks": 455,
          "midi": 52,
          "name": "E3",
          "ticks": 70560,
          "time": 76.695486,
          "velocity": 0.8818897637795275
        },
        {
          "duration": 0.49456414583333697,
          "durationTicks": 455,
          "midi": 55,
          "name": "G3",
          "ticks": 70560,
          "time": 76.695486,
          "velocity": 0.8818897637795275
        },
        {
          "duration": 0.49456414583333697,
          "durationTicks": 455,
          "midi": 59,
          "name": "B3",
          "ticks": 70560,
          "time": 76.695486,
          "velocity": 0.8818897637795275
        },
        {
          "duration": 0.49456414583333697,
          "durationTicks": 455,
          "midi": 52,
          "name": "E3",
          "ticks": 71040,
          "time": 77.217224,
          "velocity": 0.8818897637795275
        },
        {
          "duration": 0.49456414583333697,
          "durationTicks": 455,
          "midi": 55,
          "name": "G3",
          "ticks": 71040,
          "time": 77.217224,
          "velocity": 0.8818897637795275
        },
        {
          "duration": 0.49456414583333697,
          "durationTicks": 455,
          "midi": 59,
          "name": "B3",
          "ticks": 71040,
          "time": 77.217224,
          "velocity": 0.8818897637795275
        },
        {
          "duration": 0.49456414583333697,
          "durationTicks": 455,
          "midi": 52,
          "name": "E3",
          "ticks": 71520,
          "time": 77.738962,
          "velocity": 0.8818897637795275
        },
        {
          "duration": 0.49456414583333697,
          "durationTicks": 455,
          "midi": 55,
          "name": "G3",
          "ticks": 71520,
          "time": 77.738962,
          "velocity": 0.8818897637795275
        },
        {
          "duration": 0.49456414583333697,
          "durationTicks": 455,
          "midi": 59,
          "name": "B3",
          "ticks": 71520,
          "time": 77.738962,
          "velocity": 0.8818897637795275
        },
        {
          "duration": 0.49456414583333697,
          "durationTicks": 455,
          "midi": 52,
          "name": "E3",
          "ticks": 72000,
          "time": 78.2607,
          "velocity": 0.8818897637795275
        },
        {
          "duration": 0.49456414583333697,
          "durationTicks": 455,
          "midi": 55,
          "name": "G3",
          "ticks": 72000,
          "time": 78.2607,
          "velocity": 0.8818897637795275
        },
        {
          "duration": 0.49456414583333697,
          "durationTicks": 455,
          "midi": 59,
          "name": "B3",
          "ticks": 72000,
          "time": 78.2607,
          "velocity": 0.8818897637795275
        },
        {
          "duration": 0.49456414583333697,
          "durationTicks": 455,
          "midi": 52,
          "name": "E3",
          "ticks": 72480,
          "time": 78.782438,
          "velocity": 0.8818897637795275
        },
        {
          "duration": 0.49456414583333697,
          "durationTicks": 455,
          "midi": 55,
          "name": "G3",
          "ticks": 72480,
          "time": 78.782438,
          "velocity": 0.8818897637795275
        },
        {
          "duration": 0.49456414583333697,
          "durationTicks": 455,
          "midi": 59,
          "name": "B3",
          "ticks": 72480,
          "time": 78.782438,
          "velocity": 0.8818897637795275
        },
        {
          "duration": 0.49456414583332275,
          "durationTicks": 455,
          "midi": 50,
          "name": "D3",
          "ticks": 72960,
          "time": 79.30417600000001,
          "velocity": 0.8818897637795275
        },
        {
          "duration": 0.49456414583332275,
          "durationTicks": 455,
          "midi": 54,
          "name": "F#3",
          "ticks": 72960,
          "time": 79.30417600000001,
          "velocity": 0.8818897637795275
        },
        {
          "duration": 0.49456414583332275,
          "durationTicks": 455,
          "midi": 57,
          "name": "A3",
          "ticks": 72960,
          "time": 79.30417600000001,
          "velocity": 0.8818897637795275
        },
        {
          "duration": 0.49456414583332275,
          "durationTicks": 455,
          "midi": 62,
          "name": "D4",
          "ticks": 72960,
          "time": 79.30417600000001,
          "velocity": 0.8818897637795275
        },
        {
          "duration": 0.49456414583332275,
          "durationTicks": 455,
          "midi": 50,
          "name": "D3",
          "ticks": 73440,
          "time": 79.82591400000001,
          "velocity": 0.8818897637795275
        },
        {
          "duration": 0.49456414583332275,
          "durationTicks": 455,
          "midi": 54,
          "name": "F#3",
          "ticks": 73440,
          "time": 79.82591400000001,
          "velocity": 0.8818897637795275
        },
        {
          "duration": 0.49456414583332275,
          "durationTicks": 455,
          "midi": 57,
          "name": "A3",
          "ticks": 73440,
          "time": 79.82591400000001,
          "velocity": 0.8818897637795275
        },
        {
          "duration": 0.49456414583332275,
          "durationTicks": 455,
          "midi": 62,
          "name": "D4",
          "ticks": 73440,
          "time": 79.82591400000001,
          "velocity": 0.8818897637795275
        },
        {
          "duration": 0.49456414583332275,
          "durationTicks": 455,
          "midi": 50,
          "name": "D3",
          "ticks": 73920,
          "time": 80.34765200000001,
          "velocity": 0.8818897637795275
        },
        {
          "duration": 0.49456414583332275,
          "durationTicks": 455,
          "midi": 54,
          "name": "F#3",
          "ticks": 73920,
          "time": 80.34765200000001,
          "velocity": 0.8818897637795275
        },
        {
          "duration": 0.49456414583332275,
          "durationTicks": 455,
          "midi": 57,
          "name": "A3",
          "ticks": 73920,
          "time": 80.34765200000001,
          "velocity": 0.8818897637795275
        },
        {
          "duration": 0.49456414583332275,
          "durationTicks": 455,
          "midi": 62,
          "name": "D4",
          "ticks": 73920,
          "time": 80.34765200000001,
          "velocity": 0.8818897637795275
        },
        {
          "duration": 0.49456414583332275,
          "durationTicks": 455,
          "midi": 50,
          "name": "D3",
          "ticks": 74400,
          "time": 80.86939000000001,
          "velocity": 0.8818897637795275
        },
        {
          "duration": 0.49456414583332275,
          "durationTicks": 455,
          "midi": 54,
          "name": "F#3",
          "ticks": 74400,
          "time": 80.86939000000001,
          "velocity": 0.8818897637795275
        },
        {
          "duration": 0.49456414583332275,
          "durationTicks": 455,
          "midi": 57,
          "name": "A3",
          "ticks": 74400,
          "time": 80.86939000000001,
          "velocity": 0.8818897637795275
        },
        {
          "duration": 0.49456414583332275,
          "durationTicks": 455,
          "midi": 62,
          "name": "D4",
          "ticks": 74400,
          "time": 80.86939000000001,
          "velocity": 0.8818897637795275
        },
        {
          "duration": 0.49456414583332275,
          "durationTicks": 455,
          "midi": 50,
          "name": "D3",
          "ticks": 74880,
          "time": 81.39112800000001,
          "velocity": 0.8818897637795275
        },
        {
          "duration": 0.49456414583332275,
          "durationTicks": 455,
          "midi": 54,
          "name": "F#3",
          "ticks": 74880,
          "time": 81.39112800000001,
          "velocity": 0.8818897637795275
        },
        {
          "duration": 0.49456414583332275,
          "durationTicks": 455,
          "midi": 57,
          "name": "A3",
          "ticks": 74880,
          "time": 81.39112800000001,
          "velocity": 0.8818897637795275
        },
        {
          "duration": 0.49456414583332275,
          "durationTicks": 455,
          "midi": 62,
          "name": "D4",
          "ticks": 74880,
          "time": 81.39112800000001,
          "velocity": 0.8818897637795275
        },
        {
          "duration": 0.49456414583332275,
          "durationTicks": 455,
          "midi": 50,
          "name": "D3",
          "ticks": 75360,
          "time": 81.91286600000001,
          "velocity": 0.8818897637795275
        },
        {
          "duration": 0.49456414583332275,
          "durationTicks": 455,
          "midi": 54,
          "name": "F#3",
          "ticks": 75360,
          "time": 81.91286600000001,
          "velocity": 0.8818897637795275
        },
        {
          "duration": 0.49456414583332275,
          "durationTicks": 455,
          "midi": 57,
          "name": "A3",
          "ticks": 75360,
          "time": 81.91286600000001,
          "velocity": 0.8818897637795275
        },
        {
          "duration": 0.49456414583332275,
          "durationTicks": 455,
          "midi": 62,
          "name": "D4",
          "ticks": 75360,
          "time": 81.91286600000001,
          "velocity": 0.8818897637795275
        },
        {
          "duration": 0.12282582083334148,
          "durationTicks": 113,
          "midi": 50,
          "name": "D3",
          "ticks": 75840,
          "time": 82.43460400000001,
          "velocity": 0.8818897637795275
        },
        {
          "duration": 0.12282582083334148,
          "durationTicks": 113,
          "midi": 54,
          "name": "F#3",
          "ticks": 75840,
          "time": 82.43460400000001,
          "velocity": 0.8818897637795275
        },
        {
          "duration": 0.12282582083334148,
          "durationTicks": 113,
          "midi": 57,
          "name": "A3",
          "ticks": 75840,
          "time": 82.43460400000001,
          "velocity": 0.8818897637795275
        },
        {
          "duration": 0.12282582083334148,
          "durationTicks": 113,
          "midi": 62,
          "name": "D4",
          "ticks": 75840,
          "time": 82.43460400000001,
          "velocity": 0.8818897637795275
        },
        {
          "duration": 0.12282582083334148,
          "durationTicks": 113,
          "midi": 50,
          "name": "D3",
          "ticks": 75960,
          "time": 82.5650385,
          "velocity": 0.8818897637795275
        },
        {
          "duration": 0.12282582083334148,
          "durationTicks": 113,
          "midi": 54,
          "name": "F#3",
          "ticks": 75960,
          "time": 82.5650385,
          "velocity": 0.8818897637795275
        },
        {
          "duration": 0.12282582083334148,
          "durationTicks": 113,
          "midi": 57,
          "name": "A3",
          "ticks": 75960,
          "time": 82.5650385,
          "velocity": 0.8818897637795275
        },
        {
          "duration": 0.12282582083334148,
          "durationTicks": 113,
          "midi": 62,
          "name": "D4",
          "ticks": 75960,
          "time": 82.5650385,
          "velocity": 0.8818897637795275
        },
        {
          "duration": 0.24673859583333524,
          "durationTicks": 227,
          "midi": 50,
          "name": "D3",
          "ticks": 76080,
          "time": 82.695473,
          "velocity": 0.8818897637795275
        },
        {
          "duration": 0.24673859583333524,
          "durationTicks": 227,
          "midi": 54,
          "name": "F#3",
          "ticks": 76080,
          "time": 82.695473,
          "velocity": 0.8818897637795275
        },
        {
          "duration": 0.24673859583333524,
          "durationTicks": 227,
          "midi": 57,
          "name": "A3",
          "ticks": 76080,
          "time": 82.695473,
          "velocity": 0.8818897637795275
        },
        {
          "duration": 0.24673859583333524,
          "durationTicks": 227,
          "midi": 62,
          "name": "D4",
          "ticks": 76080,
          "time": 82.695473,
          "velocity": 0.8818897637795275
        },
        {
          "duration": 0.24673859583333524,
          "durationTicks": 227,
          "midi": 50,
          "name": "D3",
          "ticks": 76320,
          "time": 82.956342,
          "velocity": 0.8818897637795275
        },
        {
          "duration": 0.24673859583333524,
          "durationTicks": 227,
          "midi": 54,
          "name": "F#3",
          "ticks": 76320,
          "time": 82.956342,
          "velocity": 0.8818897637795275
        },
        {
          "duration": 0.24673859583333524,
          "durationTicks": 227,
          "midi": 57,
          "name": "A3",
          "ticks": 76320,
          "time": 82.956342,
          "velocity": 0.8818897637795275
        },
        {
          "duration": 0.24673859583333524,
          "durationTicks": 227,
          "midi": 62,
          "name": "D4",
          "ticks": 76320,
          "time": 82.956342,
          "velocity": 0.8818897637795275
        },
        {
          "duration": 0.24673859583333524,
          "durationTicks": 227,
          "midi": 47,
          "name": "B2",
          "ticks": 76560,
          "time": 83.217211,
          "velocity": 0.8818897637795275
        },
        {
          "duration": 0.24673859583333524,
          "durationTicks": 227,
          "midi": 50,
          "name": "D3",
          "ticks": 76560,
          "time": 83.217211,
          "velocity": 0.8818897637795275
        },
        {
          "duration": 0.24673859583333524,
          "durationTicks": 227,
          "midi": 54,
          "name": "F#3",
          "ticks": 76560,
          "time": 83.217211,
          "velocity": 0.8818897637795275
        },
        {
          "duration": 0.24673859583333524,
          "durationTicks": 227,
          "midi": 59,
          "name": "B3",
          "ticks": 76560,
          "time": 83.217211,
          "velocity": 0.8818897637795275
        },
        {
          "duration": 0.49456414583332275,
          "durationTicks": 455,
          "midi": 47,
          "name": "B2",
          "ticks": 76800,
          "time": 83.47808,
          "velocity": 0.6299212598425197
        },
        {
          "duration": 0.49456414583332275,
          "durationTicks": 455,
          "midi": 50,
          "name": "D3",
          "ticks": 76800,
          "time": 83.47808,
          "velocity": 0.6299212598425197
        },
        {
          "duration": 0.49456414583332275,
          "durationTicks": 455,
          "midi": 54,
          "name": "F#3",
          "ticks": 76800,
          "time": 83.47808,
          "velocity": 0.6299212598425197
        },
        {
          "duration": 0.49456414583332275,
          "durationTicks": 455,
          "midi": 47,
          "name": "B2",
          "ticks": 77280,
          "time": 83.999818,
          "velocity": 0.6299212598425197
        },
        {
          "duration": 0.49456414583332275,
          "durationTicks": 455,
          "midi": 50,
          "name": "D3",
          "ticks": 77280,
          "time": 83.999818,
          "velocity": 0.6299212598425197
        },
        {
          "duration": 0.49456414583332275,
          "durationTicks": 455,
          "midi": 54,
          "name": "F#3",
          "ticks": 77280,
          "time": 83.999818,
          "velocity": 0.6299212598425197
        },
        {
          "duration": 0.49456414583333697,
          "durationTicks": 455,
          "midi": 47,
          "name": "B2",
          "ticks": 77760,
          "time": 84.521556,
          "velocity": 0.6299212598425197
        },
        {
          "duration": 0.49456414583333697,
          "durationTicks": 455,
          "midi": 50,
          "name": "D3",
          "ticks": 77760,
          "time": 84.521556,
          "velocity": 0.6299212598425197
        },
        {
          "duration": 0.49456414583333697,
          "durationTicks": 455,
          "midi": 54,
          "name": "F#3",
          "ticks": 77760,
          "time": 84.521556,
          "velocity": 0.6299212598425197
        },
        {
          "duration": 0.49456414583333697,
          "durationTicks": 455,
          "midi": 47,
          "name": "B2",
          "ticks": 78240,
          "time": 85.043294,
          "velocity": 0.6299212598425197
        },
        {
          "duration": 0.49456414583333697,
          "durationTicks": 455,
          "midi": 50,
          "name": "D3",
          "ticks": 78240,
          "time": 85.043294,
          "velocity": 0.6299212598425197
        },
        {
          "duration": 0.49456414583333697,
          "durationTicks": 455,
          "midi": 54,
          "name": "F#3",
          "ticks": 78240,
          "time": 85.043294,
          "velocity": 0.6299212598425197
        },
        {
          "duration": 0.49456414583333697,
          "durationTicks": 455,
          "midi": 47,
          "name": "B2",
          "ticks": 78720,
          "time": 85.565032,
          "velocity": 0.6299212598425197
        },
        {
          "duration": 0.49456414583333697,
          "durationTicks": 455,
          "midi": 50,
          "name": "D3",
          "ticks": 78720,
          "time": 85.565032,
          "velocity": 0.6299212598425197
        },
        {
          "duration": 0.49456414583333697,
          "durationTicks": 455,
          "midi": 54,
          "name": "F#3",
          "ticks": 78720,
          "time": 85.565032,
          "velocity": 0.6299212598425197
        },
        {
          "duration": 0.49456414583333697,
          "durationTicks": 455,
          "midi": 47,
          "name": "B2",
          "ticks": 79200,
          "time": 86.08677,
          "velocity": 0.6299212598425197
        },
        {
          "duration": 0.49456414583333697,
          "durationTicks": 455,
          "midi": 50,
          "name": "D3",
          "ticks": 79200,
          "time": 86.08677,
          "velocity": 0.6299212598425197
        },
        {
          "duration": 0.49456414583333697,
          "durationTicks": 455,
          "midi": 54,
          "name": "F#3",
          "ticks": 79200,
          "time": 86.08677,
          "velocity": 0.6299212598425197
        },
        {
          "duration": 0.49456414583333697,
          "durationTicks": 455,
          "midi": 47,
          "name": "B2",
          "ticks": 79680,
          "time": 86.608508,
          "velocity": 0.6299212598425197
        },
        {
          "duration": 0.49456414583333697,
          "durationTicks": 455,
          "midi": 50,
          "name": "D3",
          "ticks": 79680,
          "time": 86.608508,
          "velocity": 0.6299212598425197
        },
        {
          "duration": 0.49456414583333697,
          "durationTicks": 455,
          "midi": 54,
          "name": "F#3",
          "ticks": 79680,
          "time": 86.608508,
          "velocity": 0.6299212598425197
        },
        {
          "duration": 0.49456414583333697,
          "durationTicks": 455,
          "midi": 47,
          "name": "B2",
          "ticks": 80160,
          "time": 87.130246,
          "velocity": 0.6299212598425197
        },
        {
          "duration": 0.49456414583333697,
          "durationTicks": 455,
          "midi": 50,
          "name": "D3",
          "ticks": 80160,
          "time": 87.130246,
          "velocity": 0.6299212598425197
        },
        {
          "duration": 0.49456414583333697,
          "durationTicks": 455,
          "midi": 54,
          "name": "F#3",
          "ticks": 80160,
          "time": 87.130246,
          "velocity": 0.6299212598425197
        },
        {
          "duration": 0.49456414583333697,
          "durationTicks": 455,
          "midi": 43,
          "name": "G2",
          "ticks": 80640,
          "time": 87.651984,
          "velocity": 0.6299212598425197
        },
        {
          "duration": 0.49456414583333697,
          "durationTicks": 455,
          "midi": 47,
          "name": "B2",
          "ticks": 80640,
          "time": 87.651984,
          "velocity": 0.6299212598425197
        },
        {
          "duration": 0.49456414583333697,
          "durationTicks": 455,
          "midi": 50,
          "name": "D3",
          "ticks": 80640,
          "time": 87.651984,
          "velocity": 0.6299212598425197
        },
        {
          "duration": 0.49456414583332275,
          "durationTicks": 455,
          "midi": 43,
          "name": "G2",
          "ticks": 81120,
          "time": 88.17372200000001,
          "velocity": 0.6299212598425197
        },
        {
          "duration": 0.49456414583332275,
          "durationTicks": 455,
          "midi": 47,
          "name": "B2",
          "ticks": 81120,
          "time": 88.17372200000001,
          "velocity": 0.6299212598425197
        },
        {
          "duration": 0.49456414583332275,
          "durationTicks": 455,
          "midi": 50,
          "name": "D3",
          "ticks": 81120,
          "time": 88.17372200000001,
          "velocity": 0.6299212598425197
        },
        {
          "duration": 0.49456414583332275,
          "durationTicks": 455,
          "midi": 43,
          "name": "G2",
          "ticks": 81600,
          "time": 88.69546000000001,
          "velocity": 0.6299212598425197
        },
        {
          "duration": 0.49456414583332275,
          "durationTicks": 455,
          "midi": 47,
          "name": "B2",
          "ticks": 81600,
          "time": 88.69546000000001,
          "velocity": 0.6299212598425197
        },
        {
          "duration": 0.49456414583332275,
          "durationTicks": 455,
          "midi": 50,
          "name": "D3",
          "ticks": 81600,
          "time": 88.69546000000001,
          "velocity": 0.6299212598425197
        },
        {
          "duration": 0.49456414583332275,
          "durationTicks": 455,
          "midi": 43,
          "name": "G2",
          "ticks": 82080,
          "time": 89.21719800000001,
          "velocity": 0.6299212598425197
        },
        {
          "duration": 0.49456414583332275,
          "durationTicks": 455,
          "midi": 47,
          "name": "B2",
          "ticks": 82080,
          "time": 89.21719800000001,
          "velocity": 0.6299212598425197
        },
        {
          "duration": 0.49456414583332275,
          "durationTicks": 455,
          "midi": 50,
          "name": "D3",
          "ticks": 82080,
          "time": 89.21719800000001,
          "velocity": 0.6299212598425197
        },
        {
          "duration": 0.49456414583332275,
          "durationTicks": 455,
          "midi": 43,
          "name": "G2",
          "ticks": 82560,
          "time": 89.73893600000001,
          "velocity": 0.6299212598425197
        },
        {
          "duration": 0.49456414583332275,
          "durationTicks": 455,
          "midi": 47,
          "name": "B2",
          "ticks": 82560,
          "time": 89.73893600000001,
          "velocity": 0.6299212598425197
        },
        {
          "duration": 0.49456414583332275,
          "durationTicks": 455,
          "midi": 50,
          "name": "D3",
          "ticks": 82560,
          "time": 89.73893600000001,
          "velocity": 0.6299212598425197
        },
        {
          "duration": 0.49456414583332275,
          "durationTicks": 455,
          "midi": 43,
          "name": "G2",
          "ticks": 83040,
          "time": 90.26067400000001,
          "velocity": 0.6299212598425197
        },
        {
          "duration": 0.49456414583332275,
          "durationTicks": 455,
          "midi": 47,
          "name": "B2",
          "ticks": 83040,
          "time": 90.26067400000001,
          "velocity": 0.6299212598425197
        },
        {
          "duration": 0.49456414583332275,
          "durationTicks": 455,
          "midi": 50,
          "name": "D3",
          "ticks": 83040,
          "time": 90.26067400000001,
          "velocity": 0.6299212598425197
        },
        {
          "duration": 0.49456414583332275,
          "durationTicks": 455,
          "midi": 43,
          "name": "G2",
          "ticks": 83520,
          "time": 90.78241200000001,
          "velocity": 0.6299212598425197
        },
        {
          "duration": 0.49456414583332275,
          "durationTicks": 455,
          "midi": 47,
          "name": "B2",
          "ticks": 83520,
          "time": 90.78241200000001,
          "velocity": 0.6299212598425197
        },
        {
          "duration": 0.49456414583332275,
          "durationTicks": 455,
          "midi": 50,
          "name": "D3",
          "ticks": 83520,
          "time": 90.78241200000001,
          "velocity": 0.6299212598425197
        },
        {
          "duration": 0.49456414583332275,
          "durationTicks": 455,
          "midi": 43,
          "name": "G2",
          "ticks": 84000,
          "time": 91.30415,
          "velocity": 0.6299212598425197
        },
        {
          "duration": 0.49456414583332275,
          "durationTicks": 455,
          "midi": 47,
          "name": "B2",
          "ticks": 84000,
          "time": 91.30415,
          "velocity": 0.6299212598425197
        },
        {
          "duration": 0.49456414583332275,
          "durationTicks": 455,
          "midi": 50,
          "name": "D3",
          "ticks": 84000,
          "time": 91.30415,
          "velocity": 0.6299212598425197
        },
        {
          "duration": 0.49456414583332275,
          "durationTicks": 455,
          "midi": 47,
          "name": "B2",
          "ticks": 84480,
          "time": 91.825888,
          "velocity": 0.6299212598425197
        },
        {
          "duration": 0.49456414583332275,
          "durationTicks": 455,
          "midi": 50,
          "name": "D3",
          "ticks": 84480,
          "time": 91.825888,
          "velocity": 0.6299212598425197
        },
        {
          "duration": 0.49456414583332275,
          "durationTicks": 455,
          "midi": 54,
          "name": "F#3",
          "ticks": 84480,
          "time": 91.825888,
          "velocity": 0.6299212598425197
        },
        {
          "duration": 0.49456414583332275,
          "durationTicks": 455,
          "midi": 47,
          "name": "B2",
          "ticks": 84960,
          "time": 92.347626,
          "velocity": 0.6299212598425197
        },
        {
          "duration": 0.49456414583332275,
          "durationTicks": 455,
          "midi": 50,
          "name": "D3",
          "ticks": 84960,
          "time": 92.347626,
          "velocity": 0.6299212598425197
        },
        {
          "duration": 0.49456414583332275,
          "durationTicks": 455,
          "midi": 54,
          "name": "F#3",
          "ticks": 84960,
          "time": 92.347626,
          "velocity": 0.6299212598425197
        },
        {
          "duration": 0.49456414583333697,
          "durationTicks": 455,
          "midi": 47,
          "name": "B2",
          "ticks": 85440,
          "time": 92.869364,
          "velocity": 0.6299212598425197
        },
        {
          "duration": 0.49456414583333697,
          "durationTicks": 455,
          "midi": 50,
          "name": "D3",
          "ticks": 85440,
          "time": 92.869364,
          "velocity": 0.6299212598425197
        },
        {
          "duration": 0.49456414583333697,
          "durationTicks": 455,
          "midi": 54,
          "name": "F#3",
          "ticks": 85440,
          "time": 92.869364,
          "velocity": 0.6299212598425197
        },
        {
          "duration": 0.49456414583333697,
          "durationTicks": 455,
          "midi": 47,
          "name": "B2",
          "ticks": 85920,
          "time": 93.391102,
          "velocity": 0.6299212598425197
        },
        {
          "duration": 0.49456414583333697,
          "durationTicks": 455,
          "midi": 50,
          "name": "D3",
          "ticks": 85920,
          "time": 93.391102,
          "velocity": 0.6299212598425197
        },
        {
          "duration": 0.49456414583333697,
          "durationTicks": 455,
          "midi": 54,
          "name": "F#3",
          "ticks": 85920,
          "time": 93.391102,
          "velocity": 0.6299212598425197
        },
        {
          "duration": 0.49456414583333697,
          "durationTicks": 455,
          "midi": 47,
          "name": "B2",
          "ticks": 86400,
          "time": 93.91284,
          "velocity": 0.6299212598425197
        },
        {
          "duration": 0.49456414583333697,
          "durationTicks": 455,
          "midi": 50,
          "name": "D3",
          "ticks": 86400,
          "time": 93.91284,
          "velocity": 0.6299212598425197
        },
        {
          "duration": 0.49456414583333697,
          "durationTicks": 455,
          "midi": 54,
          "name": "F#3",
          "ticks": 86400,
          "time": 93.91284,
          "velocity": 0.6299212598425197
        },
        {
          "duration": 0.49456414583333697,
          "durationTicks": 455,
          "midi": 47,
          "name": "B2",
          "ticks": 86880,
          "time": 94.434578,
          "velocity": 0.6299212598425197
        },
        {
          "duration": 0.49456414583333697,
          "durationTicks": 455,
          "midi": 50,
          "name": "D3",
          "ticks": 86880,
          "time": 94.434578,
          "velocity": 0.6299212598425197
        },
        {
          "duration": 0.49456414583333697,
          "durationTicks": 455,
          "midi": 54,
          "name": "F#3",
          "ticks": 86880,
          "time": 94.434578,
          "velocity": 0.6299212598425197
        },
        {
          "duration": 0.49456414583333697,
          "durationTicks": 455,
          "midi": 47,
          "name": "B2",
          "ticks": 87360,
          "time": 94.956316,
          "velocity": 0.6299212598425197
        },
        {
          "duration": 0.49456414583333697,
          "durationTicks": 455,
          "midi": 50,
          "name": "D3",
          "ticks": 87360,
          "time": 94.956316,
          "velocity": 0.6299212598425197
        },
        {
          "duration": 0.49456414583333697,
          "durationTicks": 455,
          "midi": 54,
          "name": "F#3",
          "ticks": 87360,
          "time": 94.956316,
          "velocity": 0.6299212598425197
        },
        {
          "duration": 0.49456414583333697,
          "durationTicks": 455,
          "midi": 47,
          "name": "B2",
          "ticks": 87840,
          "time": 95.478054,
          "velocity": 0.6299212598425197
        },
        {
          "duration": 0.49456414583333697,
          "durationTicks": 455,
          "midi": 50,
          "name": "D3",
          "ticks": 87840,
          "time": 95.478054,
          "velocity": 0.6299212598425197
        },
        {
          "duration": 0.49456414583333697,
          "durationTicks": 455,
          "midi": 54,
          "name": "F#3",
          "ticks": 87840,
          "time": 95.478054,
          "velocity": 0.6299212598425197
        },
        {
          "duration": 0.49456414583332275,
          "durationTicks": 455,
          "midi": 43,
          "name": "G2",
          "ticks": 88320,
          "time": 95.99979200000001,
          "velocity": 0.6299212598425197
        },
        {
          "duration": 0.49456414583332275,
          "durationTicks": 455,
          "midi": 47,
          "name": "B2",
          "ticks": 88320,
          "time": 95.99979200000001,
          "velocity": 0.6299212598425197
        },
        {
          "duration": 0.49456414583332275,
          "durationTicks": 455,
          "midi": 50,
          "name": "D3",
          "ticks": 88320,
          "time": 95.99979200000001,
          "velocity": 0.6299212598425197
        },
        {
          "duration": 0.49456414583332275,
          "durationTicks": 455,
          "midi": 43,
          "name": "G2",
          "ticks": 88800,
          "time": 96.52153000000001,
          "velocity": 0.6299212598425197
        },
        {
          "duration": 0.49456414583332275,
          "durationTicks": 455,
          "midi": 47,
          "name": "B2",
          "ticks": 88800,
          "time": 96.52153000000001,
          "velocity": 0.6299212598425197
        },
        {
          "duration": 0.49456414583332275,
          "durationTicks": 455,
          "midi": 50,
          "name": "D3",
          "ticks": 88800,
          "time": 96.52153000000001,
          "velocity": 0.6299212598425197
        },
        {
          "duration": 0.49456414583332275,
          "durationTicks": 455,
          "midi": 43,
          "name": "G2",
          "ticks": 89280,
          "time": 97.04326800000001,
          "velocity": 0.6299212598425197
        },
        {
          "duration": 0.49456414583332275,
          "durationTicks": 455,
          "midi": 47,
          "name": "B2",
          "ticks": 89280,
          "time": 97.04326800000001,
          "velocity": 0.6299212598425197
        },
        {
          "duration": 0.49456414583332275,
          "durationTicks": 455,
          "midi": 50,
          "name": "D3",
          "ticks": 89280,
          "time": 97.04326800000001,
          "velocity": 0.6299212598425197
        },
        {
          "duration": 0.49456414583332275,
          "durationTicks": 455,
          "midi": 43,
          "name": "G2",
          "ticks": 89760,
          "time": 97.56500600000001,
          "velocity": 0.6299212598425197
        },
        {
          "duration": 0.49456414583332275,
          "durationTicks": 455,
          "midi": 47,
          "name": "B2",
          "ticks": 89760,
          "time": 97.56500600000001,
          "velocity": 0.6299212598425197
        },
        {
          "duration": 0.49456414583332275,
          "durationTicks": 455,
          "midi": 50,
          "name": "D3",
          "ticks": 89760,
          "time": 97.56500600000001,
          "velocity": 0.6299212598425197
        },
        {
          "duration": 0.49456414583332275,
          "durationTicks": 455,
          "midi": 43,
          "name": "G2",
          "ticks": 90240,
          "time": 98.08674400000001,
          "velocity": 0.6299212598425197
        },
        {
          "duration": 0.49456414583332275,
          "durationTicks": 455,
          "midi": 47,
          "name": "B2",
          "ticks": 90240,
          "time": 98.08674400000001,
          "velocity": 0.6299212598425197
        },
        {
          "duration": 0.49456414583332275,
          "durationTicks": 455,
          "midi": 50,
          "name": "D3",
          "ticks": 90240,
          "time": 98.08674400000001,
          "velocity": 0.6299212598425197
        },
        {
          "duration": 0.49456414583332275,
          "durationTicks": 455,
          "midi": 43,
          "name": "G2",
          "ticks": 90720,
          "time": 98.60848200000001,
          "velocity": 0.6299212598425197
        },
        {
          "duration": 0.49456414583332275,
          "durationTicks": 455,
          "midi": 47,
          "name": "B2",
          "ticks": 90720,
          "time": 98.60848200000001,
          "velocity": 0.6299212598425197
        },
        {
          "duration": 0.49456414583332275,
          "durationTicks": 455,
          "midi": 50,
          "name": "D3",
          "ticks": 90720,
          "time": 98.60848200000001,
          "velocity": 0.6299212598425197
        },
        {
          "duration": 0.49456414583332275,
          "durationTicks": 455,
          "midi": 43,
          "name": "G2",
          "ticks": 91200,
          "time": 99.13022000000001,
          "velocity": 0.6299212598425197
        },
        {
          "duration": 0.49456414583332275,
          "durationTicks": 455,
          "midi": 47,
          "name": "B2",
          "ticks": 91200,
          "time": 99.13022000000001,
          "velocity": 0.6299212598425197
        },
        {
          "duration": 0.49456414583332275,
          "durationTicks": 455,
          "midi": 50,
          "name": "D3",
          "ticks": 91200,
          "time": 99.13022000000001,
          "velocity": 0.6299212598425197
        },
        {
          "duration": 0.49456414583332275,
          "durationTicks": 455,
          "midi": 43,
          "name": "G2",
          "ticks": 91680,
          "time": 99.65195800000001,
          "velocity": 0.6299212598425197
        },
        {
          "duration": 0.49456414583332275,
          "durationTicks": 455,
          "midi": 47,
          "name": "B2",
          "ticks": 91680,
          "time": 99.65195800000001,
          "velocity": 0.6299212598425197
        },
        {
          "duration": 0.49456414583332275,
          "durationTicks": 455,
          "midi": 50,
          "name": "D3",
          "ticks": 91680,
          "time": 99.65195800000001,
          "velocity": 0.6299212598425197
        },
        {
          "duration": 0.49456414583332275,
          "durationTicks": 455,
          "midi": 47,
          "name": "B2",
          "ticks": 92160,
          "time": 100.173696,
          "velocity": 0.25984251968503935
        },
        {
          "duration": 0.49456414583332275,
          "durationTicks": 455,
          "midi": 50,
          "name": "D3",
          "ticks": 92160,
          "time": 100.173696,
          "velocity": 0.25984251968503935
        },
        {
          "duration": 0.49456414583332275,
          "durationTicks": 455,
          "midi": 54,
          "name": "F#3",
          "ticks": 92160,
          "time": 100.173696,
          "velocity": 0.25984251968503935
        },
        {
          "duration": 0.49456414583332275,
          "durationTicks": 455,
          "midi": 47,
          "name": "B2",
          "ticks": 92640,
          "time": 100.695434,
          "velocity": 0.25984251968503935
        },
        {
          "duration": 0.49456414583332275,
          "durationTicks": 455,
          "midi": 50,
          "name": "D3",
          "ticks": 92640,
          "time": 100.695434,
          "velocity": 0.25984251968503935
        },
        {
          "duration": 0.49456414583332275,
          "durationTicks": 455,
          "midi": 54,
          "name": "F#3",
          "ticks": 92640,
          "time": 100.695434,
          "velocity": 0.25984251968503935
        },
        {
          "duration": 0.49456414583333697,
          "durationTicks": 455,
          "midi": 47,
          "name": "B2",
          "ticks": 93120,
          "time": 101.217172,
          "velocity": 0.2677165354330709
        },
        {
          "duration": 0.49456414583333697,
          "durationTicks": 455,
          "midi": 50,
          "name": "D3",
          "ticks": 93120,
          "time": 101.217172,
          "velocity": 0.2677165354330709
        },
        {
          "duration": 0.49456414583333697,
          "durationTicks": 455,
          "midi": 54,
          "name": "F#3",
          "ticks": 93120,
          "time": 101.217172,
          "velocity": 0.2677165354330709
        },
        {
          "duration": 0.49456414583333697,
          "durationTicks": 455,
          "midi": 47,
          "name": "B2",
          "ticks": 93600,
          "time": 101.73891,
          "velocity": 0.28346456692913385
        },
        {
          "duration": 0.49456414583333697,
          "durationTicks": 455,
          "midi": 50,
          "name": "D3",
          "ticks": 93600,
          "time": 101.73891,
          "velocity": 0.28346456692913385
        },
        {
          "duration": 0.49456414583333697,
          "durationTicks": 455,
          "midi": 54,
          "name": "F#3",
          "ticks": 93600,
          "time": 101.73891,
          "velocity": 0.28346456692913385
        },
        {
          "duration": 0.49456414583333697,
          "durationTicks": 455,
          "midi": 47,
          "name": "B2",
          "ticks": 94080,
          "time": 102.260648,
          "velocity": 0.29133858267716534
        },
        {
          "duration": 0.49456414583333697,
          "durationTicks": 455,
          "midi": 50,
          "name": "D3",
          "ticks": 94080,
          "time": 102.260648,
          "velocity": 0.29133858267716534
        },
        {
          "duration": 0.49456414583333697,
          "durationTicks": 455,
          "midi": 54,
          "name": "F#3",
          "ticks": 94080,
          "time": 102.260648,
          "velocity": 0.29133858267716534
        },
        {
          "duration": 0.49456414583333697,
          "durationTicks": 455,
          "midi": 47,
          "name": "B2",
          "ticks": 94560,
          "time": 102.782386,
          "velocity": 0.30708661417322836
        },
        {
          "duration": 0.49456414583333697,
          "durationTicks": 455,
          "midi": 50,
          "name": "D3",
          "ticks": 94560,
          "time": 102.782386,
          "velocity": 0.30708661417322836
        },
        {
          "duration": 0.49456414583333697,
          "durationTicks": 455,
          "midi": 54,
          "name": "F#3",
          "ticks": 94560,
          "time": 102.782386,
          "velocity": 0.30708661417322836
        },
        {
          "duration": 0.49456414583333697,
          "durationTicks": 455,
          "midi": 47,
          "name": "B2",
          "ticks": 95040,
          "time": 103.304124,
          "velocity": 0.31496062992125984
        },
        {
          "duration": 0.49456414583333697,
          "durationTicks": 455,
          "midi": 50,
          "name": "D3",
          "ticks": 95040,
          "time": 103.304124,
          "velocity": 0.31496062992125984
        },
        {
          "duration": 0.49456414583333697,
          "durationTicks": 455,
          "midi": 54,
          "name": "F#3",
          "ticks": 95040,
          "time": 103.304124,
          "velocity": 0.31496062992125984
        },
        {
          "duration": 0.49456414583333697,
          "durationTicks": 455,
          "midi": 47,
          "name": "B2",
          "ticks": 95520,
          "time": 103.825862,
          "velocity": 0.33070866141732286
        },
        {
          "duration": 0.49456414583333697,
          "durationTicks": 455,
          "midi": 50,
          "name": "D3",
          "ticks": 95520,
          "time": 103.825862,
          "velocity": 0.33070866141732286
        },
        {
          "duration": 0.49456414583333697,
          "durationTicks": 455,
          "midi": 54,
          "name": "F#3",
          "ticks": 95520,
          "time": 103.825862,
          "velocity": 0.33070866141732286
        },
        {
          "duration": 0.49456414583333697,
          "durationTicks": 455,
          "midi": 48,
          "name": "C3",
          "ticks": 96000,
          "time": 104.3476,
          "velocity": 0.33858267716535434
        },
        {
          "duration": 0.49456414583333697,
          "durationTicks": 455,
          "midi": 52,
          "name": "E3",
          "ticks": 96000,
          "time": 104.3476,
          "velocity": 0.33858267716535434
        },
        {
          "duration": 0.49456414583333697,
          "durationTicks": 455,
          "midi": 55,
          "name": "G3",
          "ticks": 96000,
          "time": 104.3476,
          "velocity": 0.33858267716535434
        },
        {
          "duration": 0.49456414583332275,
          "durationTicks": 455,
          "midi": 48,
          "name": "C3",
          "ticks": 96480,
          "time": 104.86933800000001,
          "velocity": 0.3543307086614173
        },
        {
          "duration": 0.49456414583332275,
          "durationTicks": 455,
          "midi": 52,
          "name": "E3",
          "ticks": 96480,
          "time": 104.86933800000001,
          "velocity": 0.3543307086614173
        },
        {
          "duration": 0.49456414583332275,
          "durationTicks": 455,
          "midi": 55,
          "name": "G3",
          "ticks": 96480,
          "time": 104.86933800000001,
          "velocity": 0.3543307086614173
        },
        {
          "duration": 0.49456414583332275,
          "durationTicks": 455,
          "midi": 48,
          "name": "C3",
          "ticks": 96960,
          "time": 105.39107600000001,
          "velocity": 0.3700787401574803
        },
        {
          "duration": 0.49456414583332275,
          "durationTicks": 455,
          "midi": 52,
          "name": "E3",
          "ticks": 96960,
          "time": 105.39107600000001,
          "velocity": 0.3700787401574803
        },
        {
          "duration": 0.49456414583332275,
          "durationTicks": 455,
          "midi": 55,
          "name": "G3",
          "ticks": 96960,
          "time": 105.39107600000001,
          "velocity": 0.3700787401574803
        },
        {
          "duration": 0.49456414583332275,
          "durationTicks": 455,
          "midi": 48,
          "name": "C3",
          "ticks": 97440,
          "time": 105.91281400000001,
          "velocity": 0.3779527559055118
        },
        {
          "duration": 0.49456414583332275,
          "durationTicks": 455,
          "midi": 52,
          "name": "E3",
          "ticks": 97440,
          "time": 105.91281400000001,
          "velocity": 0.3779527559055118
        },
        {
          "duration": 0.49456414583332275,
          "durationTicks": 455,
          "midi": 55,
          "name": "G3",
          "ticks": 97440,
          "time": 105.91281400000001,
          "velocity": 0.3779527559055118
        },
        {
          "duration": 0.49456414583332275,
          "durationTicks": 455,
          "midi": 48,
          "name": "C3",
          "ticks": 97920,
          "time": 106.43455200000001,
          "velocity": 0.3937007874015748
        },
        {
          "duration": 0.49456414583332275,
          "durationTicks": 455,
          "midi": 52,
          "name": "E3",
          "ticks": 97920,
          "time": 106.43455200000001,
          "velocity": 0.3937007874015748
        },
        {
          "duration": 0.49456414583332275,
          "durationTicks": 455,
          "midi": 55,
          "name": "G3",
          "ticks": 97920,
          "time": 106.43455200000001,
          "velocity": 0.3937007874015748
        },
        {
          "duration": 0.49456414583332275,
          "durationTicks": 455,
          "midi": 48,
          "name": "C3",
          "ticks": 98400,
          "time": 106.95629000000001,
          "velocity": 0.4015748031496063
        },
        {
          "duration": 0.49456414583332275,
          "durationTicks": 455,
          "midi": 52,
          "name": "E3",
          "ticks": 98400,
          "time": 106.95629000000001,
          "velocity": 0.4015748031496063
        },
        {
          "duration": 0.49456414583332275,
          "durationTicks": 455,
          "midi": 55,
          "name": "G3",
          "ticks": 98400,
          "time": 106.95629000000001,
          "velocity": 0.4015748031496063
        },
        {
          "duration": 0.49456414583332275,
          "durationTicks": 455,
          "midi": 48,
          "name": "C3",
          "ticks": 98880,
          "time": 107.47802800000001,
          "velocity": 0.41732283464566927
        },
        {
          "duration": 0.49456414583332275,
          "durationTicks": 455,
          "midi": 52,
          "name": "E3",
          "ticks": 98880,
          "time": 107.47802800000001,
          "velocity": 0.41732283464566927
        },
        {
          "duration": 0.49456414583332275,
          "durationTicks": 455,
          "midi": 55,
          "name": "G3",
          "ticks": 98880,
          "time": 107.47802800000001,
          "velocity": 0.41732283464566927
        },
        {
          "duration": 0.49456414583332275,
          "durationTicks": 455,
          "midi": 48,
          "name": "C3",
          "ticks": 99360,
          "time": 107.99976600000001,
          "velocity": 0.4251968503937008
        },
        {
          "duration": 0.49456414583332275,
          "durationTicks": 455,
          "midi": 52,
          "name": "E3",
          "ticks": 99360,
          "time": 107.99976600000001,
          "velocity": 0.4251968503937008
        },
        {
          "duration": 0.49456414583332275,
          "durationTicks": 455,
          "midi": 55,
          "name": "G3",
          "ticks": 99360,
          "time": 107.99976600000001,
          "velocity": 0.4251968503937008
        },
        {
          "duration": 0.49456414583332275,
          "durationTicks": 455,
          "midi": 47,
          "name": "B2",
          "ticks": 99840,
          "time": 108.52150400000001,
          "velocity": 0.4409448818897638
        },
        {
          "duration": 0.49456414583332275,
          "durationTicks": 455,
          "midi": 50,
          "name": "D3",
          "ticks": 99840,
          "time": 108.52150400000001,
          "velocity": 0.4409448818897638
        },
        {
          "duration": 0.49456414583332275,
          "durationTicks": 455,
          "midi": 54,
          "name": "F#3",
          "ticks": 99840,
          "time": 108.52150400000001,
          "velocity": 0.4409448818897638
        },
        {
          "duration": 0.49456414583332275,
          "durationTicks": 455,
          "midi": 47,
          "name": "B2",
          "ticks": 100320,
          "time": 109.043242,
          "velocity": 0.4566929133858268
        },
        {
          "duration": 0.49456414583332275,
          "durationTicks": 455,
          "midi": 50,
          "name": "D3",
          "ticks": 100320,
          "time": 109.043242,
          "velocity": 0.4566929133858268
        },
        {
          "duration": 0.49456414583332275,
          "durationTicks": 455,
          "midi": 54,
          "name": "F#3",
          "ticks": 100320,
          "time": 109.043242,
          "velocity": 0.4566929133858268
        },
        {
          "duration": 0.49456414583333697,
          "durationTicks": 455,
          "midi": 47,
          "name": "B2",
          "ticks": 100800,
          "time": 109.56498,
          "velocity": 0.4645669291338583
        },
        {
          "duration": 0.49456414583333697,
          "durationTicks": 455,
          "midi": 50,
          "name": "D3",
          "ticks": 100800,
          "time": 109.56498,
          "velocity": 0.4645669291338583
        },
        {
          "duration": 0.49456414583333697,
          "durationTicks": 455,
          "midi": 54,
          "name": "F#3",
          "ticks": 100800,
          "time": 109.56498,
          "velocity": 0.4645669291338583
        },
        {
          "duration": 0.49456414583333697,
          "durationTicks": 455,
          "midi": 47,
          "name": "B2",
          "ticks": 101280,
          "time": 110.086718,
          "velocity": 0.48031496062992124
        },
        {
          "duration": 0.49456414583333697,
          "durationTicks": 455,
          "midi": 50,
          "name": "D3",
          "ticks": 101280,
          "time": 110.086718,
          "velocity": 0.48031496062992124
        },
        {
          "duration": 0.49456414583333697,
          "durationTicks": 455,
          "midi": 54,
          "name": "F#3",
          "ticks": 101280,
          "time": 110.086718,
          "velocity": 0.48031496062992124
        },
        {
          "duration": 0.49456414583333697,
          "durationTicks": 455,
          "midi": 47,
          "name": "B2",
          "ticks": 101760,
          "time": 110.608456,
          "velocity": 0.4881889763779528
        },
        {
          "duration": 0.49456414583333697,
          "durationTicks": 455,
          "midi": 50,
          "name": "D3",
          "ticks": 101760,
          "time": 110.608456,
          "velocity": 0.4881889763779528
        },
        {
          "duration": 0.49456414583333697,
          "durationTicks": 455,
          "midi": 54,
          "name": "F#3",
          "ticks": 101760,
          "time": 110.608456,
          "velocity": 0.4881889763779528
        },
        {
          "duration": 0.49456414583333697,
          "durationTicks": 455,
          "midi": 47,
          "name": "B2",
          "ticks": 102240,
          "time": 111.130194,
          "velocity": 0.5039370078740157
        },
        {
          "duration": 0.49456414583333697,
          "durationTicks": 455,
          "midi": 50,
          "name": "D3",
          "ticks": 102240,
          "time": 111.130194,
          "velocity": 0.5039370078740157
        },
        {
          "duration": 0.49456414583333697,
          "durationTicks": 455,
          "midi": 54,
          "name": "F#3",
          "ticks": 102240,
          "time": 111.130194,
          "velocity": 0.5039370078740157
        },
        {
          "duration": 0.49456414583333697,
          "durationTicks": 455,
          "midi": 47,
          "name": "B2",
          "ticks": 102720,
          "time": 111.651932,
          "velocity": 0.5118110236220472
        },
        {
          "duration": 0.49456414583333697,
          "durationTicks": 455,
          "midi": 50,
          "name": "D3",
          "ticks": 102720,
          "time": 111.651932,
          "velocity": 0.5118110236220472
        },
        {
          "duration": 0.49456414583333697,
          "durationTicks": 455,
          "midi": 54,
          "name": "F#3",
          "ticks": 102720,
          "time": 111.651932,
          "velocity": 0.5118110236220472
        },
        {
          "duration": 0.49456414583333697,
          "durationTicks": 455,
          "midi": 47,
          "name": "B2",
          "ticks": 103200,
          "time": 112.17367,
          "velocity": 0.5275590551181102
        },
        {
          "duration": 0.49456414583333697,
          "durationTicks": 455,
          "midi": 50,
          "name": "D3",
          "ticks": 103200,
          "time": 112.17367,
          "velocity": 0.5275590551181102
        },
        {
          "duration": 0.49456414583333697,
          "durationTicks": 455,
          "midi": 54,
          "name": "F#3",
          "ticks": 103200,
          "time": 112.17367,
          "velocity": 0.5275590551181102
        },
        {
          "duration": 0.49456414583332275,
          "durationTicks": 455,
          "midi": 48,
          "name": "C3",
          "ticks": 103680,
          "time": 112.69540800000001,
          "velocity": 0.5433070866141733
        },
        {
          "duration": 0.49456414583332275,
          "durationTicks": 455,
          "midi": 52,
          "name": "E3",
          "ticks": 103680,
          "time": 112.69540800000001,
          "velocity": 0.5433070866141733
        },
        {
          "duration": 0.49456414583332275,
          "durationTicks": 455,
          "midi": 55,
          "name": "G3",
          "ticks": 103680,
          "time": 112.69540800000001,
          "velocity": 0.5433070866141733
        },
        {
          "duration": 0.49456414583332275,
          "durationTicks": 455,
          "midi": 48,
          "name": "C3",
          "ticks": 104160,
          "time": 113.21714600000001,
          "velocity": 0.5511811023622047
        },
        {
          "duration": 0.49456414583332275,
          "durationTicks": 455,
          "midi": 52,
          "name": "E3",
          "ticks": 104160,
          "time": 113.21714600000001,
          "velocity": 0.5511811023622047
        },
        {
          "duration": 0.49456414583332275,
          "durationTicks": 455,
          "midi": 55,
          "name": "G3",
          "ticks": 104160,
          "time": 113.21714600000001,
          "velocity": 0.5511811023622047
        },
        {
          "duration": 0.49456414583332275,
          "durationTicks": 455,
          "midi": 48,
          "name": "C3",
          "ticks": 104640,
          "time": 113.73888400000001,
          "velocity": 0.5669291338582677
        },
        {
          "duration": 0.49456414583332275,
          "durationTicks": 455,
          "midi": 52,
          "name": "E3",
          "ticks": 104640,
          "time": 113.73888400000001,
          "velocity": 0.5669291338582677
        },
        {
          "duration": 0.49456414583332275,
          "durationTicks": 455,
          "midi": 55,
          "name": "G3",
          "ticks": 104640,
          "time": 113.73888400000001,
          "velocity": 0.5669291338582677
        },
        {
          "duration": 0.49456414583332275,
          "durationTicks": 455,
          "midi": 48,
          "name": "C3",
          "ticks": 105120,
          "time": 114.26062200000001,
          "velocity": 0.5748031496062992
        },
        {
          "duration": 0.49456414583332275,
          "durationTicks": 455,
          "midi": 52,
          "name": "E3",
          "ticks": 105120,
          "time": 114.26062200000001,
          "velocity": 0.5748031496062992
        },
        {
          "duration": 0.49456414583332275,
          "durationTicks": 455,
          "midi": 55,
          "name": "G3",
          "ticks": 105120,
          "time": 114.26062200000001,
          "velocity": 0.5748031496062992
        },
        {
          "duration": 0.49456414583332275,
          "durationTicks": 455,
          "midi": 48,
          "name": "C3",
          "ticks": 105600,
          "time": 114.78236000000001,
          "velocity": 0.5905511811023622
        },
        {
          "duration": 0.49456414583332275,
          "durationTicks": 455,
          "midi": 52,
          "name": "E3",
          "ticks": 105600,
          "time": 114.78236000000001,
          "velocity": 0.5905511811023622
        },
        {
          "duration": 0.49456414583332275,
          "durationTicks": 455,
          "midi": 55,
          "name": "G3",
          "ticks": 105600,
          "time": 114.78236000000001,
          "velocity": 0.5905511811023622
        },
        {
          "duration": 0.49456414583332275,
          "durationTicks": 455,
          "midi": 48,
          "name": "C3",
          "ticks": 106080,
          "time": 115.30409800000001,
          "velocity": 0.5984251968503937
        },
        {
          "duration": 0.49456414583332275,
          "durationTicks": 455,
          "midi": 52,
          "name": "E3",
          "ticks": 106080,
          "time": 115.30409800000001,
          "velocity": 0.5984251968503937
        },
        {
          "duration": 0.49456414583332275,
          "durationTicks": 455,
          "midi": 55,
          "name": "G3",
          "ticks": 106080,
          "time": 115.30409800000001,
          "velocity": 0.5984251968503937
        },
        {
          "duration": 0.49456414583332275,
          "durationTicks": 455,
          "midi": 48,
          "name": "C3",
          "ticks": 106560,
          "time": 115.82583600000001,
          "velocity": 0.6141732283464567
        },
        {
          "duration": 0.49456414583332275,
          "durationTicks": 455,
          "midi": 52,
          "name": "E3",
          "ticks": 106560,
          "time": 115.82583600000001,
          "velocity": 0.6141732283464567
        },
        {
          "duration": 0.49456414583332275,
          "durationTicks": 455,
          "midi": 55,
          "name": "G3",
          "ticks": 106560,
          "time": 115.82583600000001,
          "velocity": 0.6141732283464567
        },
        {
          "duration": 0.49456414583332275,
          "durationTicks": 455,
          "midi": 48,
          "name": "C3",
          "ticks": 107040,
          "time": 116.34757400000001,
          "velocity": 0.6299212598425197
        },
        {
          "duration": 0.49456414583332275,
          "durationTicks": 455,
          "midi": 52,
          "name": "E3",
          "ticks": 107040,
          "time": 116.34757400000001,
          "velocity": 0.6299212598425197
        },
        {
          "duration": 0.49456414583332275,
          "durationTicks": 455,
          "midi": 55,
          "name": "G3",
          "ticks": 107040,
          "time": 116.34757400000001,
          "velocity": 0.6299212598425197
        },
        {
          "duration": 0.49456414583332275,
          "durationTicks": 455,
          "midi": 47,
          "name": "B2",
          "ticks": 107520,
          "time": 116.86931200000001,
          "velocity": 0.5039370078740157
        },
        {
          "duration": 0.49456414583332275,
          "durationTicks": 455,
          "midi": 47,
          "name": "B2",
          "ticks": 108000,
          "time": 117.39105,
          "velocity": 0.5039370078740157
        },
        {
          "duration": 0.49456414583333697,
          "durationTicks": 455,
          "midi": 47,
          "name": "B2",
          "ticks": 108480,
          "time": 117.912788,
          "velocity": 0.5118110236220472
        },
        {
          "duration": 0.49456414583333697,
          "durationTicks": 455,
          "midi": 47,
          "name": "B2",
          "ticks": 108960,
          "time": 118.434526,
          "velocity": 0.5275590551181102
        },
        {
          "duration": 0.49456414583333697,
          "durationTicks": 455,
          "midi": 47,
          "name": "B2",
          "ticks": 109440,
          "time": 118.956264,
          "velocity": 0.5354330708661418
        },
        {
          "duration": 0.49456414583333697,
          "durationTicks": 455,
          "midi": 47,
          "name": "B2",
          "ticks": 109920,
          "time": 119.478002,
          "velocity": 0.5511811023622047
        },
        {
          "duration": 0.49456414583333697,
          "durationTicks": 455,
          "midi": 47,
          "name": "B2",
          "ticks": 110400,
          "time": 119.99974,
          "velocity": 0.5590551181102362
        },
        {
          "duration": 0.49456414583333697,
          "durationTicks": 455,
          "midi": 47,
          "name": "B2",
          "ticks": 110880,
          "time": 120.521478,
          "velocity": 0.5748031496062992
        },
        {
          "duration": 0.49456414583333697,
          "durationTicks": 455,
          "midi": 43,
          "name": "G2",
          "ticks": 111360,
          "time": 121.043216,
          "velocity": 0.5905511811023622
        },
        {
          "duration": 0.49456414583332275,
          "durationTicks": 455,
          "midi": 43,
          "name": "G2",
          "ticks": 111840,
          "time": 121.56495400000001,
          "velocity": 0.5984251968503937
        },
        {
          "duration": 0.49456414583332275,
          "durationTicks": 455,
          "midi": 43,
          "name": "G2",
          "ticks": 112320,
          "time": 122.08669200000001,
          "velocity": 0.6141732283464567
        },
        {
          "duration": 0.49456414583332275,
          "durationTicks": 455,
          "midi": 43,
          "name": "G2",
          "ticks": 112800,
          "time": 122.60843000000001,
          "velocity": 0.6220472440944882
        },
        {
          "duration": 0.49456414583332275,
          "durationTicks": 455,
          "midi": 43,
          "name": "G2",
          "ticks": 113280,
          "time": 123.13016800000001,
          "velocity": 0.6377952755905512
        },
        {
          "duration": 0.49456414583332275,
          "durationTicks": 455,
          "midi": 43,
          "name": "G2",
          "ticks": 113760,
          "time": 123.65190600000001,
          "velocity": 0.6456692913385826
        },
        {
          "duration": 0.49456414583332275,
          "durationTicks": 455,
          "midi": 43,
          "name": "G2",
          "ticks": 114240,
          "time": 124.17364400000001,
          "velocity": 0.6614173228346457
        },
        {
          "duration": 0.49456414583332275,
          "durationTicks": 455,
          "midi": 43,
          "name": "G2",
          "ticks": 114720,
          "time": 124.69538200000001,
          "velocity": 0.6771653543307087
        },
        {
          "duration": 0.49456414583332275,
          "durationTicks": 455,
          "midi": 52,
          "name": "E3",
          "ticks": 115200,
          "time": 125.21712000000001,
          "velocity": 0.6850393700787402
        },
        {
          "duration": 0.49456414583332275,
          "durationTicks": 455,
          "midi": 52,
          "name": "E3",
          "ticks": 115680,
          "time": 125.73885800000001,
          "velocity": 0.7007874015748031
        },
        {
          "duration": 0.49456414583333697,
          "durationTicks": 455,
          "midi": 52,
          "name": "E3",
          "ticks": 116160,
          "time": 126.260596,
          "velocity": 0.7086614173228346
        },
        {
          "duration": 0.49456414583333697,
          "durationTicks": 455,
          "midi": 52,
          "name": "E3",
          "ticks": 116640,
          "time": 126.782334,
          "velocity": 0.7244094488188977
        },
        {
          "duration": 0.49456414583333697,
          "durationTicks": 455,
          "midi": 52,
          "name": "E3",
          "ticks": 117120,
          "time": 127.304072,
          "velocity": 0.7322834645669292
        },
        {
          "duration": 0.49456414583333697,
          "durationTicks": 455,
          "midi": 52,
          "name": "E3",
          "ticks": 117600,
          "time": 127.82581,
          "velocity": 0.7480314960629921
        },
        {
          "duration": 0.49456414583332275,
          "durationTicks": 455,
          "midi": 52,
          "name": "E3",
          "ticks": 118080,
          "time": 128.34754800000002,
          "velocity": 0.7637795275590551
        },
        {
          "duration": 0.49456414583332275,
          "durationTicks": 455,
          "midi": 52,
          "name": "E3",
          "ticks": 118560,
          "time": 128.86928600000002,
          "velocity": 0.7716535433070866
        },
        {
          "duration": 0.49456414583332275,
          "durationTicks": 455,
          "midi": 50,
          "name": "D3",
          "ticks": 119040,
          "time": 129.39102400000002,
          "velocity": 0.7874015748031497
        },
        {
          "duration": 0.49456414583332275,
          "durationTicks": 455,
          "midi": 50,
          "name": "D3",
          "ticks": 119520,
          "time": 129.91276200000001,
          "velocity": 0.7952755905511811
        },
        {
          "duration": 0.49456414583332275,
          "durationTicks": 455,
          "midi": 50,
          "name": "D3",
          "ticks": 120000,
          "time": 130.4345,
          "velocity": 0.8110236220472441
        },
        {
          "duration": 0.49456414583332275,
          "durationTicks": 455,
          "midi": 50,
          "name": "D3",
          "ticks": 120480,
          "time": 130.956238,
          "velocity": 0.8188976377952756
        },
        {
          "duration": 0.49456414583332275,
          "durationTicks": 455,
          "midi": 50,
          "name": "D3",
          "ticks": 120960,
          "time": 131.477976,
          "velocity": 0.8346456692913385
        },
        {
          "duration": 0.49456414583332275,
          "durationTicks": 455,
          "midi": 50,
          "name": "D3",
          "ticks": 121440,
          "time": 131.999714,
          "velocity": 0.8503937007874016
        },
        {
          "duration": 0.12282582083332727,
          "durationTicks": 113,
          "midi": 50,
          "name": "D3",
          "ticks": 121920,
          "time": 132.521452,
          "velocity": 0.8582677165354331
        },
        {
          "duration": 0.12282582083332727,
          "durationTicks": 113,
          "midi": 50,
          "name": "D3",
          "ticks": 122040,
          "time": 132.65188650000002,
          "velocity": 0.8661417322834646
        },
        {
          "duration": 0.24673859583333524,
          "durationTicks": 227,
          "midi": 50,
          "name": "D3",
          "ticks": 122160,
          "time": 132.782321,
          "velocity": 0.8661417322834646
        },
        {
          "duration": 0.24673859583333524,
          "durationTicks": 227,
          "midi": 50,
          "name": "D3",
          "ticks": 122400,
          "time": 133.04319,
          "velocity": 0.8740157480314961
        },
        {
          "duration": 0.24673859583333524,
          "durationTicks": 227,
          "midi": 47,
          "name": "B2",
          "ticks": 122640,
          "time": 133.304059,
          "velocity": 0.8818897637795275
        },
        {
          "duration": 0.4945641458333512,
          "durationTicks": 455,
          "midi": 47,
          "name": "B2",
          "ticks": 122880,
          "time": 133.564928,
          "velocity": 0.8818897637795275
        },
        {
          "duration": 0.4945641458333512,
          "durationTicks": 455,
          "midi": 50,
          "name": "D3",
          "ticks": 122880,
          "time": 133.564928,
          "velocity": 0.8818897637795275
        },
        {
          "duration": 0.4945641458333512,
          "durationTicks": 455,
          "midi": 54,
          "name": "F#3",
          "ticks": 122880,
          "time": 133.564928,
          "velocity": 0.8818897637795275
        },
        {
          "duration": 0.4945641458333512,
          "durationTicks": 455,
          "midi": 59,
          "name": "B3",
          "ticks": 122880,
          "time": 133.564928,
          "velocity": 0.8818897637795275
        },
        {
          "duration": 0.4945641458333512,
          "durationTicks": 455,
          "midi": 47,
          "name": "B2",
          "ticks": 123360,
          "time": 134.086666,
          "velocity": 0.8818897637795275
        },
        {
          "duration": 0.4945641458333512,
          "durationTicks": 455,
          "midi": 50,
          "name": "D3",
          "ticks": 123360,
          "time": 134.086666,
          "velocity": 0.8818897637795275
        },
        {
          "duration": 0.4945641458333512,
          "durationTicks": 455,
          "midi": 54,
          "name": "F#3",
          "ticks": 123360,
          "time": 134.086666,
          "velocity": 0.8818897637795275
        },
        {
          "duration": 0.4945641458333512,
          "durationTicks": 455,
          "midi": 59,
          "name": "B3",
          "ticks": 123360,
          "time": 134.086666,
          "velocity": 0.8818897637795275
        },
        {
          "duration": 0.4945641458333512,
          "durationTicks": 455,
          "midi": 47,
          "name": "B2",
          "ticks": 123840,
          "time": 134.608404,
          "velocity": 0.8818897637795275
        },
        {
          "duration": 0.4945641458333512,
          "durationTicks": 455,
          "midi": 50,
          "name": "D3",
          "ticks": 123840,
          "time": 134.608404,
          "velocity": 0.8818897637795275
        },
        {
          "duration": 0.4945641458333512,
          "durationTicks": 455,
          "midi": 54,
          "name": "F#3",
          "ticks": 123840,
          "time": 134.608404,
          "velocity": 0.8818897637795275
        },
        {
          "duration": 0.4945641458333512,
          "durationTicks": 455,
          "midi": 59,
          "name": "B3",
          "ticks": 123840,
          "time": 134.608404,
          "velocity": 0.8818897637795275
        },
        {
          "duration": 0.4945641458333512,
          "durationTicks": 455,
          "midi": 47,
          "name": "B2",
          "ticks": 124320,
          "time": 135.130142,
          "velocity": 0.8818897637795275
        },
        {
          "duration": 0.4945641458333512,
          "durationTicks": 455,
          "midi": 50,
          "name": "D3",
          "ticks": 124320,
          "time": 135.130142,
          "velocity": 0.8818897637795275
        },
        {
          "duration": 0.4945641458333512,
          "durationTicks": 455,
          "midi": 54,
          "name": "F#3",
          "ticks": 124320,
          "time": 135.130142,
          "velocity": 0.8818897637795275
        },
        {
          "duration": 0.4945641458333512,
          "durationTicks": 455,
          "midi": 59,
          "name": "B3",
          "ticks": 124320,
          "time": 135.130142,
          "velocity": 0.8818897637795275
        },
        {
          "duration": 0.4945641458333512,
          "durationTicks": 455,
          "midi": 47,
          "name": "B2",
          "ticks": 124800,
          "time": 135.65188,
          "velocity": 0.8818897637795275
        },
        {
          "duration": 0.4945641458333512,
          "durationTicks": 455,
          "midi": 50,
          "name": "D3",
          "ticks": 124800,
          "time": 135.65188,
          "velocity": 0.8818897637795275
        },
        {
          "duration": 0.4945641458333512,
          "durationTicks": 455,
          "midi": 54,
          "name": "F#3",
          "ticks": 124800,
          "time": 135.65188,
          "velocity": 0.8818897637795275
        },
        {
          "duration": 0.4945641458333512,
          "durationTicks": 455,
          "midi": 59,
          "name": "B3",
          "ticks": 124800,
          "time": 135.65188,
          "velocity": 0.8818897637795275
        },
        {
          "duration": 0.4945641458333512,
          "durationTicks": 455,
          "midi": 47,
          "name": "B2",
          "ticks": 125280,
          "time": 136.173618,
          "velocity": 0.8818897637795275
        },
        {
          "duration": 0.4945641458333512,
          "durationTicks": 455,
          "midi": 50,
          "name": "D3",
          "ticks": 125280,
          "time": 136.173618,
          "velocity": 0.8818897637795275
        },
        {
          "duration": 0.4945641458333512,
          "durationTicks": 455,
          "midi": 54,
          "name": "F#3",
          "ticks": 125280,
          "time": 136.173618,
          "velocity": 0.8818897637795275
        },
        {
          "duration": 0.4945641458333512,
          "durationTicks": 455,
          "midi": 59,
          "name": "B3",
          "ticks": 125280,
          "time": 136.173618,
          "velocity": 0.8818897637795275
        },
        {
          "duration": 0.4945641458333512,
          "durationTicks": 455,
          "midi": 47,
          "name": "B2",
          "ticks": 125760,
          "time": 136.695356,
          "velocity": 0.8818897637795275
        },
        {
          "duration": 0.4945641458333512,
          "durationTicks": 455,
          "midi": 50,
          "name": "D3",
          "ticks": 125760,
          "time": 136.695356,
          "velocity": 0.8818897637795275
        },
        {
          "duration": 0.4945641458333512,
          "durationTicks": 455,
          "midi": 54,
          "name": "F#3",
          "ticks": 125760,
          "time": 136.695356,
          "velocity": 0.8818897637795275
        },
        {
          "duration": 0.4945641458333512,
          "durationTicks": 455,
          "midi": 59,
          "name": "B3",
          "ticks": 125760,
          "time": 136.695356,
          "velocity": 0.8818897637795275
        },
        {
          "duration": 0.4945641458333512,
          "durationTicks": 455,
          "midi": 47,
          "name": "B2",
          "ticks": 126240,
          "time": 137.217094,
          "velocity": 0.8818897637795275
        },
        {
          "duration": 0.4945641458333512,
          "durationTicks": 455,
          "midi": 50,
          "name": "D3",
          "ticks": 126240,
          "time": 137.217094,
          "velocity": 0.8818897637795275
        },
        {
          "duration": 0.4945641458333512,
          "durationTicks": 455,
          "midi": 54,
          "name": "F#3",
          "ticks": 126240,
          "time": 137.217094,
          "velocity": 0.8818897637795275
        },
        {
          "duration": 0.4945641458333512,
          "durationTicks": 455,
          "midi": 59,
          "name": "B3",
          "ticks": 126240,
          "time": 137.217094,
          "velocity": 0.8818897637795275
        },
        {
          "duration": 0.4945641458333512,
          "durationTicks": 455,
          "midi": 43,
          "name": "G2",
          "ticks": 126720,
          "time": 137.738832,
          "velocity": 0.8818897637795275
        },
        {
          "duration": 0.4945641458333512,
          "durationTicks": 455,
          "midi": 47,
          "name": "B2",
          "ticks": 126720,
          "time": 137.738832,
          "velocity": 0.8818897637795275
        },
        {
          "duration": 0.4945641458333512,
          "durationTicks": 455,
          "midi": 50,
          "name": "D3",
          "ticks": 126720,
          "time": 137.738832,
          "velocity": 0.8818897637795275
        },
        {
          "duration": 0.4945641458333512,
          "durationTicks": 455,
          "midi": 55,
          "name": "G3",
          "ticks": 126720,
          "time": 137.738832,
          "velocity": 0.8818897637795275
        },
        {
          "duration": 0.4945641458333512,
          "durationTicks": 455,
          "midi": 43,
          "name": "G2",
          "ticks": 127200,
          "time": 138.26057,
          "velocity": 0.8818897637795275
        },
        {
          "duration": 0.4945641458333512,
          "durationTicks": 455,
          "midi": 47,
          "name": "B2",
          "ticks": 127200,
          "time": 138.26057,
          "velocity": 0.8818897637795275
        },
        {
          "duration": 0.4945641458333512,
          "durationTicks": 455,
          "midi": 50,
          "name": "D3",
          "ticks": 127200,
          "time": 138.26057,
          "velocity": 0.8818897637795275
        },
        {
          "duration": 0.4945641458333512,
          "durationTicks": 455,
          "midi": 55,
          "name": "G3",
          "ticks": 127200,
          "time": 138.26057,
          "velocity": 0.8818897637795275
        },
        {
          "duration": 0.4945641458333512,
          "durationTicks": 455,
          "midi": 43,
          "name": "G2",
          "ticks": 127680,
          "time": 138.782308,
          "velocity": 0.8818897637795275
        },
        {
          "duration": 0.4945641458333512,
          "durationTicks": 455,
          "midi": 47,
          "name": "B2",
          "ticks": 127680,
          "time": 138.782308,
          "velocity": 0.8818897637795275
        },
        {
          "duration": 0.4945641458333512,
          "durationTicks": 455,
          "midi": 50,
          "name": "D3",
          "ticks": 127680,
          "time": 138.782308,
          "velocity": 0.8818897637795275
        },
        {
          "duration": 0.4945641458333512,
          "durationTicks": 455,
          "midi": 55,
          "name": "G3",
          "ticks": 127680,
          "time": 138.782308,
          "velocity": 0.8818897637795275
        },
        {
          "duration": 0.4945641458333512,
          "durationTicks": 455,
          "midi": 43,
          "name": "G2",
          "ticks": 128160,
          "time": 139.304046,
          "velocity": 0.8818897637795275
        },
        {
          "duration": 0.4945641458333512,
          "durationTicks": 455,
          "midi": 47,
          "name": "B2",
          "ticks": 128160,
          "time": 139.304046,
          "velocity": 0.8818897637795275
        },
        {
          "duration": 0.4945641458333512,
          "durationTicks": 455,
          "midi": 50,
          "name": "D3",
          "ticks": 128160,
          "time": 139.304046,
          "velocity": 0.8818897637795275
        },
        {
          "duration": 0.4945641458333512,
          "durationTicks": 455,
          "midi": 55,
          "name": "G3",
          "ticks": 128160,
          "time": 139.304046,
          "velocity": 0.8818897637795275
        },
        {
          "duration": 0.4945641458333512,
          "durationTicks": 455,
          "midi": 43,
          "name": "G2",
          "ticks": 128640,
          "time": 139.825784,
          "velocity": 0.8818897637795275
        },
        {
          "duration": 0.4945641458333512,
          "durationTicks": 455,
          "midi": 47,
          "name": "B2",
          "ticks": 128640,
          "time": 139.825784,
          "velocity": 0.8818897637795275
        },
        {
          "duration": 0.4945641458333512,
          "durationTicks": 455,
          "midi": 50,
          "name": "D3",
          "ticks": 128640,
          "time": 139.825784,
          "velocity": 0.8818897637795275
        },
        {
          "duration": 0.4945641458333512,
          "durationTicks": 455,
          "midi": 55,
          "name": "G3",
          "ticks": 128640,
          "time": 139.825784,
          "velocity": 0.8818897637795275
        },
        {
          "duration": 0.4945641458333512,
          "durationTicks": 455,
          "midi": 43,
          "name": "G2",
          "ticks": 129120,
          "time": 140.347522,
          "velocity": 0.8818897637795275
        },
        {
          "duration": 0.4945641458333512,
          "durationTicks": 455,
          "midi": 47,
          "name": "B2",
          "ticks": 129120,
          "time": 140.347522,
          "velocity": 0.8818897637795275
        },
        {
          "duration": 0.4945641458333512,
          "durationTicks": 455,
          "midi": 50,
          "name": "D3",
          "ticks": 129120,
          "time": 140.347522,
          "velocity": 0.8818897637795275
        },
        {
          "duration": 0.4945641458333512,
          "durationTicks": 455,
          "midi": 55,
          "name": "G3",
          "ticks": 129120,
          "time": 140.347522,
          "velocity": 0.8818897637795275
        },
        {
          "duration": 0.4945641458333512,
          "durationTicks": 455,
          "midi": 43,
          "name": "G2",
          "ticks": 129600,
          "time": 140.86926,
          "velocity": 0.8818897637795275
        },
        {
          "duration": 0.4945641458333512,
          "durationTicks": 455,
          "midi": 47,
          "name": "B2",
          "ticks": 129600,
          "time": 140.86926,
          "velocity": 0.8818897637795275
        },
        {
          "duration": 0.4945641458333512,
          "durationTicks": 455,
          "midi": 50,
          "name": "D3",
          "ticks": 129600,
          "time": 140.86926,
          "velocity": 0.8818897637795275
        },
        {
          "duration": 0.4945641458333512,
          "durationTicks": 455,
          "midi": 55,
          "name": "G3",
          "ticks": 129600,
          "time": 140.86926,
          "velocity": 0.8818897637795275
        },
        {
          "duration": 0.4945641458333512,
          "durationTicks": 455,
          "midi": 43,
          "name": "G2",
          "ticks": 130080,
          "time": 141.390998,
          "velocity": 0.8818897637795275
        },
        {
          "duration": 0.4945641458333512,
          "durationTicks": 455,
          "midi": 47,
          "name": "B2",
          "ticks": 130080,
          "time": 141.390998,
          "velocity": 0.8818897637795275
        },
        {
          "duration": 0.4945641458333512,
          "durationTicks": 455,
          "midi": 50,
          "name": "D3",
          "ticks": 130080,
          "time": 141.390998,
          "velocity": 0.8818897637795275
        },
        {
          "duration": 0.4945641458333512,
          "durationTicks": 455,
          "midi": 55,
          "name": "G3",
          "ticks": 130080,
          "time": 141.390998,
          "velocity": 0.8818897637795275
        },
        {
          "duration": 0.4945641458333512,
          "durationTicks": 455,
          "midi": 52,
          "name": "E3",
          "ticks": 130560,
          "time": 141.912736,
          "velocity": 0.8818897637795275
        },
        {
          "duration": 0.4945641458333512,
          "durationTicks": 455,
          "midi": 55,
          "name": "G3",
          "ticks": 130560,
          "time": 141.912736,
          "velocity": 0.8818897637795275
        },
        {
          "duration": 0.4945641458333512,
          "durationTicks": 455,
          "midi": 59,
          "name": "B3",
          "ticks": 130560,
          "time": 141.912736,
          "velocity": 0.8818897637795275
        },
        {
          "duration": 0.49456414583332275,
          "durationTicks": 455,
          "midi": 52,
          "name": "E3",
          "ticks": 131040,
          "time": 142.43447400000002,
          "velocity": 0.8818897637795275
        },
        {
          "duration": 0.49456414583332275,
          "durationTicks": 455,
          "midi": 55,
          "name": "G3",
          "ticks": 131040,
          "time": 142.43447400000002,
          "velocity": 0.8818897637795275
        },
        {
          "duration": 0.49456414583332275,
          "durationTicks": 455,
          "midi": 59,
          "name": "B3",
          "ticks": 131040,
          "time": 142.43447400000002,
          "velocity": 0.8818897637795275
        },
        {
          "duration": 0.49456414583332275,
          "durationTicks": 455,
          "midi": 52,
          "name": "E3",
          "ticks": 131520,
          "time": 142.95621200000002,
          "velocity": 0.8818897637795275
        },
        {
          "duration": 0.49456414583332275,
          "durationTicks": 455,
          "midi": 55,
          "name": "G3",
          "ticks": 131520,
          "time": 142.95621200000002,
          "velocity": 0.8818897637795275
        },
        {
          "duration": 0.49456414583332275,
          "durationTicks": 455,
          "midi": 59,
          "name": "B3",
          "ticks": 131520,
          "time": 142.95621200000002,
          "velocity": 0.8818897637795275
        },
        {
          "duration": 0.49456414583332275,
          "durationTicks": 455,
          "midi": 52,
          "name": "E3",
          "ticks": 132000,
          "time": 143.47795000000002,
          "velocity": 0.8818897637795275
        },
        {
          "duration": 0.49456414583332275,
          "durationTicks": 455,
          "midi": 55,
          "name": "G3",
          "ticks": 132000,
          "time": 143.47795000000002,
          "velocity": 0.8818897637795275
        },
        {
          "duration": 0.49456414583332275,
          "durationTicks": 455,
          "midi": 59,
          "name": "B3",
          "ticks": 132000,
          "time": 143.47795000000002,
          "velocity": 0.8818897637795275
        },
        {
          "duration": 0.49456414583332275,
          "durationTicks": 455,
          "midi": 52,
          "name": "E3",
          "ticks": 132480,
          "time": 143.99968800000002,
          "velocity": 0.8818897637795275
        },
        {
          "duration": 0.49456414583332275,
          "durationTicks": 455,
          "midi": 55,
          "name": "G3",
          "ticks": 132480,
          "time": 143.99968800000002,
          "velocity": 0.8818897637795275
        },
        {
          "duration": 0.49456414583332275,
          "durationTicks": 455,
          "midi": 59,
          "name": "B3",
          "ticks": 132480,
          "time": 143.99968800000002,
          "velocity": 0.8818897637795275
        },
        {
          "duration": 0.49456414583332275,
          "durationTicks": 455,
          "midi": 52,
          "name": "E3",
          "ticks": 132960,
          "time": 144.52142600000002,
          "velocity": 0.8818897637795275
        },
        {
          "duration": 0.49456414583332275,
          "durationTicks": 455,
          "midi": 55,
          "name": "G3",
          "ticks": 132960,
          "time": 144.52142600000002,
          "velocity": 0.8818897637795275
        },
        {
          "duration": 0.49456414583332275,
          "durationTicks": 455,
          "midi": 59,
          "name": "B3",
          "ticks": 132960,
          "time": 144.52142600000002,
          "velocity": 0.8818897637795275
        },
        {
          "duration": 0.49456414583332275,
          "durationTicks": 455,
          "midi": 52,
          "name": "E3",
          "ticks": 133440,
          "time": 145.04316400000002,
          "velocity": 0.8818897637795275
        },
        {
          "duration": 0.49456414583332275,
          "durationTicks": 455,
          "midi": 55,
          "name": "G3",
          "ticks": 133440,
          "time": 145.04316400000002,
          "velocity": 0.8818897637795275
        },
        {
          "duration": 0.49456414583332275,
          "durationTicks": 455,
          "midi": 59,
          "name": "B3",
          "ticks": 133440,
          "time": 145.04316400000002,
          "velocity": 0.8818897637795275
        },
        {
          "duration": 0.49456414583332275,
          "durationTicks": 455,
          "midi": 52,
          "name": "E3",
          "ticks": 133920,
          "time": 145.56490200000002,
          "velocity": 0.8818897637795275
        },
        {
          "duration": 0.49456414583332275,
          "durationTicks": 455,
          "midi": 55,
          "name": "G3",
          "ticks": 133920,
          "time": 145.56490200000002,
          "velocity": 0.8818897637795275
        },
        {
          "duration": 0.49456414583332275,
          "durationTicks": 455,
          "midi": 59,
          "name": "B3",
          "ticks": 133920,
          "time": 145.56490200000002,
          "velocity": 0.8818897637795275
        },
        {
          "duration": 0.49456414583332275,
          "durationTicks": 455,
          "midi": 50,
          "name": "D3",
          "ticks": 134400,
          "time": 146.08664000000002,
          "velocity": 0.8818897637795275
        },
        {
          "duration": 0.49456414583332275,
          "durationTicks": 455,
          "midi": 54,
          "name": "F#3",
          "ticks": 134400,
          "time": 146.08664000000002,
          "velocity": 0.8818897637795275
        },
        {
          "duration": 0.49456414583332275,
          "durationTicks": 455,
          "midi": 57,
          "name": "A3",
          "ticks": 134400,
          "time": 146.08664000000002,
          "velocity": 0.8818897637795275
        },
        {
          "duration": 0.49456414583332275,
          "durationTicks": 455,
          "midi": 62,
          "name": "D4",
          "ticks": 134400,
          "time": 146.08664000000002,
          "velocity": 0.8818897637795275
        },
        {
          "duration": 0.4945641458333512,
          "durationTicks": 455,
          "midi": 50,
          "name": "D3",
          "ticks": 134880,
          "time": 146.60837800000002,
          "velocity": 0.8818897637795275
        },
        {
          "duration": 0.4945641458333512,
          "durationTicks": 455,
          "midi": 54,
          "name": "F#3",
          "ticks": 134880,
          "time": 146.60837800000002,
          "velocity": 0.8818897637795275
        },
        {
          "duration": 0.4945641458333512,
          "durationTicks": 455,
          "midi": 57,
          "name": "A3",
          "ticks": 134880,
          "time": 146.60837800000002,
          "velocity": 0.8818897637795275
        },
        {
          "duration": 0.4945641458333512,
          "durationTicks": 455,
          "midi": 62,
          "name": "D4",
          "ticks": 134880,
          "time": 146.60837800000002,
          "velocity": 0.8818897637795275
        },
        {
          "duration": 0.4945641458333512,
          "durationTicks": 455,
          "midi": 50,
          "name": "D3",
          "ticks": 135360,
          "time": 147.13011600000002,
          "velocity": 0.8818897637795275
        },
        {
          "duration": 0.4945641458333512,
          "durationTicks": 455,
          "midi": 54,
          "name": "F#3",
          "ticks": 135360,
          "time": 147.13011600000002,
          "velocity": 0.8818897637795275
        },
        {
          "duration": 0.4945641458333512,
          "durationTicks": 455,
          "midi": 57,
          "name": "A3",
          "ticks": 135360,
          "time": 147.13011600000002,
          "velocity": 0.8818897637795275
        },
        {
          "duration": 0.4945641458333512,
          "durationTicks": 455,
          "midi": 62,
          "name": "D4",
          "ticks": 135360,
          "time": 147.13011600000002,
          "velocity": 0.8818897637795275
        },
        {
          "duration": 0.4945641458333512,
          "durationTicks": 455,
          "midi": 50,
          "name": "D3",
          "ticks": 135840,
          "time": 147.65185400000001,
          "velocity": 0.8818897637795275
        },
        {
          "duration": 0.4945641458333512,
          "durationTicks": 455,
          "midi": 54,
          "name": "F#3",
          "ticks": 135840,
          "time": 147.65185400000001,
          "velocity": 0.8818897637795275
        },
        {
          "duration": 0.4945641458333512,
          "durationTicks": 455,
          "midi": 57,
          "name": "A3",
          "ticks": 135840,
          "time": 147.65185400000001,
          "velocity": 0.8818897637795275
        },
        {
          "duration": 0.4945641458333512,
          "durationTicks": 455,
          "midi": 62,
          "name": "D4",
          "ticks": 135840,
          "time": 147.65185400000001,
          "velocity": 0.8818897637795275
        },
        {
          "duration": 0.4945641458333512,
          "durationTicks": 455,
          "midi": 50,
          "name": "D3",
          "ticks": 136320,
          "time": 148.173592,
          "velocity": 0.8818897637795275
        },
        {
          "duration": 0.4945641458333512,
          "durationTicks": 455,
          "midi": 54,
          "name": "F#3",
          "ticks": 136320,
          "time": 148.173592,
          "velocity": 0.8818897637795275
        },
        {
          "duration": 0.4945641458333512,
          "durationTicks": 455,
          "midi": 57,
          "name": "A3",
          "ticks": 136320,
          "time": 148.173592,
          "velocity": 0.8818897637795275
        },
        {
          "duration": 0.4945641458333512,
          "durationTicks": 455,
          "midi": 62,
          "name": "D4",
          "ticks": 136320,
          "time": 148.173592,
          "velocity": 0.8818897637795275
        },
        {
          "duration": 0.4945641458333512,
          "durationTicks": 455,
          "midi": 50,
          "name": "D3",
          "ticks": 136800,
          "time": 148.69533,
          "velocity": 0.8818897637795275
        },
        {
          "duration": 0.4945641458333512,
          "durationTicks": 455,
          "midi": 54,
          "name": "F#3",
          "ticks": 136800,
          "time": 148.69533,
          "velocity": 0.8818897637795275
        },
        {
          "duration": 0.4945641458333512,
          "durationTicks": 455,
          "midi": 57,
          "name": "A3",
          "ticks": 136800,
          "time": 148.69533,
          "velocity": 0.8818897637795275
        },
        {
          "duration": 0.4945641458333512,
          "durationTicks": 455,
          "midi": 62,
          "name": "D4",
          "ticks": 136800,
          "time": 148.69533,
          "velocity": 0.8818897637795275
        },
        {
          "duration": 0.12282582083332727,
          "durationTicks": 113,
          "midi": 50,
          "name": "D3",
          "ticks": 137280,
          "time": 149.217068,
          "velocity": 0.8818897637795275
        },
        {
          "duration": 0.12282582083332727,
          "durationTicks": 113,
          "midi": 54,
          "name": "F#3",
          "ticks": 137280,
          "time": 149.217068,
          "velocity": 0.8818897637795275
        },
        {
          "duration": 0.12282582083332727,
          "durationTicks": 113,
          "midi": 57,
          "name": "A3",
          "ticks": 137280,
          "time": 149.217068,
          "velocity": 0.8818897637795275
        },
        {
          "duration": 0.12282582083332727,
          "durationTicks": 113,
          "midi": 62,
          "name": "D4",
          "ticks": 137280,
          "time": 149.217068,
          "velocity": 0.8818897637795275
        },
        {
          "duration": 0.12282582083332727,
          "durationTicks": 113,
          "midi": 50,
          "name": "D3",
          "ticks": 137400,
          "time": 149.34750250000002,
          "velocity": 0.8818897637795275
        },
        {
          "duration": 0.12282582083332727,
          "durationTicks": 113,
          "midi": 54,
          "name": "F#3",
          "ticks": 137400,
          "time": 149.34750250000002,
          "velocity": 0.8818897637795275
        },
        {
          "duration": 0.12282582083332727,
          "durationTicks": 113,
          "midi": 57,
          "name": "A3",
          "ticks": 137400,
          "time": 149.34750250000002,
          "velocity": 0.8818897637795275
        },
        {
          "duration": 0.12282582083332727,
          "durationTicks": 113,
          "midi": 62,
          "name": "D4",
          "ticks": 137400,
          "time": 149.34750250000002,
          "velocity": 0.8818897637795275
        },
        {
          "duration": 0.24673859583333524,
          "durationTicks": 227,
          "midi": 50,
          "name": "D3",
          "ticks": 137520,
          "time": 149.477937,
          "velocity": 0.8818897637795275
        },
        {
          "duration": 0.24673859583333524,
          "durationTicks": 227,
          "midi": 54,
          "name": "F#3",
          "ticks": 137520,
          "time": 149.477937,
          "velocity": 0.8818897637795275
        },
        {
          "duration": 0.24673859583333524,
          "durationTicks": 227,
          "midi": 57,
          "name": "A3",
          "ticks": 137520,
          "time": 149.477937,
          "velocity": 0.8818897637795275
        },
        {
          "duration": 0.24673859583333524,
          "durationTicks": 227,
          "midi": 62,
          "name": "D4",
          "ticks": 137520,
          "time": 149.477937,
          "velocity": 0.8818897637795275
        },
        {
          "duration": 0.24673859583333524,
          "durationTicks": 227,
          "midi": 50,
          "name": "D3",
          "ticks": 137760,
          "time": 149.738806,
          "velocity": 0.8818897637795275
        },
        {
          "duration": 0.24673859583333524,
          "durationTicks": 227,
          "midi": 54,
          "name": "F#3",
          "ticks": 137760,
          "time": 149.738806,
          "velocity": 0.8818897637795275
        },
        {
          "duration": 0.24673859583333524,
          "durationTicks": 227,
          "midi": 57,
          "name": "A3",
          "ticks": 137760,
          "time": 149.738806,
          "velocity": 0.8818897637795275
        },
        {
          "duration": 0.24673859583333524,
          "durationTicks": 227,
          "midi": 62,
          "name": "D4",
          "ticks": 137760,
          "time": 149.738806,
          "velocity": 0.8818897637795275
        },
        {
          "duration": 0.24673859583333524,
          "durationTicks": 227,
          "midi": 47,
          "name": "B2",
          "ticks": 138000,
          "time": 149.999675,
          "velocity": 0.8818897637795275
        },
        {
          "duration": 0.24673859583333524,
          "durationTicks": 227,
          "midi": 50,
          "name": "D3",
          "ticks": 138000,
          "time": 149.999675,
          "velocity": 0.8818897637795275
        },
        {
          "duration": 0.24673859583333524,
          "durationTicks": 227,
          "midi": 54,
          "name": "F#3",
          "ticks": 138000,
          "time": 149.999675,
          "velocity": 0.8818897637795275
        },
        {
          "duration": 0.24673859583333524,
          "durationTicks": 227,
          "midi": 59,
          "name": "B3",
          "ticks": 138000,
          "time": 149.999675,
          "velocity": 0.8818897637795275
        },
        {
          "duration": 0.4945641458333512,
          "durationTicks": 455,
          "midi": 47,
          "name": "B2",
          "ticks": 138240,
          "time": 150.260544,
          "velocity": 0.8818897637795275
        },
        {
          "duration": 0.4945641458333512,
          "durationTicks": 455,
          "midi": 50,
          "name": "D3",
          "ticks": 138240,
          "time": 150.260544,
          "velocity": 0.8818897637795275
        },
        {
          "duration": 0.4945641458333512,
          "durationTicks": 455,
          "midi": 54,
          "name": "F#3",
          "ticks": 138240,
          "time": 150.260544,
          "velocity": 0.8818897637795275
        },
        {
          "duration": 0.4945641458333512,
          "durationTicks": 455,
          "midi": 59,
          "name": "B3",
          "ticks": 138240,
          "time": 150.260544,
          "velocity": 0.8818897637795275
        },
        {
          "duration": 0.4945641458333512,
          "durationTicks": 455,
          "midi": 47,
          "name": "B2",
          "ticks": 138720,
          "time": 150.782282,
          "velocity": 0.8818897637795275
        },
        {
          "duration": 0.4945641458333512,
          "durationTicks": 455,
          "midi": 50,
          "name": "D3",
          "ticks": 138720,
          "time": 150.782282,
          "velocity": 0.8818897637795275
        },
        {
          "duration": 0.4945641458333512,
          "durationTicks": 455,
          "midi": 54,
          "name": "F#3",
          "ticks": 138720,
          "time": 150.782282,
          "velocity": 0.8818897637795275
        },
        {
          "duration": 0.4945641458333512,
          "durationTicks": 455,
          "midi": 59,
          "name": "B3",
          "ticks": 138720,
          "time": 150.782282,
          "velocity": 0.8818897637795275
        },
        {
          "duration": 0.4945641458333512,
          "durationTicks": 455,
          "midi": 47,
          "name": "B2",
          "ticks": 139200,
          "time": 151.30402,
          "velocity": 0.8818897637795275
        },
        {
          "duration": 0.4945641458333512,
          "durationTicks": 455,
          "midi": 50,
          "name": "D3",
          "ticks": 139200,
          "time": 151.30402,
          "velocity": 0.8818897637795275
        },
        {
          "duration": 0.4945641458333512,
          "durationTicks": 455,
          "midi": 54,
          "name": "F#3",
          "ticks": 139200,
          "time": 151.30402,
          "velocity": 0.8818897637795275
        },
        {
          "duration": 0.4945641458333512,
          "durationTicks": 455,
          "midi": 59,
          "name": "B3",
          "ticks": 139200,
          "time": 151.30402,
          "velocity": 0.8818897637795275
        },
        {
          "duration": 0.4945641458333512,
          "durationTicks": 455,
          "midi": 47,
          "name": "B2",
          "ticks": 139680,
          "time": 151.825758,
          "velocity": 0.8818897637795275
        },
        {
          "duration": 0.4945641458333512,
          "durationTicks": 455,
          "midi": 50,
          "name": "D3",
          "ticks": 139680,
          "time": 151.825758,
          "velocity": 0.8818897637795275
        },
        {
          "duration": 0.4945641458333512,
          "durationTicks": 455,
          "midi": 54,
          "name": "F#3",
          "ticks": 139680,
          "time": 151.825758,
          "velocity": 0.8818897637795275
        },
        {
          "duration": 0.4945641458333512,
          "durationTicks": 455,
          "midi": 59,
          "name": "B3",
          "ticks": 139680,
          "time": 151.825758,
          "velocity": 0.8818897637795275
        },
        {
          "duration": 0.4945641458333512,
          "durationTicks": 455,
          "midi": 47,
          "name": "B2",
          "ticks": 140160,
          "time": 152.347496,
          "velocity": 0.8818897637795275
        },
        {
          "duration": 0.4945641458333512,
          "durationTicks": 455,
          "midi": 50,
          "name": "D3",
          "ticks": 140160,
          "time": 152.347496,
          "velocity": 0.8818897637795275
        },
        {
          "duration": 0.4945641458333512,
          "durationTicks": 455,
          "midi": 54,
          "name": "F#3",
          "ticks": 140160,
          "time": 152.347496,
          "velocity": 0.8818897637795275
        },
        {
          "duration": 0.4945641458333512,
          "durationTicks": 455,
          "midi": 59,
          "name": "B3",
          "ticks": 140160,
          "time": 152.347496,
          "velocity": 0.8818897637795275
        },
        {
          "duration": 0.4945641458333512,
          "durationTicks": 455,
          "midi": 47,
          "name": "B2",
          "ticks": 140640,
          "time": 152.869234,
          "velocity": 0.8818897637795275
        },
        {
          "duration": 0.4945641458333512,
          "durationTicks": 455,
          "midi": 50,
          "name": "D3",
          "ticks": 140640,
          "time": 152.869234,
          "velocity": 0.8818897637795275
        },
        {
          "duration": 0.4945641458333512,
          "durationTicks": 455,
          "midi": 54,
          "name": "F#3",
          "ticks": 140640,
          "time": 152.869234,
          "velocity": 0.8818897637795275
        },
        {
          "duration": 0.4945641458333512,
          "durationTicks": 455,
          "midi": 59,
          "name": "B3",
          "ticks": 140640,
          "time": 152.869234,
          "velocity": 0.8818897637795275
        },
        {
          "duration": 0.4945641458333512,
          "durationTicks": 455,
          "midi": 47,
          "name": "B2",
          "ticks": 141120,
          "time": 153.390972,
          "velocity": 0.8818897637795275
        },
        {
          "duration": 0.4945641458333512,
          "durationTicks": 455,
          "midi": 50,
          "name": "D3",
          "ticks": 141120,
          "time": 153.390972,
          "velocity": 0.8818897637795275
        },
        {
          "duration": 0.4945641458333512,
          "durationTicks": 455,
          "midi": 54,
          "name": "F#3",
          "ticks": 141120,
          "time": 153.390972,
          "velocity": 0.8818897637795275
        },
        {
          "duration": 0.4945641458333512,
          "durationTicks": 455,
          "midi": 59,
          "name": "B3",
          "ticks": 141120,
          "time": 153.390972,
          "velocity": 0.8818897637795275
        },
        {
          "duration": 0.4945641458333512,
          "durationTicks": 455,
          "midi": 47,
          "name": "B2",
          "ticks": 141600,
          "time": 153.91271,
          "velocity": 0.8818897637795275
        },
        {
          "duration": 0.4945641458333512,
          "durationTicks": 455,
          "midi": 50,
          "name": "D3",
          "ticks": 141600,
          "time": 153.91271,
          "velocity": 0.8818897637795275
        },
        {
          "duration": 0.4945641458333512,
          "durationTicks": 455,
          "midi": 54,
          "name": "F#3",
          "ticks": 141600,
          "time": 153.91271,
          "velocity": 0.8818897637795275
        },
        {
          "duration": 0.4945641458333512,
          "durationTicks": 455,
          "midi": 59,
          "name": "B3",
          "ticks": 141600,
          "time": 153.91271,
          "velocity": 0.8818897637795275
        },
        {
          "duration": 0.4945641458333512,
          "durationTicks": 455,
          "midi": 43,
          "name": "G2",
          "ticks": 142080,
          "time": 154.434448,
          "velocity": 0.8818897637795275
        },
        {
          "duration": 0.4945641458333512,
          "durationTicks": 455,
          "midi": 47,
          "name": "B2",
          "ticks": 142080,
          "time": 154.434448,
          "velocity": 0.8818897637795275
        },
        {
          "duration": 0.4945641458333512,
          "durationTicks": 455,
          "midi": 50,
          "name": "D3",
          "ticks": 142080,
          "time": 154.434448,
          "velocity": 0.8818897637795275
        },
        {
          "duration": 0.4945641458333512,
          "durationTicks": 455,
          "midi": 55,
          "name": "G3",
          "ticks": 142080,
          "time": 154.434448,
          "velocity": 0.8818897637795275
        },
        {
          "duration": 0.4945641458333512,
          "durationTicks": 455,
          "midi": 43,
          "name": "G2",
          "ticks": 142560,
          "time": 154.956186,
          "velocity": 0.8818897637795275
        },
        {
          "duration": 0.4945641458333512,
          "durationTicks": 455,
          "midi": 47,
          "name": "B2",
          "ticks": 142560,
          "time": 154.956186,
          "velocity": 0.8818897637795275
        },
        {
          "duration": 0.4945641458333512,
          "durationTicks": 455,
          "midi": 50,
          "name": "D3",
          "ticks": 142560,
          "time": 154.956186,
          "velocity": 0.8818897637795275
        },
        {
          "duration": 0.4945641458333512,
          "durationTicks": 455,
          "midi": 55,
          "name": "G3",
          "ticks": 142560,
          "time": 154.956186,
          "velocity": 0.8818897637795275
        },
        {
          "duration": 0.4945641458333512,
          "durationTicks": 455,
          "midi": 43,
          "name": "G2",
          "ticks": 143040,
          "time": 155.477924,
          "velocity": 0.8818897637795275
        },
        {
          "duration": 0.4945641458333512,
          "durationTicks": 455,
          "midi": 47,
          "name": "B2",
          "ticks": 143040,
          "time": 155.477924,
          "velocity": 0.8818897637795275
        },
        {
          "duration": 0.4945641458333512,
          "durationTicks": 455,
          "midi": 50,
          "name": "D3",
          "ticks": 143040,
          "time": 155.477924,
          "velocity": 0.8818897637795275
        },
        {
          "duration": 0.4945641458333512,
          "durationTicks": 455,
          "midi": 55,
          "name": "G3",
          "ticks": 143040,
          "time": 155.477924,
          "velocity": 0.8818897637795275
        },
        {
          "duration": 0.4945641458333512,
          "durationTicks": 455,
          "midi": 43,
          "name": "G2",
          "ticks": 143520,
          "time": 155.999662,
          "velocity": 0.8818897637795275
        },
        {
          "duration": 0.4945641458333512,
          "durationTicks": 455,
          "midi": 47,
          "name": "B2",
          "ticks": 143520,
          "time": 155.999662,
          "velocity": 0.8818897637795275
        },
        {
          "duration": 0.4945641458333512,
          "durationTicks": 455,
          "midi": 50,
          "name": "D3",
          "ticks": 143520,
          "time": 155.999662,
          "velocity": 0.8818897637795275
        },
        {
          "duration": 0.4945641458333512,
          "durationTicks": 455,
          "midi": 55,
          "name": "G3",
          "ticks": 143520,
          "time": 155.999662,
          "velocity": 0.8818897637795275
        },
        {
          "duration": 0.4945641458333512,
          "durationTicks": 455,
          "midi": 43,
          "name": "G2",
          "ticks": 144000,
          "time": 156.5214,
          "velocity": 0.8818897637795275
        },
        {
          "duration": 0.4945641458333512,
          "durationTicks": 455,
          "midi": 47,
          "name": "B2",
          "ticks": 144000,
          "time": 156.5214,
          "velocity": 0.8818897637795275
        },
        {
          "duration": 0.4945641458333512,
          "durationTicks": 455,
          "midi": 50,
          "name": "D3",
          "ticks": 144000,
          "time": 156.5214,
          "velocity": 0.8818897637795275
        },
        {
          "duration": 0.4945641458333512,
          "durationTicks": 455,
          "midi": 55,
          "name": "G3",
          "ticks": 144000,
          "time": 156.5214,
          "velocity": 0.8818897637795275
        },
        {
          "duration": 0.4945641458333512,
          "durationTicks": 455,
          "midi": 43,
          "name": "G2",
          "ticks": 144480,
          "time": 157.043138,
          "velocity": 0.8818897637795275
        },
        {
          "duration": 0.4945641458333512,
          "durationTicks": 455,
          "midi": 47,
          "name": "B2",
          "ticks": 144480,
          "time": 157.043138,
          "velocity": 0.8818897637795275
        },
        {
          "duration": 0.4945641458333512,
          "durationTicks": 455,
          "midi": 50,
          "name": "D3",
          "ticks": 144480,
          "time": 157.043138,
          "velocity": 0.8818897637795275
        },
        {
          "duration": 0.4945641458333512,
          "durationTicks": 455,
          "midi": 55,
          "name": "G3",
          "ticks": 144480,
          "time": 157.043138,
          "velocity": 0.8818897637795275
        },
        {
          "duration": 0.4945641458333512,
          "durationTicks": 455,
          "midi": 43,
          "name": "G2",
          "ticks": 144960,
          "time": 157.564876,
          "velocity": 0.8818897637795275
        },
        {
          "duration": 0.4945641458333512,
          "durationTicks": 455,
          "midi": 47,
          "name": "B2",
          "ticks": 144960,
          "time": 157.564876,
          "velocity": 0.8818897637795275
        },
        {
          "duration": 0.4945641458333512,
          "durationTicks": 455,
          "midi": 50,
          "name": "D3",
          "ticks": 144960,
          "time": 157.564876,
          "velocity": 0.8818897637795275
        },
        {
          "duration": 0.4945641458333512,
          "durationTicks": 455,
          "midi": 55,
          "name": "G3",
          "ticks": 144960,
          "time": 157.564876,
          "velocity": 0.8818897637795275
        },
        {
          "duration": 0.4945641458333512,
          "durationTicks": 455,
          "midi": 43,
          "name": "G2",
          "ticks": 145440,
          "time": 158.086614,
          "velocity": 0.8818897637795275
        },
        {
          "duration": 0.4945641458333512,
          "durationTicks": 455,
          "midi": 47,
          "name": "B2",
          "ticks": 145440,
          "time": 158.086614,
          "velocity": 0.8818897637795275
        },
        {
          "duration": 0.4945641458333512,
          "durationTicks": 455,
          "midi": 50,
          "name": "D3",
          "ticks": 145440,
          "time": 158.086614,
          "velocity": 0.8818897637795275
        },
        {
          "duration": 0.4945641458333512,
          "durationTicks": 455,
          "midi": 55,
          "name": "G3",
          "ticks": 145440,
          "time": 158.086614,
          "velocity": 0.8818897637795275
        },
        {
          "duration": 0.49456414583332275,
          "durationTicks": 455,
          "midi": 52,
          "name": "E3",
          "ticks": 145920,
          "time": 158.60835200000002,
          "velocity": 0.8818897637795275
        },
        {
          "duration": 0.49456414583332275,
          "durationTicks": 455,
          "midi": 55,
          "name": "G3",
          "ticks": 145920,
          "time": 158.60835200000002,
          "velocity": 0.8818897637795275
        },
        {
          "duration": 0.49456414583332275,
          "durationTicks": 455,
          "midi": 59,
          "name": "B3",
          "ticks": 145920,
          "time": 158.60835200000002,
          "velocity": 0.8818897637795275
        },
        {
          "duration": 0.49456414583332275,
          "durationTicks": 455,
          "midi": 52,
          "name": "E3",
          "ticks": 146400,
          "time": 159.13009000000002,
          "velocity": 0.8818897637795275
        },
        {
          "duration": 0.49456414583332275,
          "durationTicks": 455,
          "midi": 55,
          "name": "G3",
          "ticks": 146400,
          "time": 159.13009000000002,
          "velocity": 0.8818897637795275
        },
        {
          "duration": 0.49456414583332275,
          "durationTicks": 455,
          "midi": 59,
          "name": "B3",
          "ticks": 146400,
          "time": 159.13009000000002,
          "velocity": 0.8818897637795275
        },
        {
          "duration": 0.49456414583332275,
          "durationTicks": 455,
          "midi": 52,
          "name": "E3",
          "ticks": 146880,
          "time": 159.65182800000002,
          "velocity": 0.8818897637795275
        },
        {
          "duration": 0.49456414583332275,
          "durationTicks": 455,
          "midi": 55,
          "name": "G3",
          "ticks": 146880,
          "time": 159.65182800000002,
          "velocity": 0.8818897637795275
        },
        {
          "duration": 0.49456414583332275,
          "durationTicks": 455,
          "midi": 59,
          "name": "B3",
          "ticks": 146880,
          "time": 159.65182800000002,
          "velocity": 0.8818897637795275
        },
        {
          "duration": 0.49456414583332275,
          "durationTicks": 455,
          "midi": 52,
          "name": "E3",
          "ticks": 147360,
          "time": 160.17356600000002,
          "velocity": 0.8818897637795275
        },
        {
          "duration": 0.49456414583332275,
          "durationTicks": 455,
          "midi": 55,
          "name": "G3",
          "ticks": 147360,
          "time": 160.17356600000002,
          "velocity": 0.8818897637795275
        },
        {
          "duration": 0.49456414583332275,
          "durationTicks": 455,
          "midi": 59,
          "name": "B3",
          "ticks": 147360,
          "time": 160.17356600000002,
          "velocity": 0.8818897637795275
        },
        {
          "duration": 0.49456414583332275,
          "durationTicks": 455,
          "midi": 52,
          "name": "E3",
          "ticks": 147840,
          "time": 160.69530400000002,
          "velocity": 0.8818897637795275
        },
        {
          "duration": 0.49456414583332275,
          "durationTicks": 455,
          "midi": 55,
          "name": "G3",
          "ticks": 147840,
          "time": 160.69530400000002,
          "velocity": 0.8818897637795275
        },
        {
          "duration": 0.49456414583332275,
          "durationTicks": 455,
          "midi": 59,
          "name": "B3",
          "ticks": 147840,
          "time": 160.69530400000002,
          "velocity": 0.8818897637795275
        },
        {
          "duration": 0.49456414583332275,
          "durationTicks": 455,
          "midi": 52,
          "name": "E3",
          "ticks": 148320,
          "time": 161.21704200000002,
          "velocity": 0.8818897637795275
        },
        {
          "duration": 0.49456414583332275,
          "durationTicks": 455,
          "midi": 55,
          "name": "G3",
          "ticks": 148320,
          "time": 161.21704200000002,
          "velocity": 0.8818897637795275
        },
        {
          "duration": 0.49456414583332275,
          "durationTicks": 455,
          "midi": 59,
          "name": "B3",
          "ticks": 148320,
          "time": 161.21704200000002,
          "velocity": 0.8818897637795275
        },
        {
          "duration": 0.49456414583332275,
          "durationTicks": 455,
          "midi": 52,
          "name": "E3",
          "ticks": 148800,
          "time": 161.73878000000002,
          "velocity": 0.8818897637795275
        },
        {
          "duration": 0.49456414583332275,
          "durationTicks": 455,
          "midi": 55,
          "name": "G3",
          "ticks": 148800,
          "time": 161.73878000000002,
          "velocity": 0.8818897637795275
        },
        {
          "duration": 0.49456414583332275,
          "durationTicks": 455,
          "midi": 59,
          "name": "B3",
          "ticks": 148800,
          "time": 161.73878000000002,
          "velocity": 0.8818897637795275
        },
        {
          "duration": 0.49456414583332275,
          "durationTicks": 455,
          "midi": 52,
          "name": "E3",
          "ticks": 149280,
          "time": 162.26051800000002,
          "velocity": 0.8818897637795275
        },
        {
          "duration": 0.49456414583332275,
          "durationTicks": 455,
          "midi": 55,
          "name": "G3",
          "ticks": 149280,
          "time": 162.26051800000002,
          "velocity": 0.8818897637795275
        },
        {
          "duration": 0.49456414583332275,
          "durationTicks": 455,
          "midi": 59,
          "name": "B3",
          "ticks": 149280,
          "time": 162.26051800000002,
          "velocity": 0.8818897637795275
        },
        {
          "duration": 0.49456414583332275,
          "durationTicks": 455,
          "midi": 50,
          "name": "D3",
          "ticks": 149760,
          "time": 162.78225600000002,
          "velocity": 0.8818897637795275
        },
        {
          "duration": 0.49456414583332275,
          "durationTicks": 455,
          "midi": 54,
          "name": "F#3",
          "ticks": 149760,
          "time": 162.78225600000002,
          "velocity": 0.8818897637795275
        },
        {
          "duration": 0.49456414583332275,
          "durationTicks": 455,
          "midi": 57,
          "name": "A3",
          "ticks": 149760,
          "time": 162.78225600000002,
          "velocity": 0.8818897637795275
        },
        {
          "duration": 0.49456414583332275,
          "durationTicks": 455,
          "midi": 62,
          "name": "D4",
          "ticks": 149760,
          "time": 162.78225600000002,
          "velocity": 0.8818897637795275
        },
        {
          "duration": 0.4945641458333512,
          "durationTicks": 455,
          "midi": 50,
          "name": "D3",
          "ticks": 150240,
          "time": 163.30399400000002,
          "velocity": 0.8818897637795275
        },
        {
          "duration": 0.4945641458333512,
          "durationTicks": 455,
          "midi": 54,
          "name": "F#3",
          "ticks": 150240,
          "time": 163.30399400000002,
          "velocity": 0.8818897637795275
        },
        {
          "duration": 0.4945641458333512,
          "durationTicks": 455,
          "midi": 57,
          "name": "A3",
          "ticks": 150240,
          "time": 163.30399400000002,
          "velocity": 0.8818897637795275
        },
        {
          "duration": 0.4945641458333512,
          "durationTicks": 455,
          "midi": 62,
          "name": "D4",
          "ticks": 150240,
          "time": 163.30399400000002,
          "velocity": 0.8818897637795275
        },
        {
          "duration": 0.4945641458333512,
          "durationTicks": 455,
          "midi": 50,
          "name": "D3",
          "ticks": 150720,
          "time": 163.82573200000002,
          "velocity": 0.8818897637795275
        },
        {
          "duration": 0.4945641458333512,
          "durationTicks": 455,
          "midi": 54,
          "name": "F#3",
          "ticks": 150720,
          "time": 163.82573200000002,
          "velocity": 0.8818897637795275
        },
        {
          "duration": 0.4945641458333512,
          "durationTicks": 455,
          "midi": 57,
          "name": "A3",
          "ticks": 150720,
          "time": 163.82573200000002,
          "velocity": 0.8818897637795275
        },
        {
          "duration": 0.4945641458333512,
          "durationTicks": 455,
          "midi": 62,
          "name": "D4",
          "ticks": 150720,
          "time": 163.82573200000002,
          "velocity": 0.8818897637795275
        },
        {
          "duration": 0.4945641458333512,
          "durationTicks": 455,
          "midi": 50,
          "name": "D3",
          "ticks": 151200,
          "time": 164.34747000000002,
          "velocity": 0.8818897637795275
        },
        {
          "duration": 0.4945641458333512,
          "durationTicks": 455,
          "midi": 54,
          "name": "F#3",
          "ticks": 151200,
          "time": 164.34747000000002,
          "velocity": 0.8818897637795275
        },
        {
          "duration": 0.4945641458333512,
          "durationTicks": 455,
          "midi": 57,
          "name": "A3",
          "ticks": 151200,
          "time": 164.34747000000002,
          "velocity": 0.8818897637795275
        },
        {
          "duration": 0.4945641458333512,
          "durationTicks": 455,
          "midi": 62,
          "name": "D4",
          "ticks": 151200,
          "time": 164.34747000000002,
          "velocity": 0.8818897637795275
        },
        {
          "duration": 0.4945641458333512,
          "durationTicks": 455,
          "midi": 50,
          "name": "D3",
          "ticks": 151680,
          "time": 164.86920800000001,
          "velocity": 0.8818897637795275
        },
        {
          "duration": 0.4945641458333512,
          "durationTicks": 455,
          "midi": 54,
          "name": "F#3",
          "ticks": 151680,
          "time": 164.86920800000001,
          "velocity": 0.8818897637795275
        },
        {
          "duration": 0.4945641458333512,
          "durationTicks": 455,
          "midi": 57,
          "name": "A3",
          "ticks": 151680,
          "time": 164.86920800000001,
          "velocity": 0.8818897637795275
        },
        {
          "duration": 0.4945641458333512,
          "durationTicks": 455,
          "midi": 62,
          "name": "D4",
          "ticks": 151680,
          "time": 164.86920800000001,
          "velocity": 0.8818897637795275
        },
        {
          "duration": 0.4945641458333512,
          "durationTicks": 455,
          "midi": 50,
          "name": "D3",
          "ticks": 152160,
          "time": 165.390946,
          "velocity": 0.8818897637795275
        },
        {
          "duration": 0.4945641458333512,
          "durationTicks": 455,
          "midi": 54,
          "name": "F#3",
          "ticks": 152160,
          "time": 165.390946,
          "velocity": 0.8818897637795275
        },
        {
          "duration": 0.4945641458333512,
          "durationTicks": 455,
          "midi": 57,
          "name": "A3",
          "ticks": 152160,
          "time": 165.390946,
          "velocity": 0.8818897637795275
        },
        {
          "duration": 0.4945641458333512,
          "durationTicks": 455,
          "midi": 62,
          "name": "D4",
          "ticks": 152160,
          "time": 165.390946,
          "velocity": 0.8818897637795275
        },
        {
          "duration": 0.12282582083332727,
          "durationTicks": 113,
          "midi": 50,
          "name": "D3",
          "ticks": 152640,
          "time": 165.912684,
          "velocity": 0.8818897637795275
        },
        {
          "duration": 0.12282582083332727,
          "durationTicks": 113,
          "midi": 54,
          "name": "F#3",
          "ticks": 152640,
          "time": 165.912684,
          "velocity": 0.8818897637795275
        },
        {
          "duration": 0.12282582083332727,
          "durationTicks": 113,
          "midi": 57,
          "name": "A3",
          "ticks": 152640,
          "time": 165.912684,
          "velocity": 0.8818897637795275
        },
        {
          "duration": 0.12282582083332727,
          "durationTicks": 113,
          "midi": 62,
          "name": "D4",
          "ticks": 152640,
          "time": 165.912684,
          "velocity": 0.8818897637795275
        },
        {
          "duration": 0.12282582083332727,
          "durationTicks": 113,
          "midi": 50,
          "name": "D3",
          "ticks": 152760,
          "time": 166.04311850000002,
          "velocity": 0.8818897637795275
        },
        {
          "duration": 0.12282582083332727,
          "durationTicks": 113,
          "midi": 54,
          "name": "F#3",
          "ticks": 152760,
          "time": 166.04311850000002,
          "velocity": 0.8818897637795275
        },
        {
          "duration": 0.12282582083332727,
          "durationTicks": 113,
          "midi": 57,
          "name": "A3",
          "ticks": 152760,
          "time": 166.04311850000002,
          "velocity": 0.8818897637795275
        },
        {
          "duration": 0.12282582083332727,
          "durationTicks": 113,
          "midi": 62,
          "name": "D4",
          "ticks": 152760,
          "time": 166.04311850000002,
          "velocity": 0.8818897637795275
        },
        {
          "duration": 0.24673859583333524,
          "durationTicks": 227,
          "midi": 50,
          "name": "D3",
          "ticks": 152880,
          "time": 166.173553,
          "velocity": 0.8818897637795275
        },
        {
          "duration": 0.24673859583333524,
          "durationTicks": 227,
          "midi": 54,
          "name": "F#3",
          "ticks": 152880,
          "time": 166.173553,
          "velocity": 0.8818897637795275
        },
        {
          "duration": 0.24673859583333524,
          "durationTicks": 227,
          "midi": 57,
          "name": "A3",
          "ticks": 152880,
          "time": 166.173553,
          "velocity": 0.8818897637795275
        },
        {
          "duration": 0.24673859583333524,
          "durationTicks": 227,
          "midi": 62,
          "name": "D4",
          "ticks": 152880,
          "time": 166.173553,
          "velocity": 0.8818897637795275
        },
        {
          "duration": 0.24673859583333524,
          "durationTicks": 227,
          "midi": 50,
          "name": "D3",
          "ticks": 153120,
          "time": 166.434422,
          "velocity": 0.8818897637795275
        },
        {
          "duration": 0.24673859583333524,
          "durationTicks": 227,
          "midi": 54,
          "name": "F#3",
          "ticks": 153120,
          "time": 166.434422,
          "velocity": 0.8818897637795275
        },
        {
          "duration": 0.24673859583333524,
          "durationTicks": 227,
          "midi": 57,
          "name": "A3",
          "ticks": 153120,
          "time": 166.434422,
          "velocity": 0.8818897637795275
        },
        {
          "duration": 0.24673859583333524,
          "durationTicks": 227,
          "midi": 62,
          "name": "D4",
          "ticks": 153120,
          "time": 166.434422,
          "velocity": 0.8818897637795275
        },
        {
          "duration": 0.24673859583333524,
          "durationTicks": 227,
          "midi": 47,
          "name": "B2",
          "ticks": 153360,
          "time": 166.695291,
          "velocity": 0.8818897637795275
        },
        {
          "duration": 0.24673859583333524,
          "durationTicks": 227,
          "midi": 50,
          "name": "D3",
          "ticks": 153360,
          "time": 166.695291,
          "velocity": 0.8818897637795275
        },
        {
          "duration": 0.24673859583333524,
          "durationTicks": 227,
          "midi": 54,
          "name": "F#3",
          "ticks": 153360,
          "time": 166.695291,
          "velocity": 0.8818897637795275
        },
        {
          "duration": 0.24673859583333524,
          "durationTicks": 227,
          "midi": 59,
          "name": "B3",
          "ticks": 153360,
          "time": 166.695291,
          "velocity": 0.8818897637795275
        },
        {
          "duration": 2.97281964583334,
          "durationTicks": 2735,
          "midi": 47,
          "name": "B2",
          "ticks": 153600,
          "time": 166.95616,
          "velocity": 0.6299212598425197
        },
        {
          "duration": 2.97281964583334,
          "durationTicks": 2735,
          "midi": 50,
          "name": "D3",
          "ticks": 153600,
          "time": 166.95616,
          "velocity": 0.6299212598425197
        },
        {
          "duration": 2.97281964583334,
          "durationTicks": 2735,
          "midi": 54,
          "name": "F#3",
          "ticks": 153600,
          "time": 166.95616,
          "velocity": 0.6299212598425197
        },
        {
          "duration": 0.9902152458333546,
          "durationTicks": 911,
          "midi": 50,
          "name": "D3",
          "ticks": 156480,
          "time": 170.086588,
          "velocity": 0.5669291338582677
        },
        {
          "duration": 0.9902152458333546,
          "durationTicks": 911,
          "midi": 62,
          "name": "D4",
          "ticks": 156480,
          "time": 170.086588,
          "velocity": 0.5669291338582677
        },
        {
          "duration": 2.97281964583334,
          "durationTicks": 2735,
          "midi": 47,
          "name": "B2",
          "ticks": 157440,
          "time": 171.130064,
          "velocity": 0.5433070866141733
        },
        {
          "duration": 2.97281964583334,
          "durationTicks": 2735,
          "midi": 50,
          "name": "D3",
          "ticks": 157440,
          "time": 171.130064,
          "velocity": 0.5433070866141733
        },
        {
          "duration": 2.97281964583334,
          "durationTicks": 2735,
          "midi": 54,
          "name": "F#3",
          "ticks": 157440,
          "time": 171.130064,
          "velocity": 0.5433070866141733
        },
        {
          "duration": 0.9902152458333546,
          "durationTicks": 911,
          "midi": 38,
          "name": "D2",
          "ticks": 160320,
          "time": 174.260492,
          "velocity": 0.47244094488188976
        },
        {
          "duration": 0.9902152458333546,
          "durationTicks": 911,
          "midi": 50,
          "name": "D3",
          "ticks": 160320,
          "time": 174.260492,
          "velocity": 0.47244094488188976
        },
        {
          "duration": 2.9728196458333684,
          "durationTicks": 2735,
          "midi": 47,
          "name": "B2",
          "ticks": 161280,
          "time": 175.303968,
          "velocity": 0.44881889763779526
        },
        {
          "duration": 2.9728196458333684,
          "durationTicks": 2735,
          "midi": 50,
          "name": "D3",
          "ticks": 161280,
          "time": 175.303968,
          "velocity": 0.44881889763779526
        },
        {
          "duration": 2.9728196458333684,
          "durationTicks": 2735,
          "midi": 54,
          "name": "F#3",
          "ticks": 161280,
          "time": 175.303968,
          "velocity": 0.44881889763779526
        },
        {
          "duration": 0.9902152458333262,
          "durationTicks": 911,
          "midi": 50,
          "name": "D3",
          "ticks": 164160,
          "time": 178.43439600000002,
          "velocity": 0.3779527559055118
        },
        {
          "duration": 0.9902152458333262,
          "durationTicks": 911,
          "midi": 62,
          "name": "D4",
          "ticks": 164160,
          "time": 178.43439600000002,
          "velocity": 0.3779527559055118
        },
        {
          "duration": 3.9641218458333185,
          "durationTicks": 3647,
          "midi": 47,
          "name": "B2",
          "ticks": 165120,
          "time": 179.47787200000002,
          "velocity": 0.3543307086614173
        },
        {
          "duration": 3.9641218458333185,
          "durationTicks": 3647,
          "midi": 50,
          "name": "D3",
          "ticks": 165120,
          "time": 179.47787200000002,
          "velocity": 0.3543307086614173
        },
        {
          "duration": 3.9641218458333185,
          "durationTicks": 3647,
          "midi": 54,
          "name": "F#3",
          "ticks": 165120,
          "time": 179.47787200000002,
          "velocity": 0.3543307086614173
        },
        {
          "duration": 1.9815174458333331,
          "durationTicks": 1823,
          "midi": 47,
          "name": "B2",
          "ticks": 168960,
          "time": 183.651776,
          "velocity": 0.25984251968503935
        }
      ],
      "endOfTrackTicks": 170784
    }
  ]
}